G75*
G70*
%OFA0B0*%
%FSLAX24Y24*%
%IPPOS*%
%LPD*%
%AMOC8*
5,1,8,0,0,1.08239X$1,22.5*
%
%ADD10OC8,0.0660*%
%ADD11C,0.1700*%
%ADD12R,0.0800X0.0800*%
%ADD13C,0.0800*%
%ADD14C,0.0740*%
%ADD15C,0.0700*%
%ADD16R,0.0700X0.0700*%
%ADD17C,0.0860*%
%ADD18OC8,0.0860*%
%ADD19C,0.0100*%
%ADD20C,0.0436*%
%ADD21C,0.0318*%
%ADD22C,0.0120*%
%ADD23C,0.0397*%
%ADD24C,0.0240*%
%ADD25C,0.0320*%
%ADD26C,0.0160*%
%ADD27C,0.0400*%
D10*
X015802Y002280D03*
X016802Y002280D03*
X017802Y002280D03*
X018802Y002280D03*
X019802Y002280D03*
X020802Y002280D03*
X022802Y002280D03*
X023802Y002280D03*
X024802Y002280D03*
X025802Y002280D03*
X026802Y002280D03*
X027802Y002280D03*
X027802Y021280D03*
X026802Y021280D03*
X025802Y021280D03*
X024802Y021280D03*
X023802Y021280D03*
X022802Y021280D03*
X021802Y021280D03*
X020802Y021280D03*
X019202Y021280D03*
X018202Y021280D03*
X017202Y021280D03*
X016202Y021280D03*
X015202Y021280D03*
X014202Y021280D03*
X013202Y021280D03*
X012202Y021280D03*
D11*
X007387Y004530D03*
X006205Y002680D03*
X005024Y004530D03*
D12*
X026005Y012569D03*
D13*
X026005Y011191D03*
X026005Y009813D03*
X026005Y008436D03*
D14*
X026424Y006792D03*
X024849Y006772D03*
X024802Y003780D03*
X023802Y003780D03*
X022802Y003780D03*
X025802Y003780D03*
X026802Y003780D03*
X027802Y003780D03*
X015499Y006792D03*
X015499Y009154D03*
X009849Y005591D03*
X004546Y008422D03*
X003546Y008422D03*
X010883Y014300D03*
X010883Y015300D03*
X010883Y016300D03*
X010883Y017300D03*
X010883Y018300D03*
X015499Y018642D03*
X017174Y019780D03*
X018174Y019780D03*
X019174Y019780D03*
X020802Y019780D03*
X021802Y019780D03*
X022802Y019780D03*
X023802Y019780D03*
X024802Y019780D03*
X025802Y019780D03*
X026424Y014272D03*
X024849Y014272D03*
X015499Y016241D03*
D15*
X025046Y011032D03*
X025046Y010032D03*
X025046Y009032D03*
D16*
X025046Y012032D03*
D17*
X011894Y008760D03*
X007544Y008760D03*
D18*
X008919Y008760D03*
X013269Y008760D03*
D19*
X002952Y010930D02*
X002952Y001430D01*
X007492Y001430D01*
X007413Y001509D01*
X007241Y001808D01*
X007151Y002141D01*
X007151Y002356D01*
X007131Y002296D01*
X007082Y002195D01*
X007022Y002100D01*
X006952Y002012D01*
X006873Y001933D01*
X006785Y001863D01*
X006690Y001803D01*
X006589Y001754D01*
X006483Y001717D01*
X006373Y001692D01*
X006262Y001680D01*
X006255Y001680D01*
X006255Y002629D01*
X006155Y002629D01*
X006155Y001680D01*
X006149Y001680D01*
X006038Y001692D01*
X005928Y001717D01*
X005822Y001754D01*
X005721Y001803D01*
X005626Y001863D01*
X005538Y001933D01*
X005459Y002012D01*
X005389Y002100D01*
X005329Y002195D01*
X005280Y002296D01*
X005243Y002402D01*
X005218Y002512D01*
X005205Y002623D01*
X005205Y002630D01*
X006155Y002630D01*
X006155Y002730D01*
X006155Y003680D01*
X006149Y003680D01*
X006038Y003667D01*
X005928Y003642D01*
X005822Y003605D01*
X005721Y003556D01*
X005626Y003496D01*
X005538Y003426D01*
X005459Y003347D01*
X005389Y003259D01*
X005329Y003164D01*
X005280Y003063D01*
X005243Y002957D01*
X005218Y002847D01*
X005205Y002736D01*
X005205Y002730D01*
X006155Y002730D01*
X006255Y002730D01*
X006255Y003680D01*
X006262Y003680D01*
X006373Y003667D01*
X006483Y003642D01*
X006589Y003605D01*
X006690Y003556D01*
X006785Y003496D01*
X006873Y003426D01*
X006952Y003347D01*
X007022Y003259D01*
X007082Y003164D01*
X007131Y003063D01*
X007168Y002957D01*
X007193Y002847D01*
X007205Y002736D01*
X007205Y002730D01*
X006256Y002730D01*
X006256Y002630D01*
X007190Y002630D01*
X007241Y002819D01*
X007413Y003118D01*
X007657Y003362D01*
X007956Y003534D01*
X008289Y003623D01*
X008634Y003623D01*
X008967Y003534D01*
X009266Y003362D01*
X009509Y003118D01*
X009682Y002819D01*
X009771Y002486D01*
X009771Y002141D01*
X009682Y001808D01*
X009509Y001509D01*
X009430Y001430D01*
X028652Y001430D01*
X028652Y002218D01*
X028652Y002342D01*
X029652Y003342D01*
X029652Y007186D01*
X026708Y007186D01*
X026830Y007063D01*
X026903Y006887D01*
X026903Y006696D01*
X026830Y006520D01*
X026695Y006386D01*
X026519Y006313D01*
X026329Y006313D01*
X026153Y006386D01*
X026018Y006520D01*
X025945Y006696D01*
X025945Y006887D01*
X026018Y007063D01*
X026140Y007186D01*
X025118Y007186D01*
X025118Y007179D01*
X025120Y007178D01*
X025255Y007043D01*
X025328Y006867D01*
X025328Y006677D01*
X025255Y006501D01*
X025120Y006366D01*
X024944Y006293D01*
X024754Y006293D01*
X024578Y006366D01*
X024443Y006501D01*
X024370Y006677D01*
X024370Y006867D01*
X024443Y007043D01*
X024578Y007178D01*
X024580Y007179D01*
X024580Y007186D01*
X018741Y007186D01*
X018741Y006888D01*
X018694Y006774D01*
X018607Y006687D01*
X018493Y006640D01*
X018370Y006640D01*
X018266Y006683D01*
X018266Y006666D01*
X018266Y006608D01*
X018266Y006608D01*
X018266Y006596D01*
X018258Y006588D01*
X018230Y006520D01*
X018230Y006508D01*
X018218Y006496D01*
X018180Y006458D01*
X018180Y006458D01*
X018134Y006413D01*
X017912Y006190D01*
X017813Y006091D01*
X016959Y006091D01*
X016889Y006091D01*
X016865Y006091D01*
X016831Y006091D01*
X016819Y006091D01*
X016811Y006099D01*
X016742Y006128D01*
X016731Y006128D01*
X016718Y006141D01*
X016681Y006177D01*
X016681Y006177D01*
X016635Y006223D01*
X016017Y006842D01*
X015549Y006842D01*
X015549Y006742D01*
X016017Y006742D01*
X016006Y006670D01*
X015981Y006592D01*
X015943Y006519D01*
X015895Y006453D01*
X015837Y006395D01*
X015771Y006347D01*
X015698Y006310D01*
X015621Y006285D01*
X015549Y006273D01*
X015549Y006742D01*
X015449Y006742D01*
X015449Y006273D01*
X015377Y006285D01*
X015299Y006310D01*
X015226Y006347D01*
X015160Y006395D01*
X015102Y006453D01*
X015054Y006519D01*
X015017Y006592D01*
X014992Y006670D01*
X014980Y006742D01*
X015449Y006742D01*
X015449Y006842D01*
X015449Y007310D01*
X015377Y007299D01*
X015299Y007274D01*
X015226Y007237D01*
X015160Y007188D01*
X015102Y007131D01*
X015054Y007064D01*
X015017Y006991D01*
X014992Y006914D01*
X014980Y006842D01*
X015449Y006842D01*
X015549Y006842D01*
X015549Y007310D01*
X015547Y007312D01*
X015531Y007312D01*
X015472Y007312D01*
X015461Y007312D01*
X015453Y007320D01*
X015384Y007348D01*
X015372Y007348D01*
X015358Y007363D01*
X015323Y007398D01*
X015311Y007410D01*
X015229Y007410D01*
X015130Y007450D01*
X015055Y007526D01*
X015014Y007624D01*
X015014Y007731D01*
X015055Y007829D01*
X015130Y007905D01*
X015200Y007934D01*
X015188Y007946D01*
X015154Y007980D01*
X015154Y007980D01*
X015109Y008025D01*
X014484Y008650D01*
X014385Y008749D01*
X014385Y009830D01*
X014327Y009888D01*
X014286Y009986D01*
X014286Y010093D01*
X014327Y010192D01*
X014402Y010267D01*
X014501Y010308D01*
X014607Y010308D01*
X014706Y010267D01*
X014781Y010192D01*
X014822Y010093D01*
X014822Y009986D01*
X014781Y009888D01*
X014723Y009830D01*
X014723Y008889D01*
X015348Y008264D01*
X015372Y008240D01*
X015411Y008240D01*
X015510Y008141D01*
X015510Y008141D01*
X015867Y007784D01*
X015916Y007735D01*
X015916Y007735D01*
X015955Y007696D01*
X015966Y007686D01*
X015966Y007674D01*
X015994Y007606D01*
X016002Y007597D01*
X016002Y007590D01*
X016930Y006663D01*
X016930Y006663D01*
X016966Y006626D01*
X017018Y006626D01*
X017594Y006626D01*
X017699Y006731D01*
X017731Y006763D01*
X017731Y006815D01*
X017731Y010149D01*
X014799Y010149D01*
X014822Y010050D02*
X017731Y010050D01*
X017731Y009952D02*
X014808Y009952D01*
X014746Y009853D02*
X017731Y009853D01*
X017731Y009755D02*
X014723Y009755D01*
X014723Y009656D02*
X017731Y009656D01*
X017731Y009558D02*
X015773Y009558D01*
X015770Y009560D02*
X015594Y009633D01*
X015403Y009633D01*
X015227Y009560D01*
X015093Y009425D01*
X015020Y009249D01*
X015020Y009059D01*
X015093Y008883D01*
X015227Y008748D01*
X015403Y008675D01*
X015594Y008675D01*
X015770Y008748D01*
X015905Y008883D01*
X015978Y009059D01*
X015978Y009249D01*
X015905Y009425D01*
X015770Y009560D01*
X015871Y009459D02*
X017731Y009459D01*
X017731Y009361D02*
X015932Y009361D01*
X015973Y009262D02*
X017731Y009262D01*
X017731Y009163D02*
X015978Y009163D01*
X015978Y009065D02*
X017731Y009065D01*
X017731Y008966D02*
X015939Y008966D01*
X015890Y008868D02*
X017731Y008868D01*
X017731Y008769D02*
X015791Y008769D01*
X015206Y008769D02*
X014843Y008769D01*
X014941Y008671D02*
X017731Y008671D01*
X017731Y008572D02*
X015040Y008572D01*
X015139Y008474D02*
X017731Y008474D01*
X017731Y008375D02*
X015237Y008375D01*
X015336Y008277D02*
X017731Y008277D01*
X017731Y008178D02*
X015474Y008178D01*
X015572Y008079D02*
X017731Y008079D01*
X017731Y007981D02*
X015671Y007981D01*
X015769Y007882D02*
X017731Y007882D01*
X017731Y007784D02*
X015868Y007784D01*
X015966Y007685D02*
X017731Y007685D01*
X017731Y007587D02*
X016006Y007587D01*
X016104Y007488D02*
X017731Y007488D01*
X017731Y007390D02*
X016203Y007390D01*
X016301Y007291D02*
X017731Y007291D01*
X017731Y007193D02*
X016400Y007193D01*
X016498Y007094D02*
X017731Y007094D01*
X017731Y006996D02*
X016597Y006996D01*
X016696Y006897D02*
X017731Y006897D01*
X017731Y006798D02*
X016794Y006798D01*
X016893Y006700D02*
X017668Y006700D01*
X018027Y006306D02*
X024723Y006306D01*
X024539Y006404D02*
X018126Y006404D01*
X018224Y006503D02*
X024442Y006503D01*
X024401Y006601D02*
X018266Y006601D01*
X018619Y006700D02*
X024370Y006700D01*
X024370Y006798D02*
X018704Y006798D01*
X018741Y006897D02*
X024382Y006897D01*
X024423Y006996D02*
X018741Y006996D01*
X018741Y007094D02*
X024494Y007094D01*
X025159Y006404D02*
X026134Y006404D01*
X026035Y006503D02*
X025256Y006503D01*
X025297Y006601D02*
X025984Y006601D01*
X025945Y006700D02*
X025328Y006700D01*
X025328Y006798D02*
X025945Y006798D01*
X025949Y006897D02*
X025316Y006897D01*
X025275Y006996D02*
X025990Y006996D01*
X026049Y007094D02*
X025205Y007094D01*
X024975Y006306D02*
X029652Y006306D01*
X029652Y006404D02*
X026714Y006404D01*
X026812Y006503D02*
X029652Y006503D01*
X029652Y006601D02*
X026864Y006601D01*
X026903Y006700D02*
X029652Y006700D01*
X029652Y006798D02*
X026903Y006798D01*
X026899Y006897D02*
X029652Y006897D01*
X029652Y006996D02*
X026858Y006996D01*
X026799Y007094D02*
X029652Y007094D01*
X029652Y007382D02*
X018741Y007382D01*
X018741Y009740D01*
X019245Y010174D01*
X021577Y010174D01*
X021597Y010165D01*
X021704Y010165D01*
X021724Y010174D01*
X021761Y010174D01*
X021875Y010221D01*
X021961Y010308D01*
X021973Y010335D01*
X024648Y010335D01*
X024618Y010294D01*
X024583Y010224D01*
X024558Y010149D01*
X019216Y010149D01*
X019102Y010050D02*
X024996Y010050D01*
X024996Y010082D02*
X024996Y009982D01*
X024548Y009982D01*
X024558Y009915D01*
X024583Y009840D01*
X024618Y009770D01*
X024665Y009706D01*
X024720Y009651D01*
X024784Y009604D01*
X024854Y009569D01*
X024929Y009544D01*
X024996Y009534D01*
X024996Y009982D01*
X025096Y009982D01*
X025096Y009534D01*
X025163Y009544D01*
X025238Y009569D01*
X025308Y009604D01*
X025372Y009651D01*
X025427Y009706D01*
X025458Y009749D01*
X025468Y009685D01*
X025495Y009602D01*
X025534Y009525D01*
X025585Y009455D01*
X025646Y009394D01*
X025716Y009343D01*
X025794Y009304D01*
X025876Y009277D01*
X025955Y009264D01*
X025955Y009763D01*
X026055Y009763D01*
X026055Y009863D01*
X026554Y009863D01*
X026541Y009942D01*
X026514Y010025D01*
X026475Y010102D01*
X026424Y010172D01*
X026363Y010233D01*
X026293Y010284D01*
X026216Y010323D01*
X026179Y010335D01*
X029652Y010335D01*
X029652Y007382D01*
X029652Y007390D02*
X018741Y007390D01*
X018741Y007488D02*
X029652Y007488D01*
X029652Y007587D02*
X018741Y007587D01*
X018741Y007685D02*
X029652Y007685D01*
X029652Y007784D02*
X018741Y007784D01*
X018741Y007882D02*
X029652Y007882D01*
X029652Y007981D02*
X026237Y007981D01*
X026293Y008004D02*
X026436Y008147D01*
X026514Y008334D01*
X026514Y008537D01*
X026436Y008724D01*
X026293Y008867D01*
X026106Y008945D01*
X025903Y008945D01*
X025716Y008867D01*
X025573Y008724D01*
X025496Y008537D01*
X025496Y008334D01*
X025573Y008147D01*
X025716Y008004D01*
X025903Y007926D01*
X026106Y007926D01*
X026293Y008004D01*
X026369Y008079D02*
X029652Y008079D01*
X029652Y008178D02*
X026449Y008178D01*
X026490Y008277D02*
X029652Y008277D01*
X029652Y008375D02*
X026514Y008375D01*
X026514Y008474D02*
X029652Y008474D01*
X029652Y008572D02*
X026499Y008572D01*
X026458Y008671D02*
X029652Y008671D01*
X029652Y008769D02*
X026391Y008769D01*
X026291Y008868D02*
X029652Y008868D01*
X029652Y008966D02*
X025505Y008966D01*
X025505Y008941D02*
X025435Y008772D01*
X025306Y008643D01*
X025137Y008573D01*
X024955Y008573D01*
X024786Y008643D01*
X024657Y008772D01*
X024587Y008941D01*
X024587Y009123D01*
X024657Y009292D01*
X024786Y009421D01*
X024955Y009491D01*
X025137Y009491D01*
X025306Y009421D01*
X025435Y009292D01*
X025505Y009123D01*
X025505Y008941D01*
X025475Y008868D02*
X025718Y008868D01*
X025619Y008769D02*
X025432Y008769D01*
X025334Y008671D02*
X025551Y008671D01*
X025510Y008572D02*
X018741Y008572D01*
X018741Y008474D02*
X025496Y008474D01*
X025496Y008375D02*
X018741Y008375D01*
X018741Y008277D02*
X025519Y008277D01*
X025560Y008178D02*
X018741Y008178D01*
X018741Y008079D02*
X025641Y008079D01*
X025772Y007981D02*
X018741Y007981D01*
X018741Y008671D02*
X024758Y008671D01*
X024659Y008769D02*
X018741Y008769D01*
X018741Y008868D02*
X024617Y008868D01*
X024587Y008966D02*
X018741Y008966D01*
X018741Y009065D02*
X024587Y009065D01*
X024604Y009163D02*
X018741Y009163D01*
X018741Y009262D02*
X024644Y009262D01*
X024725Y009361D02*
X018741Y009361D01*
X018741Y009459D02*
X024878Y009459D01*
X024888Y009558D02*
X018741Y009558D01*
X018741Y009656D02*
X024715Y009656D01*
X024629Y009755D02*
X018757Y009755D01*
X018872Y009853D02*
X024578Y009853D01*
X024552Y009952D02*
X018987Y009952D01*
X018224Y010642D02*
X005196Y010642D01*
X005196Y010664D02*
X005155Y010763D01*
X005080Y010838D01*
X004981Y010879D01*
X004875Y010879D01*
X004776Y010838D01*
X004738Y010800D01*
X003616Y010800D01*
X003176Y011240D01*
X003176Y012764D01*
X005230Y012764D01*
X005288Y012706D01*
X005386Y012665D01*
X005462Y012665D01*
X005409Y012613D01*
X005368Y012514D01*
X003176Y012514D01*
X003176Y012612D02*
X005409Y012612D01*
X005368Y012514D02*
X005368Y012408D01*
X005409Y012309D01*
X005419Y012300D01*
X005406Y012295D01*
X005331Y012219D01*
X005290Y012121D01*
X005290Y012014D01*
X005331Y011916D01*
X005406Y011840D01*
X005504Y011799D01*
X005611Y011799D01*
X005710Y011840D01*
X005785Y011916D01*
X005826Y012014D01*
X005826Y012018D01*
X006179Y012371D01*
X006278Y012470D01*
X006278Y013139D01*
X006278Y013279D01*
X005119Y014438D01*
X005155Y014475D01*
X005196Y014573D01*
X005196Y014680D01*
X005155Y014778D01*
X005080Y014854D01*
X004981Y014895D01*
X004875Y014895D01*
X004776Y014854D01*
X004701Y014778D01*
X004660Y014680D01*
X004660Y014573D01*
X004701Y014475D01*
X004759Y014416D01*
X004759Y014320D01*
X004858Y014221D01*
X005504Y013575D01*
X004744Y013575D01*
X004686Y013633D01*
X004587Y013674D01*
X004481Y013674D01*
X004382Y013633D01*
X004307Y013558D01*
X004266Y013459D01*
X004266Y013353D01*
X004307Y013254D01*
X004382Y013179D01*
X004481Y013138D01*
X004587Y013138D01*
X004686Y013179D01*
X004744Y013237D01*
X005566Y013237D01*
X005743Y013060D01*
X005743Y012807D01*
X005666Y012729D01*
X005614Y012729D01*
X005667Y012782D01*
X005708Y012880D01*
X005708Y012987D01*
X005667Y013085D01*
X005592Y013161D01*
X005493Y013202D01*
X005386Y013202D01*
X005288Y013161D01*
X005230Y013103D01*
X003176Y013103D01*
X003176Y014694D01*
X003615Y014694D01*
X003674Y014635D01*
X003772Y014595D01*
X003879Y014595D01*
X003977Y014635D01*
X004053Y014711D01*
X004094Y014809D01*
X004094Y014916D01*
X004053Y015015D01*
X003977Y015090D01*
X003879Y015131D01*
X003772Y015131D01*
X003674Y015090D01*
X003615Y015032D01*
X003176Y015032D01*
X003176Y017056D01*
X003615Y017056D01*
X003674Y016998D01*
X003772Y016957D01*
X003879Y016957D01*
X003977Y016998D01*
X004053Y017073D01*
X004094Y017172D01*
X004094Y017278D01*
X004053Y017377D01*
X003977Y017452D01*
X003879Y017493D01*
X003772Y017493D01*
X003674Y017452D01*
X003615Y017394D01*
X003176Y017394D01*
X003176Y018913D01*
X003493Y019303D01*
X003746Y019555D01*
X003800Y019555D01*
X003899Y019596D01*
X003974Y019671D01*
X004015Y019770D01*
X004015Y019877D01*
X003974Y019975D01*
X003899Y020051D01*
X003800Y020091D01*
X003693Y020091D01*
X003595Y020051D01*
X003519Y019975D01*
X003479Y019877D01*
X003479Y019823D01*
X003267Y019611D01*
X003256Y019610D01*
X003213Y019557D01*
X003164Y019508D01*
X003164Y019497D01*
X002952Y019237D01*
X002952Y022130D01*
X007609Y022130D01*
X007588Y022109D01*
X007383Y021707D01*
X007383Y021707D01*
X007312Y021260D01*
X007383Y020814D01*
X007588Y020411D01*
X007908Y020092D01*
X008310Y019887D01*
X008757Y019816D01*
X009203Y019887D01*
X009605Y020092D01*
X009605Y020092D01*
X009925Y020411D01*
X009925Y020411D01*
X010130Y020814D01*
X010201Y021260D01*
X010201Y021260D01*
X010130Y021707D01*
X009925Y022109D01*
X009904Y022130D01*
X028140Y022130D01*
X028652Y021618D01*
X028652Y018357D01*
X018629Y018357D01*
X018629Y014715D01*
X018705Y014715D01*
X018529Y014539D01*
X018529Y014463D01*
X018483Y014417D01*
X018483Y018166D01*
X018483Y018220D01*
X018483Y018236D01*
X018483Y018248D01*
X018483Y018295D01*
X018483Y018306D01*
X018475Y018314D01*
X018446Y018383D01*
X018446Y018394D01*
X018435Y018406D01*
X018424Y018417D01*
X018424Y018481D01*
X018424Y018508D01*
X018424Y018609D01*
X018424Y018621D01*
X018415Y018629D01*
X018387Y018698D01*
X018387Y018709D01*
X018375Y018722D01*
X018338Y018759D01*
X018289Y018808D01*
X017892Y019204D01*
X017793Y019303D01*
X017275Y019303D01*
X017445Y019374D01*
X017580Y019509D01*
X017653Y019685D01*
X017653Y019875D01*
X017580Y020051D01*
X017445Y020186D01*
X017269Y020259D01*
X017079Y020259D01*
X016903Y020186D01*
X016768Y020051D01*
X016695Y019875D01*
X016695Y019685D01*
X016768Y019509D01*
X016903Y019374D01*
X017073Y019303D01*
X014420Y019303D01*
X014402Y019303D01*
X014291Y019303D01*
X014280Y019303D01*
X014272Y019295D01*
X014203Y019267D01*
X014191Y019267D01*
X014178Y019253D01*
X014169Y019245D01*
X014087Y019245D01*
X013989Y019204D01*
X013913Y019129D01*
X013872Y019030D01*
X013872Y018924D01*
X013913Y018825D01*
X013989Y018750D01*
X014087Y018709D01*
X014194Y018709D01*
X014292Y018750D01*
X014368Y018825D01*
X014409Y018924D01*
X014409Y018965D01*
X014420Y018965D01*
X015091Y018965D01*
X015054Y018915D01*
X015017Y018842D01*
X014992Y018764D01*
X014980Y018692D01*
X015449Y018692D01*
X015449Y018592D01*
X015549Y018592D01*
X015549Y018692D01*
X016017Y018692D01*
X016006Y018764D01*
X015981Y018842D01*
X015943Y018915D01*
X015907Y018965D01*
X017653Y018965D01*
X018050Y018569D01*
X018086Y018533D01*
X018086Y018507D01*
X018086Y018481D01*
X018086Y018277D01*
X018110Y018253D01*
X018145Y018218D01*
X018145Y018166D01*
X018145Y014163D01*
X018244Y014064D01*
X018935Y013373D01*
X018935Y013373D01*
X018984Y013323D01*
X018984Y013323D01*
X019023Y013284D01*
X019034Y013274D01*
X019045Y013274D01*
X019114Y013245D01*
X019122Y013237D01*
X019348Y013237D01*
X019088Y013004D01*
X018467Y013004D01*
X018267Y013191D01*
X018246Y013243D01*
X018170Y013318D01*
X018072Y013359D01*
X017965Y013359D01*
X017867Y013318D01*
X017791Y013243D01*
X017750Y013144D01*
X017750Y013038D01*
X017791Y012939D01*
X017867Y012864D01*
X017965Y012823D01*
X018072Y012823D01*
X018096Y012833D01*
X018261Y012679D01*
X018314Y012626D01*
X018318Y012626D01*
X018321Y012624D01*
X018396Y012626D01*
X018464Y012626D01*
X018429Y012544D01*
X018429Y012527D01*
X018403Y012511D01*
X018397Y012488D01*
X018381Y012472D01*
X018381Y012423D01*
X018369Y012375D01*
X018381Y012355D01*
X018381Y010851D01*
X018381Y010799D01*
X018348Y010766D01*
X017830Y010248D01*
X017731Y010149D01*
X017829Y010247D02*
X014725Y010247D01*
X014382Y010247D02*
X002952Y010247D01*
X002952Y010149D02*
X014309Y010149D01*
X014286Y010050D02*
X002952Y010050D01*
X002952Y009952D02*
X014300Y009952D01*
X014361Y009853D02*
X002952Y009853D01*
X002952Y009755D02*
X014385Y009755D01*
X014385Y009656D02*
X002952Y009656D01*
X002952Y009558D02*
X014385Y009558D01*
X014385Y009459D02*
X002952Y009459D01*
X002952Y009361D02*
X014385Y009361D01*
X014385Y009262D02*
X013588Y009262D01*
X013510Y009340D02*
X013319Y009340D01*
X013319Y008810D01*
X013219Y008810D01*
X013219Y008710D01*
X012689Y008710D01*
X012689Y008520D01*
X013029Y008180D01*
X013219Y008180D01*
X013219Y008710D01*
X013319Y008710D01*
X013319Y008180D01*
X013510Y008180D01*
X013849Y008520D01*
X013849Y008710D01*
X013320Y008710D01*
X013320Y008810D01*
X013849Y008810D01*
X013849Y009001D01*
X013510Y009340D01*
X013319Y009262D02*
X013219Y009262D01*
X013219Y009340D02*
X013029Y009340D01*
X012689Y009001D01*
X012689Y008810D01*
X013219Y008810D01*
X013219Y009340D01*
X013219Y009163D02*
X013319Y009163D01*
X013319Y009065D02*
X013219Y009065D01*
X013219Y008966D02*
X013319Y008966D01*
X013319Y008868D02*
X013219Y008868D01*
X013219Y008769D02*
X012433Y008769D01*
X012433Y008671D02*
X012689Y008671D01*
X012689Y008572D02*
X012400Y008572D01*
X012433Y008653D02*
X012351Y008455D01*
X012200Y008303D01*
X012002Y008221D01*
X011787Y008221D01*
X011589Y008303D01*
X011437Y008455D01*
X011355Y008653D01*
X011355Y008868D01*
X011356Y008868D02*
X009499Y008868D01*
X009499Y008810D02*
X009499Y009001D01*
X009159Y009340D01*
X008969Y009340D01*
X008969Y008810D01*
X009499Y008810D01*
X009499Y008710D02*
X008969Y008710D01*
X008969Y008180D01*
X009159Y008180D01*
X009499Y008520D01*
X009499Y008710D01*
X009499Y008671D02*
X011355Y008671D01*
X011355Y008769D02*
X008969Y008769D01*
X008969Y008810D02*
X008969Y008710D01*
X008869Y008710D01*
X008869Y008180D01*
X008679Y008180D01*
X008339Y008520D01*
X008339Y008710D01*
X008869Y008710D01*
X008869Y008810D01*
X008339Y008810D01*
X008339Y009001D01*
X008679Y009340D01*
X008869Y009340D01*
X008869Y008810D01*
X008969Y008810D01*
X008969Y008868D02*
X008869Y008868D01*
X008869Y008966D02*
X008969Y008966D01*
X008969Y009065D02*
X008869Y009065D01*
X008869Y009163D02*
X008969Y009163D01*
X008969Y009262D02*
X008869Y009262D01*
X008601Y009262D02*
X007741Y009262D01*
X007651Y009299D02*
X007849Y009217D01*
X008001Y009066D01*
X008083Y008868D01*
X008339Y008868D01*
X008339Y008966D02*
X008042Y008966D01*
X008083Y008868D02*
X008083Y008653D01*
X008001Y008455D01*
X007849Y008303D01*
X007651Y008221D01*
X007437Y008221D01*
X007239Y008303D01*
X007087Y008455D01*
X007005Y008653D01*
X007005Y008868D01*
X004721Y008868D01*
X004641Y008901D02*
X004451Y008901D01*
X004275Y008828D01*
X004140Y008693D01*
X004067Y008517D01*
X004067Y008326D01*
X004140Y008150D01*
X004275Y008016D01*
X004451Y007943D01*
X004641Y007943D01*
X004817Y008016D01*
X004952Y008150D01*
X005025Y008326D01*
X005025Y008517D01*
X004952Y008693D01*
X004817Y008828D01*
X004641Y008901D01*
X004876Y008769D02*
X007005Y008769D01*
X007005Y008671D02*
X004961Y008671D01*
X005002Y008572D02*
X007038Y008572D01*
X007079Y008474D02*
X005025Y008474D01*
X005025Y008375D02*
X007167Y008375D01*
X007303Y008277D02*
X005004Y008277D01*
X004964Y008178D02*
X014956Y008178D01*
X014858Y008277D02*
X013606Y008277D01*
X013704Y008375D02*
X014759Y008375D01*
X014660Y008474D02*
X013803Y008474D01*
X013849Y008572D02*
X014562Y008572D01*
X014463Y008671D02*
X013849Y008671D01*
X013849Y008868D02*
X014385Y008868D01*
X014385Y008966D02*
X013849Y008966D01*
X013785Y009065D02*
X014385Y009065D01*
X014385Y009163D02*
X013686Y009163D01*
X013320Y008769D02*
X014385Y008769D01*
X014723Y008966D02*
X015058Y008966D01*
X015020Y009065D02*
X014723Y009065D01*
X014723Y009163D02*
X015020Y009163D01*
X015025Y009262D02*
X014723Y009262D01*
X014723Y009361D02*
X015066Y009361D01*
X015126Y009459D02*
X014723Y009459D01*
X014723Y009558D02*
X015225Y009558D01*
X015107Y008868D02*
X014744Y008868D01*
X015055Y008079D02*
X004881Y008079D01*
X004734Y007981D02*
X015153Y007981D01*
X015108Y007882D02*
X002952Y007882D01*
X002952Y007784D02*
X015036Y007784D01*
X015014Y007685D02*
X002952Y007685D01*
X002952Y007587D02*
X015030Y007587D01*
X015092Y007488D02*
X002952Y007488D01*
X002952Y007390D02*
X015331Y007390D01*
X015353Y007291D02*
X002952Y007291D01*
X002952Y007193D02*
X015166Y007193D01*
X015076Y007094D02*
X002952Y007094D01*
X002952Y006996D02*
X015019Y006996D01*
X014989Y006897D02*
X002952Y006897D01*
X002952Y006798D02*
X015449Y006798D01*
X015449Y006700D02*
X015549Y006700D01*
X015549Y006798D02*
X016060Y006798D01*
X016011Y006700D02*
X016159Y006700D01*
X016257Y006601D02*
X015984Y006601D01*
X015931Y006503D02*
X016356Y006503D01*
X016454Y006404D02*
X016246Y006404D01*
X016221Y006429D02*
X016123Y006469D01*
X016016Y006469D01*
X015918Y006429D01*
X015842Y006353D01*
X015801Y006255D01*
X015801Y006148D01*
X015842Y006049D01*
X015901Y005991D01*
X015901Y004657D01*
X015901Y004517D01*
X017633Y002785D01*
X017633Y002719D01*
X017620Y002719D01*
X017363Y002462D01*
X017363Y002098D01*
X017620Y001841D01*
X017984Y001841D01*
X018241Y002098D01*
X018241Y002462D01*
X017984Y002719D01*
X017971Y002719D01*
X017971Y002925D01*
X017872Y003024D01*
X016239Y004657D01*
X016239Y005991D01*
X016297Y006049D01*
X016338Y006148D01*
X016338Y006255D01*
X016297Y006353D01*
X016221Y006429D01*
X016316Y006306D02*
X016553Y006306D01*
X016651Y006207D02*
X016338Y006207D01*
X016321Y006109D02*
X016789Y006109D01*
X016258Y006010D02*
X029652Y006010D01*
X029652Y005912D02*
X016239Y005912D01*
X016239Y005813D02*
X029652Y005813D01*
X029652Y005714D02*
X016239Y005714D01*
X016239Y005616D02*
X029652Y005616D01*
X029652Y005517D02*
X016239Y005517D01*
X016239Y005419D02*
X029652Y005419D01*
X029652Y005320D02*
X016239Y005320D01*
X016239Y005222D02*
X029652Y005222D01*
X029652Y005123D02*
X016239Y005123D01*
X016239Y005025D02*
X029652Y005025D01*
X029652Y004926D02*
X016239Y004926D01*
X016239Y004828D02*
X029652Y004828D01*
X029652Y004729D02*
X016239Y004729D01*
X016265Y004630D02*
X029652Y004630D01*
X029652Y004532D02*
X016364Y004532D01*
X016462Y004433D02*
X029652Y004433D01*
X029652Y004335D02*
X016561Y004335D01*
X016659Y004236D02*
X022652Y004236D01*
X022707Y004259D02*
X022531Y004186D01*
X022396Y004051D01*
X022323Y003875D01*
X022323Y003685D01*
X022396Y003509D01*
X022531Y003374D01*
X022707Y003301D01*
X022897Y003301D01*
X023073Y003374D01*
X023208Y003509D01*
X023281Y003685D01*
X023281Y003875D01*
X023208Y004051D01*
X023073Y004186D01*
X022897Y004259D01*
X022707Y004259D01*
X022952Y004236D02*
X023652Y004236D01*
X023707Y004259D02*
X023531Y004186D01*
X023396Y004051D01*
X023323Y003875D01*
X023323Y003685D01*
X023396Y003509D01*
X023531Y003374D01*
X023707Y003301D01*
X023897Y003301D01*
X024073Y003374D01*
X024208Y003509D01*
X024281Y003685D01*
X024281Y003875D01*
X024208Y004051D01*
X024073Y004186D01*
X023897Y004259D01*
X023707Y004259D01*
X023952Y004236D02*
X024652Y004236D01*
X024707Y004259D02*
X024531Y004186D01*
X024396Y004051D01*
X024323Y003875D01*
X024323Y003685D01*
X024396Y003509D01*
X024531Y003374D01*
X024707Y003301D01*
X024897Y003301D01*
X025073Y003374D01*
X025208Y003509D01*
X025281Y003685D01*
X025281Y003875D01*
X025208Y004051D01*
X025073Y004186D01*
X024897Y004259D01*
X024707Y004259D01*
X024952Y004236D02*
X025652Y004236D01*
X025707Y004259D02*
X025531Y004186D01*
X025396Y004051D01*
X025323Y003875D01*
X025323Y003685D01*
X025396Y003509D01*
X025531Y003374D01*
X025707Y003301D01*
X025897Y003301D01*
X026073Y003374D01*
X026208Y003509D01*
X026281Y003685D01*
X026281Y003875D01*
X026208Y004051D01*
X026073Y004186D01*
X025897Y004259D01*
X025707Y004259D01*
X025952Y004236D02*
X026652Y004236D01*
X026707Y004259D02*
X026531Y004186D01*
X026396Y004051D01*
X026323Y003875D01*
X026323Y003685D01*
X026396Y003509D01*
X026531Y003374D01*
X026707Y003301D01*
X026897Y003301D01*
X027073Y003374D01*
X027208Y003509D01*
X027281Y003685D01*
X027281Y003875D01*
X027208Y004051D01*
X027073Y004186D01*
X026897Y004259D01*
X026707Y004259D01*
X026952Y004236D02*
X027652Y004236D01*
X027707Y004259D02*
X027531Y004186D01*
X027396Y004051D01*
X027323Y003875D01*
X027323Y003685D01*
X027396Y003509D01*
X027531Y003374D01*
X027707Y003301D01*
X027897Y003301D01*
X028073Y003374D01*
X028208Y003509D01*
X028281Y003685D01*
X028281Y003875D01*
X028208Y004051D01*
X028073Y004186D01*
X027897Y004259D01*
X027707Y004259D01*
X027952Y004236D02*
X029652Y004236D01*
X029652Y004138D02*
X028122Y004138D01*
X028213Y004039D02*
X029652Y004039D01*
X029652Y003941D02*
X028254Y003941D01*
X028281Y003842D02*
X029652Y003842D01*
X029652Y003744D02*
X028281Y003744D01*
X028264Y003645D02*
X029652Y003645D01*
X029652Y003546D02*
X028224Y003546D01*
X028147Y003448D02*
X029652Y003448D01*
X029652Y003349D02*
X028014Y003349D01*
X027590Y003349D02*
X027014Y003349D01*
X027147Y003448D02*
X027456Y003448D01*
X027380Y003546D02*
X027224Y003546D01*
X027264Y003645D02*
X027339Y003645D01*
X027323Y003744D02*
X027281Y003744D01*
X027281Y003842D02*
X027323Y003842D01*
X027350Y003941D02*
X027254Y003941D01*
X027213Y004039D02*
X027391Y004039D01*
X027482Y004138D02*
X027122Y004138D01*
X026482Y004138D02*
X026122Y004138D01*
X026213Y004039D02*
X026391Y004039D01*
X026350Y003941D02*
X026254Y003941D01*
X026281Y003842D02*
X026323Y003842D01*
X026323Y003744D02*
X026281Y003744D01*
X026264Y003645D02*
X026339Y003645D01*
X026380Y003546D02*
X026224Y003546D01*
X026147Y003448D02*
X026456Y003448D01*
X026590Y003349D02*
X026014Y003349D01*
X025590Y003349D02*
X025014Y003349D01*
X025147Y003448D02*
X025456Y003448D01*
X025380Y003546D02*
X025224Y003546D01*
X025264Y003645D02*
X025339Y003645D01*
X025323Y003744D02*
X025281Y003744D01*
X025281Y003842D02*
X025323Y003842D01*
X025350Y003941D02*
X025254Y003941D01*
X025213Y004039D02*
X025391Y004039D01*
X025482Y004138D02*
X025122Y004138D01*
X024482Y004138D02*
X024122Y004138D01*
X024213Y004039D02*
X024391Y004039D01*
X024350Y003941D02*
X024254Y003941D01*
X024281Y003842D02*
X024323Y003842D01*
X024323Y003744D02*
X024281Y003744D01*
X024264Y003645D02*
X024339Y003645D01*
X024380Y003546D02*
X024224Y003546D01*
X024147Y003448D02*
X024456Y003448D01*
X024590Y003349D02*
X024014Y003349D01*
X023590Y003349D02*
X023014Y003349D01*
X023147Y003448D02*
X023456Y003448D01*
X023380Y003546D02*
X023224Y003546D01*
X023264Y003645D02*
X023339Y003645D01*
X023323Y003744D02*
X023281Y003744D01*
X023281Y003842D02*
X023323Y003842D01*
X023350Y003941D02*
X023254Y003941D01*
X023213Y004039D02*
X023391Y004039D01*
X023482Y004138D02*
X023122Y004138D01*
X022482Y004138D02*
X016758Y004138D01*
X016856Y004039D02*
X022391Y004039D01*
X022350Y003941D02*
X016955Y003941D01*
X017054Y003842D02*
X022323Y003842D01*
X022323Y003744D02*
X017152Y003744D01*
X017251Y003645D02*
X022339Y003645D01*
X022380Y003546D02*
X017349Y003546D01*
X017448Y003448D02*
X022456Y003448D01*
X022590Y003349D02*
X017546Y003349D01*
X017645Y003251D02*
X029561Y003251D01*
X029462Y003152D02*
X017743Y003152D01*
X017842Y003054D02*
X029364Y003054D01*
X029265Y002955D02*
X017940Y002955D01*
X017971Y002857D02*
X029166Y002857D01*
X029068Y002758D02*
X020002Y002758D01*
X020001Y002760D02*
X019850Y002760D01*
X019850Y002329D01*
X019753Y002329D01*
X019753Y002760D01*
X019603Y002760D01*
X019322Y002479D01*
X019322Y002328D01*
X019753Y002328D01*
X019753Y002231D01*
X019850Y002231D01*
X019850Y001800D01*
X020001Y001800D01*
X020282Y002081D01*
X020282Y002231D01*
X019851Y002231D01*
X019851Y002328D01*
X020282Y002328D01*
X020282Y002479D01*
X020001Y002760D01*
X020101Y002660D02*
X020561Y002660D01*
X020620Y002719D02*
X020363Y002462D01*
X020363Y002098D01*
X020620Y001841D01*
X020984Y001841D01*
X021241Y002098D01*
X021241Y002462D01*
X020984Y002719D01*
X020620Y002719D01*
X020462Y002561D02*
X020200Y002561D01*
X020282Y002463D02*
X020364Y002463D01*
X020363Y002364D02*
X020282Y002364D01*
X020363Y002265D02*
X019851Y002265D01*
X019753Y002265D02*
X018851Y002265D01*
X018851Y002231D02*
X018851Y002328D01*
X019282Y002328D01*
X019282Y002479D01*
X019001Y002760D01*
X018850Y002760D01*
X018850Y002329D01*
X018753Y002329D01*
X018753Y002760D01*
X018603Y002760D01*
X018322Y002479D01*
X018322Y002328D01*
X018753Y002328D01*
X018753Y002231D01*
X018850Y002231D01*
X018850Y001800D01*
X019001Y001800D01*
X019282Y002081D01*
X019282Y002231D01*
X018851Y002231D01*
X018850Y002167D02*
X018753Y002167D01*
X018753Y002231D02*
X018753Y001800D01*
X018603Y001800D01*
X018322Y002081D01*
X018322Y002231D01*
X018753Y002231D01*
X018753Y002265D02*
X018241Y002265D01*
X018241Y002167D02*
X018322Y002167D01*
X018335Y002068D02*
X018211Y002068D01*
X018113Y001970D02*
X018433Y001970D01*
X018532Y001871D02*
X018014Y001871D01*
X017590Y001871D02*
X017014Y001871D01*
X016984Y001841D02*
X017241Y002098D01*
X017241Y002462D01*
X016984Y002719D01*
X016620Y002719D01*
X016363Y002462D01*
X016363Y002098D01*
X016620Y001841D01*
X016984Y001841D01*
X017113Y001970D02*
X017491Y001970D01*
X017393Y002068D02*
X017211Y002068D01*
X017241Y002167D02*
X017363Y002167D01*
X017363Y002265D02*
X017241Y002265D01*
X017241Y002364D02*
X017363Y002364D01*
X017364Y002463D02*
X017240Y002463D01*
X017142Y002561D02*
X017462Y002561D01*
X017561Y002660D02*
X017043Y002660D01*
X017364Y003054D02*
X009546Y003054D01*
X009603Y002955D02*
X017462Y002955D01*
X017561Y002857D02*
X009660Y002857D01*
X009698Y002758D02*
X017633Y002758D01*
X017971Y002758D02*
X018601Y002758D01*
X018503Y002660D02*
X018043Y002660D01*
X018142Y002561D02*
X018404Y002561D01*
X018322Y002463D02*
X018240Y002463D01*
X018241Y002364D02*
X018322Y002364D01*
X018753Y002364D02*
X018850Y002364D01*
X018850Y002463D02*
X018753Y002463D01*
X018753Y002561D02*
X018850Y002561D01*
X018850Y002660D02*
X018753Y002660D01*
X018753Y002758D02*
X018850Y002758D01*
X019002Y002758D02*
X019601Y002758D01*
X019503Y002660D02*
X019101Y002660D01*
X019200Y002561D02*
X019404Y002561D01*
X019322Y002463D02*
X019282Y002463D01*
X019282Y002364D02*
X019322Y002364D01*
X019322Y002231D02*
X019322Y002081D01*
X019603Y001800D01*
X019753Y001800D01*
X019753Y002231D01*
X019322Y002231D01*
X019322Y002167D02*
X019282Y002167D01*
X019269Y002068D02*
X019335Y002068D01*
X019433Y001970D02*
X019170Y001970D01*
X019072Y001871D02*
X019532Y001871D01*
X019753Y001871D02*
X019850Y001871D01*
X019850Y001970D02*
X019753Y001970D01*
X019753Y002068D02*
X019850Y002068D01*
X019850Y002167D02*
X019753Y002167D01*
X019753Y002364D02*
X019850Y002364D01*
X019850Y002463D02*
X019753Y002463D01*
X019753Y002561D02*
X019850Y002561D01*
X019850Y002660D02*
X019753Y002660D01*
X019753Y002758D02*
X019850Y002758D01*
X020282Y002167D02*
X020363Y002167D01*
X020393Y002068D02*
X020269Y002068D01*
X020170Y001970D02*
X020491Y001970D01*
X020590Y001871D02*
X020072Y001871D01*
X021014Y001871D02*
X022590Y001871D01*
X022620Y001841D02*
X022984Y001841D01*
X023241Y002098D01*
X023241Y002462D01*
X022984Y002719D01*
X022620Y002719D01*
X022363Y002462D01*
X022363Y002098D01*
X022620Y001841D01*
X022491Y001970D02*
X021113Y001970D01*
X021211Y002068D02*
X022393Y002068D01*
X022363Y002167D02*
X021241Y002167D01*
X021241Y002265D02*
X022363Y002265D01*
X022363Y002364D02*
X021241Y002364D01*
X021240Y002463D02*
X022364Y002463D01*
X022462Y002561D02*
X021142Y002561D01*
X021043Y002660D02*
X022561Y002660D01*
X023043Y002660D02*
X023561Y002660D01*
X023620Y002719D02*
X023363Y002462D01*
X023363Y002098D01*
X023620Y001841D01*
X023984Y001841D01*
X024241Y002098D01*
X024241Y002462D01*
X023984Y002719D01*
X023620Y002719D01*
X023462Y002561D02*
X023142Y002561D01*
X023240Y002463D02*
X023364Y002463D01*
X023363Y002364D02*
X023241Y002364D01*
X023241Y002265D02*
X023363Y002265D01*
X023363Y002167D02*
X023241Y002167D01*
X023211Y002068D02*
X023393Y002068D01*
X023491Y001970D02*
X023113Y001970D01*
X023014Y001871D02*
X023590Y001871D01*
X024014Y001871D02*
X024590Y001871D01*
X024620Y001841D02*
X024984Y001841D01*
X025241Y002098D01*
X025241Y002462D01*
X024984Y002719D01*
X024620Y002719D01*
X024363Y002462D01*
X024363Y002098D01*
X024620Y001841D01*
X024491Y001970D02*
X024113Y001970D01*
X024211Y002068D02*
X024393Y002068D01*
X024363Y002167D02*
X024241Y002167D01*
X024241Y002265D02*
X024363Y002265D01*
X024363Y002364D02*
X024241Y002364D01*
X024240Y002463D02*
X024364Y002463D01*
X024462Y002561D02*
X024142Y002561D01*
X024043Y002660D02*
X024561Y002660D01*
X025043Y002660D02*
X025561Y002660D01*
X025620Y002719D02*
X025363Y002462D01*
X025363Y002098D01*
X025620Y001841D01*
X025984Y001841D01*
X026241Y002098D01*
X026241Y002462D01*
X025984Y002719D01*
X025620Y002719D01*
X025462Y002561D02*
X025142Y002561D01*
X025240Y002463D02*
X025364Y002463D01*
X025363Y002364D02*
X025241Y002364D01*
X025241Y002265D02*
X025363Y002265D01*
X025363Y002167D02*
X025241Y002167D01*
X025211Y002068D02*
X025393Y002068D01*
X025491Y001970D02*
X025113Y001970D01*
X025014Y001871D02*
X025590Y001871D01*
X026014Y001871D02*
X026590Y001871D01*
X026620Y001841D02*
X026984Y001841D01*
X027241Y002098D01*
X027241Y002462D01*
X026984Y002719D01*
X026620Y002719D01*
X026363Y002462D01*
X026363Y002098D01*
X026620Y001841D01*
X026491Y001970D02*
X026113Y001970D01*
X026211Y002068D02*
X026393Y002068D01*
X026363Y002167D02*
X026241Y002167D01*
X026241Y002265D02*
X026363Y002265D01*
X026363Y002364D02*
X026241Y002364D01*
X026240Y002463D02*
X026364Y002463D01*
X026462Y002561D02*
X026142Y002561D01*
X026043Y002660D02*
X026561Y002660D01*
X027043Y002660D02*
X027561Y002660D01*
X027620Y002719D02*
X027363Y002462D01*
X027363Y002098D01*
X027620Y001841D01*
X027984Y001841D01*
X028241Y002098D01*
X028241Y002462D01*
X027984Y002719D01*
X027620Y002719D01*
X027462Y002561D02*
X027142Y002561D01*
X027240Y002463D02*
X027364Y002463D01*
X027363Y002364D02*
X027241Y002364D01*
X027241Y002265D02*
X027363Y002265D01*
X027363Y002167D02*
X027241Y002167D01*
X027211Y002068D02*
X027393Y002068D01*
X027491Y001970D02*
X027113Y001970D01*
X027014Y001871D02*
X027590Y001871D01*
X028014Y001871D02*
X028652Y001871D01*
X028652Y001773D02*
X009662Y001773D01*
X009699Y001871D02*
X015590Y001871D01*
X015620Y001841D02*
X015984Y001841D01*
X016241Y002098D01*
X016241Y002462D01*
X015984Y002719D01*
X015620Y002719D01*
X015394Y002493D01*
X011614Y002493D01*
X011576Y002531D01*
X011477Y002572D01*
X011371Y002572D01*
X011272Y002531D01*
X011197Y002455D01*
X011156Y002357D01*
X011156Y002250D01*
X011197Y002152D01*
X011272Y002076D01*
X011371Y002036D01*
X011477Y002036D01*
X011576Y002076D01*
X011614Y002115D01*
X015363Y002115D01*
X015363Y002098D01*
X015620Y001841D01*
X015491Y001970D02*
X009725Y001970D01*
X009752Y002068D02*
X011291Y002068D01*
X011190Y002167D02*
X009771Y002167D01*
X009771Y002265D02*
X011156Y002265D01*
X011159Y002364D02*
X009771Y002364D01*
X009771Y002463D02*
X011204Y002463D01*
X011345Y002561D02*
X009751Y002561D01*
X009725Y002660D02*
X015561Y002660D01*
X015462Y002561D02*
X011503Y002561D01*
X011556Y002068D02*
X015393Y002068D01*
X016014Y001871D02*
X016590Y001871D01*
X016491Y001970D02*
X016113Y001970D01*
X016211Y002068D02*
X016393Y002068D01*
X016363Y002167D02*
X016241Y002167D01*
X016241Y002265D02*
X016363Y002265D01*
X016363Y002364D02*
X016241Y002364D01*
X016240Y002463D02*
X016364Y002463D01*
X016462Y002561D02*
X016142Y002561D01*
X016043Y002660D02*
X016561Y002660D01*
X017167Y003251D02*
X009376Y003251D01*
X009278Y003349D02*
X017068Y003349D01*
X016970Y003448D02*
X009116Y003448D01*
X008920Y003546D02*
X016871Y003546D01*
X016773Y003645D02*
X007756Y003645D01*
X007930Y003717D02*
X008200Y003987D01*
X008346Y004339D01*
X008346Y004721D01*
X008200Y005073D01*
X007930Y005343D01*
X007577Y005489D01*
X007196Y005489D01*
X006843Y005343D01*
X006573Y005073D01*
X006427Y004721D01*
X006427Y004339D01*
X006573Y003987D01*
X006843Y003717D01*
X007196Y003571D01*
X007577Y003571D01*
X007930Y003717D01*
X007956Y003744D02*
X016674Y003744D01*
X016575Y003842D02*
X008055Y003842D01*
X008154Y003941D02*
X016477Y003941D01*
X016378Y004039D02*
X008221Y004039D01*
X008262Y004138D02*
X016280Y004138D01*
X016181Y004236D02*
X008303Y004236D01*
X008344Y004335D02*
X016083Y004335D01*
X015984Y004433D02*
X008346Y004433D01*
X008346Y004532D02*
X015901Y004532D01*
X015901Y004630D02*
X008346Y004630D01*
X008342Y004729D02*
X015901Y004729D01*
X015901Y004828D02*
X008301Y004828D01*
X008261Y004926D02*
X015901Y004926D01*
X015901Y005025D02*
X008220Y005025D01*
X008150Y005123D02*
X009622Y005123D01*
X009649Y005109D02*
X009727Y005084D01*
X009799Y005072D01*
X009799Y005541D01*
X009331Y005541D01*
X009342Y005469D01*
X009367Y005391D01*
X009404Y005318D01*
X009452Y005252D01*
X009510Y005194D01*
X009577Y005146D01*
X009649Y005109D01*
X009799Y005123D02*
X009899Y005123D01*
X009899Y005072D02*
X009971Y005084D01*
X010049Y005109D01*
X010122Y005146D01*
X010188Y005194D01*
X010246Y005252D01*
X010294Y005318D01*
X010331Y005391D01*
X010356Y005469D01*
X010368Y005541D01*
X009899Y005541D01*
X009899Y005072D01*
X009899Y005222D02*
X009799Y005222D01*
X009799Y005320D02*
X009899Y005320D01*
X009899Y005419D02*
X009799Y005419D01*
X009799Y005517D02*
X009899Y005517D01*
X009899Y005541D02*
X009799Y005541D01*
X009799Y005641D01*
X009331Y005641D01*
X009342Y005713D01*
X009367Y005791D01*
X009404Y005864D01*
X009452Y005930D01*
X009510Y005988D01*
X009577Y006036D01*
X009649Y006073D01*
X009727Y006098D01*
X009799Y006110D01*
X009799Y005641D01*
X009899Y005641D01*
X009899Y006110D01*
X009971Y006098D01*
X010049Y006073D01*
X010122Y006036D01*
X010188Y005988D01*
X010246Y005930D01*
X010294Y005864D01*
X010331Y005791D01*
X010356Y005713D01*
X010368Y005641D01*
X009899Y005641D01*
X009899Y005541D01*
X009899Y005616D02*
X015901Y005616D01*
X015901Y005714D02*
X010356Y005714D01*
X010320Y005813D02*
X015901Y005813D01*
X015901Y005912D02*
X010259Y005912D01*
X010157Y006010D02*
X015882Y006010D01*
X015818Y006109D02*
X009905Y006109D01*
X009899Y006109D02*
X009799Y006109D01*
X009793Y006109D02*
X002952Y006109D01*
X002952Y006207D02*
X015801Y006207D01*
X015823Y006306D02*
X015685Y006306D01*
X015549Y006306D02*
X015449Y006306D01*
X015449Y006404D02*
X015549Y006404D01*
X015549Y006503D02*
X015449Y006503D01*
X015449Y006601D02*
X015549Y006601D01*
X015847Y006404D02*
X015893Y006404D01*
X015312Y006306D02*
X002952Y006306D01*
X002952Y006404D02*
X015151Y006404D01*
X015066Y006503D02*
X002952Y006503D01*
X002952Y006601D02*
X015014Y006601D01*
X014987Y006700D02*
X002952Y006700D01*
X002952Y006010D02*
X009541Y006010D01*
X009439Y005912D02*
X002952Y005912D01*
X002952Y005813D02*
X009379Y005813D01*
X009342Y005714D02*
X002952Y005714D01*
X002952Y005616D02*
X009799Y005616D01*
X009799Y005714D02*
X009899Y005714D01*
X009899Y005813D02*
X009799Y005813D01*
X009799Y005912D02*
X009899Y005912D01*
X009899Y006010D02*
X009799Y006010D01*
X009334Y005517D02*
X005192Y005517D01*
X005080Y005530D01*
X005074Y005530D01*
X005074Y004580D01*
X004974Y004580D01*
X004974Y004480D01*
X004024Y004480D01*
X004024Y004474D01*
X004037Y004362D01*
X004062Y004253D01*
X004099Y004147D01*
X004148Y004046D01*
X004207Y003950D01*
X004278Y003863D01*
X004357Y003783D01*
X004445Y003713D01*
X004540Y003653D01*
X004641Y003605D01*
X004747Y003568D01*
X004857Y003543D01*
X004968Y003530D01*
X004974Y003530D01*
X004974Y004480D01*
X005074Y004480D01*
X005074Y003530D01*
X005080Y003530D01*
X005192Y003543D01*
X005302Y003568D01*
X005408Y003605D01*
X005509Y003653D01*
X005604Y003713D01*
X005692Y003783D01*
X005771Y003863D01*
X005841Y003950D01*
X005901Y004046D01*
X005950Y004147D01*
X005987Y004253D01*
X006012Y004362D01*
X006024Y004474D01*
X006024Y004480D01*
X005074Y004480D01*
X005074Y004580D01*
X006024Y004580D01*
X006024Y004586D01*
X006012Y004698D01*
X005987Y004807D01*
X005950Y004913D01*
X005901Y005014D01*
X005841Y005110D01*
X005771Y005197D01*
X005692Y005277D01*
X005604Y005347D01*
X005509Y005407D01*
X005408Y005455D01*
X005302Y005492D01*
X005192Y005517D01*
X005074Y005517D02*
X004974Y005517D01*
X004974Y005530D02*
X004968Y005530D01*
X004857Y005517D01*
X004747Y005492D01*
X004641Y005455D01*
X004540Y005407D01*
X004445Y005347D01*
X004357Y005277D01*
X004278Y005197D01*
X004207Y005110D01*
X004148Y005014D01*
X004099Y004913D01*
X004062Y004807D01*
X004037Y004698D01*
X004024Y004586D01*
X004024Y004580D01*
X004974Y004580D01*
X004974Y005530D01*
X004974Y005419D02*
X005074Y005419D01*
X005074Y005320D02*
X004974Y005320D01*
X004974Y005222D02*
X005074Y005222D01*
X005074Y005123D02*
X004974Y005123D01*
X004974Y005025D02*
X005074Y005025D01*
X005074Y004926D02*
X004974Y004926D01*
X004974Y004828D02*
X005074Y004828D01*
X005074Y004729D02*
X004974Y004729D01*
X004974Y004630D02*
X005074Y004630D01*
X005074Y004532D02*
X006427Y004532D01*
X006427Y004630D02*
X006019Y004630D01*
X006005Y004729D02*
X006431Y004729D01*
X006472Y004828D02*
X005980Y004828D01*
X005943Y004926D02*
X006513Y004926D01*
X006553Y005025D02*
X005895Y005025D01*
X005830Y005123D02*
X006623Y005123D01*
X006722Y005222D02*
X005747Y005222D01*
X005637Y005320D02*
X006821Y005320D01*
X007026Y005419D02*
X005483Y005419D01*
X004856Y005517D02*
X002952Y005517D01*
X002952Y005419D02*
X004565Y005419D01*
X004411Y005320D02*
X002952Y005320D01*
X002952Y005222D02*
X004302Y005222D01*
X004218Y005123D02*
X002952Y005123D01*
X002952Y005025D02*
X004154Y005025D01*
X004105Y004926D02*
X002952Y004926D01*
X002952Y004828D02*
X004069Y004828D01*
X004044Y004729D02*
X002952Y004729D01*
X002952Y004630D02*
X004029Y004630D01*
X004029Y004433D02*
X002952Y004433D01*
X002952Y004335D02*
X004043Y004335D01*
X004068Y004236D02*
X002952Y004236D01*
X002952Y004138D02*
X004103Y004138D01*
X004152Y004039D02*
X002952Y004039D01*
X002952Y003941D02*
X004215Y003941D01*
X004298Y003842D02*
X002952Y003842D01*
X002952Y003744D02*
X004407Y003744D01*
X004557Y003645D02*
X002952Y003645D01*
X002952Y003546D02*
X004839Y003546D01*
X004974Y003546D02*
X005074Y003546D01*
X005074Y003645D02*
X004974Y003645D01*
X004974Y003744D02*
X005074Y003744D01*
X005074Y003842D02*
X004974Y003842D01*
X004974Y003941D02*
X005074Y003941D01*
X005074Y004039D02*
X004974Y004039D01*
X004974Y004138D02*
X005074Y004138D01*
X005074Y004236D02*
X004974Y004236D01*
X004974Y004335D02*
X005074Y004335D01*
X005074Y004433D02*
X004974Y004433D01*
X004974Y004532D02*
X002952Y004532D01*
X002952Y003448D02*
X005565Y003448D01*
X005461Y003349D02*
X002952Y003349D01*
X002952Y003251D02*
X005383Y003251D01*
X005323Y003152D02*
X002952Y003152D01*
X002952Y003054D02*
X005277Y003054D01*
X005243Y002955D02*
X002952Y002955D01*
X002952Y002857D02*
X005220Y002857D01*
X005208Y002758D02*
X002952Y002758D01*
X002952Y002660D02*
X006155Y002660D01*
X006155Y002758D02*
X006255Y002758D01*
X006256Y002660D02*
X007198Y002660D01*
X007203Y002758D02*
X007224Y002758D01*
X007191Y002857D02*
X007263Y002857D01*
X007319Y002955D02*
X007168Y002955D01*
X007134Y003054D02*
X007376Y003054D01*
X007448Y003152D02*
X007088Y003152D01*
X007027Y003251D02*
X007546Y003251D01*
X007645Y003349D02*
X006950Y003349D01*
X006846Y003448D02*
X007807Y003448D01*
X008002Y003546D02*
X006705Y003546D01*
X006817Y003744D02*
X005642Y003744D01*
X005751Y003842D02*
X006718Y003842D01*
X006620Y003941D02*
X005833Y003941D01*
X005897Y004039D02*
X006552Y004039D01*
X006511Y004138D02*
X005945Y004138D01*
X005981Y004236D02*
X006470Y004236D01*
X006429Y004335D02*
X006005Y004335D01*
X006020Y004433D02*
X006427Y004433D01*
X006469Y003645D02*
X007017Y003645D01*
X006255Y003645D02*
X006155Y003645D01*
X006155Y003546D02*
X006255Y003546D01*
X006255Y003448D02*
X006155Y003448D01*
X006155Y003349D02*
X006255Y003349D01*
X006255Y003251D02*
X006155Y003251D01*
X006155Y003152D02*
X006255Y003152D01*
X006255Y003054D02*
X006155Y003054D01*
X006155Y002955D02*
X006255Y002955D01*
X006255Y002857D02*
X006155Y002857D01*
X006155Y002561D02*
X006255Y002561D01*
X006255Y002463D02*
X006155Y002463D01*
X006155Y002364D02*
X006255Y002364D01*
X006255Y002265D02*
X006155Y002265D01*
X006155Y002167D02*
X006255Y002167D01*
X006255Y002068D02*
X006155Y002068D01*
X006155Y001970D02*
X006255Y001970D01*
X006255Y001871D02*
X006155Y001871D01*
X006155Y001773D02*
X006255Y001773D01*
X006627Y001773D02*
X007261Y001773D01*
X007224Y001871D02*
X006796Y001871D01*
X006910Y001970D02*
X007197Y001970D01*
X007171Y002068D02*
X006997Y002068D01*
X007064Y002167D02*
X007151Y002167D01*
X007151Y002265D02*
X007116Y002265D01*
X007318Y001674D02*
X002952Y001674D01*
X002952Y001576D02*
X007375Y001576D01*
X007445Y001477D02*
X002952Y001477D01*
X002952Y001773D02*
X005784Y001773D01*
X005615Y001871D02*
X002952Y001871D01*
X002952Y001970D02*
X005501Y001970D01*
X005414Y002068D02*
X002952Y002068D01*
X002952Y002167D02*
X005347Y002167D01*
X005295Y002265D02*
X002952Y002265D01*
X002952Y002364D02*
X005256Y002364D01*
X005229Y002463D02*
X002952Y002463D01*
X002952Y002561D02*
X005212Y002561D01*
X005209Y003546D02*
X005706Y003546D01*
X005491Y003645D02*
X005941Y003645D01*
X007747Y005419D02*
X009358Y005419D01*
X009403Y005320D02*
X007953Y005320D01*
X008051Y005222D02*
X009483Y005222D01*
X010076Y005123D02*
X015901Y005123D01*
X015901Y005222D02*
X010215Y005222D01*
X010295Y005320D02*
X015901Y005320D01*
X015901Y005419D02*
X010340Y005419D01*
X010364Y005517D02*
X015901Y005517D01*
X015549Y006897D02*
X015449Y006897D01*
X015449Y006996D02*
X015549Y006996D01*
X015549Y007094D02*
X015449Y007094D01*
X015449Y007193D02*
X015549Y007193D01*
X015549Y007291D02*
X015449Y007291D01*
X013319Y008277D02*
X013219Y008277D01*
X013219Y008375D02*
X013319Y008375D01*
X013319Y008474D02*
X013219Y008474D01*
X013219Y008572D02*
X013319Y008572D01*
X013319Y008671D02*
X013219Y008671D01*
X012834Y008375D02*
X012272Y008375D01*
X012359Y008474D02*
X012736Y008474D01*
X012933Y008277D02*
X012135Y008277D01*
X012433Y008653D02*
X012433Y008868D01*
X012689Y008868D01*
X012689Y008966D02*
X012393Y008966D01*
X012433Y008868D02*
X012351Y009066D01*
X012200Y009217D01*
X012002Y009299D01*
X011787Y009299D01*
X011589Y009217D01*
X011437Y009066D01*
X011355Y008868D01*
X011396Y008966D02*
X009499Y008966D01*
X009435Y009065D02*
X011437Y009065D01*
X011535Y009163D02*
X009336Y009163D01*
X009237Y009262D02*
X011697Y009262D01*
X012092Y009262D02*
X012951Y009262D01*
X012852Y009163D02*
X012254Y009163D01*
X012352Y009065D02*
X012754Y009065D01*
X011654Y008277D02*
X009255Y008277D01*
X009354Y008375D02*
X011517Y008375D01*
X011430Y008474D02*
X009453Y008474D01*
X009499Y008572D02*
X011389Y008572D01*
X008969Y008572D02*
X008869Y008572D01*
X008869Y008474D02*
X008969Y008474D01*
X008969Y008375D02*
X008869Y008375D01*
X008869Y008277D02*
X008969Y008277D01*
X008583Y008277D02*
X007785Y008277D01*
X007921Y008375D02*
X008484Y008375D01*
X008385Y008474D02*
X008009Y008474D01*
X008050Y008572D02*
X008339Y008572D01*
X008339Y008671D02*
X008083Y008671D01*
X008083Y008769D02*
X008869Y008769D01*
X008869Y008671D02*
X008969Y008671D01*
X008502Y009163D02*
X007903Y009163D01*
X008001Y009065D02*
X008403Y009065D01*
X007651Y009299D02*
X007437Y009299D01*
X007239Y009217D01*
X007087Y009066D01*
X007005Y008868D01*
X007046Y008966D02*
X002952Y008966D01*
X002952Y008868D02*
X003371Y008868D01*
X003451Y008901D02*
X003275Y008828D01*
X003140Y008693D01*
X003067Y008517D01*
X003067Y008326D01*
X003140Y008150D01*
X003275Y008016D01*
X003451Y007943D01*
X003641Y007943D01*
X003817Y008016D01*
X003952Y008150D01*
X004025Y008326D01*
X004025Y008517D01*
X003952Y008693D01*
X003817Y008828D01*
X003641Y008901D01*
X003451Y008901D01*
X003216Y008769D02*
X002952Y008769D01*
X002952Y008671D02*
X003131Y008671D01*
X003090Y008572D02*
X002952Y008572D01*
X002952Y008474D02*
X003067Y008474D01*
X003067Y008375D02*
X002952Y008375D01*
X002952Y008277D02*
X003088Y008277D01*
X003128Y008178D02*
X002952Y008178D01*
X002952Y008079D02*
X003211Y008079D01*
X003358Y007981D02*
X002952Y007981D01*
X003734Y007981D02*
X004358Y007981D01*
X004211Y008079D02*
X003881Y008079D01*
X003964Y008178D02*
X004128Y008178D01*
X004088Y008277D02*
X004004Y008277D01*
X004025Y008375D02*
X004067Y008375D01*
X004067Y008474D02*
X004025Y008474D01*
X004002Y008572D02*
X004090Y008572D01*
X004131Y008671D02*
X003961Y008671D01*
X003876Y008769D02*
X004216Y008769D01*
X004371Y008868D02*
X003721Y008868D01*
X002952Y009065D02*
X007087Y009065D01*
X007185Y009163D02*
X002952Y009163D01*
X002952Y009262D02*
X007347Y009262D01*
X005155Y010459D02*
X005080Y010383D01*
X004981Y010343D01*
X004875Y010343D01*
X004776Y010383D01*
X004738Y010422D01*
X003616Y010422D01*
X003460Y010422D01*
X002952Y010930D01*
X002952Y010839D02*
X003043Y010839D01*
X002952Y010740D02*
X003141Y010740D01*
X003240Y010642D02*
X002952Y010642D01*
X002952Y010543D02*
X003338Y010543D01*
X003437Y010445D02*
X002952Y010445D01*
X002952Y010346D02*
X004866Y010346D01*
X004989Y010346D02*
X017928Y010346D01*
X018027Y010445D02*
X005141Y010445D01*
X005155Y010459D02*
X005196Y010557D01*
X005196Y010664D01*
X005164Y010740D02*
X013278Y010740D01*
X013300Y010718D02*
X013398Y010677D01*
X013505Y010677D01*
X013603Y010718D01*
X013679Y010793D01*
X013720Y010892D01*
X013720Y010999D01*
X013679Y011097D01*
X013621Y011155D01*
X013621Y012221D01*
X013621Y012235D01*
X013621Y012350D01*
X013621Y012361D01*
X013612Y012369D01*
X013584Y012438D01*
X013584Y012450D01*
X013576Y012458D01*
X013534Y012499D01*
X013485Y012549D01*
X012515Y013519D01*
X012479Y013555D01*
X012479Y013596D01*
X012479Y013606D01*
X012479Y014653D01*
X012537Y014711D01*
X012578Y014809D01*
X012578Y014916D01*
X012537Y015015D01*
X012462Y015090D01*
X012363Y015131D01*
X012256Y015131D01*
X012158Y015090D01*
X012082Y015015D01*
X012042Y014916D01*
X012042Y014809D01*
X012082Y014711D01*
X012141Y014653D01*
X012141Y013606D01*
X012141Y013595D01*
X012141Y013478D01*
X012141Y013466D01*
X012149Y013458D01*
X012177Y013390D01*
X012177Y013378D01*
X012185Y013370D01*
X012186Y013370D01*
X012187Y013369D01*
X012227Y013329D01*
X012227Y013329D01*
X012276Y013280D01*
X013246Y012310D01*
X013246Y012310D01*
X013282Y012273D01*
X013282Y012234D01*
X013282Y012221D01*
X013282Y011155D01*
X013224Y011097D01*
X013183Y010999D01*
X013183Y010892D01*
X013224Y010793D01*
X013300Y010718D01*
X013205Y010839D02*
X005078Y010839D01*
X004778Y010839D02*
X003577Y010839D01*
X003479Y010937D02*
X013183Y010937D01*
X013199Y011036D02*
X003380Y011036D01*
X003282Y011134D02*
X013261Y011134D01*
X013282Y011233D02*
X003183Y011233D01*
X003176Y011331D02*
X013282Y011331D01*
X013282Y011430D02*
X006933Y011430D01*
X006966Y011463D02*
X007007Y011561D01*
X007007Y011668D01*
X006966Y011766D01*
X006891Y011842D01*
X006792Y011883D01*
X006686Y011883D01*
X006587Y011842D01*
X006529Y011784D01*
X005256Y011784D01*
X005198Y011842D01*
X005099Y011883D01*
X004993Y011883D01*
X004894Y011842D01*
X004819Y011766D01*
X004778Y011668D01*
X004778Y011561D01*
X004819Y011463D01*
X004894Y011387D01*
X004993Y011347D01*
X005099Y011347D01*
X005198Y011387D01*
X005256Y011446D01*
X006529Y011446D01*
X006587Y011387D01*
X006686Y011347D01*
X006792Y011347D01*
X006891Y011387D01*
X006966Y011463D01*
X006993Y011529D02*
X013282Y011529D01*
X013282Y011627D02*
X007007Y011627D01*
X006983Y011726D02*
X013282Y011726D01*
X013282Y011824D02*
X006909Y011824D01*
X006569Y011824D02*
X005671Y011824D01*
X005788Y011923D02*
X013282Y011923D01*
X013282Y012021D02*
X005829Y012021D01*
X005928Y012120D02*
X013282Y012120D01*
X013282Y012218D02*
X006026Y012218D01*
X006125Y012317D02*
X013239Y012317D01*
X013140Y012415D02*
X006224Y012415D01*
X006278Y012514D02*
X013041Y012514D01*
X012943Y012612D02*
X006278Y012612D01*
X006278Y012711D02*
X012844Y012711D01*
X012746Y012810D02*
X006278Y012810D01*
X006278Y012908D02*
X012647Y012908D01*
X012549Y013007D02*
X006278Y013007D01*
X006278Y013105D02*
X012450Y013105D01*
X012352Y013204D02*
X006278Y013204D01*
X006255Y013302D02*
X012253Y013302D01*
X012185Y013370D02*
X012185Y013370D01*
X012173Y013401D02*
X006156Y013401D01*
X006058Y013499D02*
X012141Y013499D01*
X012141Y013598D02*
X005959Y013598D01*
X005861Y013696D02*
X012141Y013696D01*
X012141Y013795D02*
X005762Y013795D01*
X005664Y013894D02*
X010611Y013894D01*
X010787Y013821D01*
X010978Y013821D01*
X011154Y013894D01*
X012141Y013894D01*
X012141Y013992D02*
X011252Y013992D01*
X011289Y014028D02*
X011362Y014204D01*
X011362Y014395D01*
X011289Y014571D01*
X011154Y014706D01*
X010978Y014779D01*
X010787Y014779D01*
X010611Y014706D01*
X010476Y014571D01*
X010404Y014395D01*
X010404Y014204D01*
X010476Y014028D01*
X010611Y013894D01*
X010513Y013992D02*
X005565Y013992D01*
X005466Y014091D02*
X010451Y014091D01*
X010410Y014189D02*
X005368Y014189D01*
X005269Y014288D02*
X007880Y014288D01*
X007906Y014261D02*
X008004Y014221D01*
X008111Y014221D01*
X008210Y014261D01*
X008285Y014337D01*
X008326Y014435D01*
X008326Y014542D01*
X008285Y014641D01*
X008227Y014699D01*
X008227Y014869D01*
X008285Y014927D01*
X008326Y015026D01*
X008326Y015133D01*
X008285Y015231D01*
X008210Y015306D01*
X008111Y015347D01*
X008004Y015347D01*
X007906Y015306D01*
X007831Y015231D01*
X007790Y015133D01*
X007790Y015026D01*
X007831Y014927D01*
X007889Y014869D01*
X007889Y014699D01*
X007831Y014641D01*
X007790Y014542D01*
X007790Y014435D01*
X007831Y014337D01*
X007906Y014261D01*
X007810Y014386D02*
X005171Y014386D01*
X005159Y014485D02*
X007790Y014485D01*
X007807Y014583D02*
X005196Y014583D01*
X005195Y014682D02*
X007872Y014682D01*
X007889Y014780D02*
X005153Y014780D01*
X005019Y014879D02*
X007879Y014879D01*
X007810Y014978D02*
X004068Y014978D01*
X004094Y014879D02*
X004837Y014879D01*
X004703Y014780D02*
X004082Y014780D01*
X004024Y014682D02*
X004661Y014682D01*
X004660Y014583D02*
X003176Y014583D01*
X003176Y014485D02*
X004696Y014485D01*
X004759Y014386D02*
X003176Y014386D01*
X003176Y014288D02*
X004791Y014288D01*
X004890Y014189D02*
X003176Y014189D01*
X003176Y014091D02*
X004988Y014091D01*
X005087Y013992D02*
X003176Y013992D01*
X003176Y013894D02*
X005185Y013894D01*
X005284Y013795D02*
X003176Y013795D01*
X003176Y013696D02*
X005383Y013696D01*
X005481Y013598D02*
X004721Y013598D01*
X004347Y013598D02*
X003176Y013598D01*
X003176Y013499D02*
X004283Y013499D01*
X004266Y013401D02*
X003176Y013401D01*
X003176Y013302D02*
X004287Y013302D01*
X004357Y013204D02*
X003176Y013204D01*
X003176Y013105D02*
X005232Y013105D01*
X005600Y013204D02*
X004711Y013204D01*
X005283Y012711D02*
X003176Y012711D01*
X003176Y012415D02*
X005368Y012415D01*
X005406Y012317D02*
X003176Y012317D01*
X003176Y012218D02*
X005330Y012218D01*
X005290Y012120D02*
X003176Y012120D01*
X003176Y012021D02*
X005290Y012021D01*
X005328Y011923D02*
X003176Y011923D01*
X003176Y011824D02*
X004876Y011824D01*
X004802Y011726D02*
X003176Y011726D01*
X003176Y011627D02*
X004778Y011627D01*
X004791Y011529D02*
X003176Y011529D01*
X003176Y011430D02*
X004851Y011430D01*
X005216Y011824D02*
X005444Y011824D01*
X005240Y011430D02*
X006544Y011430D01*
X005190Y010543D02*
X018125Y010543D01*
X018322Y010740D02*
X013625Y010740D01*
X013697Y010839D02*
X018381Y010839D01*
X018381Y010937D02*
X013720Y010937D01*
X013704Y011036D02*
X018381Y011036D01*
X018381Y011134D02*
X013642Y011134D01*
X013621Y011233D02*
X018381Y011233D01*
X018381Y011331D02*
X013621Y011331D01*
X013621Y011430D02*
X018381Y011430D01*
X018381Y011529D02*
X013621Y011529D01*
X013621Y011627D02*
X018381Y011627D01*
X018381Y011726D02*
X013621Y011726D01*
X013621Y011824D02*
X018381Y011824D01*
X018381Y011923D02*
X013621Y011923D01*
X013621Y012021D02*
X018381Y012021D01*
X018381Y012120D02*
X013621Y012120D01*
X013621Y012218D02*
X018381Y012218D01*
X018381Y012317D02*
X013621Y012317D01*
X013593Y012415D02*
X018379Y012415D01*
X018408Y012514D02*
X014002Y012514D01*
X014033Y012545D02*
X014074Y012644D01*
X014074Y012751D01*
X014033Y012849D01*
X013958Y012925D01*
X013859Y012965D01*
X013752Y012965D01*
X013749Y012964D01*
X013237Y013476D01*
X013237Y014407D01*
X013295Y014465D01*
X013336Y014563D01*
X013336Y014670D01*
X013295Y014768D01*
X013219Y014844D01*
X013121Y014885D01*
X013014Y014885D01*
X012916Y014844D01*
X012840Y014768D01*
X012800Y014670D01*
X012800Y014563D01*
X012840Y014465D01*
X012899Y014407D01*
X012899Y013336D01*
X012998Y013237D01*
X013538Y012697D01*
X013538Y012644D01*
X013579Y012545D01*
X013654Y012470D01*
X013752Y012429D01*
X013859Y012429D01*
X013958Y012470D01*
X014033Y012545D01*
X014061Y012612D02*
X018458Y012612D01*
X018227Y012711D02*
X014074Y012711D01*
X014049Y012810D02*
X014536Y012810D01*
X014500Y012824D02*
X014599Y012784D01*
X014706Y012784D01*
X014804Y012824D01*
X014862Y012883D01*
X015724Y012883D01*
X015864Y012883D01*
X016533Y013552D01*
X016632Y013651D01*
X016632Y013786D01*
X016691Y013845D01*
X016731Y013943D01*
X016731Y014050D01*
X016691Y014148D01*
X016615Y014224D01*
X016517Y014265D01*
X016410Y014265D01*
X016311Y014224D01*
X016236Y014148D01*
X016195Y014050D01*
X016195Y013943D01*
X016236Y013845D01*
X016292Y013789D01*
X015724Y013221D01*
X014862Y013221D01*
X014804Y013279D01*
X014706Y013320D01*
X014599Y013320D01*
X014500Y013279D01*
X014425Y013204D01*
X013509Y013204D01*
X013410Y013302D02*
X014557Y013302D01*
X014425Y013204D02*
X014384Y013105D01*
X014384Y012998D01*
X014425Y012900D01*
X014500Y012824D01*
X014422Y012908D02*
X013974Y012908D01*
X013706Y013007D02*
X014384Y013007D01*
X014384Y013105D02*
X013607Y013105D01*
X013326Y012908D02*
X013125Y012908D01*
X013027Y013007D02*
X013228Y013007D01*
X013129Y013105D02*
X012928Y013105D01*
X012830Y013204D02*
X013031Y013204D01*
X012998Y013237D02*
X012998Y013237D01*
X012932Y013302D02*
X012731Y013302D01*
X012633Y013401D02*
X012899Y013401D01*
X012899Y013499D02*
X012534Y013499D01*
X012479Y013598D02*
X012899Y013598D01*
X012899Y013696D02*
X012479Y013696D01*
X012479Y013795D02*
X012899Y013795D01*
X012899Y013894D02*
X012479Y013894D01*
X012479Y013992D02*
X012899Y013992D01*
X012899Y014091D02*
X012479Y014091D01*
X012479Y014189D02*
X012899Y014189D01*
X012899Y014288D02*
X012479Y014288D01*
X012479Y014386D02*
X012899Y014386D01*
X012832Y014485D02*
X012479Y014485D01*
X012479Y014583D02*
X012800Y014583D01*
X012804Y014682D02*
X012508Y014682D01*
X012566Y014780D02*
X012852Y014780D01*
X013001Y014879D02*
X012578Y014879D01*
X012552Y014978D02*
X018145Y014978D01*
X018145Y015076D02*
X013313Y015076D01*
X013266Y015028D02*
X013365Y015127D01*
X013482Y015245D01*
X013502Y015245D01*
X014099Y015842D01*
X014145Y015888D01*
X014178Y015921D01*
X014194Y015937D01*
X014194Y015949D01*
X014223Y016017D01*
X014231Y016026D01*
X014231Y016037D01*
X014231Y016109D01*
X014289Y016167D01*
X014330Y016266D01*
X014330Y016373D01*
X014289Y016471D01*
X014214Y016547D01*
X014115Y016587D01*
X014008Y016587D01*
X013910Y016547D01*
X013834Y016471D01*
X013794Y016373D01*
X013794Y016266D01*
X013834Y016167D01*
X013890Y016112D01*
X013860Y016081D01*
X013362Y015583D01*
X013342Y015583D01*
X013321Y015562D01*
X013336Y015597D01*
X013336Y015703D01*
X013295Y015802D01*
X013219Y015877D01*
X013121Y015918D01*
X013039Y015918D01*
X012597Y016360D01*
X012498Y016459D01*
X011335Y016459D01*
X011289Y016571D01*
X011154Y016706D01*
X010978Y016779D01*
X010787Y016779D01*
X010611Y016706D01*
X010476Y016571D01*
X010404Y016395D01*
X010404Y016204D01*
X010476Y016028D01*
X010611Y015894D01*
X010787Y015821D01*
X010978Y015821D01*
X011154Y015894D01*
X011289Y016028D01*
X011327Y016121D01*
X012358Y016121D01*
X012800Y015679D01*
X012800Y015597D01*
X012840Y015498D01*
X012916Y015423D01*
X013014Y015382D01*
X013121Y015382D01*
X013156Y015396D01*
X013126Y015366D01*
X012931Y015366D01*
X012892Y015405D01*
X012793Y015504D01*
X011573Y015504D01*
X011533Y015544D01*
X011300Y015544D01*
X011289Y015571D01*
X011154Y015706D01*
X010978Y015779D01*
X010787Y015779D01*
X010611Y015706D01*
X010476Y015571D01*
X010404Y015395D01*
X010404Y015204D01*
X010476Y015028D01*
X010611Y014894D01*
X010787Y014821D01*
X010978Y014821D01*
X011154Y014894D01*
X011289Y015028D01*
X011362Y015204D01*
X011362Y015205D01*
X011393Y015205D01*
X011433Y015166D01*
X011573Y015166D01*
X012653Y015166D01*
X012791Y015028D01*
X012931Y015028D01*
X013266Y015028D01*
X013135Y014879D02*
X018145Y014879D01*
X018145Y014780D02*
X013283Y014780D01*
X013331Y014682D02*
X015579Y014682D01*
X015593Y014688D02*
X015494Y014647D01*
X015419Y014572D01*
X015378Y014473D01*
X015378Y014366D01*
X015419Y014268D01*
X015477Y014210D01*
X015477Y013744D01*
X015419Y013686D01*
X015378Y013587D01*
X015378Y013481D01*
X015419Y013382D01*
X015494Y013307D01*
X015593Y013266D01*
X015700Y013266D01*
X015798Y013307D01*
X015874Y013382D01*
X015914Y013481D01*
X015914Y013587D01*
X015874Y013686D01*
X015815Y013744D01*
X015815Y014210D01*
X015874Y014268D01*
X015914Y014366D01*
X015914Y014473D01*
X015874Y014572D01*
X015798Y014647D01*
X015700Y014688D01*
X015593Y014688D01*
X015714Y014682D02*
X018145Y014682D01*
X018145Y014583D02*
X015862Y014583D01*
X015910Y014485D02*
X018145Y014485D01*
X018145Y014386D02*
X015914Y014386D01*
X015882Y014288D02*
X018145Y014288D01*
X018145Y014189D02*
X016650Y014189D01*
X016714Y014091D02*
X018217Y014091D01*
X018315Y013992D02*
X016731Y013992D01*
X016711Y013894D02*
X018414Y013894D01*
X018512Y013795D02*
X016641Y013795D01*
X016632Y013696D02*
X018611Y013696D01*
X018709Y013598D02*
X016579Y013598D01*
X016481Y013499D02*
X018808Y013499D01*
X018907Y013401D02*
X016382Y013401D01*
X016284Y013302D02*
X017851Y013302D01*
X017775Y013204D02*
X016185Y013204D01*
X016087Y013105D02*
X017750Y013105D01*
X017763Y013007D02*
X015988Y013007D01*
X015890Y012908D02*
X017822Y012908D01*
X018122Y012810D02*
X014768Y012810D01*
X014748Y013302D02*
X015505Y013302D01*
X015411Y013401D02*
X013312Y013401D01*
X013237Y013499D02*
X015378Y013499D01*
X015383Y013598D02*
X013237Y013598D01*
X013237Y013696D02*
X015430Y013696D01*
X015477Y013795D02*
X013237Y013795D01*
X013237Y013894D02*
X015477Y013894D01*
X015477Y013992D02*
X013237Y013992D01*
X013237Y014091D02*
X015477Y014091D01*
X015477Y014189D02*
X013237Y014189D01*
X013237Y014288D02*
X015411Y014288D01*
X015378Y014386D02*
X013237Y014386D01*
X013303Y014485D02*
X015383Y014485D01*
X015431Y014583D02*
X013336Y014583D01*
X013412Y015175D02*
X018145Y015175D01*
X018145Y015273D02*
X013530Y015273D01*
X013629Y015372D02*
X018145Y015372D01*
X018145Y015470D02*
X013727Y015470D01*
X013826Y015569D02*
X018145Y015569D01*
X018145Y015667D02*
X013924Y015667D01*
X014023Y015766D02*
X015393Y015766D01*
X015403Y015762D02*
X015594Y015762D01*
X015770Y015834D01*
X015905Y015969D01*
X015978Y016145D01*
X015978Y016336D01*
X015905Y016512D01*
X015770Y016647D01*
X015594Y016720D01*
X015403Y016720D01*
X015227Y016647D01*
X015093Y016512D01*
X015020Y016336D01*
X015020Y016145D01*
X015093Y015969D01*
X015227Y015834D01*
X015403Y015762D01*
X015604Y015766D02*
X018145Y015766D01*
X018145Y015864D02*
X015800Y015864D01*
X015899Y015963D02*
X018145Y015963D01*
X018145Y016061D02*
X015943Y016061D01*
X015978Y016160D02*
X018145Y016160D01*
X018145Y016259D02*
X015978Y016259D01*
X015969Y016357D02*
X018145Y016357D01*
X018145Y016456D02*
X015928Y016456D01*
X015863Y016554D02*
X018145Y016554D01*
X018145Y016653D02*
X015756Y016653D01*
X015242Y016653D02*
X011207Y016653D01*
X011296Y016554D02*
X013928Y016554D01*
X013828Y016456D02*
X012501Y016456D01*
X012597Y016360D02*
X012597Y016360D01*
X012600Y016357D02*
X013794Y016357D01*
X013797Y016259D02*
X012698Y016259D01*
X012797Y016160D02*
X013842Y016160D01*
X013840Y016061D02*
X012895Y016061D01*
X012994Y015963D02*
X013742Y015963D01*
X013643Y015864D02*
X013232Y015864D01*
X013310Y015766D02*
X013545Y015766D01*
X013446Y015667D02*
X013336Y015667D01*
X013324Y015569D02*
X013328Y015569D01*
X013131Y015372D02*
X012926Y015372D01*
X012868Y015470D02*
X012827Y015470D01*
X012811Y015569D02*
X011290Y015569D01*
X011192Y015667D02*
X012800Y015667D01*
X012713Y015766D02*
X011009Y015766D01*
X011084Y015864D02*
X012614Y015864D01*
X012516Y015963D02*
X011223Y015963D01*
X011302Y016061D02*
X012417Y016061D01*
X012475Y015076D02*
X012743Y015076D01*
X012144Y015076D02*
X011308Y015076D01*
X011349Y015175D02*
X011424Y015175D01*
X011238Y014978D02*
X012067Y014978D01*
X012042Y014879D02*
X011119Y014879D01*
X011178Y014682D02*
X012111Y014682D01*
X012141Y014583D02*
X011276Y014583D01*
X011324Y014485D02*
X012141Y014485D01*
X012141Y014386D02*
X011362Y014386D01*
X011362Y014288D02*
X012141Y014288D01*
X012141Y014189D02*
X011355Y014189D01*
X011314Y014091D02*
X012141Y014091D01*
X012054Y014780D02*
X008227Y014780D01*
X008237Y014879D02*
X010646Y014879D01*
X010527Y014978D02*
X008306Y014978D01*
X008326Y015076D02*
X010457Y015076D01*
X010416Y015175D02*
X008308Y015175D01*
X008243Y015273D02*
X010404Y015273D01*
X010404Y015372D02*
X003176Y015372D01*
X003176Y015470D02*
X010435Y015470D01*
X010476Y015569D02*
X003176Y015569D01*
X003176Y015667D02*
X007878Y015667D01*
X007906Y015639D02*
X007831Y015715D01*
X007790Y015813D01*
X007790Y015896D01*
X007496Y016189D01*
X007414Y016189D01*
X007315Y016230D01*
X007240Y016305D01*
X007199Y016404D01*
X007199Y016510D01*
X007240Y016609D01*
X007315Y016684D01*
X007414Y016725D01*
X007521Y016725D01*
X007619Y016684D01*
X007694Y016609D01*
X007735Y016510D01*
X007735Y016428D01*
X008029Y016135D01*
X008111Y016135D01*
X008210Y016094D01*
X008285Y016018D01*
X008326Y015920D01*
X008326Y015813D01*
X008285Y015715D01*
X008210Y015639D01*
X008111Y015599D01*
X008004Y015599D01*
X007906Y015639D01*
X007809Y015766D02*
X003176Y015766D01*
X003176Y015864D02*
X007790Y015864D01*
X007722Y015963D02*
X003176Y015963D01*
X003176Y016061D02*
X007624Y016061D01*
X007525Y016160D02*
X003176Y016160D01*
X003176Y016259D02*
X007287Y016259D01*
X007218Y016357D02*
X003176Y016357D01*
X003176Y016456D02*
X007199Y016456D01*
X007217Y016554D02*
X003176Y016554D01*
X003176Y016653D02*
X007284Y016653D01*
X007651Y016653D02*
X010558Y016653D01*
X010470Y016554D02*
X007717Y016554D01*
X007735Y016456D02*
X010429Y016456D01*
X010404Y016357D02*
X007806Y016357D01*
X007905Y016259D02*
X010404Y016259D01*
X010422Y016160D02*
X008003Y016160D01*
X008242Y016061D02*
X010463Y016061D01*
X010542Y015963D02*
X008308Y015963D01*
X008326Y015864D02*
X010682Y015864D01*
X010756Y015766D02*
X008306Y015766D01*
X008238Y015667D02*
X010573Y015667D01*
X010721Y016751D02*
X003176Y016751D01*
X003176Y016850D02*
X010717Y016850D01*
X010787Y016821D02*
X010611Y016894D01*
X010476Y017028D01*
X010404Y017204D01*
X010404Y017395D01*
X010476Y017571D01*
X010611Y017706D01*
X010787Y017779D01*
X010978Y017779D01*
X011154Y017706D01*
X011289Y017571D01*
X011362Y017395D01*
X011362Y017204D01*
X011289Y017028D01*
X011154Y016894D01*
X010978Y016821D01*
X010787Y016821D01*
X011048Y016850D02*
X018145Y016850D01*
X018145Y016948D02*
X011209Y016948D01*
X011296Y017047D02*
X018145Y017047D01*
X018145Y017145D02*
X011337Y017145D01*
X011362Y017244D02*
X018145Y017244D01*
X018145Y017343D02*
X011362Y017343D01*
X011343Y017441D02*
X018145Y017441D01*
X018145Y017540D02*
X011302Y017540D01*
X011222Y017638D02*
X018145Y017638D01*
X018145Y017737D02*
X011079Y017737D01*
X011013Y017835D02*
X018145Y017835D01*
X018145Y017934D02*
X011194Y017934D01*
X011154Y017894D02*
X011289Y018028D01*
X011362Y018204D01*
X011362Y018395D01*
X011289Y018571D01*
X011154Y018706D01*
X010978Y018779D01*
X010787Y018779D01*
X010611Y018706D01*
X010476Y018571D01*
X010404Y018395D01*
X010404Y018378D01*
X008209Y018378D01*
X008151Y018436D01*
X008052Y018477D01*
X007945Y018477D01*
X007847Y018436D01*
X007771Y018361D01*
X007731Y018262D01*
X007731Y018156D01*
X007771Y018057D01*
X007847Y017982D01*
X007945Y017941D01*
X008052Y017941D01*
X008151Y017982D01*
X008209Y018040D01*
X010409Y018040D01*
X010472Y018040D01*
X010476Y018028D01*
X010611Y017894D01*
X010787Y017821D01*
X010978Y017821D01*
X011154Y017894D01*
X011290Y018032D02*
X018145Y018032D01*
X018145Y018131D02*
X015595Y018131D01*
X015621Y018135D02*
X015698Y018160D01*
X015771Y018197D01*
X015837Y018246D01*
X015895Y018303D01*
X015943Y018370D01*
X015981Y018443D01*
X016006Y018520D01*
X016017Y018592D01*
X015549Y018592D01*
X015549Y018124D01*
X015621Y018135D01*
X015549Y018131D02*
X015449Y018131D01*
X015449Y018124D02*
X015449Y018592D01*
X014980Y018592D01*
X014992Y018520D01*
X015017Y018443D01*
X015054Y018370D01*
X015102Y018303D01*
X015160Y018246D01*
X015226Y018197D01*
X015299Y018160D01*
X015377Y018135D01*
X015449Y018124D01*
X015403Y018131D02*
X011331Y018131D01*
X011362Y018229D02*
X015182Y018229D01*
X015084Y018328D02*
X011362Y018328D01*
X011349Y018427D02*
X015025Y018427D01*
X014991Y018525D02*
X011308Y018525D01*
X011236Y018624D02*
X015449Y018624D01*
X015449Y018525D02*
X015549Y018525D01*
X015549Y018427D02*
X015449Y018427D01*
X015449Y018328D02*
X015549Y018328D01*
X015549Y018229D02*
X015449Y018229D01*
X015815Y018229D02*
X018133Y018229D01*
X018086Y018328D02*
X015913Y018328D01*
X015972Y018427D02*
X018086Y018427D01*
X018086Y018525D02*
X016007Y018525D01*
X016013Y018722D02*
X017896Y018722D01*
X017798Y018821D02*
X015987Y018821D01*
X015940Y018919D02*
X017699Y018919D01*
X017980Y019116D02*
X028652Y019116D01*
X028652Y019018D02*
X018079Y019018D01*
X018177Y018919D02*
X028652Y018919D01*
X028652Y018821D02*
X018276Y018821D01*
X018338Y018759D02*
X018338Y018759D01*
X018374Y018722D02*
X028652Y018722D01*
X028652Y018624D02*
X018421Y018624D01*
X018424Y018525D02*
X028652Y018525D01*
X028652Y018427D02*
X018424Y018427D01*
X018469Y018328D02*
X018629Y018328D01*
X018629Y018229D02*
X018483Y018229D01*
X018483Y018295D02*
X018483Y018295D01*
X018483Y018131D02*
X018629Y018131D01*
X018629Y018032D02*
X018483Y018032D01*
X018483Y017934D02*
X018629Y017934D01*
X018629Y017835D02*
X018483Y017835D01*
X018483Y017737D02*
X018629Y017737D01*
X018629Y017638D02*
X018483Y017638D01*
X018483Y017540D02*
X018629Y017540D01*
X018629Y017441D02*
X018483Y017441D01*
X018483Y017343D02*
X018629Y017343D01*
X018629Y017244D02*
X018483Y017244D01*
X018483Y017145D02*
X018629Y017145D01*
X018629Y017047D02*
X018483Y017047D01*
X018483Y016948D02*
X018629Y016948D01*
X018629Y016850D02*
X018483Y016850D01*
X018483Y016751D02*
X018629Y016751D01*
X018629Y016653D02*
X018483Y016653D01*
X018483Y016554D02*
X018629Y016554D01*
X018629Y016456D02*
X018483Y016456D01*
X018483Y016357D02*
X018629Y016357D01*
X018629Y016259D02*
X018483Y016259D01*
X018483Y016160D02*
X018629Y016160D01*
X018629Y016061D02*
X018483Y016061D01*
X018483Y015963D02*
X018629Y015963D01*
X018629Y015864D02*
X018483Y015864D01*
X018483Y015766D02*
X018629Y015766D01*
X018629Y015667D02*
X018483Y015667D01*
X018483Y015569D02*
X018629Y015569D01*
X018629Y015470D02*
X018483Y015470D01*
X018483Y015372D02*
X018629Y015372D01*
X018629Y015273D02*
X018483Y015273D01*
X018483Y015175D02*
X018629Y015175D01*
X018629Y015076D02*
X018483Y015076D01*
X018483Y014978D02*
X018629Y014978D01*
X018629Y014879D02*
X018483Y014879D01*
X018483Y014780D02*
X018629Y014780D01*
X018671Y014682D02*
X018483Y014682D01*
X018483Y014583D02*
X018573Y014583D01*
X018529Y014485D02*
X018483Y014485D01*
X018898Y014431D02*
X019183Y014715D01*
X020230Y014715D01*
X020197Y014625D01*
X020202Y014502D01*
X020254Y014391D01*
X021013Y013696D01*
X020957Y013673D01*
X020882Y013597D01*
X020873Y013575D01*
X019210Y013575D01*
X019174Y013612D01*
X019174Y013612D01*
X018786Y013999D01*
X018849Y014025D01*
X018925Y014101D01*
X018966Y014199D01*
X018966Y014306D01*
X018925Y014404D01*
X018898Y014431D01*
X018932Y014386D02*
X020260Y014386D01*
X020211Y014485D02*
X018952Y014485D01*
X019051Y014583D02*
X020199Y014583D01*
X020218Y014682D02*
X019149Y014682D01*
X018901Y014912D02*
X018875Y014912D01*
X018875Y018160D01*
X028652Y018160D01*
X028652Y017118D01*
X028740Y017030D01*
X029083Y016687D01*
X028688Y016750D01*
X028688Y016750D01*
X028241Y016679D01*
X027839Y016474D01*
X027839Y016474D01*
X027519Y016154D01*
X027314Y015752D01*
X027314Y015752D01*
X027244Y015306D01*
X027244Y015306D01*
X027314Y014859D01*
X027519Y014457D01*
X027519Y014457D01*
X027839Y014137D01*
X028241Y013932D01*
X028241Y013932D01*
X028688Y013861D01*
X029134Y013932D01*
X029537Y014137D01*
X029652Y014253D01*
X029652Y010630D01*
X025276Y010630D01*
X025306Y010643D01*
X025435Y010772D01*
X025505Y010941D01*
X025505Y011067D01*
X025573Y010903D01*
X025716Y010760D01*
X025903Y010682D01*
X026106Y010682D01*
X026293Y010760D01*
X026436Y010903D01*
X026514Y011090D01*
X026514Y011293D01*
X026436Y011480D01*
X026293Y011623D01*
X026106Y011700D01*
X025903Y011700D01*
X025716Y011623D01*
X025573Y011480D01*
X025496Y011293D01*
X025496Y011146D01*
X025435Y011292D01*
X025306Y011421D01*
X025137Y011491D01*
X024955Y011491D01*
X024786Y011421D01*
X024657Y011292D01*
X024587Y011123D01*
X024587Y010941D01*
X024657Y010772D01*
X024786Y010643D01*
X024816Y010630D01*
X024229Y010630D01*
X024249Y014912D01*
X021210Y014912D01*
X021041Y015081D01*
X020901Y015081D01*
X019070Y015081D01*
X018971Y014982D01*
X018901Y014912D01*
X018875Y014978D02*
X018967Y014978D01*
X018875Y015076D02*
X019066Y015076D01*
X018875Y015175D02*
X027264Y015175D01*
X027249Y015273D02*
X018875Y015273D01*
X018875Y015372D02*
X027254Y015372D01*
X027270Y015470D02*
X018875Y015470D01*
X018875Y015569D02*
X027285Y015569D01*
X027301Y015667D02*
X018875Y015667D01*
X018875Y015766D02*
X027321Y015766D01*
X027372Y015864D02*
X018875Y015864D01*
X018875Y015963D02*
X027422Y015963D01*
X027472Y016061D02*
X018875Y016061D01*
X018875Y016160D02*
X027525Y016160D01*
X027519Y016154D02*
X027519Y016154D01*
X027623Y016259D02*
X018875Y016259D01*
X018875Y016357D02*
X027722Y016357D01*
X027821Y016456D02*
X018875Y016456D01*
X018875Y016554D02*
X027996Y016554D01*
X028190Y016653D02*
X018875Y016653D01*
X018875Y016751D02*
X029018Y016751D01*
X028920Y016850D02*
X018875Y016850D01*
X018875Y016948D02*
X028821Y016948D01*
X028723Y017047D02*
X018875Y017047D01*
X018875Y017145D02*
X028652Y017145D01*
X028652Y017244D02*
X018875Y017244D01*
X018875Y017343D02*
X028652Y017343D01*
X028652Y017441D02*
X018875Y017441D01*
X018875Y017540D02*
X028652Y017540D01*
X028652Y017638D02*
X018875Y017638D01*
X018875Y017737D02*
X028652Y017737D01*
X028652Y017835D02*
X018875Y017835D01*
X018875Y017934D02*
X028652Y017934D01*
X028652Y018032D02*
X018875Y018032D01*
X018875Y018131D02*
X028652Y018131D01*
X028652Y019215D02*
X017882Y019215D01*
X017903Y019374D02*
X018079Y019301D01*
X018269Y019301D01*
X018445Y019374D01*
X018580Y019509D01*
X018653Y019685D01*
X018653Y019875D01*
X018580Y020051D01*
X018445Y020186D01*
X018269Y020259D01*
X018079Y020259D01*
X017903Y020186D01*
X017768Y020051D01*
X017695Y019875D01*
X017695Y019685D01*
X017768Y019509D01*
X017903Y019374D01*
X017864Y019412D02*
X017483Y019412D01*
X017581Y019511D02*
X017767Y019511D01*
X017726Y019609D02*
X017622Y019609D01*
X017653Y019708D02*
X017695Y019708D01*
X017695Y019806D02*
X017653Y019806D01*
X017641Y019905D02*
X017707Y019905D01*
X017748Y020003D02*
X017600Y020003D01*
X017530Y020102D02*
X017818Y020102D01*
X017937Y020200D02*
X017411Y020200D01*
X016937Y020200D02*
X009714Y020200D01*
X009615Y020102D02*
X016818Y020102D01*
X016748Y020003D02*
X009431Y020003D01*
X009238Y019905D02*
X016707Y019905D01*
X016695Y019806D02*
X004015Y019806D01*
X004003Y019905D02*
X008275Y019905D01*
X008310Y019887D02*
X008310Y019887D01*
X008082Y020003D02*
X003946Y020003D01*
X003989Y019708D02*
X016695Y019708D01*
X016726Y019609D02*
X003912Y019609D01*
X003701Y019511D02*
X016767Y019511D01*
X016864Y019412D02*
X003603Y019412D01*
X003504Y019313D02*
X017049Y019313D01*
X017299Y019313D02*
X018048Y019313D01*
X018299Y019313D02*
X019048Y019313D01*
X019079Y019301D02*
X019269Y019301D01*
X019445Y019374D01*
X019580Y019509D01*
X019653Y019685D01*
X019653Y019875D01*
X019580Y020051D01*
X019445Y020186D01*
X019269Y020259D01*
X019079Y020259D01*
X018903Y020186D01*
X018768Y020051D01*
X018695Y019875D01*
X018695Y019685D01*
X018768Y019509D01*
X018903Y019374D01*
X019079Y019301D01*
X019299Y019313D02*
X020676Y019313D01*
X020707Y019301D02*
X020897Y019301D01*
X021073Y019374D01*
X021208Y019509D01*
X021281Y019685D01*
X021281Y019875D01*
X021208Y020051D01*
X021073Y020186D01*
X020897Y020259D01*
X020707Y020259D01*
X020531Y020186D01*
X020396Y020051D01*
X020323Y019875D01*
X020323Y019685D01*
X020396Y019509D01*
X020531Y019374D01*
X020707Y019301D01*
X020927Y019313D02*
X021676Y019313D01*
X021707Y019301D02*
X021897Y019301D01*
X022073Y019374D01*
X022208Y019509D01*
X022281Y019685D01*
X022281Y019875D01*
X022208Y020051D01*
X022073Y020186D01*
X021897Y020259D01*
X021707Y020259D01*
X021531Y020186D01*
X021396Y020051D01*
X021323Y019875D01*
X021323Y019685D01*
X021396Y019509D01*
X021531Y019374D01*
X021707Y019301D01*
X021927Y019313D02*
X022676Y019313D01*
X022707Y019301D02*
X022897Y019301D01*
X023073Y019374D01*
X023208Y019509D01*
X023281Y019685D01*
X023281Y019875D01*
X023208Y020051D01*
X023073Y020186D01*
X022897Y020259D01*
X022707Y020259D01*
X022531Y020186D01*
X022396Y020051D01*
X022323Y019875D01*
X022323Y019685D01*
X022396Y019509D01*
X022531Y019374D01*
X022707Y019301D01*
X022927Y019313D02*
X023676Y019313D01*
X023707Y019301D02*
X023897Y019301D01*
X024073Y019374D01*
X024208Y019509D01*
X024281Y019685D01*
X024281Y019875D01*
X024208Y020051D01*
X024073Y020186D01*
X023897Y020259D01*
X023707Y020259D01*
X023531Y020186D01*
X023396Y020051D01*
X023323Y019875D01*
X023323Y019685D01*
X023396Y019509D01*
X023531Y019374D01*
X023707Y019301D01*
X023927Y019313D02*
X024676Y019313D01*
X024707Y019301D02*
X024897Y019301D01*
X025073Y019374D01*
X025208Y019509D01*
X025281Y019685D01*
X025281Y019875D01*
X025208Y020051D01*
X025073Y020186D01*
X024897Y020259D01*
X024707Y020259D01*
X024531Y020186D01*
X024396Y020051D01*
X024323Y019875D01*
X024323Y019685D01*
X024396Y019509D01*
X024531Y019374D01*
X024707Y019301D01*
X024927Y019313D02*
X025676Y019313D01*
X025707Y019301D02*
X025897Y019301D01*
X026073Y019374D01*
X026208Y019509D01*
X026281Y019685D01*
X026281Y019875D01*
X026208Y020051D01*
X026073Y020186D01*
X025897Y020259D01*
X025707Y020259D01*
X025531Y020186D01*
X025396Y020051D01*
X025323Y019875D01*
X025323Y019685D01*
X025396Y019509D01*
X025531Y019374D01*
X025707Y019301D01*
X025927Y019313D02*
X028652Y019313D01*
X028652Y019412D02*
X026111Y019412D01*
X026209Y019511D02*
X028652Y019511D01*
X028652Y019609D02*
X026250Y019609D01*
X026281Y019708D02*
X028652Y019708D01*
X028652Y019806D02*
X026281Y019806D01*
X026269Y019905D02*
X028652Y019905D01*
X028652Y020003D02*
X026228Y020003D01*
X026158Y020102D02*
X028652Y020102D01*
X028652Y020200D02*
X026039Y020200D01*
X025565Y020200D02*
X025039Y020200D01*
X025158Y020102D02*
X025446Y020102D01*
X025376Y020003D02*
X025228Y020003D01*
X025269Y019905D02*
X025335Y019905D01*
X025323Y019806D02*
X025281Y019806D01*
X025281Y019708D02*
X025323Y019708D01*
X025354Y019609D02*
X025250Y019609D01*
X025209Y019511D02*
X025395Y019511D01*
X025492Y019412D02*
X025111Y019412D01*
X024492Y019412D02*
X024111Y019412D01*
X024209Y019511D02*
X024395Y019511D01*
X024354Y019609D02*
X024250Y019609D01*
X024281Y019708D02*
X024323Y019708D01*
X024323Y019806D02*
X024281Y019806D01*
X024269Y019905D02*
X024335Y019905D01*
X024376Y020003D02*
X024228Y020003D01*
X024158Y020102D02*
X024446Y020102D01*
X024565Y020200D02*
X024039Y020200D01*
X023565Y020200D02*
X023039Y020200D01*
X023158Y020102D02*
X023446Y020102D01*
X023376Y020003D02*
X023228Y020003D01*
X023269Y019905D02*
X023335Y019905D01*
X023323Y019806D02*
X023281Y019806D01*
X023281Y019708D02*
X023323Y019708D01*
X023354Y019609D02*
X023250Y019609D01*
X023209Y019511D02*
X023395Y019511D01*
X023492Y019412D02*
X023111Y019412D01*
X022492Y019412D02*
X022111Y019412D01*
X022209Y019511D02*
X022395Y019511D01*
X022354Y019609D02*
X022250Y019609D01*
X022281Y019708D02*
X022323Y019708D01*
X022323Y019806D02*
X022281Y019806D01*
X022269Y019905D02*
X022335Y019905D01*
X022376Y020003D02*
X022228Y020003D01*
X022158Y020102D02*
X022446Y020102D01*
X022565Y020200D02*
X022039Y020200D01*
X021565Y020200D02*
X021039Y020200D01*
X021158Y020102D02*
X021446Y020102D01*
X021376Y020003D02*
X021228Y020003D01*
X021269Y019905D02*
X021335Y019905D01*
X021323Y019806D02*
X021281Y019806D01*
X021281Y019708D02*
X021323Y019708D01*
X021354Y019609D02*
X021250Y019609D01*
X021209Y019511D02*
X021395Y019511D01*
X021492Y019412D02*
X021111Y019412D01*
X020492Y019412D02*
X019483Y019412D01*
X019581Y019511D02*
X020395Y019511D01*
X020354Y019609D02*
X019622Y019609D01*
X019653Y019708D02*
X020323Y019708D01*
X020323Y019806D02*
X019653Y019806D01*
X019641Y019905D02*
X020335Y019905D01*
X020376Y020003D02*
X019600Y020003D01*
X019530Y020102D02*
X020446Y020102D01*
X020565Y020200D02*
X019411Y020200D01*
X018937Y020200D02*
X018411Y020200D01*
X018530Y020102D02*
X018818Y020102D01*
X018748Y020003D02*
X018600Y020003D01*
X018641Y019905D02*
X018707Y019905D01*
X018695Y019806D02*
X018653Y019806D01*
X018653Y019708D02*
X018695Y019708D01*
X018726Y019609D02*
X018622Y019609D01*
X018581Y019511D02*
X018767Y019511D01*
X018864Y019412D02*
X018483Y019412D01*
X017995Y018624D02*
X015549Y018624D01*
X015057Y018919D02*
X014407Y018919D01*
X014363Y018821D02*
X015010Y018821D01*
X014985Y018722D02*
X014226Y018722D01*
X014055Y018722D02*
X011114Y018722D01*
X010651Y018722D02*
X003176Y018722D01*
X003176Y018624D02*
X010529Y018624D01*
X010457Y018525D02*
X003176Y018525D01*
X003176Y018427D02*
X007837Y018427D01*
X007758Y018328D02*
X003176Y018328D01*
X003176Y018229D02*
X007731Y018229D01*
X007741Y018131D02*
X003176Y018131D01*
X003176Y018032D02*
X007796Y018032D01*
X008201Y018032D02*
X010475Y018032D01*
X010571Y017934D02*
X003176Y017934D01*
X003176Y017835D02*
X010752Y017835D01*
X010686Y017737D02*
X003176Y017737D01*
X003176Y017638D02*
X010544Y017638D01*
X010463Y017540D02*
X003176Y017540D01*
X003176Y017441D02*
X003663Y017441D01*
X003988Y017441D02*
X010423Y017441D01*
X010404Y017343D02*
X004067Y017343D01*
X004094Y017244D02*
X010404Y017244D01*
X010428Y017145D02*
X004083Y017145D01*
X004027Y017047D02*
X010469Y017047D01*
X010556Y016948D02*
X003176Y016948D01*
X003176Y017047D02*
X003624Y017047D01*
X003176Y015273D02*
X007873Y015273D01*
X007807Y015175D02*
X003176Y015175D01*
X003176Y015076D02*
X003660Y015076D01*
X003991Y015076D02*
X007790Y015076D01*
X008244Y014682D02*
X010587Y014682D01*
X010489Y014583D02*
X008309Y014583D01*
X008326Y014485D02*
X010441Y014485D01*
X010404Y014386D02*
X008306Y014386D01*
X008236Y014288D02*
X010404Y014288D01*
X011154Y013894D02*
X011289Y014028D01*
X013224Y012810D02*
X013425Y012810D01*
X013524Y012711D02*
X013322Y012711D01*
X013421Y012612D02*
X013551Y012612D01*
X013485Y012549D02*
X013485Y012549D01*
X013520Y012514D02*
X013610Y012514D01*
X013576Y012458D02*
X013576Y012458D01*
X015788Y013302D02*
X015806Y013302D01*
X015881Y013401D02*
X015904Y013401D01*
X015914Y013499D02*
X016003Y013499D01*
X015910Y013598D02*
X016101Y013598D01*
X016200Y013696D02*
X015863Y013696D01*
X015815Y013795D02*
X016286Y013795D01*
X016216Y013894D02*
X015815Y013894D01*
X015815Y013992D02*
X016195Y013992D01*
X016212Y014091D02*
X015815Y014091D01*
X015815Y014189D02*
X016277Y014189D01*
X018186Y013302D02*
X019005Y013302D01*
X019201Y013105D02*
X018359Y013105D01*
X018262Y013204D02*
X019311Y013204D01*
X019090Y013007D02*
X018465Y013007D01*
X018931Y012626D02*
X019155Y012626D01*
X019228Y012622D01*
X019232Y012626D01*
X019238Y012626D01*
X019290Y012678D01*
X019606Y012961D01*
X020958Y012961D01*
X020992Y012941D01*
X021031Y012902D01*
X021057Y012902D01*
X021079Y012889D01*
X021088Y012891D01*
X021115Y012864D01*
X021213Y012823D01*
X021320Y012823D01*
X021390Y012852D01*
X021390Y012109D01*
X021320Y012139D01*
X021213Y012139D01*
X021115Y012098D01*
X021039Y012022D01*
X020998Y011924D01*
X020998Y011817D01*
X021039Y011719D01*
X021115Y011643D01*
X021213Y011602D01*
X021320Y011602D01*
X021390Y011632D01*
X021390Y010975D01*
X019301Y010966D01*
X020273Y011937D01*
X020316Y011937D01*
X020414Y011978D01*
X020490Y012053D01*
X020531Y012152D01*
X020531Y012259D01*
X020490Y012357D01*
X020414Y012432D01*
X020316Y012473D01*
X020209Y012473D01*
X020111Y012432D01*
X020035Y012357D01*
X019994Y012259D01*
X019994Y012152D01*
X019999Y012141D01*
X018719Y010861D01*
X018719Y012223D01*
X018751Y012223D01*
X018849Y012263D01*
X018925Y012339D01*
X018966Y012437D01*
X018966Y012544D01*
X018931Y012626D01*
X018937Y012612D02*
X021390Y012612D01*
X021390Y012514D02*
X018966Y012514D01*
X018957Y012415D02*
X020094Y012415D01*
X020019Y012317D02*
X018903Y012317D01*
X018719Y012218D02*
X019994Y012218D01*
X019977Y012120D02*
X018719Y012120D01*
X018719Y012021D02*
X019879Y012021D01*
X019780Y011923D02*
X018719Y011923D01*
X018719Y011824D02*
X019682Y011824D01*
X019583Y011726D02*
X018719Y011726D01*
X018719Y011627D02*
X019485Y011627D01*
X019386Y011529D02*
X018719Y011529D01*
X018719Y011430D02*
X019288Y011430D01*
X019189Y011331D02*
X018719Y011331D01*
X018719Y011233D02*
X019091Y011233D01*
X018992Y011134D02*
X018719Y011134D01*
X018719Y011036D02*
X018893Y011036D01*
X018795Y010937D02*
X018719Y010937D01*
X019371Y011036D02*
X021390Y011036D01*
X021390Y011134D02*
X019470Y011134D01*
X019569Y011233D02*
X021390Y011233D01*
X021390Y011331D02*
X019667Y011331D01*
X019766Y011430D02*
X021390Y011430D01*
X021390Y011529D02*
X019864Y011529D01*
X019963Y011627D02*
X021154Y011627D01*
X021036Y011726D02*
X020061Y011726D01*
X020160Y011824D02*
X020998Y011824D01*
X020998Y011923D02*
X020258Y011923D01*
X020458Y012021D02*
X021039Y012021D01*
X021168Y012120D02*
X020517Y012120D01*
X020531Y012218D02*
X021390Y012218D01*
X021390Y012120D02*
X021365Y012120D01*
X021390Y012317D02*
X020506Y012317D01*
X020431Y012415D02*
X021390Y012415D01*
X021390Y012711D02*
X019327Y012711D01*
X019437Y012810D02*
X021390Y012810D01*
X021024Y012908D02*
X019547Y012908D01*
X019188Y013598D02*
X020882Y013598D01*
X021012Y013696D02*
X019089Y013696D01*
X018990Y013795D02*
X020904Y013795D01*
X020797Y013894D02*
X018892Y013894D01*
X018793Y013992D02*
X020689Y013992D01*
X020582Y014091D02*
X018915Y014091D01*
X018961Y014189D02*
X020474Y014189D01*
X020367Y014288D02*
X018966Y014288D01*
X021046Y015076D02*
X027280Y015076D01*
X027295Y014978D02*
X021145Y014978D01*
X018145Y016751D02*
X011044Y016751D01*
X010417Y018427D02*
X008160Y018427D01*
X008757Y019816D02*
X008757Y019816D01*
X009203Y019887D02*
X009203Y019887D01*
X009812Y020299D02*
X028652Y020299D01*
X028652Y020397D02*
X009911Y020397D01*
X009968Y020496D02*
X028652Y020496D01*
X028652Y020594D02*
X010018Y020594D01*
X010068Y020693D02*
X028652Y020693D01*
X028652Y020792D02*
X010119Y020792D01*
X010130Y020814D02*
X010130Y020814D01*
X010142Y020890D02*
X011971Y020890D01*
X012020Y020841D02*
X011763Y021098D01*
X011763Y021462D01*
X012020Y021719D01*
X012384Y021719D01*
X012641Y021462D01*
X012641Y021098D01*
X012384Y020841D01*
X012020Y020841D01*
X011872Y020989D02*
X010158Y020989D01*
X010173Y021087D02*
X011774Y021087D01*
X011763Y021186D02*
X010189Y021186D01*
X010197Y021284D02*
X011763Y021284D01*
X011763Y021383D02*
X010181Y021383D01*
X010166Y021481D02*
X011782Y021481D01*
X011881Y021580D02*
X010150Y021580D01*
X010135Y021678D02*
X011979Y021678D01*
X012424Y021678D02*
X012922Y021678D01*
X013003Y021760D02*
X012722Y021479D01*
X012722Y021328D01*
X013153Y021328D01*
X013153Y021231D01*
X013250Y021231D01*
X013250Y020800D01*
X013401Y020800D01*
X013682Y021081D01*
X013682Y021231D01*
X013251Y021231D01*
X013251Y021328D01*
X013682Y021328D01*
X013682Y021479D01*
X013401Y021760D01*
X013250Y021760D01*
X013250Y021329D01*
X013153Y021329D01*
X013153Y021760D01*
X013003Y021760D01*
X013153Y021678D02*
X013250Y021678D01*
X013250Y021580D02*
X013153Y021580D01*
X013153Y021481D02*
X013250Y021481D01*
X013250Y021383D02*
X013153Y021383D01*
X013153Y021284D02*
X012641Y021284D01*
X012722Y021231D02*
X012722Y021081D01*
X013003Y020800D01*
X013153Y020800D01*
X013153Y021231D01*
X012722Y021231D01*
X012722Y021186D02*
X012641Y021186D01*
X012630Y021087D02*
X012722Y021087D01*
X012814Y020989D02*
X012531Y020989D01*
X012433Y020890D02*
X012913Y020890D01*
X013153Y020890D02*
X013250Y020890D01*
X013250Y020989D02*
X013153Y020989D01*
X013153Y021087D02*
X013250Y021087D01*
X013250Y021186D02*
X013153Y021186D01*
X013251Y021284D02*
X013763Y021284D01*
X013763Y021186D02*
X013682Y021186D01*
X013682Y021087D02*
X013774Y021087D01*
X013763Y021098D02*
X014020Y020841D01*
X014384Y020841D01*
X014641Y021098D01*
X014641Y021462D01*
X014384Y021719D01*
X014020Y021719D01*
X013763Y021462D01*
X013763Y021098D01*
X013872Y020989D02*
X013589Y020989D01*
X013491Y020890D02*
X013971Y020890D01*
X014433Y020890D02*
X014971Y020890D01*
X015020Y020841D02*
X014763Y021098D01*
X014763Y021462D01*
X015020Y021719D01*
X015384Y021719D01*
X015641Y021462D01*
X015641Y021098D01*
X015384Y020841D01*
X015020Y020841D01*
X014872Y020989D02*
X014531Y020989D01*
X014630Y021087D02*
X014774Y021087D01*
X014763Y021186D02*
X014641Y021186D01*
X014641Y021284D02*
X014763Y021284D01*
X014763Y021383D02*
X014641Y021383D01*
X014621Y021481D02*
X014782Y021481D01*
X014881Y021580D02*
X014523Y021580D01*
X014424Y021678D02*
X014979Y021678D01*
X015424Y021678D02*
X015979Y021678D01*
X016020Y021719D02*
X015763Y021462D01*
X015763Y021098D01*
X016020Y020841D01*
X016384Y020841D01*
X016641Y021098D01*
X016641Y021462D01*
X016384Y021719D01*
X016020Y021719D01*
X015881Y021580D02*
X015523Y021580D01*
X015621Y021481D02*
X015782Y021481D01*
X015763Y021383D02*
X015641Y021383D01*
X015641Y021284D02*
X015763Y021284D01*
X015763Y021186D02*
X015641Y021186D01*
X015630Y021087D02*
X015774Y021087D01*
X015872Y020989D02*
X015531Y020989D01*
X015433Y020890D02*
X015971Y020890D01*
X016433Y020890D02*
X016971Y020890D01*
X017020Y020841D02*
X017384Y020841D01*
X017641Y021098D01*
X017641Y021462D01*
X017384Y021719D01*
X017020Y021719D01*
X016763Y021462D01*
X016763Y021098D01*
X017020Y020841D01*
X016872Y020989D02*
X016531Y020989D01*
X016630Y021087D02*
X016774Y021087D01*
X016763Y021186D02*
X016641Y021186D01*
X016641Y021284D02*
X016763Y021284D01*
X016763Y021383D02*
X016641Y021383D01*
X016621Y021481D02*
X016782Y021481D01*
X016881Y021580D02*
X016523Y021580D01*
X016424Y021678D02*
X016979Y021678D01*
X017424Y021678D02*
X017979Y021678D01*
X018020Y021719D02*
X017763Y021462D01*
X017763Y021098D01*
X018020Y020841D01*
X018384Y020841D01*
X018641Y021098D01*
X018641Y021462D01*
X018384Y021719D01*
X018020Y021719D01*
X017881Y021580D02*
X017523Y021580D01*
X017621Y021481D02*
X017782Y021481D01*
X017763Y021383D02*
X017641Y021383D01*
X017641Y021284D02*
X017763Y021284D01*
X017763Y021186D02*
X017641Y021186D01*
X017630Y021087D02*
X017774Y021087D01*
X017872Y020989D02*
X017531Y020989D01*
X017433Y020890D02*
X017971Y020890D01*
X018433Y020890D02*
X018971Y020890D01*
X019020Y020841D02*
X018763Y021098D01*
X018763Y021462D01*
X019020Y021719D01*
X019384Y021719D01*
X019641Y021462D01*
X019641Y021098D01*
X019384Y020841D01*
X019020Y020841D01*
X018872Y020989D02*
X018531Y020989D01*
X018630Y021087D02*
X018774Y021087D01*
X018763Y021186D02*
X018641Y021186D01*
X018641Y021284D02*
X018763Y021284D01*
X018763Y021383D02*
X018641Y021383D01*
X018621Y021481D02*
X018782Y021481D01*
X018881Y021580D02*
X018523Y021580D01*
X018424Y021678D02*
X018979Y021678D01*
X019424Y021678D02*
X020579Y021678D01*
X020620Y021719D02*
X020363Y021462D01*
X020363Y021098D01*
X020620Y020841D01*
X020984Y020841D01*
X021241Y021098D01*
X021241Y021462D01*
X020984Y021719D01*
X020620Y021719D01*
X020481Y021580D02*
X019523Y021580D01*
X019621Y021481D02*
X020382Y021481D01*
X020363Y021383D02*
X019641Y021383D01*
X019641Y021284D02*
X020363Y021284D01*
X020363Y021186D02*
X019641Y021186D01*
X019630Y021087D02*
X020374Y021087D01*
X020472Y020989D02*
X019531Y020989D01*
X019433Y020890D02*
X020571Y020890D01*
X021033Y020890D02*
X021571Y020890D01*
X021620Y020841D02*
X021984Y020841D01*
X022241Y021098D01*
X022241Y021462D01*
X021984Y021719D01*
X021620Y021719D01*
X021363Y021462D01*
X021363Y021098D01*
X021620Y020841D01*
X021472Y020989D02*
X021131Y020989D01*
X021230Y021087D02*
X021374Y021087D01*
X021363Y021186D02*
X021241Y021186D01*
X021241Y021284D02*
X021363Y021284D01*
X021363Y021383D02*
X021241Y021383D01*
X021221Y021481D02*
X021382Y021481D01*
X021481Y021580D02*
X021123Y021580D01*
X021024Y021678D02*
X021579Y021678D01*
X022024Y021678D02*
X022579Y021678D01*
X022620Y021719D02*
X022363Y021462D01*
X022363Y021098D01*
X022620Y020841D01*
X022984Y020841D01*
X023241Y021098D01*
X023241Y021462D01*
X022984Y021719D01*
X022620Y021719D01*
X022481Y021580D02*
X022123Y021580D01*
X022221Y021481D02*
X022382Y021481D01*
X022363Y021383D02*
X022241Y021383D01*
X022241Y021284D02*
X022363Y021284D01*
X022363Y021186D02*
X022241Y021186D01*
X022230Y021087D02*
X022374Y021087D01*
X022472Y020989D02*
X022131Y020989D01*
X022033Y020890D02*
X022571Y020890D01*
X023033Y020890D02*
X023571Y020890D01*
X023620Y020841D02*
X023363Y021098D01*
X023363Y021462D01*
X023620Y021719D01*
X023984Y021719D01*
X024241Y021462D01*
X024241Y021098D01*
X023984Y020841D01*
X023620Y020841D01*
X023472Y020989D02*
X023131Y020989D01*
X023230Y021087D02*
X023374Y021087D01*
X023363Y021186D02*
X023241Y021186D01*
X023241Y021284D02*
X023363Y021284D01*
X023363Y021383D02*
X023241Y021383D01*
X023221Y021481D02*
X023382Y021481D01*
X023481Y021580D02*
X023123Y021580D01*
X023024Y021678D02*
X023579Y021678D01*
X024024Y021678D02*
X024579Y021678D01*
X024620Y021719D02*
X024363Y021462D01*
X024363Y021098D01*
X024620Y020841D01*
X024984Y020841D01*
X025241Y021098D01*
X025241Y021462D01*
X024984Y021719D01*
X024620Y021719D01*
X024481Y021580D02*
X024123Y021580D01*
X024221Y021481D02*
X024382Y021481D01*
X024363Y021383D02*
X024241Y021383D01*
X024241Y021284D02*
X024363Y021284D01*
X024363Y021186D02*
X024241Y021186D01*
X024230Y021087D02*
X024374Y021087D01*
X024472Y020989D02*
X024131Y020989D01*
X024033Y020890D02*
X024571Y020890D01*
X025033Y020890D02*
X025571Y020890D01*
X025620Y020841D02*
X025984Y020841D01*
X026241Y021098D01*
X026241Y021462D01*
X025984Y021719D01*
X025620Y021719D01*
X025363Y021462D01*
X025363Y021098D01*
X025620Y020841D01*
X025472Y020989D02*
X025131Y020989D01*
X025230Y021087D02*
X025374Y021087D01*
X025363Y021186D02*
X025241Y021186D01*
X025241Y021284D02*
X025363Y021284D01*
X025363Y021383D02*
X025241Y021383D01*
X025221Y021481D02*
X025382Y021481D01*
X025481Y021580D02*
X025123Y021580D01*
X025024Y021678D02*
X025579Y021678D01*
X026024Y021678D02*
X026579Y021678D01*
X026620Y021719D02*
X026363Y021462D01*
X026363Y021098D01*
X026620Y020841D01*
X026984Y020841D01*
X027241Y021098D01*
X027241Y021462D01*
X026984Y021719D01*
X026620Y021719D01*
X026481Y021580D02*
X026123Y021580D01*
X026221Y021481D02*
X026382Y021481D01*
X026363Y021383D02*
X026241Y021383D01*
X026241Y021284D02*
X026363Y021284D01*
X026363Y021186D02*
X026241Y021186D01*
X026230Y021087D02*
X026374Y021087D01*
X026472Y020989D02*
X026131Y020989D01*
X026033Y020890D02*
X026571Y020890D01*
X027033Y020890D02*
X027571Y020890D01*
X027620Y020841D02*
X027363Y021098D01*
X027363Y021462D01*
X027620Y021719D01*
X027984Y021719D01*
X028241Y021462D01*
X028241Y021098D01*
X027984Y020841D01*
X027620Y020841D01*
X027472Y020989D02*
X027131Y020989D01*
X027230Y021087D02*
X027374Y021087D01*
X027363Y021186D02*
X027241Y021186D01*
X027241Y021284D02*
X027363Y021284D01*
X027363Y021383D02*
X027241Y021383D01*
X027221Y021481D02*
X027382Y021481D01*
X027481Y021580D02*
X027123Y021580D01*
X027024Y021678D02*
X027579Y021678D01*
X028024Y021678D02*
X028591Y021678D01*
X028652Y021580D02*
X028123Y021580D01*
X028221Y021481D02*
X028652Y021481D01*
X028652Y021383D02*
X028241Y021383D01*
X028241Y021284D02*
X028652Y021284D01*
X028652Y021186D02*
X028241Y021186D01*
X028230Y021087D02*
X028652Y021087D01*
X028652Y020989D02*
X028131Y020989D01*
X028033Y020890D02*
X028652Y020890D01*
X028493Y021777D02*
X010094Y021777D01*
X010044Y021876D02*
X028394Y021876D01*
X028296Y021974D02*
X009994Y021974D01*
X009944Y022073D02*
X028197Y022073D01*
X028241Y016679D02*
X028241Y016679D01*
X027311Y014879D02*
X024249Y014879D01*
X024248Y014780D02*
X024735Y014780D01*
X024727Y014779D02*
X024649Y014754D01*
X024577Y014717D01*
X024510Y014669D01*
X024452Y014611D01*
X024404Y014545D01*
X024367Y014472D01*
X024342Y014394D01*
X024331Y014322D01*
X024799Y014322D01*
X024799Y014222D01*
X024331Y014222D01*
X024342Y014150D01*
X024367Y014072D01*
X024404Y014000D01*
X024452Y013933D01*
X024510Y013875D01*
X024577Y013827D01*
X024649Y013790D01*
X024727Y013765D01*
X024799Y013754D01*
X024799Y014222D01*
X024899Y014222D01*
X024899Y013754D01*
X024971Y013765D01*
X025049Y013790D01*
X025122Y013827D01*
X025188Y013875D01*
X025246Y013933D01*
X025294Y014000D01*
X025331Y014072D01*
X025356Y014150D01*
X025368Y014222D01*
X024899Y014222D01*
X024899Y014322D01*
X024799Y014322D01*
X024799Y014791D01*
X024727Y014779D01*
X024799Y014780D02*
X024899Y014780D01*
X024899Y014791D02*
X024899Y014322D01*
X025368Y014322D01*
X025356Y014394D01*
X025331Y014472D01*
X025294Y014545D01*
X025246Y014611D01*
X025188Y014669D01*
X025122Y014717D01*
X025049Y014754D01*
X024971Y014779D01*
X024899Y014791D01*
X024964Y014780D02*
X027354Y014780D01*
X027314Y014859D02*
X027314Y014859D01*
X027405Y014682D02*
X026686Y014682D01*
X026695Y014678D02*
X026519Y014751D01*
X026329Y014751D01*
X026153Y014678D01*
X026018Y014543D01*
X025945Y014367D01*
X025945Y014177D01*
X026018Y014001D01*
X026153Y013866D01*
X026329Y013793D01*
X026519Y013793D01*
X026695Y013866D01*
X026830Y014001D01*
X026903Y014177D01*
X026903Y014367D01*
X026830Y014543D01*
X026695Y014678D01*
X026790Y014583D02*
X027455Y014583D01*
X027505Y014485D02*
X026854Y014485D01*
X026895Y014386D02*
X027590Y014386D01*
X027688Y014288D02*
X026903Y014288D01*
X026903Y014189D02*
X027787Y014189D01*
X027839Y014137D02*
X027839Y014137D01*
X027930Y014091D02*
X026867Y014091D01*
X026821Y013992D02*
X028124Y013992D01*
X028485Y013894D02*
X026723Y013894D01*
X026524Y013795D02*
X029652Y013795D01*
X029652Y013894D02*
X028891Y013894D01*
X028688Y013861D02*
X028688Y013861D01*
X029252Y013992D02*
X029652Y013992D01*
X029652Y014091D02*
X029445Y014091D01*
X029537Y014137D02*
X029537Y014137D01*
X029589Y014189D02*
X029652Y014189D01*
X029652Y013696D02*
X024243Y013696D01*
X024243Y013598D02*
X029652Y013598D01*
X029652Y013499D02*
X024242Y013499D01*
X024242Y013401D02*
X029652Y013401D01*
X029652Y013302D02*
X024241Y013302D01*
X024241Y013204D02*
X029652Y013204D01*
X029652Y013105D02*
X026469Y013105D01*
X026463Y013109D02*
X026424Y013119D01*
X026055Y013119D01*
X026055Y012620D01*
X025955Y012620D01*
X025955Y013119D01*
X025585Y013119D01*
X025547Y013109D01*
X025513Y013089D01*
X025485Y013061D01*
X025465Y013027D01*
X025455Y012989D01*
X025455Y012619D01*
X025954Y012619D01*
X025954Y012519D01*
X025458Y012519D01*
X025454Y012522D01*
X025416Y012532D01*
X025096Y012532D01*
X025096Y012082D01*
X024996Y012082D01*
X024996Y012532D01*
X024676Y012532D01*
X024638Y012522D01*
X024604Y012502D01*
X024576Y012474D01*
X024556Y012440D01*
X024546Y012402D01*
X024546Y012082D01*
X024996Y012082D01*
X024996Y011982D01*
X024546Y011982D01*
X024546Y011662D01*
X024556Y011624D01*
X024576Y011590D01*
X024604Y011562D01*
X024638Y011542D01*
X024676Y011532D01*
X024996Y011532D01*
X024996Y011982D01*
X025096Y011982D01*
X025096Y012082D01*
X025482Y012082D01*
X025485Y012077D01*
X025513Y012049D01*
X025547Y012030D01*
X025585Y012019D01*
X025955Y012019D01*
X025955Y012519D01*
X026055Y012519D01*
X026055Y012619D01*
X026555Y012619D01*
X026555Y012989D01*
X026544Y013027D01*
X026525Y013061D01*
X026497Y013089D01*
X026463Y013109D01*
X026550Y013007D02*
X029652Y013007D01*
X029652Y012908D02*
X026555Y012908D01*
X026555Y012810D02*
X029652Y012810D01*
X029652Y012711D02*
X026555Y012711D01*
X026555Y012519D02*
X026555Y012150D01*
X026544Y012111D01*
X026525Y012077D01*
X026497Y012049D01*
X026463Y012030D01*
X026424Y012019D01*
X026055Y012019D01*
X026055Y012519D01*
X026555Y012519D01*
X026555Y012514D02*
X029652Y012514D01*
X029652Y012612D02*
X026055Y012612D01*
X026055Y012514D02*
X025955Y012514D01*
X025954Y012612D02*
X024238Y012612D01*
X024238Y012514D02*
X024625Y012514D01*
X024550Y012415D02*
X024237Y012415D01*
X024237Y012317D02*
X024546Y012317D01*
X024546Y012218D02*
X024236Y012218D01*
X024236Y012120D02*
X024546Y012120D01*
X024546Y011923D02*
X024235Y011923D01*
X024235Y012021D02*
X024996Y012021D01*
X024996Y011923D02*
X025096Y011923D01*
X025096Y011982D02*
X025096Y011532D01*
X025416Y011532D01*
X025454Y011542D01*
X025488Y011562D01*
X025516Y011590D01*
X025536Y011624D01*
X025546Y011662D01*
X025546Y011982D01*
X025096Y011982D01*
X025096Y012021D02*
X025578Y012021D01*
X025546Y011923D02*
X029652Y011923D01*
X029652Y012021D02*
X026431Y012021D01*
X026547Y012120D02*
X029652Y012120D01*
X029652Y012218D02*
X026555Y012218D01*
X026555Y012317D02*
X029652Y012317D01*
X029652Y012415D02*
X026555Y012415D01*
X026055Y012415D02*
X025955Y012415D01*
X025955Y012317D02*
X026055Y012317D01*
X026055Y012218D02*
X025955Y012218D01*
X025955Y012120D02*
X026055Y012120D01*
X026055Y012021D02*
X025955Y012021D01*
X025546Y011824D02*
X029652Y011824D01*
X029652Y011726D02*
X025546Y011726D01*
X025536Y011627D02*
X025726Y011627D01*
X025622Y011529D02*
X024233Y011529D01*
X024234Y011627D02*
X024555Y011627D01*
X024546Y011726D02*
X024234Y011726D01*
X024235Y011824D02*
X024546Y011824D01*
X024807Y011430D02*
X024233Y011430D01*
X024232Y011331D02*
X024696Y011331D01*
X024632Y011233D02*
X024232Y011233D01*
X024231Y011134D02*
X024592Y011134D01*
X024587Y011036D02*
X024231Y011036D01*
X024230Y010937D02*
X024588Y010937D01*
X024629Y010839D02*
X024230Y010839D01*
X024230Y010740D02*
X024689Y010740D01*
X024789Y010642D02*
X024229Y010642D01*
X024595Y010247D02*
X021901Y010247D01*
X021390Y011627D02*
X021379Y011627D01*
X024239Y012711D02*
X025455Y012711D01*
X025455Y012810D02*
X024239Y012810D01*
X024239Y012908D02*
X025455Y012908D01*
X025459Y013007D02*
X024240Y013007D01*
X024240Y013105D02*
X025540Y013105D01*
X025955Y013105D02*
X026055Y013105D01*
X026055Y013007D02*
X025955Y013007D01*
X025955Y012908D02*
X026055Y012908D01*
X026055Y012810D02*
X025955Y012810D01*
X025955Y012711D02*
X026055Y012711D01*
X025096Y012514D02*
X024996Y012514D01*
X024996Y012415D02*
X025096Y012415D01*
X025096Y012317D02*
X024996Y012317D01*
X024996Y012218D02*
X025096Y012218D01*
X025096Y012120D02*
X024996Y012120D01*
X024996Y011824D02*
X025096Y011824D01*
X025096Y011726D02*
X024996Y011726D01*
X024996Y011627D02*
X025096Y011627D01*
X025285Y011430D02*
X025552Y011430D01*
X025512Y011331D02*
X025396Y011331D01*
X025460Y011233D02*
X025496Y011233D01*
X025505Y011036D02*
X025518Y011036D01*
X025504Y010937D02*
X025559Y010937D01*
X025637Y010839D02*
X025463Y010839D01*
X025403Y010740D02*
X025764Y010740D01*
X025303Y010642D02*
X029652Y010642D01*
X029652Y010740D02*
X026245Y010740D01*
X026372Y010839D02*
X029652Y010839D01*
X029652Y010937D02*
X026450Y010937D01*
X026491Y011036D02*
X029652Y011036D01*
X029652Y011134D02*
X026514Y011134D01*
X026514Y011233D02*
X029652Y011233D01*
X029652Y011331D02*
X026498Y011331D01*
X026457Y011430D02*
X029652Y011430D01*
X029652Y011529D02*
X026387Y011529D01*
X026283Y011627D02*
X029652Y011627D01*
X029652Y010247D02*
X026343Y010247D01*
X026441Y010149D02*
X029652Y010149D01*
X029652Y010050D02*
X026501Y010050D01*
X026538Y009952D02*
X029652Y009952D01*
X029652Y009853D02*
X026055Y009853D01*
X026055Y009763D02*
X026554Y009763D01*
X026541Y009685D01*
X026514Y009602D01*
X026475Y009525D01*
X026424Y009455D01*
X026363Y009394D01*
X026293Y009343D01*
X026216Y009304D01*
X026133Y009277D01*
X026055Y009264D01*
X026055Y009763D01*
X026055Y009755D02*
X025955Y009755D01*
X025954Y009763D02*
X025469Y009763D01*
X025474Y009770D01*
X025509Y009840D01*
X025517Y009863D01*
X025954Y009863D01*
X025954Y009763D01*
X025954Y009853D02*
X025514Y009853D01*
X025477Y009656D02*
X025377Y009656D01*
X025518Y009558D02*
X025204Y009558D01*
X025214Y009459D02*
X025582Y009459D01*
X025692Y009361D02*
X025367Y009361D01*
X025448Y009262D02*
X029652Y009262D01*
X029652Y009361D02*
X026317Y009361D01*
X026427Y009459D02*
X029652Y009459D01*
X029652Y009558D02*
X026492Y009558D01*
X026532Y009656D02*
X029652Y009656D01*
X029652Y009755D02*
X026552Y009755D01*
X026055Y009656D02*
X025955Y009656D01*
X025955Y009558D02*
X026055Y009558D01*
X026055Y009459D02*
X025955Y009459D01*
X025955Y009361D02*
X026055Y009361D01*
X025488Y009163D02*
X029652Y009163D01*
X029652Y009065D02*
X025505Y009065D01*
X025096Y009558D02*
X024996Y009558D01*
X024996Y009656D02*
X025096Y009656D01*
X025096Y009755D02*
X024996Y009755D01*
X024996Y009853D02*
X025096Y009853D01*
X025096Y009952D02*
X024996Y009952D01*
X024996Y010082D02*
X024548Y010082D01*
X024558Y010149D01*
X024640Y013795D02*
X024244Y013795D01*
X024244Y013894D02*
X024492Y013894D01*
X024410Y013992D02*
X024244Y013992D01*
X024245Y014091D02*
X024361Y014091D01*
X024336Y014189D02*
X024245Y014189D01*
X024246Y014288D02*
X024799Y014288D01*
X024799Y014386D02*
X024899Y014386D01*
X024899Y014288D02*
X025945Y014288D01*
X025953Y014386D02*
X025358Y014386D01*
X025324Y014485D02*
X025994Y014485D01*
X026058Y014583D02*
X025266Y014583D01*
X025170Y014682D02*
X026161Y014682D01*
X025945Y014189D02*
X025362Y014189D01*
X025337Y014091D02*
X025981Y014091D01*
X026026Y013992D02*
X025288Y013992D01*
X025206Y013894D02*
X026125Y013894D01*
X026324Y013795D02*
X025058Y013795D01*
X024899Y013795D02*
X024799Y013795D01*
X024799Y013894D02*
X024899Y013894D01*
X024899Y013992D02*
X024799Y013992D01*
X024799Y014091D02*
X024899Y014091D01*
X024899Y014189D02*
X024799Y014189D01*
X024341Y014386D02*
X024246Y014386D01*
X024247Y014485D02*
X024374Y014485D01*
X024433Y014583D02*
X024247Y014583D01*
X024248Y014682D02*
X024528Y014682D01*
X024799Y014682D02*
X024899Y014682D01*
X024899Y014583D02*
X024799Y014583D01*
X024799Y014485D02*
X024899Y014485D01*
X015197Y015864D02*
X014121Y015864D01*
X014200Y015963D02*
X015099Y015963D01*
X015054Y016061D02*
X014231Y016061D01*
X014282Y016160D02*
X015020Y016160D01*
X015020Y016259D02*
X014327Y016259D01*
X014330Y016357D02*
X015029Y016357D01*
X015069Y016456D02*
X014295Y016456D01*
X014195Y016554D02*
X015135Y016554D01*
X013917Y018821D02*
X003176Y018821D01*
X003181Y018919D02*
X013874Y018919D01*
X013872Y019018D02*
X003261Y019018D01*
X003341Y019116D02*
X013908Y019116D01*
X014015Y019215D02*
X003422Y019215D01*
X003095Y019412D02*
X002952Y019412D01*
X002952Y019511D02*
X003167Y019511D01*
X003256Y019609D02*
X002952Y019609D01*
X002952Y019708D02*
X003364Y019708D01*
X003462Y019806D02*
X002952Y019806D01*
X002952Y019905D02*
X003490Y019905D01*
X003548Y020003D02*
X002952Y020003D01*
X002952Y020102D02*
X007898Y020102D01*
X007908Y020092D02*
X007908Y020092D01*
X007799Y020200D02*
X002952Y020200D01*
X002952Y020299D02*
X007701Y020299D01*
X007602Y020397D02*
X002952Y020397D01*
X002952Y020496D02*
X007545Y020496D01*
X007588Y020411D02*
X007588Y020411D01*
X007495Y020594D02*
X002952Y020594D01*
X002952Y020693D02*
X007445Y020693D01*
X007394Y020792D02*
X002952Y020792D01*
X002952Y020890D02*
X007371Y020890D01*
X007383Y020814D02*
X007383Y020814D01*
X007355Y020989D02*
X002952Y020989D01*
X002952Y021087D02*
X007340Y021087D01*
X007324Y021186D02*
X002952Y021186D01*
X002952Y021284D02*
X007316Y021284D01*
X007312Y021260D02*
X007312Y021260D01*
X007332Y021383D02*
X002952Y021383D01*
X002952Y021481D02*
X007347Y021481D01*
X007363Y021580D02*
X002952Y021580D01*
X002952Y021678D02*
X007379Y021678D01*
X007419Y021777D02*
X002952Y021777D01*
X002952Y021876D02*
X007469Y021876D01*
X007519Y021974D02*
X002952Y021974D01*
X002952Y022073D02*
X007570Y022073D01*
X007588Y022109D02*
X007588Y022109D01*
X009925Y022109D02*
X009925Y022109D01*
X012523Y021580D02*
X012823Y021580D01*
X012724Y021481D02*
X012621Y021481D01*
X012641Y021383D02*
X012722Y021383D01*
X013482Y021678D02*
X013979Y021678D01*
X013881Y021580D02*
X013581Y021580D01*
X013679Y021481D02*
X013782Y021481D01*
X013763Y021383D02*
X013682Y021383D01*
X003627Y014682D02*
X003176Y014682D01*
X005647Y013105D02*
X005698Y013105D01*
X005700Y013007D02*
X005743Y013007D01*
X005743Y012908D02*
X005708Y012908D01*
X005678Y012810D02*
X005743Y012810D01*
X003014Y019313D02*
X002952Y019313D01*
X017929Y006207D02*
X029652Y006207D01*
X029652Y006109D02*
X017830Y006109D01*
X017265Y003152D02*
X009475Y003152D01*
X009605Y001674D02*
X028652Y001674D01*
X028652Y001576D02*
X009548Y001576D01*
X009477Y001477D02*
X028652Y001477D01*
X028652Y001970D02*
X028113Y001970D01*
X028211Y002068D02*
X028652Y002068D01*
X028652Y002167D02*
X028241Y002167D01*
X028241Y002265D02*
X028652Y002265D01*
X028674Y002364D02*
X028241Y002364D01*
X028240Y002463D02*
X028772Y002463D01*
X028871Y002561D02*
X028142Y002561D01*
X028043Y002660D02*
X028969Y002660D01*
X018850Y002068D02*
X018753Y002068D01*
X018753Y001970D02*
X018850Y001970D01*
X018850Y001871D02*
X018753Y001871D01*
D20*
X012617Y009363D03*
X008284Y009363D03*
D21*
X006148Y010138D03*
X004928Y010611D03*
X005046Y011615D03*
X005558Y012067D03*
X005637Y012461D03*
X005440Y012934D03*
X004534Y013406D03*
X004928Y014626D03*
X003826Y014863D03*
X006385Y013800D03*
X007605Y013760D03*
X008058Y014489D03*
X008058Y015079D03*
X007605Y015178D03*
X008058Y015867D03*
X007467Y016457D03*
X006385Y016556D03*
X007566Y017934D03*
X007999Y018209D03*
X006385Y019311D03*
X006385Y020768D03*
X003747Y019823D03*
X003826Y017225D03*
X006739Y011615D03*
X012310Y014863D03*
X013068Y014617D03*
X013068Y015650D03*
X014062Y016319D03*
X015646Y014420D03*
X015646Y013534D03*
X016463Y013997D03*
X016522Y014597D03*
X018007Y014300D03*
X018698Y014252D03*
X019158Y013896D03*
X019493Y014270D03*
X020162Y014270D03*
X020509Y014577D03*
X020595Y013719D03*
X021109Y013445D03*
X021266Y013091D03*
X020871Y012833D03*
X020300Y012813D03*
X020263Y012205D03*
X019355Y012302D03*
X018698Y012491D03*
X018154Y012302D03*
X017997Y012695D03*
X018018Y013091D03*
X018381Y013689D03*
X018991Y013158D03*
X019788Y013739D03*
X020890Y012203D03*
X021266Y011871D03*
X020930Y011514D03*
X020123Y011514D03*
X018961Y011514D03*
X018154Y011514D03*
X016540Y012873D03*
X014652Y013052D03*
X013806Y012697D03*
X013451Y010945D03*
X014554Y010040D03*
X015282Y007678D03*
X016599Y007400D03*
X016973Y007400D03*
X017347Y007400D03*
X018432Y006949D03*
X016070Y006201D03*
X011463Y003445D03*
X011424Y002304D03*
X021650Y010434D03*
X022723Y013485D03*
X017349Y017943D03*
X016975Y017943D03*
X016601Y017943D03*
X014140Y018977D03*
D22*
X014261Y019098D01*
X014350Y019134D02*
X017723Y019134D01*
X018218Y018639D01*
X018255Y018551D02*
X018255Y018347D01*
X018277Y018324D01*
X018314Y018236D02*
X018314Y014233D01*
X019104Y013443D01*
X019192Y013406D02*
X021070Y013406D01*
X021109Y013445D01*
X021660Y014213D02*
X021621Y014262D01*
X020971Y014912D01*
X019140Y014912D01*
X018698Y014469D01*
X018698Y014252D01*
X019104Y013443D02*
X019119Y013430D01*
X019135Y013420D01*
X019153Y013412D01*
X019172Y013408D01*
X019192Y013406D01*
X018698Y012491D02*
X018550Y012402D01*
X018550Y010781D01*
X018513Y010692D02*
X017900Y010079D01*
X017900Y006745D01*
X017864Y006657D02*
X017664Y006457D01*
X016948Y006457D01*
X016889Y006260D02*
X016869Y006262D01*
X016850Y006266D01*
X016832Y006274D01*
X016816Y006284D01*
X016801Y006297D01*
X015617Y007481D01*
X015531Y007481D01*
X015442Y007517D02*
X015282Y007678D01*
X015443Y007518D02*
X015458Y007505D01*
X015474Y007495D01*
X015492Y007487D01*
X015511Y007483D01*
X015531Y007481D01*
X015796Y007615D02*
X015809Y007600D01*
X015819Y007584D01*
X015827Y007566D01*
X015831Y007547D01*
X015833Y007527D01*
X015833Y007520D01*
X016860Y006494D01*
X016875Y006481D01*
X016891Y006471D01*
X016909Y006463D01*
X016928Y006459D01*
X016948Y006457D01*
X016889Y006260D02*
X017743Y006260D01*
X018061Y006578D01*
X018097Y006666D02*
X018097Y010000D01*
X020235Y012138D01*
X020234Y012138D02*
X020246Y012152D01*
X020255Y012169D01*
X020260Y012186D01*
X020262Y012205D01*
X018550Y010781D02*
X018548Y010761D01*
X018544Y010742D01*
X018536Y010724D01*
X018526Y010708D01*
X018513Y010693D01*
X015794Y013052D02*
X016463Y013721D01*
X016463Y013997D01*
X015646Y014420D02*
X015646Y013534D01*
X015794Y013052D02*
X014652Y013052D01*
X013806Y012698D02*
X013792Y012699D01*
X013779Y012703D01*
X013767Y012710D01*
X013756Y012719D01*
X013755Y012718D02*
X013068Y013406D01*
X013068Y014617D01*
X012310Y014863D02*
X012310Y013536D01*
X012346Y013448D02*
X013415Y012380D01*
X013451Y012291D02*
X013451Y010945D01*
X014554Y010040D02*
X014554Y008819D01*
X015274Y008099D01*
X015341Y008071D02*
X015797Y007616D01*
X015341Y008071D02*
X015322Y008073D01*
X015305Y008078D01*
X015288Y008087D01*
X015274Y008099D01*
X016070Y006201D02*
X016070Y004587D01*
X017802Y002855D01*
X017802Y002280D01*
X018060Y006578D02*
X018073Y006593D01*
X018083Y006609D01*
X018091Y006627D01*
X018095Y006646D01*
X018097Y006666D01*
X017900Y006745D02*
X017898Y006725D01*
X017894Y006706D01*
X017886Y006688D01*
X017876Y006672D01*
X017863Y006657D01*
X013451Y012291D02*
X013449Y012311D01*
X013445Y012330D01*
X013437Y012348D01*
X013427Y012364D01*
X013414Y012379D01*
X012347Y013448D02*
X012334Y013463D01*
X012324Y013479D01*
X012316Y013497D01*
X012312Y013516D01*
X012310Y013536D01*
X012861Y015197D02*
X012723Y015335D01*
X011503Y015335D01*
X011463Y015374D01*
X011207Y015374D01*
X011129Y015296D01*
X010892Y015296D01*
X010883Y015300D01*
X010922Y016290D02*
X010883Y016300D01*
X010922Y016290D02*
X012428Y016290D01*
X013068Y015650D01*
X013412Y015414D02*
X013196Y015197D01*
X012861Y015197D01*
X013412Y015414D02*
X013432Y015414D01*
X014025Y016007D01*
X014062Y016096D02*
X014062Y016319D01*
X014062Y016096D02*
X014060Y016076D01*
X014056Y016057D01*
X014048Y016039D01*
X014038Y016023D01*
X014025Y016008D01*
X010883Y018300D02*
X010873Y018288D01*
X010558Y018288D01*
X010479Y018209D01*
X007999Y018209D01*
X007467Y016457D02*
X008058Y015867D01*
X008058Y015079D02*
X008058Y014489D01*
X006109Y013209D02*
X004928Y014390D01*
X004928Y014626D01*
X003826Y014863D02*
X003026Y014863D01*
X002987Y014823D01*
X004534Y013406D02*
X005637Y013406D01*
X005912Y013130D01*
X005912Y012737D01*
X005637Y012461D01*
X005637Y012146D02*
X005715Y012146D01*
X006109Y012540D01*
X006109Y013209D01*
X005440Y012934D02*
X002987Y012934D01*
X005046Y011615D02*
X006739Y011615D01*
X005637Y012146D02*
X005558Y012067D01*
X003826Y017225D02*
X003066Y017225D01*
X002987Y017146D01*
X014262Y019097D02*
X014277Y019110D01*
X014293Y019120D01*
X014311Y019128D01*
X014330Y019132D01*
X014350Y019134D01*
X018218Y018639D02*
X018231Y018624D01*
X018241Y018608D01*
X018249Y018590D01*
X018253Y018571D01*
X018255Y018551D01*
X018277Y018324D02*
X018290Y018309D01*
X018300Y018293D01*
X018308Y018275D01*
X018312Y018256D01*
X018314Y018236D01*
X020420Y014567D02*
X020509Y014577D01*
X021660Y014213D02*
X022389Y013485D01*
X022723Y013485D01*
D23*
X020932Y015926D03*
X020932Y016280D03*
X020577Y016280D03*
X020577Y015926D03*
X019278Y015926D03*
X018983Y015926D03*
X018983Y016260D03*
X019278Y016260D03*
X019276Y009730D03*
X018961Y009730D03*
X018961Y009395D03*
X019276Y009395D03*
X020558Y009395D03*
X020558Y009730D03*
X020912Y009730D03*
X020912Y009395D03*
D24*
X025085Y010060D02*
X025400Y009823D01*
X025951Y009823D01*
D25*
X024829Y007579D02*
X024849Y007560D01*
X024849Y006772D01*
D26*
X021650Y010434D02*
X021700Y010483D01*
X021700Y011871D02*
X021266Y011871D01*
X021266Y013091D02*
X021109Y013091D01*
X021011Y013150D01*
X019534Y013150D01*
X019160Y012815D01*
X018392Y012815D01*
X018097Y013091D01*
X018018Y013091D01*
X004928Y010611D02*
X003538Y010611D01*
X002987Y011162D01*
X002987Y012934D01*
X002987Y014823D01*
X002987Y017146D01*
X002987Y018981D01*
X003353Y019430D01*
X003747Y019823D01*
X011424Y002304D02*
X015778Y002304D01*
X015802Y002280D01*
D27*
X018432Y006949D02*
X018432Y009882D01*
X019131Y010483D01*
X021700Y010483D01*
X021700Y011871D01*
X021700Y013485D01*
X020509Y014577D01*
M02*
