G75*
G70*
%OFA0B0*%
%FSLAX24Y24*%
%IPPOS*%
%LPD*%
%AMOC8*
5,1,8,0,0,1.08239X$1,22.5*
%
%ADD10C,0.0030*%
%ADD11C,0.0040*%
%ADD12C,0.0060*%
%ADD13C,0.0090*%
%ADD14C,0.0100*%
%ADD15C,0.0050*%
%ADD16C,0.0080*%
%ADD17C,0.0010*%
%ADD18C,0.0020*%
%ADD19R,0.0650X0.4000*%
%ADD20R,0.0058X0.0008*%
%ADD21R,0.0058X0.0008*%
%ADD22R,0.0075X0.0008*%
%ADD23R,0.0067X0.0008*%
%ADD24R,0.0066X0.0008*%
%ADD25R,0.0058X0.0008*%
%ADD26R,0.0050X0.0008*%
%ADD27R,0.0108X0.0008*%
%ADD28R,0.0158X0.0008*%
%ADD29R,0.0108X0.0008*%
%ADD30R,0.0059X0.0008*%
%ADD31R,0.0066X0.0008*%
%ADD32R,0.0133X0.0008*%
%ADD33R,0.0117X0.0008*%
%ADD34R,0.0058X0.0008*%
%ADD35R,0.0067X0.0008*%
%ADD36R,0.0158X0.0008*%
%ADD37R,0.0058X0.0008*%
%ADD38R,0.0050X0.0008*%
%ADD39R,0.0142X0.0008*%
%ADD40R,0.0158X0.0008*%
%ADD41R,0.0142X0.0008*%
%ADD42R,0.0059X0.0008*%
%ADD43R,0.0066X0.0008*%
%ADD44R,0.0150X0.0008*%
%ADD45R,0.0133X0.0008*%
%ADD46R,0.0067X0.0008*%
%ADD47R,0.0158X0.0008*%
%ADD48R,0.0050X0.0008*%
%ADD49R,0.0158X0.0008*%
%ADD50R,0.0158X0.0008*%
%ADD51R,0.0059X0.0008*%
%ADD52R,0.0167X0.0008*%
%ADD53R,0.0175X0.0008*%
%ADD54R,0.0075X0.0008*%
%ADD55R,0.0166X0.0008*%
%ADD56R,0.0183X0.0008*%
%ADD57R,0.0192X0.0008*%
%ADD58R,0.0192X0.0008*%
%ADD59R,0.0083X0.0008*%
%ADD60R,0.0175X0.0008*%
%ADD61R,0.0083X0.0008*%
%ADD62R,0.0083X0.0008*%
%ADD63R,0.0092X0.0008*%
%ADD64R,0.0076X0.0008*%
%ADD65R,0.0083X0.0008*%
%ADD66R,0.0091X0.0008*%
%ADD67R,0.0083X0.0008*%
%ADD68R,0.0067X0.0008*%
%ADD69R,0.0092X0.0008*%
%ADD70R,0.0058X0.0008*%
%ADD71R,0.0067X0.0008*%
%ADD72R,0.0100X0.0008*%
%ADD73R,0.0092X0.0008*%
%ADD74R,0.0100X0.0008*%
%ADD75R,0.0067X0.0008*%
%ADD76R,0.0100X0.0008*%
%ADD77R,0.0108X0.0008*%
%ADD78R,0.0108X0.0008*%
%ADD79R,0.0116X0.0008*%
%ADD80R,0.0108X0.0008*%
%ADD81R,0.0116X0.0008*%
%ADD82R,0.0075X0.0008*%
%ADD83R,0.0125X0.0008*%
%ADD84R,0.0125X0.0008*%
%ADD85R,0.0109X0.0008*%
%ADD86R,0.0109X0.0008*%
%ADD87R,0.0167X0.0008*%
%ADD88R,0.0183X0.0008*%
%ADD89R,0.0192X0.0008*%
%ADD90R,0.0192X0.0008*%
%ADD91R,0.0117X0.0008*%
%ADD92R,0.0117X0.0008*%
%ADD93R,0.0117X0.0008*%
%ADD94R,0.0117X0.0008*%
%ADD95R,0.0109X0.0008*%
%ADD96R,0.0108X0.0008*%
%ADD97R,0.0092X0.0008*%
%ADD98R,0.0092X0.0008*%
%ADD99R,0.0084X0.0008*%
%ADD100R,0.0092X0.0008*%
%ADD101R,0.0083X0.0008*%
%ADD102R,0.0084X0.0008*%
%ADD103R,0.0217X0.0008*%
%ADD104R,0.0084X0.0008*%
%ADD105R,0.0041X0.0008*%
%ADD106R,0.0076X0.0008*%
%ADD107R,0.0208X0.0008*%
%ADD108R,0.0192X0.0008*%
%ADD109R,0.0217X0.0008*%
%ADD110R,0.0175X0.0008*%
%ADD111R,0.0183X0.0008*%
%ADD112R,0.0216X0.0008*%
%ADD113R,0.0184X0.0008*%
%ADD114R,0.0217X0.0008*%
%ADD115R,0.0167X0.0008*%
%ADD116R,0.0216X0.0008*%
%ADD117R,0.0216X0.0008*%
%ADD118R,0.0142X0.0008*%
%ADD119R,0.0142X0.0008*%
%ADD120R,0.0150X0.0008*%
%ADD121R,0.0133X0.0008*%
%ADD122R,0.0167X0.0008*%
%ADD123R,0.0134X0.0008*%
%ADD124R,0.0150X0.0008*%
%ADD125R,0.0049X0.0008*%
%ADD126R,0.0159X0.0008*%
%ADD127R,0.0166X0.0008*%
%ADD128R,0.0250X0.0008*%
%ADD129R,0.0159X0.0008*%
%ADD130R,0.0283X0.0008*%
%ADD131R,0.0159X0.0008*%
%ADD132R,0.0167X0.0008*%
%ADD133R,0.0166X0.0008*%
%ADD134R,0.0167X0.0008*%
%ADD135R,0.0317X0.0008*%
%ADD136R,0.0342X0.0008*%
%ADD137R,0.0366X0.0008*%
%ADD138R,0.0392X0.0008*%
%ADD139R,0.0408X0.0008*%
%ADD140R,0.0425X0.0008*%
%ADD141R,0.0442X0.0008*%
%ADD142R,0.0458X0.0008*%
%ADD143R,0.0184X0.0008*%
%ADD144R,0.0474X0.0008*%
%ADD145R,0.0184X0.0008*%
%ADD146R,0.0474X0.0008*%
%ADD147R,0.0492X0.0008*%
%ADD148R,0.0508X0.0008*%
%ADD149R,0.0508X0.0008*%
%ADD150R,0.0200X0.0008*%
%ADD151R,0.0233X0.0008*%
%ADD152R,0.0234X0.0008*%
%ADD153R,0.0200X0.0008*%
%ADD154R,0.0208X0.0008*%
%ADD155R,0.0200X0.0008*%
%ADD156R,0.0209X0.0008*%
%ADD157R,0.0183X0.0008*%
%ADD158R,0.0209X0.0008*%
%ADD159R,0.0176X0.0008*%
%ADD160R,0.0174X0.0008*%
%ADD161R,0.0225X0.0008*%
%ADD162R,0.0225X0.0008*%
%ADD163R,0.0234X0.0008*%
%ADD164R,0.0234X0.0008*%
%ADD165R,0.0242X0.0008*%
%ADD166R,0.0242X0.0008*%
%ADD167R,0.0242X0.0008*%
%ADD168R,0.0250X0.0008*%
%ADD169R,0.0250X0.0008*%
%ADD170R,0.0259X0.0008*%
%ADD171R,0.0259X0.0008*%
%ADD172R,0.0259X0.0008*%
%ADD173R,0.0267X0.0008*%
%ADD174R,0.0267X0.0008*%
%ADD175R,0.0617X0.0008*%
%ADD176R,0.0267X0.0008*%
%ADD177R,0.0617X0.0008*%
%ADD178R,0.0275X0.0008*%
%ADD179R,0.0608X0.0008*%
%ADD180R,0.0275X0.0008*%
%ADD181R,0.0608X0.0008*%
%ADD182R,0.0284X0.0008*%
%ADD183R,0.0600X0.0008*%
%ADD184R,0.0284X0.0008*%
%ADD185R,0.0600X0.0008*%
%ADD186R,0.0284X0.0008*%
%ADD187R,0.0592X0.0008*%
%ADD188R,0.0133X0.0008*%
%ADD189R,0.0292X0.0008*%
%ADD190R,0.0592X0.0008*%
%ADD191R,0.0133X0.0008*%
%ADD192R,0.0292X0.0008*%
%ADD193R,0.0592X0.0008*%
%ADD194R,0.0292X0.0008*%
%ADD195R,0.0583X0.0008*%
%ADD196R,0.0300X0.0008*%
%ADD197R,0.0575X0.0008*%
%ADD198R,0.0300X0.0008*%
%ADD199R,0.0575X0.0008*%
%ADD200R,0.0309X0.0008*%
%ADD201R,0.0575X0.0008*%
%ADD202R,0.0309X0.0008*%
%ADD203R,0.0567X0.0008*%
%ADD204R,0.0567X0.0008*%
%ADD205R,0.0558X0.0008*%
%ADD206R,0.0183X0.0008*%
%ADD207R,0.0558X0.0008*%
%ADD208R,0.0183X0.0008*%
%ADD209R,0.0141X0.0008*%
%ADD210R,0.0142X0.0008*%
%ADD211R,0.0142X0.0008*%
%ADD212R,0.0242X0.0008*%
%ADD213R,0.0141X0.0008*%
%ADD214R,0.0459X0.0008*%
%ADD215R,0.0459X0.0008*%
%ADD216R,0.0459X0.0008*%
%ADD217R,0.0283X0.0008*%
%ADD218R,0.0450X0.0008*%
%ADD219R,0.0475X0.0008*%
%ADD220R,0.0141X0.0008*%
%ADD221R,0.0492X0.0008*%
%ADD222R,0.0500X0.0008*%
%ADD223R,0.0509X0.0008*%
%ADD224R,0.0517X0.0008*%
%ADD225R,0.0134X0.0008*%
%ADD226R,0.0525X0.0008*%
%ADD227R,0.0134X0.0008*%
%ADD228R,0.0534X0.0008*%
%ADD229R,0.0542X0.0008*%
%ADD230R,0.0550X0.0008*%
%ADD231R,0.0550X0.0008*%
%ADD232R,0.0559X0.0008*%
%ADD233R,0.0567X0.0008*%
%ADD234R,0.0191X0.0008*%
%ADD235R,0.0133X0.0008*%
%ADD236R,0.0149X0.0008*%
%ADD237R,0.0308X0.0008*%
%ADD238R,0.0300X0.0008*%
%ADD239R,0.0125X0.0008*%
%ADD240R,0.0291X0.0008*%
%ADD241R,0.0291X0.0008*%
%ADD242R,0.0292X0.0008*%
%ADD243R,0.0283X0.0008*%
%ADD244R,0.0292X0.0008*%
%ADD245R,0.0283X0.0008*%
%ADD246R,0.0292X0.0008*%
%ADD247R,0.0283X0.0008*%
%ADD248R,0.0275X0.0008*%
%ADD249R,0.0283X0.0008*%
%ADD250R,0.0267X0.0008*%
%ADD251R,0.0258X0.0008*%
%ADD252R,0.0267X0.0008*%
%ADD253R,0.0258X0.0008*%
%ADD254R,0.0258X0.0008*%
%ADD255R,0.0258X0.0008*%
%ADD256R,0.0258X0.0008*%
%ADD257R,0.0258X0.0008*%
%ADD258R,0.0233X0.0008*%
%ADD259R,0.0242X0.0008*%
%ADD260R,0.0233X0.0008*%
%ADD261R,0.0233X0.0008*%
%ADD262R,0.0233X0.0008*%
%ADD263R,0.0225X0.0008*%
%ADD264R,0.0233X0.0008*%
%ADD265R,0.0242X0.0008*%
%ADD266R,0.0217X0.0008*%
%ADD267R,0.0176X0.0008*%
%ADD268R,0.0208X0.0008*%
%ADD269R,0.0217X0.0008*%
%ADD270R,0.0208X0.0008*%
%ADD271R,0.0217X0.0008*%
%ADD272R,0.0208X0.0008*%
%ADD273R,0.0208X0.0008*%
%ADD274R,0.0567X0.0008*%
%ADD275R,0.0241X0.0008*%
%ADD276R,0.0600X0.0008*%
%ADD277R,0.0192X0.0008*%
%ADD278R,0.0534X0.0008*%
%ADD279R,0.0458X0.0008*%
%ADD280R,0.0525X0.0008*%
%ADD281R,0.0442X0.0008*%
%ADD282R,0.0434X0.0008*%
%ADD283R,0.0509X0.0008*%
%ADD284R,0.0417X0.0008*%
%ADD285R,0.0500X0.0008*%
%ADD286R,0.0392X0.0008*%
%ADD287R,0.0374X0.0008*%
%ADD288R,0.0475X0.0008*%
%ADD289R,0.0358X0.0008*%
%ADD290R,0.0325X0.0008*%
%ADD291R,0.0442X0.0008*%
%ADD292R,0.0409X0.0008*%
%ADD293R,0.0274X0.0008*%
%ADD294R,0.0359X0.0008*%
%ADD295R,0.0317X0.0008*%
%ADD296R,0.0316X0.0008*%
%ADD297R,0.0333X0.0008*%
%ADD298R,0.0342X0.0008*%
%ADD299R,0.0358X0.0008*%
%ADD300R,0.0375X0.0008*%
%ADD301R,0.0384X0.0008*%
%ADD302R,0.0400X0.0008*%
%ADD303R,0.0400X0.0008*%
%ADD304R,0.0417X0.0008*%
%ADD305R,0.0416X0.0008*%
%ADD306R,0.0433X0.0008*%
%ADD307R,0.0434X0.0008*%
%ADD308R,0.0450X0.0008*%
%ADD309R,0.0466X0.0008*%
%ADD310R,0.0467X0.0008*%
%ADD311R,0.0466X0.0008*%
%ADD312R,0.0483X0.0008*%
%ADD313R,0.0484X0.0008*%
%ADD314R,0.0483X0.0008*%
%ADD315R,0.0484X0.0008*%
%ADD316R,0.0116X0.0008*%
%ADD317R,0.1158X0.0008*%
%ADD318R,0.1125X0.0008*%
%ADD319R,0.1100X0.0008*%
%ADD320R,0.1075X0.0008*%
%ADD321R,0.1042X0.0008*%
%ADD322R,0.1008X0.0008*%
%ADD323R,0.0984X0.0008*%
%ADD324R,0.0017X0.0008*%
%ADD325R,0.0958X0.0008*%
%ADD326R,0.0016X0.0008*%
%ADD327R,0.0017X0.0008*%
%ADD328R,0.0924X0.0008*%
%ADD329R,0.0034X0.0008*%
%ADD330R,0.0892X0.0008*%
%ADD331R,0.0025X0.0008*%
%ADD332R,0.0874X0.0008*%
%ADD333R,0.0042X0.0008*%
%ADD334R,0.0842X0.0008*%
%ADD335R,0.0808X0.0008*%
%ADD336R,0.0191X0.0008*%
%ADD337R,0.0775X0.0008*%
%ADD338R,0.0750X0.0008*%
%ADD339R,0.0725X0.0008*%
%ADD340R,0.0692X0.0008*%
%ADD341R,0.0191X0.0008*%
%ADD342R,0.0658X0.0008*%
%ADD343R,0.0642X0.0008*%
%ADD344R,0.0608X0.0008*%
%ADD345R,0.0458X0.0008*%
%ADD346R,0.0376X0.0008*%
%ADD347R,0.0350X0.0008*%
%ADD348R,0.0326X0.0008*%
%ADD349R,0.0241X0.0008*%
%ADD350R,0.0266X0.0008*%
%ADD351R,0.0308X0.0008*%
%ADD352R,0.0316X0.0008*%
%ADD353R,0.0317X0.0008*%
%ADD354R,0.0334X0.0008*%
%ADD355R,0.0333X0.0008*%
%ADD356R,0.0341X0.0008*%
%ADD357R,0.0358X0.0008*%
%ADD358R,0.0350X0.0008*%
%ADD359R,0.0367X0.0008*%
%ADD360R,0.0383X0.0008*%
%ADD361R,0.0384X0.0008*%
%ADD362R,0.0383X0.0008*%
%ADD363R,0.0384X0.0008*%
%ADD364R,0.0367X0.0008*%
%ADD365R,0.0359X0.0008*%
%ADD366R,0.0358X0.0008*%
%ADD367R,0.0359X0.0008*%
%ADD368R,0.0350X0.0008*%
%ADD369R,0.0334X0.0008*%
%ADD370R,0.0333X0.0008*%
%ADD371R,0.0334X0.0008*%
%ADD372R,0.0325X0.0008*%
%ADD373R,0.0317X0.0008*%
%ADD374R,0.0308X0.0008*%
%ADD375R,0.0309X0.0008*%
%ADD376R,0.0267X0.0008*%
%ADD377R,0.0209X0.0008*%
%ADD378R,0.0017X0.0008*%
%ADD379R,0.0033X0.0008*%
%ADD380R,0.0041X0.0008*%
%ADD381R,0.0124X0.0008*%
%ADD382R,0.0124X0.0008*%
%ADD383R,0.0042X0.0008*%
%ADD384R,0.0042X0.0008*%
%ADD385R,0.0034X0.0008*%
%ADD386R,0.0033X0.0008*%
%ADD387R,0.0034X0.0008*%
%ADD388R,0.0025X0.0008*%
%ADD389R,0.0017X0.0008*%
%ADD390R,0.0008X0.0008*%
%ADD391R,0.0009X0.0008*%
%ADD392R,0.0008X0.0008*%
%ADD393R,0.0201X0.0008*%
%ADD394R,0.0201X0.0008*%
%ADD395R,0.0201X0.0008*%
%ADD396R,0.0376X0.0008*%
%ADD397R,0.0342X0.0008*%
%ADD398R,0.0276X0.0008*%
%ADD399R,0.0034X0.0017*%
%ADD400R,0.0034X0.0017*%
%ADD401R,0.0100X0.0017*%
%ADD402R,0.0050X0.0017*%
%ADD403R,0.0117X0.0017*%
%ADD404R,0.0117X0.0017*%
%ADD405R,0.0134X0.0017*%
%ADD406R,0.0133X0.0017*%
%ADD407R,0.0067X0.0017*%
%ADD408R,0.0033X0.0017*%
%ADD409R,0.0033X0.0017*%
%ADD410R,0.0050X0.0017*%
%ADD411R,0.0100X0.0017*%
%ADD412R,0.0067X0.0017*%
%ADD413R,0.0083X0.0017*%
%ADD414R,0.0167X0.0017*%
%ADD415R,0.0167X0.0017*%
%ADD416R,0.0184X0.0017*%
%ADD417R,0.0134X0.0017*%
%ADD418R,0.0133X0.0017*%
%ADD419R,0.0017X0.0017*%
%ADD420R,0.0017X0.0017*%
%ADD421R,0.0083X0.0017*%
%ADD422R,0.0116X0.0017*%
%ADD423R,0.0116X0.0017*%
%ADD424R,0.0066X0.0017*%
%ADD425R,0.0066X0.0017*%
%ADD426R,0.0084X0.0017*%
%ADD427R,0.0084X0.0017*%
%ADD428R,0.0150X0.0017*%
%ADD429R,0.0150X0.0017*%
%ADD430R,0.0166X0.0017*%
%ADD431R,0.0183X0.0017*%
%ADD432R,0.0250X0.0017*%
%ADD433R,0.0333X0.0017*%
%ADD434R,0.0184X0.0017*%
%ADD435R,0.0016X0.0017*%
%ADD436R,0.0183X0.0017*%
%ADD437R,0.0217X0.0017*%
%ADD438R,0.0200X0.0017*%
%ADD439R,0.0200X0.0017*%
%ADD440R,0.0233X0.0017*%
%ADD441R,0.0534X0.0017*%
%ADD442R,0.0166X0.0017*%
%ADD443R,0.0300X0.0017*%
%ADD444R,0.0350X0.0017*%
%ADD445R,0.0233X0.0017*%
%ADD446R,0.0250X0.0017*%
%ADD447R,0.0450X0.0017*%
%ADD448R,0.0333X0.0017*%
D10*
X009392Y004585D02*
X009453Y004523D01*
X009577Y004523D01*
X009639Y004585D01*
X009639Y004709D01*
X009515Y004709D01*
X009392Y004832D02*
X009392Y004585D01*
X009392Y004832D02*
X009453Y004894D01*
X009577Y004894D01*
X009639Y004832D01*
X009760Y004894D02*
X010007Y004523D01*
X010007Y004894D01*
X010128Y004894D02*
X010313Y004894D01*
X010375Y004832D01*
X010375Y004585D01*
X010313Y004523D01*
X010128Y004523D01*
X010128Y004894D01*
X009760Y004894D02*
X009760Y004523D01*
X015002Y005687D02*
X015064Y005626D01*
X015187Y005626D01*
X015249Y005687D01*
X015249Y005811D01*
X015125Y005811D01*
X015002Y005934D02*
X015002Y005687D01*
X015002Y005934D02*
X015064Y005996D01*
X015187Y005996D01*
X015249Y005934D01*
X015370Y005996D02*
X015617Y005626D01*
X015617Y005996D01*
X015739Y005996D02*
X015924Y005996D01*
X015985Y005934D01*
X015985Y005687D01*
X015924Y005626D01*
X015739Y005626D01*
X015739Y005996D01*
X015370Y005996D02*
X015370Y005626D01*
X015298Y003165D02*
X015360Y003104D01*
X015360Y002980D01*
X015298Y002918D01*
X015113Y002918D01*
X015113Y002795D02*
X015113Y003165D01*
X015298Y003165D01*
X015481Y003104D02*
X015481Y003042D01*
X015543Y002980D01*
X015666Y002980D01*
X015728Y002918D01*
X015728Y002857D01*
X015666Y002795D01*
X015543Y002795D01*
X015481Y002857D01*
X015360Y002795D02*
X015236Y002918D01*
X015481Y003104D02*
X015543Y003165D01*
X015666Y003165D01*
X015728Y003104D01*
X015850Y003165D02*
X016096Y003165D01*
X015973Y003165D02*
X015973Y002795D01*
X016499Y002857D02*
X016561Y002795D01*
X016684Y002795D01*
X016746Y002857D01*
X016746Y002918D01*
X016684Y002980D01*
X016622Y002980D01*
X016684Y002980D02*
X016746Y003042D01*
X016746Y003104D01*
X016684Y003165D01*
X016561Y003165D01*
X016499Y003104D01*
X016867Y003042D02*
X016991Y002795D01*
X017114Y003042D01*
X017599Y002980D02*
X017722Y003042D01*
X017784Y003042D01*
X017846Y002980D01*
X017846Y002857D01*
X017784Y002795D01*
X017661Y002795D01*
X017599Y002857D01*
X017599Y002980D02*
X017599Y003165D01*
X017846Y003165D01*
X017967Y003042D02*
X018091Y002795D01*
X018214Y003042D01*
X018871Y003104D02*
X018871Y002857D01*
X018933Y002795D01*
X019056Y002795D01*
X019118Y002857D01*
X019118Y002980D01*
X018994Y002980D01*
X018871Y003104D02*
X018933Y003165D01*
X019056Y003165D01*
X019118Y003104D01*
X019239Y003042D02*
X019424Y003042D01*
X019486Y002980D01*
X019486Y002795D01*
X019607Y002857D02*
X019607Y002980D01*
X019669Y003042D01*
X019854Y003042D01*
X019854Y003165D02*
X019854Y002795D01*
X019669Y002795D01*
X019607Y002857D01*
X019239Y002795D02*
X019239Y003042D01*
X020449Y002918D02*
X020572Y002795D01*
X020696Y002918D01*
X020696Y003165D01*
X020817Y003042D02*
X020879Y003042D01*
X020879Y002795D01*
X020817Y002795D02*
X020941Y002795D01*
X021063Y002795D02*
X021063Y003042D01*
X021248Y003042D01*
X021310Y002980D01*
X021310Y002795D01*
X020879Y003165D02*
X020879Y003227D01*
X020449Y003165D02*
X020449Y002918D01*
X022667Y002857D02*
X022914Y003104D01*
X022914Y002857D01*
X022852Y002795D01*
X022729Y002795D01*
X022667Y002857D01*
X022667Y003104D01*
X022729Y003165D01*
X022852Y003165D01*
X022914Y003104D01*
X023667Y003042D02*
X023790Y003165D01*
X023790Y002795D01*
X023667Y002795D02*
X023914Y002795D01*
X024667Y002795D02*
X024914Y003042D01*
X024914Y003104D01*
X024852Y003165D01*
X024729Y003165D01*
X024667Y003104D01*
X024667Y002795D02*
X024914Y002795D01*
X025667Y002857D02*
X025729Y002795D01*
X025852Y002795D01*
X025914Y002857D01*
X025914Y002918D01*
X025852Y002980D01*
X025790Y002980D01*
X025852Y002980D02*
X025914Y003042D01*
X025914Y003104D01*
X025852Y003165D01*
X025729Y003165D01*
X025667Y003104D01*
X026667Y002980D02*
X026914Y002980D01*
X026852Y002795D02*
X026852Y003165D01*
X026667Y002980D01*
X027667Y002980D02*
X027790Y003042D01*
X027852Y003042D01*
X027914Y002980D01*
X027914Y002857D01*
X027852Y002795D01*
X027729Y002795D01*
X027667Y002857D01*
X027667Y002980D02*
X027667Y003165D01*
X027914Y003165D01*
X027007Y001724D02*
X027069Y001662D01*
X027069Y001477D01*
X026822Y001477D02*
X026822Y001724D01*
X027007Y001724D01*
X026700Y001847D02*
X026576Y001847D01*
X026638Y001847D02*
X026638Y001477D01*
X026576Y001477D02*
X026700Y001477D01*
X026086Y001477D02*
X025901Y001477D01*
X025840Y001539D01*
X025840Y001662D01*
X025901Y001724D01*
X026086Y001724D01*
X026086Y001415D01*
X026025Y001354D01*
X025963Y001354D01*
X025718Y001539D02*
X025718Y001662D01*
X025656Y001724D01*
X025533Y001724D01*
X025471Y001662D01*
X025471Y001539D01*
X025533Y001477D01*
X025656Y001477D01*
X025718Y001539D01*
X025349Y001477D02*
X025226Y001477D01*
X025287Y001477D02*
X025287Y001847D01*
X025226Y001847D01*
X025043Y001724D02*
X025104Y001662D01*
X025104Y001477D01*
X024919Y001477D01*
X024857Y001539D01*
X024919Y001600D01*
X025104Y001600D01*
X025043Y001724D02*
X024919Y001724D01*
X024736Y001662D02*
X024736Y001477D01*
X024736Y001662D02*
X024674Y001724D01*
X024489Y001724D01*
X024489Y001477D01*
X024368Y001477D02*
X024368Y001724D01*
X024244Y001847D01*
X024121Y001724D01*
X024121Y001477D01*
X024121Y001662D02*
X024368Y001662D01*
X024625Y005814D02*
X024811Y005814D01*
X024872Y005876D01*
X024872Y005938D01*
X024811Y005999D01*
X024625Y005999D01*
X024625Y005814D02*
X024625Y006185D01*
X024811Y006185D01*
X024872Y006123D01*
X024872Y006061D01*
X024811Y005999D01*
X024994Y006061D02*
X025117Y006185D01*
X025117Y005814D01*
X024994Y005814D02*
X025241Y005814D01*
X026141Y005814D02*
X026326Y005814D01*
X026388Y005876D01*
X026388Y005938D01*
X026326Y005999D01*
X026141Y005999D01*
X026141Y005814D02*
X026141Y006185D01*
X026326Y006185D01*
X026388Y006123D01*
X026388Y006061D01*
X026326Y005999D01*
X026510Y006123D02*
X026571Y006185D01*
X026695Y006185D01*
X026756Y006123D01*
X026756Y006061D01*
X026510Y005814D01*
X026756Y005814D01*
X024440Y008775D02*
X024070Y008775D01*
X024070Y008960D01*
X024132Y009022D01*
X024194Y009022D01*
X024255Y008960D01*
X024255Y008775D01*
X024440Y008775D02*
X024440Y008960D01*
X024379Y009022D01*
X024317Y009022D01*
X024255Y008960D01*
X024132Y009144D02*
X024070Y009205D01*
X024070Y009329D01*
X024132Y009390D01*
X024194Y009390D01*
X024440Y009144D01*
X024440Y009390D01*
X024391Y009760D02*
X024021Y009760D01*
X024021Y009945D01*
X024083Y010006D01*
X024144Y010006D01*
X024206Y009945D01*
X024206Y009760D01*
X024206Y009945D02*
X024268Y010006D01*
X024330Y010006D01*
X024391Y009945D01*
X024391Y009760D01*
X024391Y010128D02*
X024391Y010375D01*
X024391Y010251D02*
X024021Y010251D01*
X024144Y010128D01*
X024144Y010744D02*
X024021Y010867D01*
X024144Y010991D01*
X024391Y010991D01*
X024391Y011112D02*
X024144Y011359D01*
X024083Y011359D01*
X024021Y011297D01*
X024021Y011174D01*
X024083Y011112D01*
X024206Y010991D02*
X024206Y010744D01*
X024144Y010744D02*
X024391Y010744D01*
X024391Y011112D02*
X024391Y011359D01*
X024391Y011679D02*
X024144Y011679D01*
X024021Y011802D01*
X024144Y011926D01*
X024391Y011926D01*
X024391Y012047D02*
X024391Y012294D01*
X024391Y012171D02*
X024021Y012171D01*
X024144Y012047D01*
X024206Y011926D02*
X024206Y011679D01*
X027599Y011374D02*
X027599Y011312D01*
X027723Y011189D01*
X027846Y011189D02*
X027599Y011189D01*
X027661Y011067D02*
X027599Y011006D01*
X027599Y010882D01*
X027661Y010820D01*
X027784Y010820D01*
X027846Y010882D01*
X027846Y011006D01*
X027784Y011067D01*
X027661Y011067D01*
X027599Y010698D02*
X027599Y010575D01*
X027537Y010637D02*
X027784Y010637D01*
X027846Y010698D01*
X027784Y010453D02*
X027661Y010453D01*
X027599Y010392D01*
X027599Y010268D01*
X027661Y010207D01*
X027784Y010207D01*
X027846Y010268D01*
X027846Y010392D01*
X027784Y010453D01*
X027846Y010085D02*
X027476Y010085D01*
X027599Y009962D01*
X027476Y009838D01*
X027846Y009838D01*
X026756Y014948D02*
X026510Y014948D01*
X026756Y015195D01*
X026756Y015257D01*
X026695Y015318D01*
X026571Y015318D01*
X026510Y015257D01*
X026388Y015195D02*
X026388Y014948D01*
X026388Y015133D02*
X026141Y015133D01*
X026141Y015195D02*
X026141Y014948D01*
X026141Y015195D02*
X026265Y015318D01*
X026388Y015195D01*
X025221Y014948D02*
X024974Y014948D01*
X024853Y014948D02*
X024853Y015195D01*
X024729Y015318D01*
X024606Y015195D01*
X024606Y014948D01*
X024606Y015133D02*
X024853Y015133D01*
X024974Y015195D02*
X025098Y015318D01*
X025098Y014948D01*
X024884Y020395D02*
X024760Y020395D01*
X024699Y020457D01*
X024822Y020580D02*
X024884Y020580D01*
X024945Y020518D01*
X024945Y020457D01*
X024884Y020395D01*
X024884Y020580D02*
X024945Y020642D01*
X024945Y020704D01*
X024884Y020765D01*
X024760Y020765D01*
X024699Y020704D01*
X023945Y020580D02*
X023699Y020580D01*
X023884Y020765D01*
X023884Y020395D01*
X022945Y020457D02*
X022884Y020395D01*
X022760Y020395D01*
X022699Y020457D01*
X022699Y020580D02*
X022822Y020642D01*
X022884Y020642D01*
X022945Y020580D01*
X022945Y020457D01*
X022699Y020580D02*
X022699Y020765D01*
X022945Y020765D01*
X021945Y020765D02*
X021822Y020704D01*
X021699Y020580D01*
X021884Y020580D01*
X021945Y020518D01*
X021945Y020457D01*
X021884Y020395D01*
X021760Y020395D01*
X021699Y020457D01*
X021699Y020580D01*
X020945Y020704D02*
X020699Y020457D01*
X020699Y020395D01*
X020699Y020765D02*
X020945Y020765D01*
X020945Y020704D01*
X019345Y020704D02*
X019345Y020642D01*
X019284Y020580D01*
X019160Y020580D01*
X019099Y020642D01*
X019099Y020704D01*
X019160Y020765D01*
X019284Y020765D01*
X019345Y020704D01*
X019284Y020580D02*
X019345Y020518D01*
X019345Y020457D01*
X019284Y020395D01*
X019160Y020395D01*
X019099Y020457D01*
X019099Y020518D01*
X019160Y020580D01*
X018345Y020580D02*
X018160Y020580D01*
X018099Y020642D01*
X018099Y020704D01*
X018160Y020765D01*
X018284Y020765D01*
X018345Y020704D01*
X018345Y020457D01*
X018284Y020395D01*
X018160Y020395D01*
X018099Y020457D01*
X017545Y020457D02*
X017545Y020704D01*
X017299Y020457D01*
X017360Y020395D01*
X017484Y020395D01*
X017545Y020457D01*
X017299Y020457D02*
X017299Y020704D01*
X017360Y020765D01*
X017484Y020765D01*
X017545Y020704D01*
X017177Y020395D02*
X016930Y020395D01*
X017054Y020395D02*
X017054Y020765D01*
X016930Y020642D01*
X016545Y020395D02*
X016299Y020395D01*
X016177Y020395D02*
X015930Y020395D01*
X016054Y020395D02*
X016054Y020765D01*
X015930Y020642D01*
X015545Y020642D02*
X015545Y020704D01*
X015484Y020765D01*
X015360Y020765D01*
X015299Y020704D01*
X015054Y020765D02*
X015054Y020395D01*
X015177Y020395D02*
X014930Y020395D01*
X014930Y020642D02*
X015054Y020765D01*
X015299Y020395D02*
X015545Y020642D01*
X015545Y020395D02*
X015299Y020395D01*
X014545Y020457D02*
X014484Y020395D01*
X014360Y020395D01*
X014299Y020457D01*
X014177Y020395D02*
X013930Y020395D01*
X014054Y020395D02*
X014054Y020765D01*
X013930Y020642D01*
X013695Y020642D02*
X013510Y020642D01*
X013449Y020580D01*
X013449Y020457D01*
X013510Y020395D01*
X013695Y020395D01*
X013695Y020765D01*
X013327Y020580D02*
X013327Y020395D01*
X013327Y020580D02*
X013265Y020642D01*
X013080Y020642D01*
X013080Y020395D01*
X012959Y020395D02*
X012774Y020395D01*
X012712Y020457D01*
X012712Y020580D01*
X012774Y020642D01*
X012959Y020642D01*
X012959Y020333D01*
X012897Y020272D01*
X012835Y020272D01*
X012383Y020395D02*
X012383Y020704D01*
X012445Y020765D01*
X012445Y020580D02*
X012321Y020580D01*
X012200Y020580D02*
X012138Y020642D01*
X012015Y020642D01*
X011953Y020580D01*
X011953Y020457D01*
X012015Y020395D01*
X012138Y020395D01*
X012200Y020518D02*
X011953Y020518D01*
X011832Y020580D02*
X011770Y020518D01*
X011585Y020518D01*
X011585Y020395D02*
X011585Y020765D01*
X011770Y020765D01*
X011832Y020704D01*
X011832Y020580D01*
X011708Y020518D02*
X011832Y020395D01*
X011463Y020395D02*
X011463Y020642D01*
X011340Y020765D01*
X011216Y020642D01*
X011216Y020395D01*
X011216Y020580D02*
X011463Y020580D01*
X012200Y020580D02*
X012200Y020518D01*
X014299Y020704D02*
X014360Y020765D01*
X014484Y020765D01*
X014545Y020704D01*
X014545Y020642D01*
X014484Y020580D01*
X014545Y020518D01*
X014545Y020457D01*
X014484Y020580D02*
X014422Y020580D01*
X015064Y019716D02*
X015002Y019655D01*
X015002Y019408D01*
X015064Y019346D01*
X015187Y019346D01*
X015249Y019408D01*
X015249Y019531D01*
X015125Y019531D01*
X015249Y019655D02*
X015187Y019716D01*
X015064Y019716D01*
X015370Y019716D02*
X015617Y019346D01*
X015617Y019716D01*
X015739Y019716D02*
X015924Y019716D01*
X015985Y019655D01*
X015985Y019408D01*
X015924Y019346D01*
X015739Y019346D01*
X015739Y019716D01*
X015370Y019716D02*
X015370Y019346D01*
X016422Y020395D02*
X016422Y020765D01*
X016299Y020642D01*
X016066Y021672D02*
X016128Y021733D01*
X016128Y022042D01*
X015942Y022042D01*
X015881Y021980D01*
X015881Y021857D01*
X015942Y021795D01*
X016128Y021795D01*
X016249Y021795D02*
X016372Y021795D01*
X016311Y021795D02*
X016311Y022042D01*
X016249Y022042D01*
X016311Y022165D02*
X016311Y022227D01*
X016495Y022042D02*
X016618Y022042D01*
X016556Y022104D02*
X016556Y021857D01*
X016618Y021795D01*
X016740Y021857D02*
X016802Y021795D01*
X016987Y021795D01*
X016987Y021980D01*
X016925Y022042D01*
X016802Y022042D01*
X016802Y021918D02*
X016987Y021918D01*
X017108Y021795D02*
X017232Y021795D01*
X017170Y021795D02*
X017170Y022165D01*
X017108Y022165D01*
X016802Y021918D02*
X016740Y021857D01*
X016066Y021672D02*
X016004Y021672D01*
X015759Y021795D02*
X015635Y021795D01*
X015697Y021795D02*
X015697Y022042D01*
X015635Y022042D01*
X015514Y022104D02*
X015514Y021857D01*
X015452Y021795D01*
X015267Y021795D01*
X015267Y022165D01*
X015452Y022165D01*
X015514Y022104D01*
X015697Y022165D02*
X015697Y022227D01*
X017722Y022165D02*
X017846Y022165D01*
X017784Y022165D02*
X017784Y021795D01*
X017722Y021795D02*
X017846Y021795D01*
X017968Y021795D02*
X018215Y022165D01*
X018336Y022104D02*
X018336Y021857D01*
X018398Y021795D01*
X018521Y021795D01*
X018583Y021857D01*
X018583Y022104D01*
X018521Y022165D01*
X018398Y022165D01*
X018336Y022104D01*
X022867Y022165D02*
X022867Y021795D01*
X023052Y021795D01*
X023114Y021857D01*
X023114Y022104D01*
X023052Y022165D01*
X022867Y022165D01*
X023235Y022042D02*
X023297Y022042D01*
X023297Y021795D01*
X023235Y021795D02*
X023359Y021795D01*
X023481Y021857D02*
X023542Y021795D01*
X023728Y021795D01*
X023728Y021733D02*
X023728Y022042D01*
X023542Y022042D01*
X023481Y021980D01*
X023481Y021857D01*
X023604Y021672D02*
X023666Y021672D01*
X023728Y021733D01*
X023849Y021795D02*
X023972Y021795D01*
X023911Y021795D02*
X023911Y022042D01*
X023849Y022042D01*
X023911Y022165D02*
X023911Y022227D01*
X024095Y022042D02*
X024218Y022042D01*
X024156Y022104D02*
X024156Y021857D01*
X024218Y021795D01*
X024340Y021857D02*
X024402Y021918D01*
X024587Y021918D01*
X024587Y021980D02*
X024587Y021795D01*
X024402Y021795D01*
X024340Y021857D01*
X024402Y022042D02*
X024525Y022042D01*
X024587Y021980D01*
X024708Y021795D02*
X024832Y021795D01*
X024770Y021795D02*
X024770Y022165D01*
X024708Y022165D01*
X025322Y022165D02*
X025446Y022165D01*
X025384Y022165D02*
X025384Y021795D01*
X025322Y021795D02*
X025446Y021795D01*
X025568Y021795D02*
X025815Y022165D01*
X025936Y022104D02*
X025936Y021857D01*
X025998Y021795D01*
X026121Y021795D01*
X026183Y021857D01*
X026183Y022104D01*
X026121Y022165D01*
X025998Y022165D01*
X025936Y022104D01*
X025884Y020765D02*
X025760Y020765D01*
X025699Y020704D01*
X025884Y020765D02*
X025945Y020704D01*
X025945Y020642D01*
X025699Y020395D01*
X025945Y020395D01*
X026699Y020395D02*
X026945Y020395D01*
X026822Y020395D02*
X026822Y020765D01*
X026699Y020642D01*
X027699Y020704D02*
X027699Y020457D01*
X027945Y020704D01*
X027945Y020457D01*
X027884Y020395D01*
X027760Y020395D01*
X027699Y020457D01*
X027699Y020704D02*
X027760Y020765D01*
X027884Y020765D01*
X027945Y020704D01*
X023297Y022165D02*
X023297Y022227D01*
X016022Y017222D02*
X016022Y016976D01*
X016022Y017161D02*
X015775Y017161D01*
X015775Y017222D02*
X015899Y017346D01*
X016022Y017222D01*
X015775Y017222D02*
X015775Y016976D01*
X015654Y016976D02*
X015531Y017099D01*
X015592Y017099D02*
X015407Y017099D01*
X015286Y017099D02*
X015286Y017037D01*
X015224Y016976D01*
X015039Y016976D01*
X015039Y017346D01*
X015224Y017346D01*
X015286Y017284D01*
X015286Y017222D01*
X015224Y017161D01*
X015039Y017161D01*
X015224Y017161D02*
X015286Y017099D01*
X015407Y016976D02*
X015407Y017346D01*
X015592Y017346D01*
X015654Y017284D01*
X015654Y017161D01*
X015592Y017099D01*
X012978Y015432D02*
X012978Y015309D01*
X012916Y015247D01*
X012731Y015247D01*
X012731Y015124D02*
X012731Y015494D01*
X012916Y015494D01*
X012978Y015432D01*
X012609Y015494D02*
X012363Y015494D01*
X012363Y015124D01*
X012609Y015124D01*
X012486Y015309D02*
X012363Y015309D01*
X012241Y015494D02*
X011994Y015494D01*
X012118Y015494D02*
X012118Y015124D01*
X011873Y015185D02*
X011811Y015124D01*
X011688Y015124D01*
X011626Y015185D01*
X011688Y015309D02*
X011626Y015371D01*
X011626Y015432D01*
X011688Y015494D01*
X011811Y015494D01*
X011873Y015432D01*
X011811Y015309D02*
X011873Y015247D01*
X011873Y015185D01*
X011811Y015309D02*
X011688Y015309D01*
X011611Y014569D02*
X012348Y014569D01*
X012241Y014510D02*
X012241Y014139D01*
X011994Y014510D01*
X011994Y014139D01*
X011873Y014139D02*
X011626Y014139D01*
X011626Y014510D01*
X011873Y014510D01*
X011749Y014325D02*
X011626Y014325D01*
X011626Y016108D02*
X011811Y016108D01*
X011873Y016170D01*
X011873Y016417D01*
X011811Y016478D01*
X011626Y016478D01*
X011626Y016108D01*
X011994Y016108D02*
X012118Y016108D01*
X012056Y016108D02*
X012056Y016478D01*
X011994Y016478D02*
X012118Y016478D01*
X012240Y016478D02*
X012425Y016478D01*
X012487Y016417D01*
X012487Y016293D01*
X012425Y016231D01*
X012240Y016231D01*
X012240Y016108D02*
X012240Y016478D01*
X012363Y016231D02*
X012487Y016108D01*
X012179Y017141D02*
X012241Y017203D01*
X012241Y017327D01*
X012118Y017327D01*
X012241Y017450D02*
X012179Y017512D01*
X012056Y017512D01*
X011994Y017450D01*
X011994Y017203D01*
X012056Y017141D01*
X012179Y017141D01*
X011873Y017203D02*
X011811Y017141D01*
X011688Y017141D01*
X011626Y017203D01*
X011688Y017327D02*
X011626Y017388D01*
X011626Y017450D01*
X011688Y017512D01*
X011811Y017512D01*
X011873Y017450D01*
X011811Y017327D02*
X011873Y017265D01*
X011873Y017203D01*
X011811Y017327D02*
X011688Y017327D01*
X011688Y018126D02*
X011626Y018187D01*
X011626Y018434D01*
X011688Y018496D01*
X011811Y018496D01*
X011873Y018434D01*
X011994Y018434D02*
X012056Y018496D01*
X012179Y018496D01*
X012241Y018434D01*
X012179Y018311D02*
X012241Y018249D01*
X012241Y018187D01*
X012179Y018126D01*
X012056Y018126D01*
X011994Y018187D01*
X011873Y018187D02*
X011811Y018126D01*
X011688Y018126D01*
X011994Y018373D02*
X012056Y018311D01*
X012179Y018311D01*
X011994Y018373D02*
X011994Y018434D01*
X012348Y018556D02*
X011611Y018556D01*
X015059Y010220D02*
X015244Y010220D01*
X015305Y010158D01*
X015305Y010096D01*
X015244Y010035D01*
X015059Y010035D01*
X015244Y010035D02*
X015305Y009973D01*
X015305Y009911D01*
X015244Y009850D01*
X015059Y009850D01*
X015059Y010220D01*
X015427Y010220D02*
X015612Y010220D01*
X015674Y010158D01*
X015674Y010035D01*
X015612Y009973D01*
X015427Y009973D01*
X015550Y009973D02*
X015674Y009850D01*
X015795Y009850D02*
X015980Y009850D01*
X016042Y009911D01*
X016042Y009973D01*
X015980Y010035D01*
X015795Y010035D01*
X015795Y009850D02*
X015795Y010220D01*
X015980Y010220D01*
X016042Y010158D01*
X016042Y010096D01*
X015980Y010035D01*
X015427Y009850D02*
X015427Y010220D01*
X004540Y009291D02*
X004293Y009291D01*
X004417Y009291D02*
X004417Y008921D01*
X004172Y008982D02*
X004172Y009229D01*
X004110Y009291D01*
X003987Y009291D01*
X003925Y009229D01*
X003925Y008982D01*
X003987Y008921D01*
X004110Y008921D01*
X004172Y008982D01*
X003804Y008921D02*
X003804Y009291D01*
X003680Y009167D01*
X003557Y009291D01*
X003557Y008921D01*
X003435Y009044D02*
X003435Y009291D01*
X003188Y009291D02*
X003188Y009044D01*
X003312Y008921D01*
X003435Y009044D01*
D11*
X003412Y007784D02*
X003643Y007784D01*
X003719Y007707D01*
X003719Y007554D01*
X003643Y007477D01*
X003412Y007477D01*
X003412Y007324D02*
X003412Y007784D01*
X003873Y007554D02*
X003873Y007400D01*
X003949Y007324D01*
X004103Y007324D01*
X004180Y007400D01*
X004180Y007554D01*
X004103Y007631D01*
X003949Y007631D01*
X003873Y007554D01*
X004333Y007631D02*
X004333Y007400D01*
X004410Y007324D01*
X004487Y007400D01*
X004563Y007324D01*
X004640Y007400D01*
X004640Y007631D01*
X004794Y007554D02*
X004870Y007631D01*
X005024Y007631D01*
X005100Y007554D01*
X005100Y007477D01*
X004794Y007477D01*
X004794Y007400D02*
X004794Y007554D01*
X004794Y007400D02*
X004870Y007324D01*
X005024Y007324D01*
X005254Y007324D02*
X005254Y007631D01*
X005407Y007631D02*
X005484Y007631D01*
X005407Y007631D02*
X005254Y007477D01*
X005100Y007075D02*
X005100Y006768D01*
X004947Y006615D01*
X004794Y006768D01*
X004794Y007075D01*
X004640Y006999D02*
X004333Y006692D01*
X004410Y006615D01*
X004563Y006615D01*
X004640Y006692D01*
X004640Y006999D01*
X004563Y007075D01*
X004410Y007075D01*
X004333Y006999D01*
X004333Y006692D01*
X004180Y006845D02*
X003873Y006845D01*
X004103Y007075D01*
X004103Y006615D01*
X003719Y006615D02*
X003412Y006845D01*
X003719Y007075D01*
X004137Y010697D02*
X004137Y011563D01*
X004530Y011485D02*
X004530Y010737D01*
X004137Y013063D02*
X004137Y013930D01*
X004530Y013851D02*
X004530Y013103D01*
X004121Y015414D02*
X004121Y016280D01*
X004514Y016201D02*
X004514Y015453D01*
X004121Y017776D02*
X004121Y018642D01*
X004514Y018563D02*
X004514Y017815D01*
X004121Y020138D02*
X004121Y021004D01*
X004514Y020926D02*
X004514Y020178D01*
D12*
X003251Y001720D02*
X003165Y001546D01*
X003078Y001720D01*
X003373Y001720D02*
X003459Y001806D01*
X003459Y001546D01*
X003373Y001546D02*
X003546Y001546D01*
X003667Y001546D02*
X003711Y001546D01*
X003711Y001590D01*
X003667Y001590D01*
X003667Y001546D01*
X003815Y001590D02*
X003858Y001546D01*
X003945Y001546D01*
X003988Y001590D01*
X003988Y001676D01*
X003945Y001720D01*
X003901Y001720D01*
X003815Y001676D01*
X003815Y001806D01*
X003988Y001806D01*
X004234Y009871D02*
X004321Y009871D01*
X004364Y009915D01*
X004485Y009915D02*
X004485Y009958D01*
X004529Y010001D01*
X004615Y010001D01*
X004659Y009958D01*
X004659Y009915D01*
X004615Y009871D01*
X004529Y009871D01*
X004485Y009915D01*
X004529Y010001D02*
X004485Y010045D01*
X004485Y010088D01*
X004529Y010132D01*
X004615Y010132D01*
X004659Y010088D01*
X004659Y010045D01*
X004615Y010001D01*
X004364Y010088D02*
X004321Y010132D01*
X004234Y010132D01*
X004191Y010088D01*
X004191Y009915D01*
X004234Y009871D01*
X006381Y011754D02*
X006381Y011884D01*
X006425Y011927D01*
X006511Y011927D01*
X006555Y011884D01*
X006555Y011754D01*
X006555Y011841D02*
X006641Y011927D01*
X006641Y012048D02*
X006598Y012048D01*
X006425Y012222D01*
X006381Y012222D01*
X006381Y012048D01*
X006381Y011754D02*
X006641Y011754D01*
X005316Y012906D02*
X005142Y012906D01*
X005229Y012906D02*
X005229Y013167D01*
X005142Y013080D01*
X005021Y013123D02*
X005021Y012950D01*
X004978Y012906D01*
X004891Y012906D01*
X004848Y012950D01*
X004848Y013123D01*
X004891Y013167D01*
X004978Y013167D01*
X005021Y013123D01*
X004934Y012993D02*
X005021Y012906D01*
X006381Y013132D02*
X006381Y013262D01*
X006425Y013305D01*
X006511Y013305D01*
X006555Y013262D01*
X006555Y013132D01*
X006555Y013218D02*
X006641Y013305D01*
X006598Y013426D02*
X006555Y013426D01*
X006511Y013470D01*
X006511Y013556D01*
X006555Y013600D01*
X006598Y013600D01*
X006641Y013556D01*
X006641Y013470D01*
X006598Y013426D01*
X006511Y013470D02*
X006468Y013426D01*
X006425Y013426D01*
X006381Y013470D01*
X006381Y013556D01*
X006425Y013600D01*
X006468Y013600D01*
X006511Y013556D01*
X006641Y013132D02*
X006381Y013132D01*
X007562Y013132D02*
X007562Y013262D01*
X007606Y013305D01*
X007693Y013305D01*
X007736Y013262D01*
X007736Y013132D01*
X007736Y013218D02*
X007823Y013305D01*
X007779Y013426D02*
X007823Y013470D01*
X007823Y013556D01*
X007779Y013600D01*
X007736Y013600D01*
X007693Y013556D01*
X007693Y013426D01*
X007779Y013426D01*
X007693Y013426D02*
X007606Y013513D01*
X007562Y013600D01*
X007562Y013132D02*
X007823Y013132D01*
X007823Y014215D02*
X007562Y014215D01*
X007562Y014345D01*
X007606Y014389D01*
X007693Y014389D01*
X007736Y014345D01*
X007736Y014215D01*
X007736Y014302D02*
X007823Y014389D01*
X007823Y014510D02*
X007823Y014683D01*
X007823Y014596D02*
X007562Y014596D01*
X007649Y014510D01*
X007693Y014804D02*
X007649Y014891D01*
X007649Y014934D01*
X007693Y014978D01*
X007779Y014978D01*
X007823Y014934D01*
X007823Y014848D01*
X007779Y014804D01*
X007693Y014804D02*
X007562Y014804D01*
X007562Y014978D01*
X007562Y015593D02*
X007562Y015723D01*
X007606Y015766D01*
X007693Y015766D01*
X007736Y015723D01*
X007736Y015593D01*
X007823Y015593D02*
X007562Y015593D01*
X007736Y015680D02*
X007823Y015766D01*
X007823Y015888D02*
X007823Y016061D01*
X007823Y015974D02*
X007562Y015974D01*
X007649Y015888D01*
X007693Y016182D02*
X007606Y016269D01*
X007562Y016356D01*
X007693Y016312D02*
X007693Y016182D01*
X007779Y016182D01*
X007823Y016226D01*
X007823Y016312D01*
X007779Y016356D01*
X007736Y016356D01*
X007693Y016312D01*
X007736Y016971D02*
X007736Y017101D01*
X007693Y017144D01*
X007606Y017144D01*
X007562Y017101D01*
X007562Y016971D01*
X007823Y016971D01*
X007736Y017058D02*
X007823Y017144D01*
X007823Y017266D02*
X007823Y017439D01*
X007823Y017352D02*
X007562Y017352D01*
X007649Y017266D01*
X007649Y017560D02*
X007606Y017560D01*
X007562Y017604D01*
X007562Y017690D01*
X007606Y017734D01*
X007649Y017734D01*
X007693Y017690D01*
X007693Y017604D01*
X007649Y017560D01*
X007693Y017604D02*
X007736Y017560D01*
X007779Y017560D01*
X007823Y017604D01*
X007823Y017690D01*
X007779Y017734D01*
X007736Y017734D01*
X007693Y017690D01*
X007736Y018349D02*
X007736Y018479D01*
X007693Y018522D01*
X007606Y018522D01*
X007562Y018479D01*
X007562Y018349D01*
X007823Y018349D01*
X007736Y018436D02*
X007823Y018522D01*
X007823Y018644D02*
X007823Y018817D01*
X007823Y018730D02*
X007562Y018730D01*
X007649Y018644D01*
X007562Y018938D02*
X007562Y019112D01*
X007606Y019112D01*
X007779Y018938D01*
X007823Y018938D01*
X006641Y018938D02*
X006468Y019112D01*
X006425Y019112D01*
X006381Y019068D01*
X006381Y018982D01*
X006425Y018938D01*
X006381Y018730D02*
X006641Y018730D01*
X006641Y018644D02*
X006641Y018817D01*
X006641Y018938D02*
X006641Y019112D01*
X006381Y018730D02*
X006468Y018644D01*
X006511Y018522D02*
X006555Y018479D01*
X006555Y018349D01*
X006641Y018349D02*
X006381Y018349D01*
X006381Y018479D01*
X006425Y018522D01*
X006511Y018522D01*
X006555Y018436D02*
X006641Y018522D01*
X006641Y017734D02*
X006641Y017560D01*
X006641Y017647D02*
X006381Y017647D01*
X006468Y017560D01*
X006641Y017439D02*
X006641Y017266D01*
X006641Y017352D02*
X006381Y017352D01*
X006468Y017266D01*
X006425Y017144D02*
X006511Y017144D01*
X006555Y017101D01*
X006555Y016971D01*
X006641Y016971D02*
X006381Y016971D01*
X006381Y017101D01*
X006425Y017144D01*
X006555Y017058D02*
X006641Y017144D01*
X006598Y016356D02*
X006425Y016356D01*
X006598Y016182D01*
X006641Y016226D01*
X006641Y016312D01*
X006598Y016356D01*
X006425Y016356D02*
X006381Y016312D01*
X006381Y016226D01*
X006425Y016182D01*
X006598Y016182D01*
X006641Y016061D02*
X006641Y015888D01*
X006641Y015974D02*
X006381Y015974D01*
X006468Y015888D01*
X006425Y015766D02*
X006511Y015766D01*
X006555Y015723D01*
X006555Y015593D01*
X006641Y015593D02*
X006381Y015593D01*
X006381Y015723D01*
X006425Y015766D01*
X006555Y015680D02*
X006641Y015766D01*
X006598Y014978D02*
X006425Y014978D01*
X006381Y014934D01*
X006381Y014848D01*
X006425Y014804D01*
X006468Y014804D01*
X006511Y014848D01*
X006511Y014978D01*
X006598Y014978D02*
X006641Y014934D01*
X006641Y014848D01*
X006598Y014804D01*
X006641Y014683D02*
X006555Y014596D01*
X006555Y014640D02*
X006555Y014510D01*
X006641Y014510D02*
X006381Y014510D01*
X006381Y014640D01*
X006425Y014683D01*
X006511Y014683D01*
X006555Y014640D01*
X005355Y015269D02*
X005182Y015269D01*
X005355Y015442D01*
X005355Y015486D01*
X005312Y015529D01*
X005225Y015529D01*
X005182Y015486D01*
X005060Y015529D02*
X004887Y015529D01*
X004974Y015529D02*
X004974Y015269D01*
X005013Y017631D02*
X005013Y017891D01*
X004926Y017891D02*
X005100Y017891D01*
X005221Y017848D02*
X005264Y017891D01*
X005351Y017891D01*
X005394Y017848D01*
X005394Y017804D01*
X005351Y017761D01*
X005394Y017718D01*
X005394Y017674D01*
X005351Y017631D01*
X005264Y017631D01*
X005221Y017674D01*
X005308Y017761D02*
X005351Y017761D01*
X006381Y019727D02*
X006381Y019857D01*
X006425Y019900D01*
X006511Y019900D01*
X006555Y019857D01*
X006555Y019727D01*
X006641Y019727D02*
X006381Y019727D01*
X006555Y019814D02*
X006641Y019900D01*
X006641Y020021D02*
X006641Y020195D01*
X006641Y020108D02*
X006381Y020108D01*
X006468Y020021D01*
X006425Y020316D02*
X006381Y020359D01*
X006381Y020446D01*
X006425Y020490D01*
X006468Y020490D01*
X006511Y020446D01*
X006555Y020490D01*
X006598Y020490D01*
X006641Y020446D01*
X006641Y020359D01*
X006598Y020316D01*
X006511Y020403D02*
X006511Y020446D01*
X006555Y021105D02*
X006555Y021235D01*
X006511Y021278D01*
X006425Y021278D01*
X006381Y021235D01*
X006381Y021105D01*
X006641Y021105D01*
X006555Y021192D02*
X006641Y021278D01*
X006641Y021399D02*
X006641Y021573D01*
X006641Y021486D02*
X006381Y021486D01*
X006468Y021399D01*
X006511Y021694D02*
X006511Y021868D01*
X006641Y021824D02*
X006381Y021824D01*
X006511Y021694D01*
X005351Y020243D02*
X005221Y020113D01*
X005394Y020113D01*
X005351Y019983D02*
X005351Y020243D01*
X005100Y020243D02*
X004926Y020243D01*
X005013Y020243D02*
X005013Y019983D01*
X015624Y015419D02*
X015624Y015159D01*
X015624Y015246D02*
X015754Y015246D01*
X015798Y015289D01*
X015798Y015376D01*
X015754Y015419D01*
X015624Y015419D01*
X015711Y015246D02*
X015798Y015159D01*
X015919Y015159D02*
X016092Y015159D01*
X016005Y015159D02*
X016005Y015419D01*
X015919Y015332D01*
X015999Y013702D02*
X015956Y013659D01*
X015956Y013572D01*
X015999Y013529D01*
X016173Y013529D01*
X015999Y013702D01*
X016173Y013702D01*
X016216Y013659D01*
X016216Y013572D01*
X016173Y013529D01*
X016216Y013408D02*
X016216Y013234D01*
X016216Y013321D02*
X015956Y013321D01*
X016043Y013234D01*
X015999Y013113D02*
X015956Y013070D01*
X015956Y012983D01*
X015999Y012939D01*
X016173Y012939D01*
X016216Y012983D01*
X016216Y013070D01*
X016173Y013113D01*
X016612Y011027D02*
X016742Y011027D01*
X016785Y010984D01*
X016785Y010897D01*
X016742Y010854D01*
X016612Y010854D01*
X016699Y010854D02*
X016785Y010767D01*
X016906Y010767D02*
X017080Y010941D01*
X017080Y010984D01*
X017037Y011027D01*
X016950Y011027D01*
X016906Y010984D01*
X016906Y010767D02*
X017080Y010767D01*
X016612Y010767D02*
X016612Y011027D01*
X012041Y011045D02*
X011868Y011045D01*
X012041Y011219D01*
X012041Y011262D01*
X011998Y011305D01*
X011911Y011305D01*
X011868Y011262D01*
X011747Y011262D02*
X011703Y011305D01*
X011617Y011305D01*
X011573Y011262D01*
X011573Y011088D01*
X011617Y011045D01*
X011703Y011045D01*
X011747Y011088D01*
X009443Y011023D02*
X009270Y011023D01*
X009356Y011023D02*
X009356Y011284D01*
X009270Y011197D01*
X009148Y011240D02*
X009105Y011284D01*
X009018Y011284D01*
X008975Y011240D01*
X008975Y011067D01*
X009018Y011023D01*
X009105Y011023D01*
X009148Y011067D01*
X017870Y006790D02*
X018000Y006660D01*
X018000Y006834D01*
X018130Y006790D02*
X017870Y006790D01*
X017913Y006539D02*
X018000Y006539D01*
X018043Y006496D01*
X018043Y006366D01*
X018043Y006452D02*
X018130Y006539D01*
X018130Y006366D02*
X017870Y006366D01*
X017870Y006496D01*
X017913Y006539D01*
X021534Y002700D02*
X021490Y002657D01*
X021490Y002613D01*
X021534Y002570D01*
X021620Y002570D01*
X021664Y002527D01*
X021664Y002483D01*
X021620Y002440D01*
X021534Y002440D01*
X021490Y002483D01*
X021534Y002700D02*
X021620Y002700D01*
X021664Y002657D01*
X021785Y002483D02*
X021828Y002440D01*
X021872Y002440D01*
X021915Y002483D01*
X021915Y002700D01*
X021872Y002700D02*
X021958Y002700D01*
X022079Y002613D02*
X022166Y002700D01*
X022166Y002440D01*
X022079Y002440D02*
X022253Y002440D01*
X020868Y001006D02*
X020868Y000365D01*
X021188Y000365D01*
X021295Y000472D01*
X021295Y000685D01*
X021188Y000792D01*
X020868Y000792D01*
X020650Y000258D02*
X020223Y000258D01*
X020006Y000365D02*
X019686Y000365D01*
X019579Y000472D01*
X019579Y000685D01*
X019686Y000792D01*
X020006Y000792D01*
X020006Y001006D02*
X020006Y000365D01*
X019361Y000365D02*
X019361Y000685D01*
X019254Y000792D01*
X019041Y000792D01*
X018934Y000685D01*
X018934Y000365D02*
X018934Y001006D01*
X021512Y000685D02*
X021512Y000472D01*
X021619Y000365D01*
X021833Y000365D01*
X021939Y000472D01*
X021939Y000685D01*
X021833Y000792D01*
X021619Y000792D01*
X021512Y000685D01*
X022157Y000792D02*
X022370Y000792D01*
X022264Y000899D02*
X022264Y000472D01*
X022370Y000365D01*
X022693Y000472D02*
X022800Y000365D01*
X022693Y000472D02*
X022693Y000899D01*
X022587Y000792D02*
X022800Y000792D01*
X023016Y000685D02*
X023016Y000472D01*
X023123Y000365D01*
X023336Y000365D01*
X023443Y000472D01*
X023443Y000685D01*
X023336Y000792D01*
X023123Y000792D01*
X023016Y000685D01*
X023661Y000792D02*
X023661Y000365D01*
X023874Y000365D02*
X023874Y000685D01*
X023981Y000792D01*
X024088Y000685D01*
X024088Y000365D01*
X023874Y000685D02*
X023768Y000792D01*
X023661Y000792D01*
X023607Y009012D02*
X023650Y009055D01*
X023650Y009099D01*
X023607Y009142D01*
X023477Y009142D01*
X023477Y009055D01*
X023520Y009012D01*
X023607Y009012D01*
X023477Y009142D02*
X023563Y009229D01*
X023650Y009272D01*
X023355Y009229D02*
X023312Y009272D01*
X023225Y009272D01*
X023182Y009229D01*
X023182Y009055D01*
X023225Y009012D01*
X023312Y009012D01*
X023355Y009055D01*
X022539Y010667D02*
X022539Y010927D01*
X022408Y010797D01*
X022582Y010797D01*
X022287Y010884D02*
X022244Y010927D01*
X022157Y010927D01*
X022114Y010884D01*
X022114Y010710D01*
X022157Y010667D01*
X022244Y010667D01*
X022287Y010710D01*
X022708Y012579D02*
X022882Y012579D01*
X022925Y012622D01*
X022925Y012709D01*
X022882Y012752D01*
X022882Y012873D02*
X022925Y012873D01*
X022882Y012873D02*
X022708Y013047D01*
X022665Y013047D01*
X022665Y012873D01*
X022708Y012752D02*
X022665Y012709D01*
X022665Y012622D01*
X022708Y012579D01*
X023035Y012624D02*
X023078Y012581D01*
X023252Y012581D01*
X023295Y012624D01*
X023295Y012711D01*
X023252Y012754D01*
X023252Y012875D02*
X023295Y012919D01*
X023295Y013005D01*
X023252Y013049D01*
X023165Y013049D01*
X023122Y013005D01*
X023122Y012962D01*
X023165Y012875D01*
X023035Y012875D01*
X023035Y013049D01*
X023078Y012754D02*
X023035Y012711D01*
X023035Y012624D01*
X023461Y013929D02*
X023547Y013929D01*
X023591Y013972D01*
X023712Y013972D02*
X023755Y013929D01*
X023842Y013929D01*
X023886Y013972D01*
X023886Y014145D01*
X023842Y014189D01*
X023755Y014189D01*
X023712Y014145D01*
X023712Y014102D01*
X023755Y014059D01*
X023886Y014059D01*
X023591Y014145D02*
X023547Y014189D01*
X023461Y014189D01*
X023417Y014145D01*
X023417Y013972D01*
X023461Y013929D01*
X022917Y014460D02*
X022873Y014417D01*
X022786Y014417D01*
X022743Y014460D01*
X022622Y014460D02*
X022579Y014417D01*
X022492Y014417D01*
X022448Y014460D01*
X022448Y014634D01*
X022492Y014677D01*
X022579Y014677D01*
X022622Y014634D01*
X022743Y014634D02*
X022786Y014677D01*
X022873Y014677D01*
X022917Y014634D01*
X022917Y014590D01*
X022873Y014547D01*
X022917Y014503D01*
X022917Y014460D01*
X022873Y014547D02*
X022830Y014547D01*
X024334Y016772D02*
X024154Y016962D01*
X024314Y017202D01*
X024353Y017204D02*
X024770Y017204D01*
X024792Y017262D02*
X024348Y017262D01*
X024364Y017222D02*
X024264Y017472D01*
X023964Y017572D01*
X023964Y017522D01*
X023964Y017772D01*
X024264Y017822D01*
X024364Y018122D01*
X024164Y018322D01*
X024314Y018472D01*
X024614Y018322D01*
X024914Y018472D01*
X024864Y018472D01*
X024914Y018722D01*
X025164Y018722D01*
X025164Y018422D01*
X025464Y018322D01*
X025714Y018472D01*
X025864Y018372D01*
X025714Y018072D01*
X025814Y017822D01*
X026114Y017772D01*
X026114Y017522D01*
X025814Y017522D01*
X025714Y017172D01*
X025864Y016972D01*
X025714Y016822D01*
X025514Y016972D01*
X025414Y016922D01*
X025214Y017322D01*
X025414Y017522D01*
X025414Y017772D01*
X025264Y018022D01*
X025014Y018072D01*
X024714Y017972D01*
X024764Y017972D01*
X024614Y017722D01*
X024714Y017422D01*
X024814Y017322D01*
X024664Y016922D01*
X024564Y016972D01*
X024364Y016822D01*
X024214Y016972D01*
X024364Y017222D01*
X024318Y017145D02*
X024748Y017145D01*
X024726Y017087D02*
X024283Y017087D01*
X024248Y017028D02*
X024704Y017028D01*
X024682Y016970D02*
X024569Y016970D01*
X024561Y016970D02*
X024217Y016970D01*
X024275Y016911D02*
X024483Y016911D01*
X024574Y016942D02*
X024334Y016772D01*
X024334Y016853D02*
X024405Y016853D01*
X024574Y016942D02*
X024674Y016882D01*
X024874Y017332D01*
X024814Y017321D02*
X024325Y017321D01*
X024301Y017379D02*
X024757Y017379D01*
X024709Y017438D02*
X024278Y017438D01*
X024214Y017472D02*
X023914Y017522D01*
X023914Y017782D01*
X024214Y017842D01*
X024273Y017848D02*
X024689Y017848D01*
X024654Y017789D02*
X024067Y017789D01*
X023964Y017731D02*
X024619Y017731D01*
X024631Y017672D02*
X023964Y017672D01*
X023964Y017614D02*
X024650Y017614D01*
X024670Y017555D02*
X024015Y017555D01*
X024191Y017496D02*
X024689Y017496D01*
X024597Y018355D02*
X024642Y018380D01*
X024689Y018403D01*
X024737Y018422D01*
X024786Y018439D01*
X024836Y018452D01*
X024844Y018452D02*
X024894Y018772D01*
X025164Y018772D01*
X025214Y018452D01*
X025164Y018433D02*
X024836Y018433D01*
X024868Y018492D02*
X025164Y018492D01*
X025164Y018550D02*
X024880Y018550D01*
X024891Y018609D02*
X025164Y018609D01*
X025164Y018667D02*
X024903Y018667D01*
X024719Y018375D02*
X025307Y018375D01*
X025464Y018352D02*
X025724Y018532D01*
X025914Y018352D01*
X025734Y018092D01*
X025719Y018082D02*
X024351Y018082D01*
X024324Y018092D02*
X024144Y018352D01*
X024334Y018532D01*
X024594Y018352D01*
X024509Y018375D02*
X024217Y018375D01*
X024170Y018316D02*
X025836Y018316D01*
X025860Y018375D02*
X025552Y018375D01*
X025649Y018433D02*
X025772Y018433D01*
X025807Y018258D02*
X024229Y018258D01*
X024287Y018199D02*
X025778Y018199D01*
X025748Y018140D02*
X024346Y018140D01*
X024331Y018023D02*
X024868Y018023D01*
X024760Y017965D02*
X024312Y017965D01*
X024292Y017906D02*
X024725Y017906D01*
X024874Y017342D02*
X024841Y017360D01*
X024811Y017381D01*
X024782Y017405D01*
X024756Y017432D01*
X024734Y017461D01*
X024714Y017493D01*
X024697Y017526D01*
X024684Y017561D01*
X024675Y017597D01*
X024669Y017634D01*
X024667Y017671D01*
X024669Y017708D01*
X024674Y017745D01*
X024684Y017781D01*
X024696Y017816D01*
X024713Y017850D01*
X024732Y017881D01*
X024755Y017911D01*
X024781Y017938D01*
X024809Y017962D01*
X024840Y017983D01*
X024872Y018001D01*
X024906Y018016D01*
X024942Y018027D01*
X024978Y018035D01*
X025015Y018039D01*
X025053Y018039D01*
X025090Y018035D01*
X025126Y018027D01*
X025162Y018016D01*
X025196Y018001D01*
X025228Y017983D01*
X025259Y017962D01*
X025287Y017938D01*
X025313Y017911D01*
X025336Y017881D01*
X025355Y017850D01*
X025372Y017816D01*
X025384Y017781D01*
X025394Y017745D01*
X025399Y017708D01*
X025401Y017671D01*
X025399Y017634D01*
X025393Y017597D01*
X025384Y017561D01*
X025371Y017526D01*
X025354Y017493D01*
X025334Y017461D01*
X025312Y017432D01*
X025286Y017405D01*
X025257Y017381D01*
X025227Y017360D01*
X025194Y017342D01*
X025194Y017332D02*
X025384Y016882D01*
X025484Y016942D01*
X025724Y016772D01*
X025914Y016962D01*
X025744Y017202D01*
X025723Y017204D02*
X025273Y017204D01*
X025244Y017262D02*
X025740Y017262D01*
X025757Y017321D02*
X025215Y017321D01*
X025271Y017379D02*
X025773Y017379D01*
X025790Y017438D02*
X025330Y017438D01*
X025388Y017496D02*
X025807Y017496D01*
X025844Y017472D02*
X026144Y017522D01*
X026144Y017782D01*
X025844Y017842D01*
X025804Y017848D02*
X025369Y017848D01*
X025334Y017906D02*
X025780Y017906D01*
X025757Y017965D02*
X025298Y017965D01*
X025258Y018023D02*
X025734Y018023D01*
X026012Y017789D02*
X025404Y017789D01*
X025414Y017731D02*
X026114Y017731D01*
X026114Y017672D02*
X025414Y017672D01*
X025414Y017614D02*
X026114Y017614D01*
X026114Y017555D02*
X025414Y017555D01*
X025843Y017842D02*
X025828Y017894D01*
X025809Y017945D01*
X025787Y017995D01*
X025762Y018043D01*
X025733Y018090D01*
X025844Y017469D02*
X025834Y017422D01*
X025821Y017376D01*
X025806Y017331D01*
X025788Y017286D01*
X025767Y017243D01*
X025744Y017202D01*
X025734Y017145D02*
X025303Y017145D01*
X025332Y017087D02*
X025778Y017087D01*
X025822Y017028D02*
X025361Y017028D01*
X025390Y016970D02*
X025509Y016970D01*
X025517Y016970D02*
X025862Y016970D01*
X025803Y016911D02*
X025596Y016911D01*
X025674Y016853D02*
X025744Y016853D01*
X024318Y017205D02*
X024290Y017255D01*
X024266Y017307D01*
X024245Y017360D01*
X024228Y017415D01*
X024215Y017471D01*
X024221Y017842D02*
X024235Y017893D01*
X024253Y017944D01*
X024274Y017993D01*
X024298Y018041D01*
X024325Y018087D01*
X024275Y018433D02*
X024392Y018433D01*
X025219Y018455D02*
X025271Y018441D01*
X025322Y018424D01*
X025372Y018404D01*
X025421Y018381D01*
X025468Y018354D01*
X020527Y016772D02*
X020527Y016599D01*
X020527Y016729D02*
X020354Y016729D01*
X020354Y016772D02*
X020440Y016859D01*
X020527Y016772D01*
X020354Y016772D02*
X020354Y016599D01*
X020232Y016729D02*
X020189Y016686D01*
X020059Y016686D01*
X020059Y016599D02*
X020059Y016859D01*
X020189Y016859D01*
X020232Y016816D01*
X020232Y016729D01*
X019938Y016729D02*
X019764Y016729D01*
X019643Y016642D02*
X019600Y016599D01*
X019513Y016599D01*
X019470Y016642D01*
X019643Y016816D01*
X019643Y016642D01*
X019470Y016642D02*
X019470Y016816D01*
X019513Y016859D01*
X019600Y016859D01*
X019643Y016816D01*
X019349Y016859D02*
X019262Y016816D01*
X019175Y016729D01*
X019305Y016729D01*
X019349Y016686D01*
X019349Y016642D01*
X019305Y016599D01*
X019218Y016599D01*
X019175Y016642D01*
X019175Y016729D01*
X019054Y016772D02*
X019054Y016816D01*
X019010Y016859D01*
X018924Y016859D01*
X018880Y016816D01*
X018759Y016816D02*
X018716Y016859D01*
X018629Y016859D01*
X018586Y016816D01*
X018586Y016642D01*
X018629Y016599D01*
X018716Y016599D01*
X018759Y016642D01*
X018880Y016599D02*
X019054Y016772D01*
X019054Y016599D02*
X018880Y016599D01*
X018465Y016599D02*
X018465Y016859D01*
X018378Y016772D01*
X018291Y016859D01*
X018291Y016599D01*
X018083Y016599D02*
X018083Y016859D01*
X017996Y016859D02*
X018170Y016859D01*
X018207Y016194D02*
X018163Y016150D01*
X018163Y015977D01*
X018207Y015934D01*
X018293Y015934D01*
X018337Y015977D01*
X018458Y015934D02*
X018631Y015934D01*
X018545Y015934D02*
X018545Y016194D01*
X018458Y016107D01*
X018337Y016150D02*
X018293Y016194D01*
X018207Y016194D01*
X018054Y016194D02*
X017967Y016194D01*
X018010Y016194D02*
X018010Y015934D01*
X017967Y015934D02*
X018054Y015934D01*
X018080Y018431D02*
X018080Y018561D01*
X018037Y018604D01*
X017950Y018604D01*
X017907Y018561D01*
X017907Y018431D01*
X018167Y018431D01*
X018080Y018518D02*
X018167Y018604D01*
X018124Y018726D02*
X018167Y018769D01*
X018167Y018856D01*
X018124Y018899D01*
X018080Y018899D01*
X018037Y018856D01*
X018037Y018812D01*
X018037Y018856D02*
X017994Y018899D01*
X017950Y018899D01*
X017907Y018856D01*
X017907Y018769D01*
X017950Y018726D01*
X021627Y022494D02*
X021627Y023135D01*
X021947Y023135D01*
X022054Y023028D01*
X022054Y022814D01*
X021947Y022708D01*
X021627Y022708D01*
X021410Y022814D02*
X021410Y023028D01*
X021303Y023135D01*
X021089Y023135D01*
X020983Y023028D01*
X020983Y022814D01*
X021089Y022708D01*
X021303Y022708D01*
X021410Y022814D01*
X020766Y022708D02*
X020660Y022814D01*
X020660Y023241D01*
X020766Y023135D02*
X020553Y023135D01*
X020335Y022601D02*
X019908Y022601D01*
X019691Y022708D02*
X019371Y022708D01*
X019264Y022814D01*
X019264Y023028D01*
X019371Y023135D01*
X019691Y023135D01*
X019691Y023348D02*
X019691Y022708D01*
X019046Y022708D02*
X019046Y023028D01*
X018940Y023135D01*
X018726Y023135D01*
X018619Y023028D01*
X018619Y023348D02*
X018619Y022708D01*
D13*
X012802Y013507D02*
X012871Y013439D01*
X012597Y013165D01*
X012666Y013097D01*
X012802Y013097D01*
X012871Y013165D01*
X012871Y013439D01*
X012802Y013507D02*
X012666Y013507D01*
X012597Y013439D01*
X012597Y013165D01*
X012410Y013165D02*
X012410Y013439D01*
X012137Y013165D01*
X012205Y013097D01*
X012342Y013097D01*
X012410Y013165D01*
X012137Y013165D02*
X012137Y013439D01*
X012205Y013507D01*
X012342Y013507D01*
X012410Y013439D01*
X011950Y013097D02*
X011676Y013097D01*
X011813Y013097D02*
X011813Y013507D01*
X011676Y013370D01*
X011490Y013302D02*
X011216Y013302D01*
X011029Y013233D02*
X011029Y013165D01*
X010961Y013097D01*
X010824Y013097D01*
X010756Y013165D01*
X010824Y013302D02*
X010961Y013302D01*
X011029Y013233D01*
X011029Y013439D02*
X010961Y013507D01*
X010824Y013507D01*
X010756Y013439D01*
X010756Y013370D01*
X010824Y013302D01*
X010569Y013165D02*
X010569Y013439D01*
X010501Y013507D01*
X010364Y013507D01*
X010295Y013439D01*
X010295Y013165D01*
X010364Y013097D01*
X010501Y013097D01*
X010569Y013165D01*
X010672Y012681D02*
X010672Y012408D01*
X010672Y012544D02*
X010809Y012681D01*
X010877Y012681D01*
X010485Y012613D02*
X010485Y012544D01*
X010212Y012544D01*
X010212Y012476D02*
X010212Y012613D01*
X010280Y012681D01*
X010417Y012681D01*
X010485Y012613D01*
X010417Y012408D02*
X010280Y012408D01*
X010212Y012476D01*
X010025Y012476D02*
X010025Y012613D01*
X009957Y012681D01*
X009751Y012681D01*
X009751Y012271D01*
X009751Y012408D02*
X009957Y012408D01*
X010025Y012476D01*
X009913Y012109D02*
X009844Y012041D01*
X009844Y011699D01*
X009776Y011904D02*
X009913Y011904D01*
X010083Y011904D02*
X010083Y011767D01*
X010151Y011699D01*
X010288Y011699D01*
X010356Y011767D01*
X010356Y011904D01*
X010288Y011973D01*
X010151Y011973D01*
X010083Y011904D01*
X010543Y011836D02*
X010680Y011973D01*
X010748Y011973D01*
X010543Y011973D02*
X010543Y011699D01*
X011387Y011699D02*
X011387Y011973D01*
X011524Y012109D01*
X011661Y011973D01*
X011661Y011699D01*
X011848Y011699D02*
X011848Y011973D01*
X011984Y011973D02*
X011848Y011836D01*
X011984Y011973D02*
X012053Y011973D01*
X012231Y011904D02*
X012300Y011973D01*
X012505Y011973D01*
X012505Y012109D02*
X012505Y011699D01*
X012300Y011699D01*
X012231Y011767D01*
X012231Y011904D01*
X012692Y011973D02*
X012692Y011767D01*
X012760Y011699D01*
X012965Y011699D01*
X012965Y011973D01*
X013152Y011973D02*
X013220Y011973D01*
X013220Y011699D01*
X013152Y011699D02*
X013289Y011699D01*
X013459Y011699D02*
X013459Y011973D01*
X013664Y011973D01*
X013732Y011904D01*
X013732Y011699D01*
X013919Y011767D02*
X013919Y011904D01*
X013988Y011973D01*
X014124Y011973D01*
X014193Y011904D01*
X014193Y011767D01*
X014124Y011699D01*
X013988Y011699D01*
X013919Y011767D01*
X013220Y012109D02*
X013220Y012178D01*
X013204Y012408D02*
X013204Y012681D01*
X013204Y012544D02*
X013341Y012681D01*
X013409Y012681D01*
X013017Y012613D02*
X013017Y012476D01*
X012949Y012408D01*
X012812Y012408D01*
X012744Y012476D01*
X012744Y012613D01*
X012812Y012681D01*
X012949Y012681D01*
X013017Y012613D01*
X012574Y012681D02*
X012437Y012681D01*
X012505Y012750D02*
X012505Y012476D01*
X012574Y012408D01*
X012250Y012476D02*
X012250Y012613D01*
X012182Y012681D01*
X012045Y012681D01*
X011976Y012613D01*
X011976Y012476D01*
X012045Y012408D01*
X012182Y012408D01*
X012250Y012476D01*
X011790Y012408D02*
X011790Y012818D01*
X011653Y012681D01*
X011516Y012818D01*
X011516Y012408D01*
X011387Y011904D02*
X011661Y011904D01*
X009972Y013097D02*
X009972Y013507D01*
X009835Y013507D02*
X010109Y013507D01*
X009496Y012681D02*
X009565Y012613D01*
X009565Y012476D01*
X009496Y012408D01*
X009291Y012408D01*
X009291Y012271D02*
X009291Y012681D01*
X009496Y012681D01*
X009104Y012613D02*
X009104Y012544D01*
X008831Y012544D01*
X008831Y012476D02*
X008831Y012613D01*
X008899Y012681D01*
X009036Y012681D01*
X009104Y012613D01*
X009036Y012408D02*
X008899Y012408D01*
X008831Y012476D01*
X008661Y012408D02*
X008592Y012476D01*
X008592Y012750D01*
X008524Y012681D02*
X008661Y012681D01*
X008337Y012750D02*
X008269Y012818D01*
X008132Y012818D01*
X008063Y012750D01*
X008063Y012681D01*
X008132Y012613D01*
X008269Y012613D01*
X008337Y012544D01*
X008337Y012476D01*
X008269Y012408D01*
X008132Y012408D01*
X008063Y012476D01*
X003655Y013135D02*
X003655Y013408D01*
X003655Y013595D02*
X003244Y013595D01*
X003655Y013868D01*
X003244Y013868D01*
X003244Y013408D02*
X003244Y013135D01*
X003655Y013135D01*
X003449Y013135D02*
X003449Y013271D01*
X003449Y011739D02*
X003313Y011739D01*
X003244Y011670D01*
X003244Y011465D01*
X003655Y011465D01*
X003518Y011465D02*
X003518Y011670D01*
X003449Y011739D01*
X003518Y011602D02*
X003655Y011739D01*
X003655Y011278D02*
X003244Y011278D01*
X003244Y011005D02*
X003655Y011005D01*
X003518Y011141D01*
X003655Y011278D01*
X003449Y010818D02*
X003313Y010818D01*
X003244Y010749D01*
X003244Y010544D01*
X003655Y010544D01*
X003518Y010544D02*
X003518Y010749D01*
X003449Y010818D01*
X003365Y015037D02*
X003434Y015105D01*
X003434Y015242D01*
X003502Y015310D01*
X003570Y015310D01*
X003639Y015242D01*
X003639Y015105D01*
X003570Y015037D01*
X003365Y015037D02*
X003297Y015037D01*
X003228Y015105D01*
X003228Y015242D01*
X003297Y015310D01*
X003228Y015497D02*
X003228Y015771D01*
X003228Y015634D02*
X003639Y015634D01*
X003639Y015957D02*
X003228Y015957D01*
X003228Y016231D01*
X003228Y016418D02*
X003228Y016623D01*
X003297Y016691D01*
X003434Y016691D01*
X003502Y016623D01*
X003502Y016418D01*
X003639Y016418D02*
X003228Y016418D01*
X003639Y016231D02*
X003639Y015957D01*
X003434Y015957D02*
X003434Y016094D01*
X003599Y017698D02*
X003189Y017698D01*
X003189Y017903D01*
X003257Y017971D01*
X003531Y017971D01*
X003599Y017903D01*
X003599Y017698D01*
X003599Y018158D02*
X003599Y018295D01*
X003599Y018226D02*
X003189Y018226D01*
X003189Y018158D02*
X003189Y018295D01*
X003189Y018465D02*
X003189Y018670D01*
X003257Y018739D01*
X003394Y018739D01*
X003463Y018670D01*
X003463Y018465D01*
X003599Y018465D02*
X003189Y018465D01*
X003463Y018602D02*
X003599Y018739D01*
X003570Y020209D02*
X003639Y020278D01*
X003639Y020415D01*
X003570Y020483D01*
X003502Y020483D01*
X003434Y020415D01*
X003434Y020278D01*
X003365Y020209D01*
X003297Y020209D01*
X003228Y020278D01*
X003228Y020415D01*
X003297Y020483D01*
X003297Y020670D02*
X003570Y020670D01*
X003639Y020738D01*
X003639Y020875D01*
X003570Y020943D01*
X003434Y020943D01*
X003434Y020806D01*
X003297Y020670D02*
X003228Y020738D01*
X003228Y020875D01*
X003297Y020943D01*
X014048Y012750D02*
X014048Y012681D01*
X014116Y012613D01*
X014253Y012613D01*
X014322Y012544D01*
X014322Y012476D01*
X014253Y012408D01*
X014116Y012408D01*
X014048Y012476D01*
X014048Y012750D02*
X014116Y012818D01*
X014253Y012818D01*
X014322Y012750D01*
X014508Y012818D02*
X014508Y012408D01*
X014508Y012613D02*
X014577Y012681D01*
X014714Y012681D01*
X014782Y012613D01*
X014782Y012408D01*
X014969Y012408D02*
X015105Y012408D01*
X015037Y012408D02*
X015037Y012681D01*
X014969Y012681D01*
X015037Y012818D02*
X015037Y012886D01*
X015276Y012613D02*
X015344Y012681D01*
X015481Y012681D01*
X015549Y012613D01*
X015549Y012544D01*
X015276Y012544D01*
X015276Y012476D02*
X015276Y012613D01*
X015276Y012476D02*
X015344Y012408D01*
X015481Y012408D01*
X015736Y012408D02*
X015873Y012408D01*
X015804Y012408D02*
X015804Y012818D01*
X015736Y012818D01*
X016043Y012613D02*
X016111Y012681D01*
X016316Y012681D01*
X016316Y012818D02*
X016316Y012408D01*
X016111Y012408D01*
X016043Y012476D01*
X016043Y012613D01*
D14*
X017762Y011098D02*
X017762Y014562D01*
X017920Y014720D01*
X021384Y014720D01*
X021542Y014562D01*
X021542Y011098D01*
X021384Y010940D01*
X017920Y010940D01*
X017762Y011098D01*
X021116Y014405D02*
X021118Y014425D01*
X021123Y014445D01*
X021133Y014463D01*
X021145Y014480D01*
X021160Y014494D01*
X021178Y014504D01*
X021197Y014512D01*
X021217Y014516D01*
X021237Y014516D01*
X021257Y014512D01*
X021276Y014504D01*
X021294Y014494D01*
X021309Y014480D01*
X021321Y014463D01*
X021331Y014445D01*
X021336Y014425D01*
X021338Y014405D01*
X021336Y014385D01*
X021331Y014365D01*
X021321Y014347D01*
X021309Y014330D01*
X021294Y014316D01*
X021276Y014306D01*
X021257Y014298D01*
X021237Y014294D01*
X021217Y014294D01*
X021197Y014298D01*
X021178Y014306D01*
X021160Y014316D01*
X021145Y014330D01*
X021133Y014347D01*
X021123Y014365D01*
X021118Y014385D01*
X021116Y014405D01*
X012144Y009760D02*
X011644Y009760D01*
X011894Y010010D02*
X011894Y009510D01*
X007794Y009760D02*
X007294Y009760D01*
X007544Y010010D02*
X007544Y009510D01*
D15*
X012681Y002165D02*
X012906Y002165D01*
X012981Y002090D01*
X012981Y001940D01*
X012906Y001865D01*
X012681Y001865D01*
X012831Y001865D02*
X012981Y001714D01*
X013142Y001714D02*
X013442Y001714D01*
X013602Y001789D02*
X013677Y001714D01*
X013827Y001714D01*
X013902Y001789D01*
X013902Y001865D01*
X013827Y001940D01*
X013677Y001940D01*
X013602Y002015D01*
X013602Y002090D01*
X013677Y002165D01*
X013827Y002165D01*
X013902Y002090D01*
X014062Y002165D02*
X014062Y001714D01*
X014363Y001714D01*
X014212Y001940D02*
X014062Y001940D01*
X014062Y002165D02*
X014363Y002165D01*
X014523Y002165D02*
X014823Y002165D01*
X014673Y002165D02*
X014673Y001714D01*
X013442Y002165D02*
X013142Y002165D01*
X013142Y001714D01*
X013142Y001940D02*
X013292Y001940D01*
X012681Y001714D02*
X012681Y002165D01*
X024546Y008532D02*
X024546Y012532D01*
X027546Y012532D01*
X027546Y012032D01*
X029546Y012032D01*
X029546Y009032D01*
X027546Y009032D01*
X027546Y008532D01*
X024546Y008532D01*
X020839Y014392D02*
X020339Y014392D01*
X020589Y014517D01*
X020589Y014267D01*
X020339Y014392D01*
X020351Y014387D02*
X020589Y014387D01*
X020589Y014435D02*
X020425Y014435D01*
X020448Y014338D02*
X020589Y014338D01*
X020589Y014290D02*
X020545Y014290D01*
X020522Y014484D02*
X020589Y014484D01*
D16*
X021622Y014800D02*
X021622Y015300D01*
X022722Y015300D01*
X022722Y014800D01*
X021622Y014800D01*
X023410Y013814D02*
X023910Y013814D01*
X023910Y012714D01*
X023410Y012714D01*
X023410Y013814D01*
X024349Y014022D02*
X024349Y014522D01*
X024599Y014772D01*
X025099Y014772D01*
X025349Y014522D01*
X025349Y014022D01*
X025099Y013772D01*
X024599Y013772D01*
X024349Y014022D01*
X024587Y013475D02*
X024902Y013475D01*
X024902Y007530D01*
X024587Y007530D01*
X024587Y013475D01*
X024902Y013475D02*
X027343Y013475D01*
X027343Y007530D01*
X024902Y007530D01*
X025099Y007272D02*
X024599Y007272D01*
X024349Y007022D01*
X024349Y006522D01*
X024599Y006272D01*
X025099Y006272D01*
X025349Y006522D01*
X025349Y007022D01*
X025099Y007272D01*
X025924Y007042D02*
X025924Y006542D01*
X026174Y006292D01*
X026674Y006292D01*
X026924Y006542D01*
X026924Y007042D01*
X026674Y007292D01*
X026174Y007292D01*
X025924Y007042D01*
X023821Y009452D02*
X023821Y010352D01*
X021861Y010352D01*
X021861Y009452D01*
X023821Y009452D01*
X023824Y010577D02*
X022724Y010577D01*
X022724Y011077D01*
X023824Y011077D01*
X023824Y010577D01*
X023918Y011360D02*
X023418Y011360D01*
X023418Y012460D01*
X023918Y012460D01*
X023918Y011360D01*
X023225Y011362D02*
X022725Y011362D01*
X022725Y012462D01*
X023225Y012462D01*
X023225Y011362D01*
X025924Y014022D02*
X026174Y013772D01*
X026674Y013772D01*
X026924Y014022D01*
X026924Y014522D01*
X026674Y014772D01*
X026174Y014772D01*
X025924Y014522D01*
X025924Y014022D01*
X026052Y019280D02*
X025552Y019280D01*
X025302Y019530D01*
X025052Y019280D01*
X024552Y019280D01*
X024302Y019530D01*
X024052Y019280D01*
X023552Y019280D01*
X023302Y019530D01*
X023052Y019280D01*
X022552Y019280D01*
X022302Y019530D01*
X022052Y019280D01*
X021552Y019280D01*
X021302Y019530D01*
X021052Y019280D01*
X020552Y019280D01*
X020302Y019530D01*
X020302Y020030D01*
X020552Y020280D01*
X021052Y020280D01*
X021302Y020030D01*
X021552Y020280D01*
X022052Y020280D01*
X022302Y020030D01*
X022552Y020280D01*
X023052Y020280D01*
X023302Y020030D01*
X023552Y020280D01*
X024052Y020280D01*
X024302Y020030D01*
X024552Y020280D01*
X025052Y020280D01*
X025302Y020030D01*
X025552Y020280D01*
X026052Y020280D01*
X026302Y020030D01*
X026302Y019530D01*
X026052Y019280D01*
X019674Y019530D02*
X019674Y020030D01*
X019424Y020280D01*
X018924Y020280D01*
X018674Y020030D01*
X018424Y020280D01*
X017924Y020280D01*
X017674Y020030D01*
X017424Y020280D01*
X016924Y020280D01*
X016674Y020030D01*
X016674Y019530D01*
X016924Y019280D01*
X017424Y019280D01*
X017674Y019530D01*
X017924Y019280D01*
X018424Y019280D01*
X018674Y019530D01*
X018924Y019280D01*
X019424Y019280D01*
X019674Y019530D01*
X017727Y019110D02*
X016227Y019110D01*
X016227Y015750D01*
X017727Y015750D01*
X017727Y019110D01*
X015999Y018892D02*
X015999Y018392D01*
X015749Y018142D01*
X015249Y018142D01*
X014999Y018392D01*
X014999Y018892D01*
X015249Y019142D01*
X015749Y019142D01*
X015999Y018892D01*
X015749Y016741D02*
X015249Y016741D01*
X014999Y016491D01*
X014999Y015991D01*
X015249Y015741D01*
X015749Y015741D01*
X015999Y015991D01*
X015999Y016491D01*
X015749Y016741D01*
X016419Y015563D02*
X016419Y015063D01*
X017519Y015063D01*
X017519Y015563D01*
X016419Y015563D01*
X016318Y014974D02*
X015818Y014974D01*
X015818Y013874D01*
X016318Y013874D01*
X016318Y014974D01*
X011383Y015050D02*
X011133Y014800D01*
X011383Y014550D01*
X011383Y014050D01*
X011133Y013800D01*
X010633Y013800D01*
X010383Y014050D01*
X010383Y014550D01*
X010633Y014800D01*
X010383Y015050D01*
X010383Y015550D01*
X010633Y015800D01*
X010383Y016050D01*
X010383Y016550D01*
X010633Y016800D01*
X010383Y017050D01*
X010383Y017550D01*
X010633Y017800D01*
X010383Y018050D01*
X010383Y018550D01*
X010633Y018800D01*
X011133Y018800D01*
X011383Y018550D01*
X011383Y018050D01*
X011133Y017800D01*
X011383Y017550D01*
X011383Y017050D01*
X011133Y016800D01*
X011383Y016550D01*
X011383Y016050D01*
X011133Y015800D01*
X011383Y015550D01*
X011383Y015050D01*
X007383Y015019D02*
X007383Y013919D01*
X006883Y013919D01*
X006883Y015019D01*
X007383Y015019D01*
X007383Y015297D02*
X006883Y015297D01*
X006883Y016397D01*
X007383Y016397D01*
X007383Y015297D01*
X006201Y015297D02*
X005701Y015297D01*
X005701Y016397D01*
X006201Y016397D01*
X006201Y015297D01*
X006201Y015019D02*
X005701Y015019D01*
X005701Y013919D01*
X006201Y013919D01*
X006201Y015019D01*
X006201Y013641D02*
X005701Y013641D01*
X005701Y012541D01*
X006201Y012541D01*
X006201Y013641D01*
X006883Y013641D02*
X007383Y013641D01*
X007383Y012541D01*
X006883Y012541D01*
X006883Y013641D01*
X006201Y012263D02*
X005701Y012263D01*
X005701Y011163D01*
X006201Y011163D01*
X006201Y012263D01*
X006222Y010754D02*
X006222Y007442D01*
X006972Y006692D01*
X007784Y006692D01*
X007387Y006302D02*
X007387Y005475D01*
X007387Y006302D02*
X003174Y006302D01*
X003174Y002758D01*
X005261Y002758D01*
X007111Y002758D02*
X007387Y002758D01*
X007387Y003585D01*
X009349Y005341D02*
X009599Y005091D01*
X010099Y005091D01*
X010349Y005341D01*
X010349Y005841D01*
X010099Y006091D01*
X009599Y006091D01*
X009349Y005841D01*
X009349Y005341D01*
X009472Y006692D02*
X008784Y006692D01*
X009472Y006692D02*
X010347Y007567D01*
X010347Y010754D01*
X008784Y010754D01*
X007784Y010754D02*
X006222Y010754D01*
X005950Y010367D02*
X005950Y009867D01*
X004850Y009867D01*
X004850Y010367D01*
X005950Y010367D01*
X006290Y008760D02*
X006292Y008858D01*
X006300Y008956D01*
X006312Y009054D01*
X006329Y009151D01*
X006350Y009247D01*
X006376Y009342D01*
X006407Y009435D01*
X006443Y009527D01*
X006482Y009617D01*
X006527Y009705D01*
X006575Y009790D01*
X006628Y009873D01*
X006684Y009954D01*
X006745Y010031D01*
X006809Y010106D01*
X006877Y010177D01*
X006948Y010245D01*
X007023Y010309D01*
X007100Y010370D01*
X007181Y010426D01*
X007264Y010479D01*
X007349Y010527D01*
X007437Y010572D01*
X007527Y010611D01*
X007619Y010647D01*
X007712Y010678D01*
X007807Y010704D01*
X007903Y010725D01*
X008000Y010742D01*
X008098Y010754D01*
X008196Y010762D01*
X008294Y010764D01*
X008392Y010762D01*
X008490Y010754D01*
X008588Y010742D01*
X008685Y010725D01*
X008781Y010704D01*
X008876Y010678D01*
X008969Y010647D01*
X009061Y010611D01*
X009151Y010572D01*
X009239Y010527D01*
X009324Y010479D01*
X009407Y010426D01*
X009488Y010370D01*
X009565Y010309D01*
X009640Y010245D01*
X009711Y010177D01*
X009779Y010106D01*
X009843Y010031D01*
X009904Y009954D01*
X009960Y009873D01*
X010013Y009790D01*
X010061Y009705D01*
X010106Y009617D01*
X010145Y009527D01*
X010181Y009435D01*
X010212Y009342D01*
X010238Y009247D01*
X010259Y009151D01*
X010276Y009054D01*
X010288Y008956D01*
X010296Y008858D01*
X010298Y008760D01*
X010296Y008662D01*
X010288Y008564D01*
X010276Y008466D01*
X010259Y008369D01*
X010238Y008273D01*
X010212Y008178D01*
X010181Y008085D01*
X010145Y007993D01*
X010106Y007903D01*
X010061Y007815D01*
X010013Y007730D01*
X009960Y007647D01*
X009904Y007566D01*
X009843Y007489D01*
X009779Y007414D01*
X009711Y007343D01*
X009640Y007275D01*
X009565Y007211D01*
X009488Y007150D01*
X009407Y007094D01*
X009324Y007041D01*
X009239Y006993D01*
X009151Y006948D01*
X009061Y006909D01*
X008969Y006873D01*
X008876Y006842D01*
X008781Y006816D01*
X008685Y006795D01*
X008588Y006778D01*
X008490Y006766D01*
X008392Y006758D01*
X008294Y006756D01*
X008196Y006758D01*
X008098Y006766D01*
X008000Y006778D01*
X007903Y006795D01*
X007807Y006816D01*
X007712Y006842D01*
X007619Y006873D01*
X007527Y006909D01*
X007437Y006948D01*
X007349Y006993D01*
X007264Y007041D01*
X007181Y007094D01*
X007100Y007150D01*
X007023Y007211D01*
X006948Y007275D01*
X006877Y007343D01*
X006809Y007414D01*
X006745Y007489D01*
X006684Y007566D01*
X006628Y007647D01*
X006575Y007730D01*
X006527Y007815D01*
X006482Y007903D01*
X006443Y007993D01*
X006407Y008085D01*
X006376Y008178D01*
X006350Y008273D01*
X006329Y008369D01*
X006312Y008466D01*
X006300Y008564D01*
X006292Y008662D01*
X006290Y008760D01*
X010574Y007442D02*
X011324Y006692D01*
X012137Y006692D01*
X013137Y006692D02*
X013824Y006692D01*
X014699Y007567D01*
X014699Y010754D01*
X013137Y010754D01*
X012137Y010754D02*
X010574Y010754D01*
X010574Y007442D01*
X010640Y008760D02*
X010642Y008858D01*
X010650Y008956D01*
X010662Y009054D01*
X010679Y009151D01*
X010700Y009247D01*
X010726Y009342D01*
X010757Y009435D01*
X010793Y009527D01*
X010832Y009617D01*
X010877Y009705D01*
X010925Y009790D01*
X010978Y009873D01*
X011034Y009954D01*
X011095Y010031D01*
X011159Y010106D01*
X011227Y010177D01*
X011298Y010245D01*
X011373Y010309D01*
X011450Y010370D01*
X011531Y010426D01*
X011614Y010479D01*
X011699Y010527D01*
X011787Y010572D01*
X011877Y010611D01*
X011969Y010647D01*
X012062Y010678D01*
X012157Y010704D01*
X012253Y010725D01*
X012350Y010742D01*
X012448Y010754D01*
X012546Y010762D01*
X012644Y010764D01*
X012742Y010762D01*
X012840Y010754D01*
X012938Y010742D01*
X013035Y010725D01*
X013131Y010704D01*
X013226Y010678D01*
X013319Y010647D01*
X013411Y010611D01*
X013501Y010572D01*
X013589Y010527D01*
X013674Y010479D01*
X013757Y010426D01*
X013838Y010370D01*
X013915Y010309D01*
X013990Y010245D01*
X014061Y010177D01*
X014129Y010106D01*
X014193Y010031D01*
X014254Y009954D01*
X014310Y009873D01*
X014363Y009790D01*
X014411Y009705D01*
X014456Y009617D01*
X014495Y009527D01*
X014531Y009435D01*
X014562Y009342D01*
X014588Y009247D01*
X014609Y009151D01*
X014626Y009054D01*
X014638Y008956D01*
X014646Y008858D01*
X014648Y008760D01*
X014646Y008662D01*
X014638Y008564D01*
X014626Y008466D01*
X014609Y008369D01*
X014588Y008273D01*
X014562Y008178D01*
X014531Y008085D01*
X014495Y007993D01*
X014456Y007903D01*
X014411Y007815D01*
X014363Y007730D01*
X014310Y007647D01*
X014254Y007566D01*
X014193Y007489D01*
X014129Y007414D01*
X014061Y007343D01*
X013990Y007275D01*
X013915Y007211D01*
X013838Y007150D01*
X013757Y007094D01*
X013674Y007041D01*
X013589Y006993D01*
X013501Y006948D01*
X013411Y006909D01*
X013319Y006873D01*
X013226Y006842D01*
X013131Y006816D01*
X013035Y006795D01*
X012938Y006778D01*
X012840Y006766D01*
X012742Y006758D01*
X012644Y006756D01*
X012546Y006758D01*
X012448Y006766D01*
X012350Y006778D01*
X012253Y006795D01*
X012157Y006816D01*
X012062Y006842D01*
X011969Y006873D01*
X011877Y006909D01*
X011787Y006948D01*
X011699Y006993D01*
X011614Y007041D01*
X011531Y007094D01*
X011450Y007150D01*
X011373Y007211D01*
X011298Y007275D01*
X011227Y007343D01*
X011159Y007414D01*
X011095Y007489D01*
X011034Y007566D01*
X010978Y007647D01*
X010925Y007730D01*
X010877Y007815D01*
X010832Y007903D01*
X010793Y007993D01*
X010757Y008085D01*
X010726Y008178D01*
X010700Y008273D01*
X010679Y008369D01*
X010662Y008466D01*
X010650Y008564D01*
X010642Y008662D01*
X010640Y008760D01*
X014999Y008904D02*
X015249Y008654D01*
X015749Y008654D01*
X015999Y008904D01*
X015999Y009404D01*
X015749Y009654D01*
X015249Y009654D01*
X014999Y009404D01*
X014999Y008904D01*
X016223Y009655D02*
X017723Y009655D01*
X017723Y006295D01*
X016223Y006295D01*
X016223Y009655D01*
X016632Y010087D02*
X016632Y010587D01*
X017732Y010587D01*
X017732Y010087D01*
X016632Y010087D01*
X015749Y007292D02*
X015249Y007292D01*
X014999Y007042D01*
X014999Y006542D01*
X015249Y006292D01*
X015749Y006292D01*
X015999Y006542D01*
X015999Y007042D01*
X015749Y007292D01*
X012058Y003689D02*
X010845Y003689D01*
X010451Y003189D02*
X010451Y002201D01*
X010845Y001689D02*
X012058Y001689D01*
X012451Y002201D02*
X012451Y003178D01*
X010951Y002689D02*
X010953Y002733D01*
X010959Y002777D01*
X010969Y002820D01*
X010982Y002862D01*
X010999Y002903D01*
X011020Y002942D01*
X011044Y002979D01*
X011071Y003014D01*
X011101Y003046D01*
X011134Y003076D01*
X011170Y003102D01*
X011207Y003126D01*
X011247Y003145D01*
X011288Y003162D01*
X011331Y003174D01*
X011374Y003183D01*
X011418Y003188D01*
X011462Y003189D01*
X011506Y003186D01*
X011550Y003179D01*
X011593Y003168D01*
X011635Y003154D01*
X011675Y003136D01*
X011714Y003114D01*
X011750Y003090D01*
X011784Y003062D01*
X011816Y003031D01*
X011845Y002997D01*
X011871Y002961D01*
X011893Y002923D01*
X011912Y002883D01*
X011927Y002841D01*
X011939Y002799D01*
X011947Y002755D01*
X011951Y002711D01*
X011951Y002667D01*
X011947Y002623D01*
X011939Y002579D01*
X011927Y002537D01*
X011912Y002495D01*
X011893Y002455D01*
X011871Y002417D01*
X011845Y002381D01*
X011816Y002347D01*
X011784Y002316D01*
X011750Y002288D01*
X011714Y002264D01*
X011675Y002242D01*
X011635Y002224D01*
X011593Y002210D01*
X011550Y002199D01*
X011506Y002192D01*
X011462Y002189D01*
X011418Y002190D01*
X011374Y002195D01*
X011331Y002204D01*
X011288Y002216D01*
X011247Y002233D01*
X011207Y002252D01*
X011170Y002276D01*
X011134Y002302D01*
X011101Y002332D01*
X011071Y002364D01*
X011044Y002399D01*
X011020Y002436D01*
X010999Y002475D01*
X010982Y002516D01*
X010969Y002558D01*
X010959Y002601D01*
X010953Y002645D01*
X010951Y002689D01*
X021503Y002264D02*
X022133Y002264D01*
X022149Y002259D01*
X022165Y002251D01*
X022179Y002241D01*
X022191Y002229D01*
X022201Y002214D01*
X022208Y002198D01*
X022212Y002181D01*
X022213Y002164D01*
X022211Y002146D01*
X021502Y002264D02*
X021486Y002259D01*
X021470Y002251D01*
X021456Y002241D01*
X021444Y002229D01*
X021434Y002214D01*
X021427Y002198D01*
X021423Y002181D01*
X021422Y002164D01*
X021424Y002146D01*
X021424Y001595D02*
X021422Y001577D01*
X021423Y001560D01*
X021427Y001543D01*
X021434Y001527D01*
X021444Y001512D01*
X021456Y001500D01*
X021470Y001490D01*
X021486Y001482D01*
X021502Y001477D01*
X021503Y001477D02*
X022133Y001477D01*
X022149Y001482D01*
X022165Y001490D01*
X022179Y001500D01*
X022191Y001512D01*
X022201Y001527D01*
X022208Y001543D01*
X022212Y001560D01*
X022213Y001577D01*
X022211Y001595D01*
X022552Y003280D02*
X022302Y003530D01*
X022302Y004030D01*
X022552Y004280D01*
X023052Y004280D01*
X023302Y004030D01*
X023552Y004280D01*
X024052Y004280D01*
X024302Y004030D01*
X024552Y004280D01*
X025052Y004280D01*
X025302Y004030D01*
X025552Y004280D01*
X026052Y004280D01*
X026302Y004030D01*
X026552Y004280D01*
X027052Y004280D01*
X027302Y004030D01*
X027552Y004280D01*
X028052Y004280D01*
X028302Y004030D01*
X028302Y003530D01*
X028052Y003280D01*
X027552Y003280D01*
X027302Y003530D01*
X027052Y003280D01*
X026552Y003280D01*
X026302Y003530D01*
X026052Y003280D01*
X025552Y003280D01*
X025302Y003530D01*
X025052Y003280D01*
X024552Y003280D01*
X024302Y003530D01*
X024052Y003280D01*
X023552Y003280D01*
X023302Y003530D01*
X023052Y003280D01*
X022552Y003280D01*
X007383Y016675D02*
X006883Y016675D01*
X006883Y017775D01*
X007383Y017775D01*
X007383Y016675D01*
X006201Y016675D02*
X006201Y017775D01*
X005701Y017775D01*
X005701Y016675D01*
X006201Y016675D01*
X006201Y018053D02*
X005701Y018053D01*
X005701Y019153D01*
X006201Y019153D01*
X006201Y018053D01*
X006883Y018053D02*
X006883Y019153D01*
X007383Y019153D01*
X007383Y018053D01*
X006883Y018053D01*
X006201Y019431D02*
X005701Y019431D01*
X005701Y020531D01*
X006201Y020531D01*
X006201Y019431D01*
X006201Y020809D02*
X005701Y020809D01*
X005701Y021909D01*
X006201Y021909D01*
X006201Y020809D01*
D17*
X004148Y005988D02*
X004148Y005888D01*
X004148Y005938D02*
X003998Y005938D01*
X004048Y005888D01*
X003998Y005840D02*
X003998Y005790D01*
X003998Y005815D02*
X004123Y005815D01*
X004148Y005790D01*
X004148Y005765D01*
X004123Y005740D01*
D18*
X004156Y010776D02*
X004294Y010855D01*
X004294Y011406D01*
X004156Y011485D01*
X004156Y013142D02*
X004294Y013221D01*
X004294Y013772D01*
X004156Y013851D01*
X004140Y015493D02*
X004278Y015571D01*
X004278Y016123D01*
X004140Y016201D01*
X004140Y017855D02*
X004278Y017934D01*
X004278Y018485D01*
X004140Y018563D01*
X004140Y020217D02*
X004278Y020296D01*
X004278Y020847D01*
X004140Y020926D01*
D19*
X026621Y010532D03*
D20*
X021224Y007546D03*
X020974Y004946D03*
X020974Y004921D03*
X020974Y004896D03*
X020974Y004871D03*
X020974Y004846D03*
X020974Y004821D03*
X020974Y004796D03*
X021274Y004796D03*
X021274Y004771D03*
X021274Y004821D03*
X021274Y004846D03*
X021574Y004871D03*
X021749Y004871D03*
X021924Y004821D03*
X021924Y004796D03*
X021924Y004771D03*
X021924Y004746D03*
X021924Y004721D03*
X021924Y004696D03*
X021924Y004671D03*
X022549Y004671D03*
X022549Y004696D03*
X022549Y004721D03*
X022549Y004746D03*
X022549Y004771D03*
X022549Y004846D03*
X022549Y004871D03*
X022549Y004896D03*
X022849Y004846D03*
X022849Y004821D03*
X022849Y004796D03*
X022849Y004771D03*
X023049Y004796D03*
X020624Y004721D03*
X020624Y004896D03*
X020449Y004871D03*
X020449Y004846D03*
X020449Y004771D03*
X020449Y004746D03*
X020249Y004746D03*
X020249Y004721D03*
X020249Y004696D03*
X020249Y004771D03*
X020249Y004796D03*
X020249Y004821D03*
X020249Y004846D03*
X020249Y004871D03*
X020249Y004896D03*
X020249Y004921D03*
X019774Y004821D03*
X019774Y004796D03*
X019774Y004771D03*
X019674Y004646D03*
X019574Y004771D03*
X019574Y004796D03*
X019574Y004821D03*
X019574Y004846D03*
X019199Y004821D03*
X019199Y004796D03*
X019199Y004771D03*
X019199Y004746D03*
X019199Y004721D03*
X019199Y004696D03*
X019199Y004671D03*
D21*
X019341Y004821D03*
X019591Y004721D03*
X019766Y004746D03*
X019766Y004846D03*
X019766Y004871D03*
X020441Y004821D03*
X020441Y004796D03*
X020541Y004646D03*
X020641Y004771D03*
X020641Y004796D03*
X020641Y004821D03*
X020641Y004846D03*
X021566Y004846D03*
X021566Y004821D03*
X021566Y004796D03*
X021566Y004771D03*
X021566Y004746D03*
X021741Y004896D03*
X022091Y004896D03*
X022091Y004871D03*
X022091Y004846D03*
X022091Y004821D03*
X022091Y004796D03*
X022091Y004921D03*
X022091Y004946D03*
X022641Y004771D03*
X022666Y004721D03*
X022691Y004671D03*
X022691Y004846D03*
X022691Y004896D03*
X023041Y004846D03*
X023041Y004771D03*
X023041Y004746D03*
X020666Y007321D03*
X021166Y008171D03*
D22*
X021158Y008146D03*
X021291Y008146D03*
X021433Y008146D03*
X021016Y008146D03*
X020816Y004921D03*
X020966Y004671D03*
X020608Y004696D03*
X020475Y004696D03*
X019741Y004696D03*
X019608Y004696D03*
X019400Y004921D03*
X019308Y004771D03*
X019208Y004921D03*
X021383Y004646D03*
X021600Y004696D03*
X022083Y004671D03*
X022883Y004696D03*
D23*
X022862Y004721D03*
X023012Y004696D03*
X023037Y004871D03*
X023212Y004696D03*
X022012Y004796D03*
X021662Y004646D03*
X021287Y004721D03*
X020462Y004896D03*
D24*
X020895Y004796D03*
X021295Y004896D03*
X021745Y004721D03*
X021995Y004821D03*
X022870Y004896D03*
X023045Y004821D03*
X022945Y004646D03*
X019595Y004896D03*
D25*
X019599Y004904D03*
X019574Y004829D03*
X019574Y004804D03*
X019574Y004779D03*
X019599Y004704D03*
X019774Y004779D03*
X019774Y004804D03*
X019774Y004829D03*
X020249Y004829D03*
X020249Y004804D03*
X020249Y004779D03*
X020249Y004754D03*
X020249Y004729D03*
X020249Y004704D03*
X020249Y004854D03*
X020249Y004879D03*
X020249Y004904D03*
X020449Y004854D03*
X020449Y004754D03*
X020874Y004829D03*
X020974Y004829D03*
X020974Y004804D03*
X020974Y004854D03*
X020974Y004879D03*
X020974Y004904D03*
X020974Y004929D03*
X020974Y004954D03*
X021274Y004854D03*
X021274Y004829D03*
X021274Y004804D03*
X021274Y004779D03*
X021274Y004754D03*
X021574Y004729D03*
X021574Y004879D03*
X021749Y004879D03*
X021749Y004729D03*
X021924Y004729D03*
X021924Y004704D03*
X021924Y004679D03*
X021924Y004654D03*
X021924Y004754D03*
X021924Y004779D03*
X021924Y004804D03*
X021924Y004829D03*
X021924Y004954D03*
X022549Y004904D03*
X022549Y004879D03*
X022549Y004854D03*
X022549Y004779D03*
X022549Y004754D03*
X022549Y004729D03*
X022549Y004704D03*
X022549Y004679D03*
X022549Y004654D03*
X022674Y004704D03*
X022649Y004754D03*
X022849Y004754D03*
X022849Y004779D03*
X022849Y004804D03*
X022849Y004829D03*
X022874Y004704D03*
X023049Y004804D03*
X020674Y007329D03*
X019199Y004954D03*
X019199Y004829D03*
X019199Y004804D03*
X019199Y004779D03*
X019199Y004754D03*
X019199Y004729D03*
X019199Y004704D03*
X019199Y004679D03*
X019199Y004654D03*
D26*
X019412Y004654D03*
X019412Y004679D03*
X019412Y004704D03*
X019412Y004729D03*
X019412Y004754D03*
X019412Y004779D03*
X019412Y004804D03*
X019412Y004829D03*
X019345Y004829D03*
X019978Y004829D03*
X019978Y004804D03*
X019978Y004779D03*
X019978Y004754D03*
X019978Y004729D03*
X019978Y004704D03*
X019978Y004679D03*
X019978Y004654D03*
X019978Y004854D03*
X019978Y004879D03*
X019978Y004904D03*
X020445Y004779D03*
X022320Y004779D03*
X022320Y004754D03*
X022320Y004729D03*
X022320Y004704D03*
X022320Y004679D03*
X022320Y004654D03*
X022320Y004804D03*
X022320Y004829D03*
X022320Y004854D03*
X022320Y004879D03*
X022320Y004904D03*
X022695Y004879D03*
X021428Y008129D03*
X021020Y008129D03*
D27*
X021424Y008179D03*
X021224Y007529D03*
X021999Y007188D03*
X022949Y004954D03*
X022949Y004654D03*
X019674Y004654D03*
X019674Y004954D03*
X019224Y004854D03*
D28*
X018574Y005379D03*
X018574Y005404D03*
X018574Y005429D03*
X018574Y005454D03*
X018574Y005479D03*
X018574Y005504D03*
X018574Y005529D03*
X018574Y005554D03*
X018574Y005579D03*
X018574Y005604D03*
X018574Y005629D03*
X018574Y005654D03*
X018574Y005679D03*
X018574Y005704D03*
X018574Y005729D03*
X018574Y005754D03*
X018574Y005779D03*
X018574Y005804D03*
X018574Y005829D03*
X018574Y005854D03*
X018574Y005879D03*
X018574Y005904D03*
X018574Y005929D03*
X018574Y005954D03*
X018574Y005979D03*
X018574Y006004D03*
X018574Y006029D03*
X018574Y006054D03*
X018574Y006079D03*
X018574Y006104D03*
X018574Y006129D03*
X018574Y006154D03*
X018574Y006179D03*
X018574Y006204D03*
X018574Y006229D03*
X018574Y006254D03*
X018574Y006279D03*
X018574Y006304D03*
X018574Y006329D03*
X018574Y006354D03*
X018574Y006379D03*
X018574Y006404D03*
X018574Y006429D03*
X018574Y006454D03*
X018574Y006479D03*
X018574Y006504D03*
X019524Y006404D03*
X019524Y006204D03*
X019399Y005879D03*
X019424Y005804D03*
X019449Y005729D03*
X019474Y005654D03*
X020399Y005654D03*
X020399Y005629D03*
X020399Y005604D03*
X020399Y005579D03*
X020399Y005554D03*
X020399Y005529D03*
X020399Y005504D03*
X020399Y005479D03*
X020399Y005454D03*
X020399Y005429D03*
X020399Y005404D03*
X020399Y005379D03*
X020399Y005679D03*
X020399Y005704D03*
X020399Y005729D03*
X020399Y005754D03*
X020399Y005779D03*
X020399Y005804D03*
X020399Y005829D03*
X020399Y005854D03*
X020399Y005879D03*
X020399Y005904D03*
X020399Y005929D03*
X020399Y005954D03*
X020399Y005979D03*
X020399Y006004D03*
X020399Y006029D03*
X020399Y006054D03*
X020399Y006079D03*
X020399Y006104D03*
X020399Y006129D03*
X020399Y006154D03*
X020399Y006179D03*
X020399Y006204D03*
X020399Y006229D03*
X020399Y006629D03*
X021249Y005579D03*
X021699Y005829D03*
X021674Y005929D03*
X022124Y005929D03*
X022124Y005904D03*
X022124Y005879D03*
X022124Y005854D03*
X022124Y005829D03*
X022124Y005804D03*
X022124Y005779D03*
X022124Y005754D03*
X022124Y005729D03*
X022124Y005704D03*
X022124Y005679D03*
X022124Y005654D03*
X022124Y005629D03*
X022124Y005604D03*
X022124Y005579D03*
X022124Y005554D03*
X022124Y005529D03*
X022124Y005504D03*
X022124Y005479D03*
X022124Y005454D03*
X022124Y005429D03*
X022124Y005404D03*
X022124Y005379D03*
X022124Y005954D03*
X022124Y005979D03*
X022124Y006004D03*
X022124Y006029D03*
X022124Y006054D03*
X022124Y006079D03*
X022124Y006104D03*
X022124Y006129D03*
X022124Y006154D03*
X022124Y006179D03*
X022124Y006204D03*
X022124Y006229D03*
X022124Y006254D03*
X022124Y006629D03*
X023649Y006404D03*
X024099Y006379D03*
X024099Y006354D03*
X024099Y005679D03*
X024099Y005654D03*
X023649Y005654D03*
X020249Y004954D03*
X020249Y004929D03*
X020249Y004679D03*
X020249Y004654D03*
D29*
X020541Y004654D03*
D30*
X020458Y004729D03*
X020458Y004879D03*
X020633Y004879D03*
X020633Y004729D03*
X020808Y004729D03*
X020808Y004704D03*
X020808Y004679D03*
X020808Y004654D03*
X020808Y004754D03*
X020808Y004779D03*
X020808Y004804D03*
X020808Y004829D03*
X020808Y004954D03*
X021283Y004729D03*
X021758Y004754D03*
X021758Y004779D03*
X021758Y004804D03*
X021758Y004829D03*
X021758Y004854D03*
X022008Y004804D03*
X022858Y004729D03*
X022858Y004879D03*
X023033Y004879D03*
X023033Y004729D03*
X023208Y004729D03*
X023208Y004704D03*
X023208Y004754D03*
X023208Y004779D03*
X023208Y004804D03*
X023208Y004829D03*
X023208Y004854D03*
X023208Y004879D03*
X023208Y004904D03*
X023208Y004929D03*
X023208Y004954D03*
X019583Y004854D03*
X019583Y004754D03*
X019583Y004729D03*
X019408Y004954D03*
X021283Y008179D03*
D31*
X021770Y007329D03*
X021995Y004829D03*
X022020Y004779D03*
X022870Y004904D03*
X023020Y004904D03*
X023020Y004704D03*
X020970Y004654D03*
X020470Y004704D03*
X020470Y004904D03*
X019745Y004904D03*
X019745Y004704D03*
D32*
X020937Y004779D03*
X021387Y004654D03*
X021387Y004954D03*
X022312Y006154D03*
X022287Y006229D03*
X022587Y006129D03*
X022562Y006054D03*
X022537Y005979D03*
X022612Y006204D03*
D33*
X021712Y007379D03*
X021312Y008079D03*
X021137Y008079D03*
X020837Y004854D03*
X021662Y004654D03*
X022062Y004754D03*
D34*
X022091Y004779D03*
X022091Y004804D03*
X022091Y004829D03*
X022091Y004854D03*
X022091Y004879D03*
X022091Y004904D03*
X022091Y004929D03*
X022091Y004954D03*
X022091Y004654D03*
X021566Y004754D03*
X021566Y004779D03*
X021566Y004804D03*
X021566Y004829D03*
X021566Y004854D03*
X020641Y004854D03*
X020641Y004829D03*
X020641Y004804D03*
X020641Y004779D03*
X020641Y004754D03*
X020616Y004704D03*
X020616Y004904D03*
X020441Y004829D03*
X020441Y004804D03*
X019766Y004754D03*
X019766Y004854D03*
X019266Y004829D03*
X022666Y004729D03*
X022691Y004679D03*
X022691Y004854D03*
X023041Y004854D03*
X023041Y004829D03*
X023041Y004779D03*
X023041Y004754D03*
X021166Y008179D03*
D35*
X019404Y004929D03*
X019304Y004754D03*
X022704Y004654D03*
X022854Y004854D03*
D36*
X023257Y004679D03*
X023257Y004654D03*
X023241Y005379D03*
X023241Y005404D03*
X023241Y005429D03*
X023241Y005454D03*
X023241Y005479D03*
X023241Y005504D03*
X023241Y005529D03*
X023241Y005554D03*
X023241Y005579D03*
X023241Y005604D03*
X023241Y005629D03*
X023241Y005654D03*
X023241Y005679D03*
X023241Y005704D03*
X023241Y005729D03*
X023241Y005754D03*
X023241Y005779D03*
X023241Y005804D03*
X023241Y005829D03*
X023241Y005854D03*
X023241Y005879D03*
X023241Y005904D03*
X023241Y005929D03*
X023241Y005954D03*
X023241Y005979D03*
X023241Y006004D03*
X023241Y006029D03*
X023241Y006054D03*
X023241Y006079D03*
X023241Y006104D03*
X023241Y006129D03*
X023241Y006154D03*
X023241Y006179D03*
X023241Y006204D03*
X023241Y006229D03*
X023241Y006254D03*
X023241Y006279D03*
X023241Y006304D03*
X023241Y006329D03*
X023241Y006354D03*
X023241Y006379D03*
X023241Y006404D03*
X023241Y006429D03*
X023241Y006454D03*
X023241Y006479D03*
X023241Y006504D03*
X023241Y006529D03*
X023241Y006554D03*
X023241Y006579D03*
X023241Y006604D03*
X023241Y006629D03*
X023241Y006654D03*
X022791Y006654D03*
X022791Y006254D03*
X022791Y006229D03*
X022791Y006204D03*
X022791Y006179D03*
X022791Y006154D03*
X022791Y006129D03*
X022791Y006104D03*
X022791Y006079D03*
X022791Y006054D03*
X022791Y006029D03*
X022791Y006004D03*
X022791Y005979D03*
X022791Y005954D03*
X022791Y005929D03*
X022791Y005904D03*
X022791Y005879D03*
X022791Y005854D03*
X022791Y005829D03*
X022791Y005804D03*
X022791Y005779D03*
X022791Y005754D03*
X022791Y005729D03*
X022791Y005704D03*
X022791Y005679D03*
X022791Y005654D03*
X022791Y005629D03*
X022791Y005604D03*
X022791Y005579D03*
X022791Y005554D03*
X022791Y005529D03*
X022791Y005504D03*
X022791Y005479D03*
X022791Y005454D03*
X022791Y005429D03*
X022791Y005404D03*
X022791Y005379D03*
X023641Y005704D03*
X023641Y005729D03*
X023641Y005754D03*
X024082Y005579D03*
X023641Y006279D03*
X023641Y006304D03*
X023641Y006329D03*
X023641Y006354D03*
X024082Y006454D03*
X021691Y005854D03*
X021316Y005879D03*
X021266Y005654D03*
X021241Y005554D03*
X021216Y005429D03*
X019491Y005604D03*
X019466Y005679D03*
X019441Y005754D03*
X019416Y005829D03*
X019391Y005904D03*
X019516Y006154D03*
X021041Y008254D03*
D37*
X023874Y006688D03*
X023049Y004813D03*
X023049Y004788D03*
X022849Y004788D03*
X022849Y004813D03*
X022849Y004838D03*
X022849Y004763D03*
X022699Y004663D03*
X022674Y004713D03*
X022649Y004763D03*
X022549Y004763D03*
X022549Y004738D03*
X022549Y004713D03*
X022549Y004688D03*
X022549Y004663D03*
X022549Y004838D03*
X022549Y004863D03*
X022549Y004888D03*
X021924Y004813D03*
X021924Y004788D03*
X021924Y004763D03*
X021924Y004738D03*
X021924Y004713D03*
X021924Y004688D03*
X021924Y004663D03*
X021749Y004738D03*
X021574Y004738D03*
X021274Y004763D03*
X021274Y004788D03*
X021274Y004813D03*
X021274Y004838D03*
X020974Y004838D03*
X020974Y004863D03*
X020974Y004888D03*
X020974Y004913D03*
X020974Y004938D03*
X020974Y004813D03*
X020974Y004788D03*
X020624Y004713D03*
X020624Y004888D03*
X020449Y004863D03*
X020449Y004838D03*
X020449Y004763D03*
X020449Y004738D03*
X020249Y004738D03*
X020249Y004763D03*
X020249Y004788D03*
X020249Y004813D03*
X020249Y004838D03*
X020249Y004863D03*
X020249Y004888D03*
X020249Y004913D03*
X020249Y004713D03*
X020249Y004688D03*
X019774Y004788D03*
X019774Y004813D03*
X019774Y004838D03*
X019574Y004838D03*
X019574Y004813D03*
X019574Y004788D03*
X019574Y004763D03*
X019274Y004813D03*
X019199Y004813D03*
X019199Y004788D03*
X019199Y004763D03*
X019199Y004738D03*
X019199Y004713D03*
X019199Y004688D03*
X019199Y004663D03*
D38*
X019337Y004813D03*
X019412Y004813D03*
X019412Y004788D03*
X019412Y004763D03*
X019412Y004738D03*
X019412Y004713D03*
X019412Y004688D03*
X019412Y004663D03*
X019670Y004963D03*
X019978Y004888D03*
X019978Y004863D03*
X019978Y004838D03*
X019978Y004813D03*
X019978Y004788D03*
X019978Y004763D03*
X019978Y004738D03*
X019978Y004713D03*
X019978Y004688D03*
X019978Y004663D03*
X020545Y004963D03*
X021378Y004963D03*
X022320Y004888D03*
X022320Y004863D03*
X022320Y004838D03*
X022320Y004813D03*
X022320Y004788D03*
X022320Y004763D03*
X022320Y004738D03*
X022320Y004713D03*
X022320Y004688D03*
X022320Y004663D03*
X022945Y004963D03*
X021278Y008188D03*
X021170Y008188D03*
D39*
X021124Y008038D03*
X020649Y007013D03*
X020574Y006188D03*
X020649Y005988D03*
X020699Y005863D03*
X021349Y006038D03*
X021374Y006163D03*
X021399Y006263D03*
X021424Y006388D03*
X021574Y006388D03*
X021599Y006288D03*
X021624Y006163D03*
X022299Y006188D03*
X022324Y006113D03*
X022349Y006038D03*
X022949Y004663D03*
X019674Y004663D03*
D40*
X019674Y004938D03*
X020249Y004938D03*
X020249Y004663D03*
X020399Y005388D03*
X020399Y005413D03*
X020399Y005438D03*
X020399Y005463D03*
X020399Y005488D03*
X020399Y005513D03*
X020399Y005538D03*
X020399Y005563D03*
X020399Y005588D03*
X020399Y005613D03*
X020399Y005638D03*
X020399Y005663D03*
X020399Y005688D03*
X020399Y005713D03*
X020399Y005738D03*
X020399Y005763D03*
X020399Y005788D03*
X020399Y005813D03*
X020399Y005838D03*
X020399Y005863D03*
X020399Y005888D03*
X020399Y005913D03*
X020399Y005938D03*
X020399Y005963D03*
X020399Y005988D03*
X020399Y006013D03*
X020399Y006038D03*
X020399Y006063D03*
X020399Y006088D03*
X020399Y006113D03*
X020399Y006138D03*
X020399Y006163D03*
X020399Y006188D03*
X020399Y006213D03*
X020399Y006238D03*
X020399Y006638D03*
X019524Y006413D03*
X019524Y006188D03*
X019399Y005888D03*
X019424Y005813D03*
X019449Y005738D03*
X019474Y005663D03*
X018574Y005663D03*
X018574Y005688D03*
X018574Y005713D03*
X018574Y005738D03*
X018574Y005763D03*
X018574Y005788D03*
X018574Y005813D03*
X018574Y005838D03*
X018574Y005863D03*
X018574Y005888D03*
X018574Y005913D03*
X018574Y005938D03*
X018574Y005963D03*
X018574Y005988D03*
X018574Y006013D03*
X018574Y006038D03*
X018574Y006063D03*
X018574Y006088D03*
X018574Y006113D03*
X018574Y006138D03*
X018574Y006163D03*
X018574Y006188D03*
X018574Y006213D03*
X018574Y006238D03*
X018574Y006263D03*
X018574Y006288D03*
X018574Y006313D03*
X018574Y006338D03*
X018574Y006363D03*
X018574Y006388D03*
X018574Y006413D03*
X018574Y006438D03*
X018574Y006463D03*
X018574Y006488D03*
X018574Y006513D03*
X018574Y005638D03*
X018574Y005613D03*
X018574Y005588D03*
X018574Y005563D03*
X018574Y005538D03*
X018574Y005513D03*
X018574Y005488D03*
X018574Y005463D03*
X018574Y005438D03*
X018574Y005413D03*
X018574Y005388D03*
X021224Y005463D03*
X021249Y005588D03*
X021749Y005588D03*
X021674Y005938D03*
X022124Y005938D03*
X022124Y005963D03*
X022124Y005988D03*
X022124Y006013D03*
X022124Y006038D03*
X022124Y006063D03*
X022124Y006088D03*
X022124Y006113D03*
X022124Y006138D03*
X022124Y006163D03*
X022124Y006188D03*
X022124Y006213D03*
X022124Y006238D03*
X022124Y006638D03*
X021499Y006663D03*
X021674Y007413D03*
X020774Y007413D03*
X022124Y005913D03*
X022124Y005888D03*
X022124Y005863D03*
X022124Y005838D03*
X022124Y005813D03*
X022124Y005788D03*
X022124Y005763D03*
X022124Y005738D03*
X022124Y005713D03*
X022124Y005688D03*
X022124Y005663D03*
X022124Y005638D03*
X022124Y005613D03*
X022124Y005588D03*
X022124Y005563D03*
X022124Y005538D03*
X022124Y005513D03*
X022124Y005488D03*
X022124Y005463D03*
X022124Y005438D03*
X022124Y005413D03*
X022124Y005388D03*
X022949Y004938D03*
X023649Y005638D03*
X024099Y005663D03*
X024099Y005688D03*
X024099Y006363D03*
X023649Y006388D03*
X021374Y004938D03*
D41*
X020541Y004663D03*
X020716Y005813D03*
X020641Y006013D03*
X020566Y006213D03*
X021366Y006113D03*
X021391Y006213D03*
X021391Y006238D03*
X021416Y006338D03*
X021641Y006088D03*
X022291Y006213D03*
X022316Y006138D03*
X022341Y006063D03*
X022591Y004788D03*
D42*
X022658Y004738D03*
X022683Y004688D03*
X022858Y004738D03*
X023033Y004888D03*
X023208Y004888D03*
X023208Y004913D03*
X023208Y004938D03*
X023208Y004863D03*
X023208Y004838D03*
X023208Y004813D03*
X023208Y004788D03*
X023208Y004763D03*
X023208Y004738D03*
X023208Y004713D03*
X021758Y004763D03*
X021758Y004788D03*
X021758Y004813D03*
X021758Y004838D03*
X021758Y004863D03*
X021583Y004713D03*
X021283Y004738D03*
X020883Y004813D03*
X020808Y004813D03*
X020808Y004788D03*
X020808Y004763D03*
X020808Y004738D03*
X020808Y004713D03*
X020808Y004688D03*
X020808Y004663D03*
X020633Y004738D03*
X020633Y004863D03*
X020458Y004888D03*
X019758Y004888D03*
X019583Y004863D03*
X019583Y004738D03*
D43*
X020895Y004788D03*
X020970Y004663D03*
X021295Y004713D03*
X021745Y004888D03*
X022020Y004788D03*
D44*
X021378Y004663D03*
X021312Y005863D03*
X021320Y005913D03*
X021328Y005938D03*
X021337Y005963D03*
X021337Y005988D03*
X021345Y006013D03*
X021353Y006063D03*
X021362Y006088D03*
X021370Y006138D03*
X021620Y006188D03*
X021628Y006138D03*
X021637Y006113D03*
X021645Y006063D03*
X021653Y006038D03*
X021653Y006013D03*
X021662Y005988D03*
X021670Y005963D03*
X021678Y005913D03*
X021695Y005838D03*
X021603Y006263D03*
X022120Y006663D03*
X021795Y007013D03*
X021987Y007238D03*
X021328Y008013D03*
X021120Y008013D03*
X021412Y008238D03*
X020395Y006663D03*
X020587Y006163D03*
X020595Y006138D03*
X020603Y006113D03*
X020612Y006088D03*
X020620Y006063D03*
X020662Y005963D03*
X020670Y005938D03*
X020678Y005913D03*
X020687Y005888D03*
X022370Y005988D03*
X022453Y005763D03*
D45*
X022537Y005988D03*
X022562Y006063D03*
X021662Y004663D03*
D46*
X022087Y004663D03*
X021287Y004888D03*
X020812Y004938D03*
X022862Y004888D03*
X023037Y004738D03*
X021762Y007338D03*
X020687Y007338D03*
X021162Y008163D03*
X021287Y008163D03*
D47*
X021041Y008263D03*
X020466Y007263D03*
X021316Y005888D03*
X021266Y005663D03*
X021241Y005538D03*
X021691Y005863D03*
X021666Y004938D03*
X020541Y004938D03*
X019466Y005688D03*
X019441Y005763D03*
X019416Y005838D03*
X019391Y005913D03*
X022791Y005913D03*
X022791Y005938D03*
X022791Y005963D03*
X022791Y005988D03*
X022791Y006013D03*
X022791Y006038D03*
X022791Y006063D03*
X022791Y006088D03*
X022791Y006113D03*
X022791Y006138D03*
X022791Y006163D03*
X022791Y006188D03*
X022791Y006213D03*
X022791Y006238D03*
X022791Y006263D03*
X023241Y006263D03*
X023241Y006288D03*
X023241Y006313D03*
X023241Y006338D03*
X023241Y006363D03*
X023241Y006388D03*
X023241Y006413D03*
X023241Y006438D03*
X023241Y006463D03*
X023241Y006488D03*
X023241Y006513D03*
X023241Y006538D03*
X023241Y006563D03*
X023241Y006588D03*
X023241Y006613D03*
X023241Y006638D03*
X023241Y006663D03*
X022791Y006663D03*
X023241Y006238D03*
X023241Y006213D03*
X023241Y006188D03*
X023241Y006163D03*
X023241Y006138D03*
X023241Y006113D03*
X023241Y006088D03*
X023241Y006063D03*
X023241Y006038D03*
X023241Y006013D03*
X023241Y005988D03*
X023241Y005963D03*
X023241Y005938D03*
X023241Y005913D03*
X023241Y005888D03*
X023241Y005863D03*
X023241Y005838D03*
X023241Y005813D03*
X023241Y005788D03*
X023241Y005763D03*
X023241Y005738D03*
X023241Y005713D03*
X023241Y005688D03*
X023241Y005663D03*
X023241Y005638D03*
X023241Y005613D03*
X023241Y005588D03*
X023241Y005563D03*
X023241Y005538D03*
X023241Y005513D03*
X023241Y005488D03*
X023241Y005463D03*
X023241Y005438D03*
X023241Y005413D03*
X023241Y005388D03*
X022791Y005388D03*
X022791Y005413D03*
X022791Y005438D03*
X022791Y005463D03*
X022791Y005488D03*
X022791Y005513D03*
X022791Y005538D03*
X022791Y005563D03*
X022791Y005588D03*
X022791Y005613D03*
X022791Y005638D03*
X022791Y005663D03*
X022791Y005688D03*
X022791Y005713D03*
X022791Y005738D03*
X022791Y005763D03*
X022791Y005788D03*
X022791Y005813D03*
X022791Y005838D03*
X022791Y005863D03*
X022791Y005888D03*
X023641Y005738D03*
X023641Y005713D03*
X023641Y005688D03*
X023641Y006288D03*
X023641Y006313D03*
X023641Y006338D03*
X023257Y004688D03*
X023257Y004663D03*
D48*
X022695Y004871D03*
X022320Y004871D03*
X022320Y004846D03*
X022320Y004821D03*
X022320Y004796D03*
X022320Y004771D03*
X022320Y004746D03*
X022320Y004721D03*
X022320Y004696D03*
X022320Y004671D03*
X022320Y004896D03*
X021428Y004696D03*
X019978Y004696D03*
X019978Y004671D03*
X019978Y004721D03*
X019978Y004746D03*
X019978Y004771D03*
X019978Y004796D03*
X019978Y004821D03*
X019978Y004846D03*
X019978Y004871D03*
X019978Y004896D03*
X019412Y004821D03*
X019412Y004796D03*
X019412Y004771D03*
X019412Y004746D03*
X019412Y004721D03*
X019412Y004696D03*
X019412Y004671D03*
X019270Y004821D03*
X021778Y007321D03*
X021428Y008121D03*
X021278Y008196D03*
X021170Y008196D03*
D49*
X020599Y007496D03*
X020399Y006646D03*
X020399Y006221D03*
X020399Y006196D03*
X020399Y006171D03*
X020399Y006146D03*
X020399Y006121D03*
X020399Y006096D03*
X020399Y006071D03*
X020399Y006046D03*
X020399Y006021D03*
X020399Y005996D03*
X020399Y005971D03*
X020399Y005946D03*
X020399Y005921D03*
X020399Y005896D03*
X020399Y005871D03*
X020399Y005846D03*
X020399Y005821D03*
X020399Y005796D03*
X020399Y005771D03*
X020399Y005746D03*
X020399Y005721D03*
X020399Y005696D03*
X020399Y005671D03*
X020399Y005646D03*
X020399Y005621D03*
X020399Y005596D03*
X020399Y005571D03*
X020399Y005546D03*
X020399Y005521D03*
X020399Y005496D03*
X020399Y005471D03*
X020399Y005446D03*
X020399Y005421D03*
X020399Y005396D03*
X020399Y005371D03*
X020249Y004946D03*
X020249Y004671D03*
X019674Y004671D03*
X018574Y005371D03*
X018574Y005396D03*
X018574Y005421D03*
X018574Y005446D03*
X018574Y005471D03*
X018574Y005496D03*
X018574Y005521D03*
X018574Y005546D03*
X018574Y005571D03*
X018574Y005596D03*
X018574Y005621D03*
X018574Y005646D03*
X018574Y005671D03*
X018574Y005696D03*
X018574Y005721D03*
X018574Y005746D03*
X018574Y005771D03*
X018574Y005796D03*
X018574Y005821D03*
X018574Y005846D03*
X018574Y005871D03*
X018574Y005896D03*
X018574Y005921D03*
X018574Y005946D03*
X018574Y005971D03*
X018574Y005996D03*
X018574Y006021D03*
X018574Y006046D03*
X018574Y006071D03*
X018574Y006096D03*
X018574Y006121D03*
X018574Y006146D03*
X018574Y006171D03*
X018574Y006196D03*
X018574Y006221D03*
X018574Y006246D03*
X018574Y006271D03*
X018574Y006296D03*
X018574Y006321D03*
X018574Y006346D03*
X018574Y006371D03*
X018574Y006396D03*
X018574Y006421D03*
X018574Y006446D03*
X018574Y006471D03*
X018574Y006496D03*
X018574Y006521D03*
X019524Y006396D03*
X019524Y006196D03*
X019399Y005896D03*
X021249Y005571D03*
X021324Y005921D03*
X021699Y005821D03*
X021749Y005596D03*
X022124Y005596D03*
X022124Y005571D03*
X022124Y005546D03*
X022124Y005521D03*
X022124Y005496D03*
X022124Y005471D03*
X022124Y005446D03*
X022124Y005421D03*
X022124Y005396D03*
X022124Y005371D03*
X022124Y005621D03*
X022124Y005646D03*
X022124Y005671D03*
X022124Y005696D03*
X022124Y005721D03*
X022124Y005746D03*
X022124Y005771D03*
X022124Y005796D03*
X022124Y005821D03*
X022124Y005846D03*
X022124Y005871D03*
X022124Y005896D03*
X022124Y005921D03*
X022124Y005946D03*
X022124Y005971D03*
X022124Y005996D03*
X022124Y006021D03*
X022124Y006046D03*
X022124Y006071D03*
X022124Y006096D03*
X022124Y006121D03*
X022124Y006146D03*
X022124Y006171D03*
X022124Y006196D03*
X022124Y006221D03*
X022124Y006246D03*
X022124Y006646D03*
X021499Y006671D03*
X021849Y007496D03*
X023649Y006396D03*
X024099Y006371D03*
X024099Y005671D03*
X024099Y005646D03*
X023649Y005646D03*
X022949Y004671D03*
X022599Y004796D03*
X022449Y005771D03*
X021374Y004671D03*
D50*
X020541Y004671D03*
X021241Y005546D03*
X021266Y005646D03*
X021266Y005671D03*
X021691Y005846D03*
X021666Y005971D03*
X022791Y005971D03*
X022791Y005946D03*
X022791Y005921D03*
X022791Y005896D03*
X022791Y005871D03*
X022791Y005846D03*
X022791Y005821D03*
X022791Y005796D03*
X022791Y005771D03*
X022791Y005746D03*
X022791Y005721D03*
X022791Y005696D03*
X022791Y005671D03*
X022791Y005646D03*
X022791Y005621D03*
X022791Y005596D03*
X022791Y005571D03*
X022791Y005546D03*
X022791Y005521D03*
X022791Y005496D03*
X022791Y005471D03*
X022791Y005446D03*
X022791Y005421D03*
X022791Y005396D03*
X022791Y005371D03*
X023241Y005371D03*
X023241Y005396D03*
X023241Y005421D03*
X023241Y005446D03*
X023241Y005471D03*
X023241Y005496D03*
X023241Y005521D03*
X023241Y005546D03*
X023241Y005571D03*
X023241Y005596D03*
X023241Y005621D03*
X023241Y005646D03*
X023241Y005671D03*
X023241Y005696D03*
X023241Y005721D03*
X023241Y005746D03*
X023241Y005771D03*
X023241Y005796D03*
X023241Y005821D03*
X023241Y005846D03*
X023241Y005871D03*
X023241Y005896D03*
X023241Y005921D03*
X023241Y005946D03*
X023241Y005971D03*
X023241Y005996D03*
X023241Y006021D03*
X023241Y006046D03*
X023241Y006071D03*
X023241Y006096D03*
X023241Y006121D03*
X023241Y006146D03*
X023241Y006171D03*
X023241Y006196D03*
X023241Y006221D03*
X023241Y006246D03*
X023241Y006271D03*
X023241Y006296D03*
X023241Y006321D03*
X023241Y006346D03*
X023241Y006371D03*
X023241Y006396D03*
X023241Y006421D03*
X023241Y006446D03*
X023241Y006471D03*
X023241Y006496D03*
X023241Y006521D03*
X023241Y006546D03*
X023241Y006571D03*
X023241Y006596D03*
X023241Y006621D03*
X023241Y006646D03*
X023241Y006671D03*
X023641Y006346D03*
X023641Y006321D03*
X023641Y006296D03*
X023641Y005746D03*
X023641Y005721D03*
X023641Y005696D03*
X022791Y005996D03*
X022791Y006021D03*
X022791Y006046D03*
X022791Y006071D03*
X022791Y006096D03*
X022791Y006121D03*
X022791Y006146D03*
X022791Y006171D03*
X022791Y006196D03*
X022791Y006221D03*
X022791Y006246D03*
X022791Y006271D03*
X021666Y007421D03*
X020466Y007271D03*
X019391Y005921D03*
X019416Y005846D03*
X023257Y004671D03*
D51*
X023208Y004721D03*
X023208Y004746D03*
X023208Y004771D03*
X023208Y004796D03*
X023208Y004821D03*
X023208Y004846D03*
X023208Y004871D03*
X023208Y004896D03*
X023208Y004921D03*
X023208Y004946D03*
X023033Y004721D03*
X022858Y004871D03*
X022658Y004746D03*
X022683Y004696D03*
X021758Y004746D03*
X021758Y004771D03*
X021758Y004796D03*
X021758Y004821D03*
X021758Y004846D03*
X021583Y004896D03*
X021283Y004871D03*
X020808Y004821D03*
X020808Y004796D03*
X020808Y004771D03*
X020808Y004746D03*
X020808Y004721D03*
X020808Y004696D03*
X020808Y004671D03*
X020633Y004746D03*
X020633Y004871D03*
X020808Y004946D03*
X020458Y004721D03*
X019758Y004721D03*
X019583Y004746D03*
X019583Y004871D03*
X019408Y004946D03*
X021283Y008171D03*
D52*
X021112Y007996D03*
X022787Y006646D03*
X023637Y006271D03*
X023662Y006446D03*
X024087Y006446D03*
X023637Y005796D03*
X023637Y005771D03*
X023662Y005596D03*
X024087Y005596D03*
X021787Y005421D03*
X021762Y005521D03*
X021737Y005646D03*
X021237Y005521D03*
X021212Y005421D03*
X021212Y005396D03*
X021662Y004671D03*
X019562Y005396D03*
X019537Y005471D03*
X019512Y005546D03*
X019487Y005621D03*
X019462Y005696D03*
X019437Y005771D03*
X019512Y006146D03*
X019087Y006071D03*
D53*
X019508Y006129D03*
X019558Y005404D03*
X019675Y004929D03*
X019675Y004679D03*
X020541Y004679D03*
X020875Y005429D03*
X021500Y006629D03*
X022133Y006604D03*
X022783Y006604D03*
X021966Y007304D03*
X021866Y007479D03*
X021658Y007429D03*
X021341Y007979D03*
X021108Y007979D03*
X021050Y008279D03*
X020791Y007429D03*
X020583Y007479D03*
X020483Y007304D03*
X022950Y004929D03*
X022950Y004679D03*
X023875Y006679D03*
D54*
X021933Y004929D03*
X022083Y004679D03*
X021300Y004904D03*
X020966Y004679D03*
X020816Y004929D03*
X019208Y004929D03*
X021158Y008154D03*
D55*
X021220Y008504D03*
X020470Y007279D03*
X019945Y006654D03*
X019945Y006629D03*
X019945Y006604D03*
X019945Y006579D03*
X019945Y006554D03*
X019945Y006529D03*
X019945Y006504D03*
X019945Y006479D03*
X019945Y006454D03*
X019945Y006429D03*
X019945Y006404D03*
X019945Y006379D03*
X019945Y006354D03*
X019945Y006329D03*
X019945Y006304D03*
X019945Y006279D03*
X019945Y006254D03*
X019945Y006229D03*
X019945Y006204D03*
X019945Y006179D03*
X019945Y006154D03*
X019945Y006129D03*
X019945Y006104D03*
X019945Y006079D03*
X019945Y006054D03*
X019945Y006029D03*
X019945Y006004D03*
X019945Y005979D03*
X019945Y005954D03*
X019945Y005929D03*
X019945Y005904D03*
X019945Y005879D03*
X019945Y005854D03*
X019945Y005829D03*
X019945Y005804D03*
X019945Y005779D03*
X019945Y005754D03*
X019945Y005729D03*
X019945Y005704D03*
X019945Y005679D03*
X019945Y005654D03*
X019945Y005629D03*
X019945Y005604D03*
X019945Y005579D03*
X019945Y005554D03*
X019945Y005529D03*
X019945Y005504D03*
X019945Y005479D03*
X019945Y005454D03*
X019945Y005429D03*
X019945Y005404D03*
X019945Y005379D03*
X019570Y005379D03*
X019545Y005454D03*
X019520Y005529D03*
X019520Y006179D03*
X019520Y006429D03*
X018570Y006529D03*
X020545Y004929D03*
X021370Y004929D03*
X021370Y004679D03*
X021795Y005379D03*
X021220Y005454D03*
X023645Y005679D03*
X023645Y006379D03*
D56*
X023687Y006504D03*
X024062Y006504D03*
X024062Y005529D03*
X023687Y005529D03*
X022137Y006579D03*
X021887Y007454D03*
X020562Y007454D03*
X020487Y007329D03*
X020412Y006579D03*
X021662Y004679D03*
D57*
X022949Y004688D03*
X023874Y005363D03*
X022774Y006563D03*
X021899Y007438D03*
X021499Y006588D03*
X020549Y007438D03*
X021074Y008338D03*
X021374Y008338D03*
X019674Y004688D03*
D58*
X020541Y004688D03*
X020866Y005488D03*
X021666Y004688D03*
X020416Y006563D03*
X020491Y007338D03*
X021082Y008363D03*
X021366Y008363D03*
D59*
X021937Y004913D03*
X020962Y004688D03*
X019612Y004913D03*
X019212Y004913D03*
X023012Y004913D03*
D60*
X023683Y005538D03*
X024066Y005538D03*
X023666Y006463D03*
X022783Y006613D03*
X022133Y006588D03*
X021500Y006638D03*
X021975Y007288D03*
X021225Y007513D03*
X020483Y007313D03*
X020475Y007288D03*
X020408Y006588D03*
X019500Y006488D03*
X019500Y006113D03*
X020875Y005438D03*
X021366Y004688D03*
X021400Y008288D03*
X021050Y008288D03*
D61*
X021020Y008163D03*
X021154Y008138D03*
X021429Y008163D03*
X022079Y004688D03*
D62*
X021937Y004921D03*
X020962Y004696D03*
D63*
X021316Y004696D03*
X021941Y004896D03*
X019216Y004896D03*
D64*
X021724Y004696D03*
D65*
X022079Y004696D03*
X021754Y007346D03*
D66*
X019308Y004779D03*
X020958Y004704D03*
D67*
X021304Y004704D03*
X020654Y007004D03*
X020704Y007354D03*
X021020Y008154D03*
X021154Y008129D03*
X021429Y008154D03*
D68*
X021287Y008154D03*
X021587Y004904D03*
X021737Y004904D03*
X021737Y004704D03*
X021587Y004704D03*
X021287Y004879D03*
X020887Y004804D03*
X019762Y004729D03*
X019762Y004879D03*
X019587Y004879D03*
X022637Y004779D03*
X022687Y004904D03*
D69*
X022074Y004704D03*
D70*
X022091Y004788D03*
X022091Y004813D03*
X022091Y004838D03*
X022091Y004863D03*
X022091Y004888D03*
X022091Y004913D03*
X022091Y004938D03*
X021741Y004713D03*
X021566Y004763D03*
X021566Y004788D03*
X021566Y004813D03*
X021566Y004838D03*
X021566Y004863D03*
X020641Y004838D03*
X020641Y004813D03*
X020641Y004788D03*
X020641Y004763D03*
X020466Y004713D03*
X020441Y004788D03*
X020441Y004813D03*
X019766Y004863D03*
X019766Y004763D03*
X019766Y004738D03*
X019591Y004713D03*
X019591Y004888D03*
X022691Y004888D03*
X022691Y004863D03*
X022866Y004713D03*
X023041Y004763D03*
X023041Y004838D03*
X023041Y004863D03*
D71*
X023029Y004713D03*
X022854Y004863D03*
X022554Y004913D03*
X022004Y004813D03*
X021929Y004938D03*
X021579Y004888D03*
X021279Y004863D03*
X019754Y004713D03*
X019404Y004938D03*
X019204Y004938D03*
X021020Y008138D03*
X021429Y008138D03*
D72*
X021303Y008113D03*
X021145Y008113D03*
X021228Y008513D03*
X020712Y007363D03*
X022453Y005688D03*
X021945Y004888D03*
X020953Y004713D03*
X019387Y004863D03*
X019303Y004788D03*
D73*
X020824Y004888D03*
X022074Y004713D03*
X022674Y004913D03*
X021999Y007179D03*
X021224Y007538D03*
X020449Y007179D03*
D74*
X021020Y008171D03*
X021428Y008171D03*
X022453Y005696D03*
X022070Y004721D03*
X020953Y004721D03*
X019387Y004871D03*
X019220Y004871D03*
D75*
X019204Y004946D03*
X019754Y004896D03*
X020879Y004821D03*
X021279Y004746D03*
X021579Y004721D03*
X021929Y004946D03*
X022854Y004746D03*
X023029Y004896D03*
D76*
X022070Y004729D03*
X021945Y004879D03*
X020953Y004729D03*
X020828Y004879D03*
X019220Y004879D03*
X020445Y007188D03*
X021020Y008179D03*
X021145Y008104D03*
X021303Y008104D03*
D77*
X021424Y008188D03*
X021024Y008188D03*
X021949Y004863D03*
X020949Y004738D03*
X019224Y004863D03*
D78*
X022066Y004738D03*
D79*
X020945Y004746D03*
X021420Y008196D03*
D80*
X020641Y007521D03*
X022066Y004746D03*
D81*
X020945Y004754D03*
X020545Y004954D03*
D82*
X020608Y004913D03*
X020475Y004913D03*
X019741Y004913D03*
X019400Y004913D03*
X019308Y004763D03*
X021600Y004913D03*
X022683Y004838D03*
X022883Y004913D03*
D83*
X022058Y004763D03*
X021958Y004838D03*
X020941Y004763D03*
X020841Y004838D03*
X022591Y006138D03*
X022600Y006163D03*
X022608Y006188D03*
X022616Y006213D03*
X022625Y006238D03*
X022633Y006263D03*
X020741Y007388D03*
X020625Y007513D03*
X021133Y008063D03*
X021316Y008063D03*
D84*
X021991Y007221D03*
X020458Y007221D03*
X022450Y005721D03*
X021958Y004846D03*
X022058Y004771D03*
X020941Y004771D03*
D85*
X020833Y004871D03*
X019383Y004846D03*
X019308Y004796D03*
X021808Y007521D03*
X021308Y008096D03*
X021141Y008096D03*
D86*
X021658Y004954D03*
X019383Y004854D03*
X019308Y004804D03*
D87*
X019554Y005429D03*
X019529Y005504D03*
X019504Y005579D03*
X019529Y006229D03*
X019529Y006379D03*
X020404Y006604D03*
X020879Y005829D03*
X020879Y005404D03*
X021204Y005379D03*
X021229Y005479D03*
X021254Y005604D03*
X021745Y005604D03*
X021754Y005579D03*
X021770Y005504D03*
X021770Y005479D03*
X021779Y005454D03*
X022454Y005779D03*
X022604Y004804D03*
X023654Y005629D03*
X024095Y005629D03*
X023654Y006429D03*
X021979Y007279D03*
X021504Y006654D03*
X021404Y008279D03*
D88*
X021387Y008313D03*
X021962Y007313D03*
X022137Y006563D03*
X023687Y006513D03*
X022612Y004938D03*
X022612Y004813D03*
D89*
X022616Y004821D03*
X022616Y004921D03*
X020866Y005471D03*
X020541Y004921D03*
X020416Y006546D03*
X021891Y007446D03*
X022141Y006546D03*
X021116Y008421D03*
D90*
X021066Y008329D03*
X021341Y008404D03*
X020541Y007429D03*
X020416Y006554D03*
X019491Y006504D03*
X020866Y005479D03*
X022141Y006554D03*
X024041Y006529D03*
X022616Y004929D03*
X022616Y004829D03*
D91*
X022454Y005713D03*
X020454Y007204D03*
X019379Y004838D03*
X019229Y004838D03*
D92*
X019229Y004846D03*
D93*
X020837Y004846D03*
X021137Y008071D03*
X021312Y008071D03*
D94*
X020454Y007213D03*
X022454Y005704D03*
X021954Y004854D03*
X023879Y005354D03*
D95*
X020833Y004863D03*
X021141Y008088D03*
X021308Y008088D03*
D96*
X021724Y007371D03*
X021999Y007196D03*
X020724Y007371D03*
X020449Y007196D03*
X021949Y004871D03*
D97*
X021941Y004904D03*
X019391Y004879D03*
X021741Y007354D03*
D98*
X021732Y007363D03*
X021316Y004913D03*
X019391Y004888D03*
X019216Y004888D03*
D99*
X019395Y004896D03*
X020695Y007346D03*
D100*
X021149Y008121D03*
X021299Y008121D03*
X020824Y004896D03*
D101*
X019212Y004904D03*
D102*
X019395Y004904D03*
X020820Y004904D03*
X021795Y007004D03*
X021295Y008129D03*
D103*
X020829Y007463D03*
X020429Y006488D03*
X020854Y005538D03*
X019979Y004938D03*
X019979Y004913D03*
X021504Y006538D03*
X022154Y006488D03*
X022454Y005863D03*
X024029Y006538D03*
D104*
X021295Y008138D03*
X020820Y004913D03*
D105*
X021433Y004913D03*
X020658Y007313D03*
D106*
X021724Y004913D03*
D107*
X022324Y004913D03*
X022149Y006513D03*
X021499Y006563D03*
X020424Y006513D03*
D108*
X020649Y007021D03*
X021499Y006596D03*
X021949Y007346D03*
X021349Y007946D03*
X021099Y007946D03*
X021074Y008346D03*
X021099Y008396D03*
X021374Y008346D03*
X022774Y006571D03*
X022449Y005821D03*
X023699Y006521D03*
X024049Y006521D03*
X019674Y004921D03*
D109*
X019979Y004921D03*
X019979Y004946D03*
X020854Y005546D03*
X020429Y006496D03*
X021504Y006546D03*
X022154Y006471D03*
X022454Y005846D03*
D110*
X022450Y005796D03*
X021791Y005396D03*
X021366Y004921D03*
X020875Y005446D03*
X019508Y006121D03*
X019508Y006471D03*
X020408Y006596D03*
X020475Y007296D03*
X020575Y007471D03*
X021108Y007971D03*
X021341Y007971D03*
X021975Y007296D03*
X022133Y006596D03*
X022783Y006621D03*
X023683Y006496D03*
X024066Y006496D03*
X024066Y005546D03*
X023666Y005571D03*
D111*
X022137Y006571D03*
X021962Y007321D03*
X021387Y008321D03*
X021062Y008321D03*
X020487Y007321D03*
X020412Y006571D03*
X019487Y006096D03*
X021662Y004921D03*
D112*
X022320Y004921D03*
X022320Y004946D03*
X019470Y006521D03*
D113*
X019495Y006496D03*
X020495Y007346D03*
X021395Y008296D03*
X021870Y007471D03*
X023678Y005546D03*
X023695Y005521D03*
X022945Y004921D03*
D114*
X022454Y005854D03*
X022154Y006479D03*
X020854Y005554D03*
X019979Y004954D03*
X019979Y004929D03*
X020429Y006479D03*
D115*
X019512Y006454D03*
X019087Y006529D03*
X019512Y005554D03*
X019537Y005479D03*
X021212Y005404D03*
X021237Y005529D03*
X021762Y005529D03*
X021787Y005429D03*
X021787Y005404D03*
X021662Y004929D03*
X023637Y005779D03*
X023662Y005579D03*
X023637Y006254D03*
X023662Y006454D03*
X022787Y006629D03*
D116*
X022320Y004954D03*
X022320Y004929D03*
X019470Y006079D03*
D117*
X022320Y004938D03*
X023720Y006538D03*
D118*
X022549Y006021D03*
X022374Y005971D03*
X022349Y006046D03*
X022324Y006121D03*
X022449Y005746D03*
X021599Y006271D03*
X021574Y006396D03*
X021424Y006371D03*
X021399Y006271D03*
X021374Y006146D03*
X020674Y005921D03*
X020649Y005996D03*
X020599Y006121D03*
X020724Y005796D03*
X019674Y004946D03*
X021224Y007521D03*
D119*
X021416Y008221D03*
X021416Y006346D03*
X021391Y006221D03*
X021366Y006121D03*
X020666Y005946D03*
X020591Y006146D03*
X020541Y004946D03*
X022366Y005996D03*
X022341Y006071D03*
X022316Y006146D03*
X022541Y005996D03*
D120*
X022795Y006671D03*
X022120Y006671D03*
X021987Y007246D03*
X021328Y008021D03*
X021120Y008021D03*
X021037Y008246D03*
X021412Y008246D03*
X020462Y007246D03*
X020395Y006671D03*
X020562Y006221D03*
X020570Y006196D03*
X020612Y006096D03*
X020620Y006071D03*
X020628Y006046D03*
X020637Y006021D03*
X020687Y005896D03*
X020695Y005871D03*
X020703Y005846D03*
X020712Y005821D03*
X020887Y005371D03*
X021303Y005821D03*
X021312Y005871D03*
X021320Y005896D03*
X021328Y005946D03*
X021337Y005971D03*
X021337Y005996D03*
X021345Y006021D03*
X021353Y006046D03*
X021362Y006096D03*
X021378Y006171D03*
X021395Y006246D03*
X021595Y006296D03*
X021620Y006171D03*
X021628Y006146D03*
X021637Y006096D03*
X021645Y006071D03*
X021653Y006046D03*
X021653Y006021D03*
X021662Y005996D03*
X021670Y005946D03*
X021678Y005921D03*
X021687Y005871D03*
X021378Y004946D03*
D121*
X021662Y004946D03*
X022587Y006121D03*
X022612Y006196D03*
X022637Y006271D03*
X022287Y006221D03*
X021412Y006321D03*
D122*
X021504Y006646D03*
X022129Y006621D03*
X021979Y007271D03*
X021404Y008271D03*
X020404Y006621D03*
X019529Y006371D03*
X019529Y006221D03*
X019429Y005796D03*
X019454Y005721D03*
X019479Y005646D03*
X019504Y005571D03*
X019529Y005496D03*
X019554Y005421D03*
X020879Y005421D03*
X021204Y005371D03*
X021229Y005471D03*
X021229Y005496D03*
X021254Y005596D03*
X021754Y005571D03*
X021770Y005496D03*
X021779Y005471D03*
X021779Y005446D03*
X022604Y004946D03*
X023654Y005621D03*
X024095Y006396D03*
X023670Y006471D03*
X023654Y006421D03*
X020879Y005821D03*
D123*
X022295Y006196D03*
X022570Y006071D03*
X022595Y006146D03*
X022620Y006221D03*
X021695Y007396D03*
X021320Y008046D03*
X021128Y008046D03*
X022945Y004946D03*
D124*
X022595Y004954D03*
X022453Y005754D03*
X021687Y005879D03*
X021678Y005904D03*
X021670Y005954D03*
X021662Y005979D03*
X021662Y006004D03*
X021653Y006029D03*
X021645Y006054D03*
X021645Y006079D03*
X021637Y006104D03*
X021620Y006179D03*
X021387Y006204D03*
X021370Y006129D03*
X021353Y006054D03*
X021345Y006029D03*
X021345Y006004D03*
X021337Y005979D03*
X021328Y005954D03*
X021328Y005929D03*
X021320Y005904D03*
X021312Y005854D03*
X021303Y005829D03*
X020720Y005804D03*
X020712Y005829D03*
X020662Y005954D03*
X020653Y005979D03*
X020645Y006004D03*
X020637Y006029D03*
X020595Y006129D03*
X020587Y006154D03*
X020578Y006179D03*
X020570Y006204D03*
X020562Y006229D03*
X020395Y006654D03*
X020462Y007254D03*
X020612Y007504D03*
X020762Y007404D03*
X021687Y007404D03*
X021837Y007504D03*
X022120Y006654D03*
X020887Y005379D03*
D125*
X021662Y004963D03*
D126*
X020883Y005396D03*
X021258Y005621D03*
X021308Y005846D03*
X021683Y005896D03*
X021733Y005671D03*
X021741Y005621D03*
X021758Y005546D03*
X020883Y005796D03*
X020883Y005846D03*
X020883Y005871D03*
X020883Y005896D03*
X020883Y005921D03*
X020883Y005946D03*
X020883Y005971D03*
X020883Y005996D03*
X020883Y006021D03*
X020883Y006046D03*
X020883Y006071D03*
X020883Y006096D03*
X020883Y006121D03*
X020883Y006146D03*
X020883Y006171D03*
X020883Y006196D03*
X020883Y006221D03*
X020883Y006246D03*
X020883Y006271D03*
X020883Y006296D03*
X020883Y006321D03*
X020883Y006346D03*
X020883Y006371D03*
X020883Y006396D03*
X020883Y006421D03*
X020883Y006446D03*
X020883Y006471D03*
X020883Y006496D03*
X020883Y006521D03*
X020883Y006546D03*
X020883Y006571D03*
X020883Y006596D03*
X020883Y006621D03*
X020883Y006646D03*
X020883Y006671D03*
X020783Y007421D03*
X021333Y007996D03*
X019533Y006346D03*
X019533Y006321D03*
X019533Y006296D03*
X019533Y006271D03*
X019533Y006246D03*
X019083Y006246D03*
X019083Y006221D03*
X019083Y006196D03*
X019083Y006171D03*
X019083Y006146D03*
X019083Y006121D03*
X019083Y006096D03*
X019083Y005921D03*
X019083Y005896D03*
X019083Y005871D03*
X019083Y005846D03*
X019083Y005821D03*
X019083Y005796D03*
X019083Y005771D03*
X019083Y005746D03*
X019083Y005721D03*
X019083Y005696D03*
X019083Y005671D03*
X019083Y005646D03*
X019083Y005621D03*
X019083Y005596D03*
X019083Y005571D03*
X019083Y005546D03*
X019083Y005521D03*
X019083Y005496D03*
X019083Y005471D03*
X019083Y005446D03*
X019083Y005421D03*
X019083Y005396D03*
X019083Y005371D03*
X019408Y005871D03*
X019083Y006271D03*
X019083Y006296D03*
X019083Y006321D03*
X019083Y006346D03*
X019083Y006371D03*
X019083Y006396D03*
X019083Y006421D03*
X019083Y006446D03*
X019083Y006471D03*
X019083Y006496D03*
X019083Y006521D03*
X023633Y006246D03*
X023633Y006221D03*
X023633Y006196D03*
X023633Y006171D03*
X023633Y006146D03*
X023633Y006121D03*
X023633Y006096D03*
X023633Y006071D03*
X023633Y006046D03*
X023633Y006021D03*
X023633Y005996D03*
X023633Y005971D03*
X023633Y005946D03*
X023633Y005921D03*
X023633Y005896D03*
X023633Y005871D03*
X023633Y005846D03*
X023633Y005821D03*
X024091Y005621D03*
X024091Y006421D03*
D127*
X024078Y006471D03*
X023645Y006371D03*
X023645Y005671D03*
X024078Y005571D03*
X021795Y005371D03*
X021220Y005446D03*
X019945Y005446D03*
X019945Y005421D03*
X019945Y005396D03*
X019945Y005371D03*
X019945Y005471D03*
X019945Y005496D03*
X019945Y005521D03*
X019945Y005546D03*
X019945Y005571D03*
X019945Y005596D03*
X019945Y005621D03*
X019945Y005646D03*
X019945Y005671D03*
X019945Y005696D03*
X019945Y005721D03*
X019945Y005746D03*
X019945Y005771D03*
X019945Y005796D03*
X019945Y005821D03*
X019945Y005846D03*
X019945Y005871D03*
X019945Y005896D03*
X019945Y005921D03*
X019945Y005946D03*
X019945Y005971D03*
X019945Y005996D03*
X019945Y006021D03*
X019945Y006046D03*
X019945Y006071D03*
X019945Y006096D03*
X019945Y006121D03*
X019945Y006146D03*
X019945Y006171D03*
X019945Y006196D03*
X019945Y006221D03*
X019945Y006246D03*
X019945Y006271D03*
X019945Y006296D03*
X019945Y006321D03*
X019945Y006346D03*
X019945Y006371D03*
X019945Y006396D03*
X019945Y006421D03*
X019945Y006446D03*
X019945Y006471D03*
X019945Y006496D03*
X019945Y006521D03*
X019945Y006546D03*
X019945Y006571D03*
X019945Y006596D03*
X019945Y006621D03*
X019945Y006646D03*
X019945Y006671D03*
X019520Y006446D03*
X019520Y006421D03*
X019520Y006171D03*
X019420Y005821D03*
X019445Y005746D03*
X019470Y005671D03*
X019495Y005596D03*
X019520Y005521D03*
X019545Y005446D03*
X019570Y005371D03*
X021045Y008271D03*
D128*
X021070Y007846D03*
X021378Y007846D03*
X021578Y007496D03*
X020870Y007496D03*
X021503Y006471D03*
X022170Y006396D03*
X022745Y006396D03*
X023737Y006546D03*
X023878Y005371D03*
X020445Y006396D03*
D129*
X020883Y006404D03*
X020883Y006379D03*
X020883Y006354D03*
X020883Y006329D03*
X020883Y006304D03*
X020883Y006279D03*
X020883Y006254D03*
X020883Y006229D03*
X020883Y006204D03*
X020883Y006179D03*
X020883Y006154D03*
X020883Y006129D03*
X020883Y006104D03*
X020883Y006079D03*
X020883Y006054D03*
X020883Y006029D03*
X020883Y006004D03*
X020883Y005979D03*
X020883Y005954D03*
X020883Y005929D03*
X020883Y005904D03*
X020883Y005879D03*
X020883Y005854D03*
X020883Y005804D03*
X021258Y005629D03*
X021233Y005504D03*
X021733Y005654D03*
X021741Y005629D03*
X021758Y005554D03*
X020883Y006429D03*
X020883Y006454D03*
X020883Y006479D03*
X020883Y006504D03*
X020883Y006529D03*
X020883Y006554D03*
X020883Y006579D03*
X020883Y006604D03*
X020883Y006629D03*
X020883Y006654D03*
X021983Y007254D03*
X021333Y008004D03*
X021116Y008004D03*
X021408Y008254D03*
X019083Y006504D03*
X019083Y006479D03*
X019083Y006454D03*
X019083Y006429D03*
X019083Y006404D03*
X019083Y006379D03*
X019083Y006354D03*
X019083Y006329D03*
X019083Y006304D03*
X019083Y006279D03*
X019083Y006254D03*
X019083Y006229D03*
X019083Y006204D03*
X019083Y006179D03*
X019083Y006154D03*
X019083Y006129D03*
X019083Y006104D03*
X019083Y006079D03*
X019083Y005904D03*
X019083Y005879D03*
X019083Y005854D03*
X019083Y005829D03*
X019083Y005804D03*
X019083Y005779D03*
X019083Y005754D03*
X019083Y005729D03*
X019083Y005704D03*
X019083Y005679D03*
X019083Y005654D03*
X019083Y005629D03*
X019083Y005604D03*
X019083Y005579D03*
X019083Y005554D03*
X019083Y005529D03*
X019083Y005504D03*
X019083Y005479D03*
X019083Y005454D03*
X019083Y005429D03*
X019083Y005404D03*
X019083Y005379D03*
X019483Y005629D03*
X019458Y005704D03*
X019433Y005779D03*
X019408Y005854D03*
X019533Y006254D03*
X019533Y006279D03*
X019533Y006304D03*
X019533Y006329D03*
X019533Y006354D03*
X023633Y006229D03*
X023633Y006204D03*
X023633Y006179D03*
X023633Y006154D03*
X023633Y006129D03*
X023633Y006104D03*
X023633Y006079D03*
X023633Y006054D03*
X023633Y006029D03*
X023633Y006004D03*
X023633Y005979D03*
X023633Y005954D03*
X023633Y005929D03*
X023633Y005904D03*
X023633Y005879D03*
X023633Y005854D03*
X023633Y005829D03*
X023633Y005804D03*
X023658Y005604D03*
X024091Y005604D03*
X024091Y006404D03*
X024091Y006429D03*
D130*
X022729Y006304D03*
X022454Y005954D03*
X021504Y006404D03*
X023879Y005379D03*
D131*
X024091Y005613D03*
X023633Y005813D03*
X023633Y005838D03*
X023633Y005863D03*
X023633Y005888D03*
X023633Y005913D03*
X023633Y005938D03*
X023633Y005963D03*
X023633Y005988D03*
X023633Y006013D03*
X023633Y006038D03*
X023633Y006063D03*
X023633Y006088D03*
X023633Y006113D03*
X023633Y006138D03*
X023633Y006163D03*
X023633Y006188D03*
X023633Y006213D03*
X023633Y006238D03*
X023658Y006438D03*
X024091Y006413D03*
X021983Y007263D03*
X020883Y006663D03*
X020883Y006638D03*
X020883Y006613D03*
X020883Y006588D03*
X020883Y006563D03*
X020883Y006538D03*
X020883Y006513D03*
X020883Y006488D03*
X020883Y006463D03*
X020883Y006438D03*
X020883Y006413D03*
X020883Y006388D03*
X020883Y006363D03*
X020883Y006338D03*
X020883Y006313D03*
X020883Y006288D03*
X020883Y006263D03*
X020883Y006238D03*
X020883Y006213D03*
X020883Y006188D03*
X020883Y006163D03*
X020883Y006138D03*
X020883Y006113D03*
X020883Y006088D03*
X020883Y006063D03*
X020883Y006038D03*
X020883Y006013D03*
X020883Y005988D03*
X020883Y005963D03*
X020883Y005913D03*
X020883Y005888D03*
X020883Y005863D03*
X020883Y005838D03*
X020883Y005813D03*
X021258Y005613D03*
X021233Y005513D03*
X021308Y005838D03*
X021683Y005888D03*
X021733Y005663D03*
X021741Y005638D03*
X021766Y005513D03*
X020883Y005388D03*
X019458Y005713D03*
X019433Y005788D03*
X019408Y005863D03*
X019083Y005863D03*
X019083Y005888D03*
X019083Y005913D03*
X019083Y005838D03*
X019083Y005813D03*
X019083Y005788D03*
X019083Y005763D03*
X019083Y005738D03*
X019083Y005713D03*
X019083Y005688D03*
X019083Y005663D03*
X019083Y005638D03*
X019083Y005613D03*
X019083Y005588D03*
X019083Y005563D03*
X019083Y005538D03*
X019083Y005513D03*
X019083Y005488D03*
X019083Y005463D03*
X019083Y005438D03*
X019083Y005413D03*
X019083Y005388D03*
X019083Y006088D03*
X019083Y006113D03*
X019083Y006138D03*
X019083Y006163D03*
X019083Y006188D03*
X019083Y006213D03*
X019083Y006238D03*
X019083Y006263D03*
X019083Y006288D03*
X019083Y006313D03*
X019083Y006338D03*
X019083Y006363D03*
X019083Y006388D03*
X019083Y006413D03*
X019083Y006438D03*
X019083Y006463D03*
X019083Y006488D03*
X019083Y006513D03*
X019533Y006363D03*
X019533Y006338D03*
X019533Y006313D03*
X019533Y006288D03*
X019533Y006263D03*
X019533Y006238D03*
X021408Y008263D03*
D132*
X021337Y007988D03*
X021112Y007988D03*
X022787Y006638D03*
X023637Y006263D03*
X023637Y005788D03*
X023637Y005763D03*
X023662Y005588D03*
X024087Y005588D03*
X024087Y006438D03*
X021762Y005538D03*
X021787Y005413D03*
X021262Y005638D03*
X021212Y005413D03*
X019562Y005388D03*
X019537Y005463D03*
X019512Y005538D03*
X019487Y005613D03*
X019512Y006138D03*
X019512Y006463D03*
D133*
X019520Y006438D03*
X019945Y006438D03*
X019945Y006463D03*
X019945Y006488D03*
X019945Y006513D03*
X019945Y006538D03*
X019945Y006563D03*
X019945Y006588D03*
X019945Y006613D03*
X019945Y006638D03*
X019945Y006663D03*
X019945Y006413D03*
X019945Y006388D03*
X019945Y006363D03*
X019945Y006338D03*
X019945Y006313D03*
X019945Y006288D03*
X019945Y006263D03*
X019945Y006238D03*
X019945Y006213D03*
X019945Y006188D03*
X019945Y006163D03*
X019945Y006138D03*
X019945Y006113D03*
X019945Y006088D03*
X019945Y006063D03*
X019945Y006038D03*
X019945Y006013D03*
X019945Y005988D03*
X019945Y005963D03*
X019945Y005938D03*
X019945Y005913D03*
X019945Y005888D03*
X019945Y005863D03*
X019945Y005838D03*
X019945Y005813D03*
X019945Y005788D03*
X019945Y005763D03*
X019945Y005738D03*
X019945Y005713D03*
X019945Y005688D03*
X019945Y005663D03*
X019945Y005638D03*
X019945Y005613D03*
X019945Y005588D03*
X019945Y005563D03*
X019945Y005538D03*
X019945Y005513D03*
X019945Y005488D03*
X019945Y005463D03*
X019945Y005438D03*
X019945Y005413D03*
X019945Y005388D03*
X019545Y005438D03*
X019520Y005513D03*
X019495Y005588D03*
X019520Y006163D03*
X020595Y007488D03*
X021245Y005563D03*
X021220Y005438D03*
X021795Y005388D03*
X023645Y005663D03*
X024078Y005563D03*
X023645Y006363D03*
X024070Y006488D03*
X024078Y006463D03*
D134*
X024095Y006388D03*
X023654Y006413D03*
X023654Y005613D03*
X023670Y005563D03*
X024095Y005638D03*
X022454Y005788D03*
X021745Y005613D03*
X021754Y005563D03*
X021770Y005488D03*
X021779Y005463D03*
X021779Y005438D03*
X021229Y005488D03*
X021204Y005388D03*
X020879Y005413D03*
X020879Y005938D03*
X020404Y006613D03*
X019529Y006388D03*
X019529Y006213D03*
X019479Y005638D03*
X019504Y005563D03*
X019529Y005488D03*
X019554Y005413D03*
X022129Y006613D03*
X021854Y007488D03*
D135*
X021229Y008463D03*
X023879Y005388D03*
D136*
X023874Y005396D03*
X021024Y007696D03*
D137*
X023878Y005404D03*
D138*
X023874Y005413D03*
X020649Y007088D03*
D139*
X021224Y007446D03*
X021799Y007096D03*
X023874Y005421D03*
D140*
X023875Y005429D03*
D141*
X023874Y005438D03*
D142*
X023874Y005446D03*
D143*
X020870Y005454D03*
X019495Y006104D03*
X021345Y007954D03*
X021395Y008304D03*
D144*
X023874Y006579D03*
X023874Y005454D03*
D145*
X021645Y007438D03*
X021345Y007963D03*
X021103Y007963D03*
X020570Y007463D03*
X020870Y005463D03*
D146*
X023874Y005463D03*
D147*
X023874Y005471D03*
X023874Y006571D03*
X021224Y007421D03*
X020649Y007171D03*
D148*
X023874Y006554D03*
X023874Y005479D03*
D149*
X023874Y005488D03*
D150*
X022770Y006546D03*
X022145Y006521D03*
X021795Y007021D03*
X021937Y007371D03*
X021928Y007396D03*
X021912Y007421D03*
X021637Y007446D03*
X020812Y007446D03*
X020537Y007421D03*
X020520Y007396D03*
X020420Y006521D03*
X021503Y006571D03*
X020862Y005496D03*
X021362Y008371D03*
X021345Y008396D03*
D151*
X021079Y007871D03*
X022754Y006446D03*
X023729Y005496D03*
D152*
X024020Y005496D03*
X022453Y005871D03*
X020845Y005596D03*
X021370Y007871D03*
D153*
X021353Y007929D03*
X021095Y007929D03*
X021078Y008354D03*
X021103Y008404D03*
X021362Y008379D03*
X021370Y008354D03*
X021628Y007454D03*
X021903Y007429D03*
X021920Y007404D03*
X021937Y007379D03*
X021945Y007354D03*
X022145Y006529D03*
X021503Y006579D03*
X022453Y005829D03*
X023703Y006529D03*
X024037Y005504D03*
X020862Y005504D03*
X020420Y006529D03*
X020512Y007379D03*
X020528Y007404D03*
X020820Y007454D03*
D154*
X022766Y006529D03*
X023716Y005504D03*
D155*
X023703Y005513D03*
X024045Y005513D03*
X022770Y006538D03*
X022145Y006538D03*
X022453Y005838D03*
X020862Y005513D03*
X020420Y006538D03*
X019478Y006513D03*
X020503Y007363D03*
X020520Y007388D03*
X021095Y007938D03*
X021353Y007938D03*
X021353Y008388D03*
X021337Y008413D03*
X021095Y008388D03*
X021928Y007388D03*
X021945Y007363D03*
D156*
X021358Y007921D03*
X021091Y007921D03*
X020858Y005521D03*
D157*
X021504Y006621D03*
X022779Y006596D03*
X024054Y005521D03*
X021054Y008296D03*
D158*
X020858Y005529D03*
D159*
X023674Y005554D03*
X023674Y006479D03*
D160*
X024074Y006479D03*
X024074Y005554D03*
D161*
X022758Y006463D03*
X022158Y006463D03*
X020850Y005563D03*
X020433Y006463D03*
X021083Y007888D03*
X021366Y007888D03*
D162*
X021083Y007896D03*
X021225Y007496D03*
X021608Y007471D03*
X020841Y007471D03*
X020433Y006471D03*
X019458Y006071D03*
X020850Y005571D03*
X021500Y006521D03*
X022758Y006471D03*
X023875Y006671D03*
D163*
X022453Y005879D03*
X020845Y005579D03*
X021370Y007879D03*
D164*
X022453Y005888D03*
X020845Y005588D03*
D165*
X020841Y005604D03*
X022166Y006404D03*
X021791Y007029D03*
D166*
X021591Y007488D03*
X022166Y006413D03*
X020841Y005613D03*
X020441Y006413D03*
D167*
X020441Y006421D03*
X020841Y005621D03*
X022166Y006421D03*
D168*
X022170Y006379D03*
X022453Y005904D03*
X022745Y006404D03*
X021070Y007854D03*
X020445Y006404D03*
X020837Y005629D03*
D169*
X020837Y005638D03*
X020445Y006388D03*
X021503Y006463D03*
X022170Y006388D03*
X022453Y005913D03*
X022745Y006413D03*
X021378Y007838D03*
D170*
X020833Y005646D03*
D171*
X020833Y005654D03*
X021383Y007829D03*
D172*
X020833Y005663D03*
D173*
X020829Y005671D03*
X020454Y006346D03*
X022179Y006346D03*
X022454Y005921D03*
D174*
X022454Y005929D03*
X022179Y006354D03*
X021504Y006429D03*
X020829Y005679D03*
X020454Y006354D03*
D175*
X021504Y005679D03*
D176*
X020829Y005688D03*
X021504Y006438D03*
X021795Y007038D03*
X022179Y006338D03*
X022454Y005938D03*
X020654Y007038D03*
D177*
X021504Y005688D03*
D178*
X020825Y005696D03*
X020458Y006321D03*
X021500Y006421D03*
X022183Y006321D03*
X022733Y006346D03*
X021391Y007796D03*
D179*
X021499Y005696D03*
D180*
X022183Y006329D03*
X022733Y006329D03*
X021391Y007804D03*
X021058Y007804D03*
X020458Y006329D03*
X020825Y005704D03*
D181*
X021499Y005704D03*
D182*
X020820Y005713D03*
X021395Y007788D03*
D183*
X021503Y005713D03*
X018570Y006538D03*
X018570Y006563D03*
X018570Y006588D03*
X018570Y006613D03*
X018570Y006638D03*
X018570Y006663D03*
D184*
X020820Y005721D03*
X021795Y007046D03*
D185*
X021503Y005721D03*
X018570Y006546D03*
X018570Y006571D03*
X018570Y006596D03*
X018570Y006621D03*
X018570Y006646D03*
X018570Y006671D03*
D186*
X020820Y005729D03*
D187*
X021499Y005729D03*
D188*
X022329Y006104D03*
X022304Y006179D03*
X022279Y006254D03*
X022604Y006179D03*
X022579Y006104D03*
X022554Y006029D03*
X022454Y005729D03*
X020454Y007229D03*
D189*
X020466Y006288D03*
X020816Y005738D03*
D190*
X021499Y005738D03*
D191*
X022454Y005738D03*
X022529Y005963D03*
X022554Y006038D03*
X022579Y006113D03*
X021704Y007388D03*
X021829Y007513D03*
X021029Y008213D03*
D192*
X020466Y006296D03*
X020816Y005746D03*
D193*
X021499Y005746D03*
D194*
X020816Y005754D03*
X020466Y006279D03*
D195*
X021504Y005754D03*
D196*
X022195Y006263D03*
X021528Y007538D03*
X021403Y007763D03*
X021045Y007763D03*
X020470Y006263D03*
X020812Y005763D03*
D197*
X021500Y005763D03*
D198*
X020812Y005771D03*
X020470Y006271D03*
X020653Y007046D03*
X021220Y008471D03*
D199*
X021225Y007396D03*
X021500Y005771D03*
D200*
X020808Y005779D03*
D201*
X021500Y005779D03*
D202*
X020808Y005788D03*
X021408Y007738D03*
D203*
X021504Y005788D03*
D204*
X021504Y005796D03*
D205*
X021499Y005804D03*
D206*
X021504Y006604D03*
X022454Y005804D03*
X022779Y006579D03*
X021054Y008304D03*
X019504Y006479D03*
D207*
X021499Y005813D03*
D208*
X021504Y006613D03*
X022454Y005813D03*
X022779Y006588D03*
X021879Y007463D03*
X020804Y007438D03*
X024054Y006513D03*
D209*
X022383Y005963D03*
X022358Y006013D03*
X022333Y006088D03*
X022308Y006163D03*
X022283Y006238D03*
X021616Y006213D03*
X021608Y006238D03*
X021591Y006313D03*
X021583Y006338D03*
X021583Y006363D03*
X021408Y006313D03*
X021408Y006288D03*
X021383Y006188D03*
X020708Y005838D03*
X020633Y006038D03*
X020558Y006238D03*
X020458Y007238D03*
X021033Y008238D03*
D210*
X021124Y008029D03*
X021324Y008029D03*
X021424Y006379D03*
X021399Y006279D03*
X021399Y006254D03*
X021374Y006154D03*
X021624Y006154D03*
X021599Y006279D03*
X021574Y006379D03*
X022349Y006054D03*
X022374Y005979D03*
X020699Y005854D03*
X020674Y005929D03*
X020624Y006054D03*
D211*
X020616Y006079D03*
X020691Y005879D03*
X021366Y006104D03*
X021391Y006229D03*
X021416Y006329D03*
X022341Y006079D03*
X022366Y006004D03*
X021991Y007229D03*
X021416Y008229D03*
D212*
X021499Y006496D03*
X022449Y005896D03*
X022749Y006421D03*
D213*
X022358Y006029D03*
X021633Y006129D03*
X021616Y006204D03*
X021608Y006229D03*
X021608Y006254D03*
X021591Y006304D03*
X021591Y006329D03*
X021583Y006354D03*
X021408Y006304D03*
X021383Y006179D03*
X021358Y006079D03*
X020683Y005904D03*
X020608Y006104D03*
X021033Y008229D03*
D214*
X019233Y005929D03*
D215*
X019233Y005938D03*
X019233Y005963D03*
D216*
X019233Y005946D03*
X019233Y006646D03*
D217*
X020895Y007521D03*
X021054Y007796D03*
X021545Y007521D03*
X022729Y006321D03*
X022454Y005946D03*
D218*
X021795Y007129D03*
X020653Y007129D03*
X019228Y005954D03*
D219*
X019241Y005971D03*
D220*
X020583Y006171D03*
X020658Y005971D03*
X021358Y006071D03*
X021383Y006196D03*
X021408Y006296D03*
X021583Y006346D03*
X021591Y006321D03*
X021608Y006246D03*
X021616Y006196D03*
X021633Y006121D03*
X022308Y006171D03*
X022333Y006096D03*
X022358Y006021D03*
X022533Y005971D03*
X022558Y006046D03*
D221*
X019249Y005979D03*
X019249Y006629D03*
D222*
X019253Y005988D03*
X023870Y006563D03*
D223*
X019258Y005996D03*
D224*
X019262Y006004D03*
X019262Y006604D03*
D225*
X021128Y008054D03*
X021420Y006354D03*
X022295Y006204D03*
X022320Y006129D03*
X022570Y006079D03*
X022545Y006004D03*
X022595Y006154D03*
X022620Y006229D03*
D226*
X021225Y007413D03*
X019266Y006013D03*
D227*
X021420Y006363D03*
X022545Y006013D03*
X022570Y006088D03*
X021320Y008038D03*
X021420Y008213D03*
D228*
X019270Y006021D03*
D229*
X019274Y006029D03*
X019274Y006579D03*
X021224Y007404D03*
D230*
X019278Y006563D03*
X019278Y006038D03*
D231*
X019278Y006046D03*
X019278Y006571D03*
D232*
X019283Y006554D03*
X019283Y006054D03*
D233*
X019287Y006063D03*
X019287Y006538D03*
D234*
X019483Y006088D03*
X020533Y007413D03*
X021058Y008313D03*
X021958Y007338D03*
D235*
X021579Y006371D03*
X021429Y006396D03*
X022279Y006246D03*
X022604Y006171D03*
X022579Y006096D03*
X022629Y006246D03*
X020754Y007396D03*
X021029Y008221D03*
D236*
X021612Y006221D03*
D237*
X020474Y006246D03*
X021524Y007546D03*
D238*
X021403Y007754D03*
X021045Y007754D03*
X020470Y006254D03*
X023878Y006654D03*
D239*
X022633Y006254D03*
X021991Y007213D03*
X021316Y008054D03*
X021425Y008204D03*
X020733Y007379D03*
D240*
X022191Y006271D03*
D241*
X022191Y006279D03*
X021541Y007529D03*
X020908Y007529D03*
D242*
X021049Y007779D03*
X021224Y007479D03*
X021399Y007779D03*
X022724Y006279D03*
D243*
X022187Y006288D03*
X020462Y006313D03*
D244*
X022724Y006288D03*
D245*
X022187Y006296D03*
D246*
X022724Y006296D03*
X021399Y007771D03*
X021049Y007771D03*
D247*
X020462Y006304D03*
X022187Y006304D03*
D248*
X022183Y006313D03*
X022733Y006338D03*
X021500Y006413D03*
X020458Y006338D03*
X021558Y007513D03*
D249*
X021054Y007788D03*
X022729Y006313D03*
D250*
X022737Y006354D03*
D251*
X022174Y006363D03*
X021224Y007488D03*
X020449Y006363D03*
D252*
X020887Y007513D03*
X021062Y007813D03*
X021387Y007813D03*
X022737Y006363D03*
D253*
X022174Y006371D03*
X021499Y006446D03*
X020449Y006371D03*
D254*
X022741Y006371D03*
D255*
X021499Y006454D03*
X020449Y006379D03*
D256*
X021066Y007829D03*
X022741Y006379D03*
D257*
X022741Y006388D03*
X021066Y007838D03*
D258*
X020437Y006429D03*
X022162Y006429D03*
D259*
X022749Y006429D03*
X021499Y006479D03*
X020849Y007479D03*
X021374Y007854D03*
X019449Y006529D03*
D260*
X020437Y006438D03*
X022162Y006438D03*
D261*
X022754Y006438D03*
X021504Y006513D03*
D262*
X022162Y006446D03*
X020437Y006446D03*
D263*
X020433Y006454D03*
X020650Y007029D03*
X021500Y006529D03*
X022158Y006454D03*
X022758Y006479D03*
X021600Y007479D03*
D264*
X021079Y007879D03*
X021504Y006504D03*
X022754Y006454D03*
D265*
X021499Y006488D03*
X021374Y007863D03*
X021074Y007863D03*
X021224Y008488D03*
D266*
X022762Y006488D03*
D267*
X023674Y006488D03*
D268*
X022149Y006496D03*
X021224Y008496D03*
D269*
X021362Y007896D03*
X022762Y006496D03*
D270*
X022149Y006504D03*
X021499Y006554D03*
X020424Y006504D03*
D271*
X021087Y007904D03*
X021362Y007904D03*
X022762Y006504D03*
D272*
X022766Y006513D03*
X021916Y007413D03*
X021616Y007463D03*
D273*
X022766Y006521D03*
D274*
X019287Y006546D03*
D275*
X024008Y006546D03*
D276*
X018570Y006554D03*
X018570Y006579D03*
X018570Y006604D03*
X018570Y006629D03*
X018570Y006654D03*
D277*
X020499Y007354D03*
X021099Y007954D03*
X021224Y007504D03*
X021124Y008429D03*
X021324Y008429D03*
X022774Y006554D03*
D278*
X019270Y006588D03*
D279*
X020649Y007138D03*
X023874Y006588D03*
D280*
X019266Y006596D03*
D281*
X020649Y007121D03*
X023874Y006596D03*
D282*
X023870Y006604D03*
D283*
X019258Y006613D03*
D284*
X023879Y006613D03*
D285*
X021795Y007171D03*
X019253Y006621D03*
D286*
X023874Y006621D03*
D287*
X023874Y006629D03*
D288*
X019241Y006638D03*
D289*
X020974Y007588D03*
X021474Y007588D03*
X023874Y006638D03*
D290*
X023875Y006646D03*
X021416Y007721D03*
X021033Y007721D03*
D291*
X019224Y006654D03*
D292*
X019208Y006663D03*
D293*
X023874Y006663D03*
D294*
X019183Y006671D03*
D295*
X020654Y007054D03*
D296*
X021795Y007054D03*
D297*
X021504Y007563D03*
X020654Y007063D03*
D298*
X021024Y007688D03*
X021424Y007688D03*
X021799Y007063D03*
D299*
X021799Y007071D03*
X020649Y007071D03*
X021224Y008446D03*
D300*
X021008Y007629D03*
X020991Y007604D03*
X021441Y007629D03*
X021458Y007604D03*
X020650Y007079D03*
D301*
X021795Y007079D03*
D302*
X021795Y007088D03*
D303*
X020653Y007096D03*
D304*
X020654Y007104D03*
D305*
X021795Y007104D03*
D306*
X020654Y007113D03*
D307*
X021220Y007438D03*
X021795Y007113D03*
D308*
X021795Y007121D03*
D309*
X021795Y007138D03*
D310*
X020654Y007146D03*
D311*
X021795Y007146D03*
D312*
X020654Y007154D03*
D313*
X021795Y007154D03*
D314*
X020654Y007163D03*
D315*
X021795Y007163D03*
D316*
X021995Y007204D03*
D317*
X021224Y007229D03*
D318*
X021225Y007238D03*
D319*
X021220Y007246D03*
D320*
X021225Y007254D03*
D321*
X021224Y007263D03*
D322*
X021224Y007271D03*
D323*
X021220Y007279D03*
D324*
X020629Y007288D03*
D325*
X021224Y007288D03*
D326*
X021820Y007288D03*
D327*
X021812Y007296D03*
X021262Y008246D03*
X021187Y008246D03*
X020637Y007296D03*
D328*
X021224Y007296D03*
D329*
X020645Y007304D03*
D330*
X021224Y007304D03*
D331*
X021225Y007554D03*
X021800Y007304D03*
X021816Y007529D03*
X021425Y008104D03*
X021266Y008229D03*
X021183Y008229D03*
X021016Y008104D03*
D332*
X021224Y007313D03*
D333*
X021791Y007313D03*
D334*
X021224Y007321D03*
D335*
X021224Y007329D03*
D336*
X021958Y007329D03*
X021383Y008329D03*
D337*
X021225Y007338D03*
D338*
X021228Y007346D03*
D339*
X021225Y007354D03*
D340*
X021224Y007363D03*
D341*
X020558Y007446D03*
X020508Y007371D03*
X021333Y008421D03*
D342*
X021224Y007371D03*
D343*
X021224Y007379D03*
D344*
X021224Y007388D03*
D345*
X021224Y007429D03*
D346*
X021224Y007454D03*
D347*
X021220Y007463D03*
D348*
X021224Y007471D03*
D349*
X020858Y007488D03*
D350*
X020878Y007504D03*
X021570Y007504D03*
D351*
X020916Y007538D03*
D352*
X020928Y007546D03*
D353*
X020937Y007554D03*
X021037Y007729D03*
X021412Y007729D03*
X021512Y007554D03*
D354*
X020945Y007563D03*
D355*
X020954Y007571D03*
D356*
X021491Y007571D03*
D357*
X021016Y007654D03*
X020966Y007579D03*
D358*
X021020Y007679D03*
X021428Y007679D03*
X021478Y007579D03*
D359*
X021462Y007596D03*
X021437Y007646D03*
X021012Y007646D03*
X020987Y007596D03*
D360*
X021004Y007613D03*
D361*
X021445Y007613D03*
D362*
X021004Y007621D03*
D363*
X021445Y007621D03*
D364*
X021437Y007638D03*
X021012Y007638D03*
D365*
X021433Y007654D03*
D366*
X021016Y007663D03*
D367*
X021433Y007663D03*
D368*
X021428Y007671D03*
X021020Y007671D03*
D369*
X021420Y007696D03*
D370*
X021029Y007704D03*
D371*
X021420Y007704D03*
D372*
X021416Y007713D03*
X021033Y007713D03*
D373*
X021037Y007738D03*
D374*
X021041Y007746D03*
D375*
X021408Y007746D03*
D376*
X021387Y007821D03*
X021062Y007821D03*
D377*
X021091Y007913D03*
X021358Y007913D03*
D378*
X021429Y008096D03*
X021020Y008096D03*
D379*
X021020Y008113D03*
X021429Y008113D03*
D380*
X021016Y008121D03*
D381*
X021024Y008196D03*
D382*
X021024Y008204D03*
D383*
X021174Y008204D03*
X021274Y008204D03*
D384*
X021174Y008213D03*
D385*
X021270Y008213D03*
D386*
X021179Y008221D03*
D387*
X021270Y008221D03*
D388*
X021266Y008238D03*
X021183Y008238D03*
D389*
X021187Y008254D03*
X021262Y008254D03*
D390*
X021191Y008263D03*
D391*
X021258Y008263D03*
D392*
X021191Y008271D03*
D393*
X021087Y008371D03*
D394*
X021087Y008379D03*
D395*
X021112Y008413D03*
D396*
X021224Y008438D03*
D397*
X021224Y008454D03*
D398*
X021224Y008479D03*
D399*
X022772Y016406D03*
X022772Y016422D03*
X022772Y016456D03*
X022772Y016506D03*
X022772Y016522D03*
X022772Y016556D03*
X022772Y016606D03*
X022872Y016572D03*
X022872Y016506D03*
X022422Y016506D03*
X022422Y016522D03*
X022422Y016556D03*
X022422Y016572D03*
X022422Y016622D03*
X022272Y016656D03*
X022172Y016622D03*
X022822Y018156D03*
X022922Y018222D03*
X022922Y018256D03*
X023172Y018672D03*
D400*
X023122Y018589D03*
X023072Y018539D03*
X023022Y018489D03*
X022872Y018189D03*
X022922Y017339D03*
X022422Y016639D03*
X022422Y016539D03*
X022172Y016639D03*
X022772Y016539D03*
X022772Y016439D03*
D401*
X022622Y016472D03*
X022422Y016606D03*
X022239Y016572D03*
X021855Y016606D03*
X021855Y016472D03*
X021622Y016472D03*
X021622Y016606D03*
X021439Y016606D03*
X021439Y016472D03*
X021889Y017056D03*
X021805Y017106D03*
X021722Y017156D03*
X021855Y017956D03*
X021739Y018022D03*
X021672Y018056D03*
X021755Y018222D03*
X021539Y018272D03*
X021455Y018172D03*
X021955Y018072D03*
X022055Y018022D03*
X022255Y018072D03*
X022305Y018472D03*
X022105Y018572D03*
X022472Y018722D03*
X023072Y016606D03*
D402*
X023047Y016572D03*
X022964Y016572D03*
X022964Y016606D03*
X022964Y016622D03*
X022880Y016556D03*
X022880Y016522D03*
X022780Y016572D03*
X022564Y016572D03*
X022564Y016522D03*
X022564Y016506D03*
X022447Y016472D03*
X022280Y016522D03*
X022264Y016506D03*
X022264Y016556D03*
X022180Y016656D03*
X022030Y016656D03*
X022030Y016672D03*
X022030Y016622D03*
X022030Y016606D03*
X022030Y016572D03*
X022030Y016556D03*
X022030Y016522D03*
X022030Y016506D03*
X022047Y016472D03*
X021914Y016522D03*
X021897Y016506D03*
X021914Y016556D03*
X021897Y016572D03*
X021797Y016572D03*
X021797Y016556D03*
X021797Y016522D03*
X021797Y016506D03*
X021680Y016506D03*
X021680Y016522D03*
X021680Y016556D03*
X021680Y016572D03*
X021580Y016572D03*
X021564Y016556D03*
X021564Y016522D03*
X021580Y016506D03*
X021397Y016506D03*
X021397Y016572D03*
X022214Y017006D03*
X022214Y017022D03*
X022214Y017056D03*
X022214Y017072D03*
X022214Y017106D03*
X022214Y017122D03*
X022214Y017156D03*
X022214Y017172D03*
X022214Y017206D03*
X022214Y017222D03*
X022214Y017256D03*
X022214Y017272D03*
X022214Y017306D03*
X022214Y017322D03*
X022214Y017356D03*
X022214Y017372D03*
X022214Y017406D03*
X022214Y017422D03*
X022214Y017456D03*
X022214Y017472D03*
X022214Y017506D03*
X022214Y017522D03*
X022214Y017556D03*
X022214Y017572D03*
X022214Y017606D03*
X022214Y017622D03*
X022214Y017656D03*
X022214Y017672D03*
X022214Y017706D03*
X022214Y017722D03*
X022264Y017772D03*
X022414Y018122D03*
X022697Y018072D03*
X022747Y018106D03*
X022847Y018172D03*
X022897Y018206D03*
X022947Y018422D03*
X022980Y018456D03*
X022997Y018472D03*
X022447Y018522D03*
X022297Y018756D03*
X022147Y018606D03*
X022064Y018556D03*
X021997Y018522D03*
X022130Y018472D03*
X022130Y018456D03*
X022130Y018422D03*
X022130Y018406D03*
X022130Y018372D03*
X021964Y018356D03*
X021947Y018322D03*
X021930Y018272D03*
X021914Y018222D03*
X021914Y018206D03*
X021914Y018122D03*
X021630Y018222D03*
X021480Y018222D03*
X021430Y018122D03*
X021430Y018106D03*
X021430Y018072D03*
X021430Y018056D03*
X021430Y018022D03*
X021430Y018006D03*
X021430Y017972D03*
X021430Y017956D03*
X021430Y017922D03*
X021430Y017906D03*
X021430Y017872D03*
X021430Y017856D03*
X021430Y017822D03*
X021430Y017806D03*
X021430Y017772D03*
X021430Y017756D03*
X021430Y017722D03*
X021430Y017706D03*
X021430Y017672D03*
X021430Y017656D03*
X021430Y017622D03*
X021430Y017606D03*
X021430Y017572D03*
X021430Y017556D03*
X021430Y017522D03*
X021430Y017506D03*
X021430Y017472D03*
X022297Y016922D03*
X022647Y017156D03*
X022747Y017222D03*
X022797Y017256D03*
X022830Y017272D03*
X022880Y017306D03*
X022914Y017322D03*
X022997Y017406D03*
X022997Y017606D03*
X022997Y017622D03*
X022997Y017656D03*
X022997Y017672D03*
X022997Y017706D03*
X022997Y017722D03*
X022997Y017756D03*
X022997Y017772D03*
X022997Y017806D03*
X022997Y017822D03*
X022997Y017856D03*
X022997Y017872D03*
X022997Y017906D03*
X022997Y017922D03*
X022997Y017956D03*
X022997Y017972D03*
X023164Y016606D03*
X023164Y016572D03*
D403*
X022813Y016472D03*
X022213Y016472D03*
X021963Y017006D03*
X021863Y017072D03*
X021780Y017122D03*
X021913Y017922D03*
X021830Y017972D03*
X021763Y018006D03*
X022213Y017856D03*
X022663Y018156D03*
X022313Y018456D03*
X022330Y018622D03*
X022230Y018822D03*
X022580Y018606D03*
D404*
X022280Y017939D03*
X021880Y017939D03*
X021830Y017089D03*
X021913Y017039D03*
X022213Y016589D03*
X022613Y016589D03*
X022613Y016489D03*
X021430Y016489D03*
X021430Y016589D03*
D405*
X021622Y016589D03*
X021622Y016489D03*
X022222Y016489D03*
X022072Y016939D03*
X022822Y016589D03*
X022822Y016489D03*
X021972Y017889D03*
X022322Y018439D03*
D406*
X021855Y016589D03*
X021855Y016489D03*
X022605Y016539D03*
D407*
X022438Y016489D03*
X022038Y016489D03*
X022388Y016989D03*
X022538Y017089D03*
X023005Y017439D03*
X023005Y017489D03*
X023005Y017539D03*
X022505Y017939D03*
X022355Y017839D03*
X022288Y017789D03*
X022138Y018239D03*
X022138Y018289D03*
X022138Y018339D03*
X021955Y018339D03*
X021938Y018489D03*
X021838Y018439D03*
X021755Y018389D03*
X021905Y018139D03*
X022305Y018489D03*
X022338Y018589D03*
X022288Y018639D03*
X022888Y018389D03*
X021488Y018239D03*
X021505Y017289D03*
D408*
X021438Y017406D03*
X021438Y017422D03*
X021438Y017456D03*
X022305Y018256D03*
X022005Y018422D03*
X022138Y018506D03*
X022138Y018522D03*
X022138Y018556D03*
X022138Y018656D03*
X022138Y018672D03*
X022138Y018772D03*
X021705Y018272D03*
X023005Y018172D03*
X023005Y018156D03*
X023005Y018122D03*
X023005Y018106D03*
X023005Y018072D03*
X023005Y018056D03*
X023005Y018022D03*
X023005Y018006D03*
X023038Y018506D03*
X023055Y018522D03*
X023088Y018556D03*
X023105Y018572D03*
X022655Y016572D03*
X022655Y016556D03*
X022555Y016556D03*
X021388Y016556D03*
X021388Y016522D03*
D409*
X021388Y016539D03*
X021438Y017339D03*
X021438Y017439D03*
X021438Y018189D03*
X022138Y018539D03*
X022138Y018639D03*
X022138Y018689D03*
X022938Y018239D03*
X023005Y018139D03*
X023005Y018089D03*
X023005Y018039D03*
X023005Y017989D03*
X022988Y017389D03*
X022855Y017289D03*
X023105Y016589D03*
D410*
X023047Y016589D03*
X022964Y016589D03*
X022964Y016639D03*
X022880Y016539D03*
X023164Y016589D03*
X023164Y016689D03*
X022780Y017239D03*
X022697Y017189D03*
X022214Y017189D03*
X022214Y017139D03*
X022214Y017089D03*
X022214Y017039D03*
X022214Y016989D03*
X022214Y017239D03*
X022214Y017289D03*
X022214Y017339D03*
X022214Y017389D03*
X022214Y017439D03*
X022214Y017489D03*
X022214Y017539D03*
X022214Y017589D03*
X022214Y017639D03*
X022214Y017689D03*
X022214Y017739D03*
X022180Y017939D03*
X022297Y018239D03*
X022130Y018389D03*
X022130Y018439D03*
X022130Y018489D03*
X022030Y018539D03*
X021980Y018389D03*
X021930Y018289D03*
X021914Y018239D03*
X021914Y018189D03*
X021430Y018139D03*
X021430Y018089D03*
X021430Y018039D03*
X021430Y017989D03*
X021430Y017939D03*
X021430Y017889D03*
X021430Y017839D03*
X021430Y017789D03*
X021430Y017739D03*
X021430Y017689D03*
X021430Y017639D03*
X021430Y017589D03*
X021430Y017539D03*
X021430Y017489D03*
X022030Y016689D03*
X022030Y016639D03*
X022030Y016589D03*
X022030Y016539D03*
X021914Y016539D03*
X021797Y016539D03*
X021680Y016539D03*
X021564Y016539D03*
X022280Y016539D03*
X022997Y017589D03*
X022997Y017639D03*
X022997Y017689D03*
X022997Y017739D03*
X022997Y017789D03*
X022997Y017839D03*
X022997Y017889D03*
X022997Y017939D03*
X022797Y018139D03*
X022647Y018039D03*
X022430Y018489D03*
X022964Y018439D03*
D411*
X023155Y018689D03*
X022505Y018739D03*
X021572Y018289D03*
X021705Y018039D03*
X022122Y017789D03*
X021755Y017139D03*
X021672Y017189D03*
X022139Y016889D03*
X022239Y016689D03*
X022422Y016589D03*
D412*
X022188Y016606D03*
X022138Y016872D03*
X022438Y017022D03*
X022488Y017056D03*
X022588Y017122D03*
X023005Y017422D03*
X023005Y017456D03*
X023005Y017472D03*
X023005Y017506D03*
X023005Y017522D03*
X023005Y017556D03*
X023005Y017572D03*
X022605Y018006D03*
X022555Y017972D03*
X022455Y017906D03*
X022405Y017872D03*
X022305Y017922D03*
X022305Y017806D03*
X022138Y017772D03*
X022205Y018172D03*
X022138Y018256D03*
X022138Y018272D03*
X022138Y018306D03*
X022138Y018322D03*
X022138Y018356D03*
X021988Y018406D03*
X021905Y018472D03*
X021788Y018406D03*
X021938Y018306D03*
X021905Y018172D03*
X021905Y018156D03*
X022155Y018622D03*
X022155Y018756D03*
X022388Y018656D03*
X022405Y018672D03*
X022338Y018572D03*
X022305Y018506D03*
X022438Y018506D03*
X022488Y018556D03*
X022755Y018222D03*
X021538Y017272D03*
X021488Y017306D03*
X021455Y017322D03*
X022838Y016606D03*
X023155Y016656D03*
X023155Y016672D03*
D413*
X022613Y016606D03*
X022363Y016972D03*
X022330Y016956D03*
X022413Y017006D03*
X021613Y017222D03*
X021563Y017256D03*
X022330Y017822D03*
X022830Y018356D03*
X022863Y018372D03*
X022913Y018272D03*
X022513Y018572D03*
X022313Y018522D03*
X022280Y018772D03*
X021813Y018422D03*
X021630Y018322D03*
X021513Y018256D03*
X021563Y018122D03*
X021580Y018106D03*
D414*
X022638Y018622D03*
X022988Y016672D03*
X023105Y016622D03*
D415*
X023105Y016639D03*
X022988Y016689D03*
D416*
X022997Y016656D03*
X022247Y017906D03*
X022247Y017956D03*
X022697Y018206D03*
X022697Y018256D03*
X021697Y018172D03*
D417*
X021472Y018156D03*
X022122Y017806D03*
X022022Y016972D03*
X022122Y016906D03*
X022222Y016672D03*
X022722Y018806D03*
D418*
X023055Y018722D03*
X023105Y018706D03*
X022888Y018306D03*
X022355Y018406D03*
X022338Y018422D03*
X022038Y017856D03*
X022005Y017872D03*
X022105Y016922D03*
D419*
X022213Y016922D03*
X022213Y016956D03*
X022213Y016972D03*
X022230Y017756D03*
X022413Y018456D03*
X022263Y018672D03*
D420*
X022980Y018639D03*
X021430Y017389D03*
X022213Y016939D03*
D421*
X022313Y016939D03*
X022463Y017039D03*
X022313Y018089D03*
X021930Y018089D03*
X021663Y018139D03*
X021613Y018089D03*
X021530Y018139D03*
X021663Y018339D03*
D422*
X021947Y017906D03*
X021947Y017022D03*
X022047Y016956D03*
D423*
X021997Y016989D03*
X021797Y017989D03*
X022897Y018289D03*
D424*
X022922Y018406D03*
X022772Y018122D03*
X022672Y018056D03*
X022622Y018022D03*
X022522Y017956D03*
X022472Y017922D03*
X022372Y017856D03*
X022372Y018106D03*
X022422Y018472D03*
X022322Y018556D03*
X022272Y018656D03*
X021972Y018506D03*
X021872Y018456D03*
X021972Y018372D03*
X021922Y018256D03*
X021922Y018106D03*
X021772Y018206D03*
X021722Y018372D03*
X022572Y017106D03*
X022522Y017072D03*
X022672Y017172D03*
X022722Y017206D03*
D425*
X022622Y017139D03*
X022422Y017889D03*
X022572Y017989D03*
X022722Y018089D03*
X022472Y018539D03*
X022372Y018639D03*
X022422Y018689D03*
X022322Y018539D03*
X022122Y018589D03*
D426*
X022347Y018606D03*
X022447Y018706D03*
X021697Y018356D03*
X021597Y018306D03*
X021647Y018072D03*
X021647Y017206D03*
X021697Y017172D03*
D427*
X021597Y017239D03*
X022547Y018589D03*
D428*
X022397Y018372D03*
X022197Y018706D03*
X021714Y018256D03*
X022097Y017822D03*
X022247Y017972D03*
D429*
X022197Y018189D03*
X022380Y018389D03*
X022064Y017839D03*
D430*
X022222Y017872D03*
X022672Y018172D03*
X022572Y018756D03*
X022222Y018806D03*
X021672Y018156D03*
D431*
X022230Y017889D03*
X022680Y018189D03*
X022230Y018789D03*
D432*
X022064Y018039D03*
D433*
X022088Y018056D03*
X022605Y018306D03*
D434*
X022697Y018239D03*
X022997Y018739D03*
X021697Y018189D03*
D435*
X021647Y018206D03*
D436*
X022213Y018206D03*
X022430Y018356D03*
X022213Y018722D03*
D437*
X022213Y018222D03*
D438*
X022472Y018339D03*
X022222Y018739D03*
X021705Y018239D03*
D439*
X022672Y018272D03*
D440*
X022605Y018289D03*
D441*
X022672Y018322D03*
D442*
X022822Y018339D03*
D443*
X022755Y018639D03*
D444*
X022847Y018656D03*
D445*
X022905Y018672D03*
D446*
X022914Y018756D03*
D447*
X022747Y018772D03*
D448*
X022738Y018789D03*
M02*
