G75*
G70*
%OFA0B0*%
%FSLAX24Y24*%
%IPPOS*%
%LPD*%
%AMOC8*
5,1,8,0,0,1.08239X$1,22.5*
%
%ADD10C,0.0000*%
%ADD11OC8,0.0660*%
%ADD12R,0.0197X0.0787*%
%ADD13R,0.0551X0.0787*%
%ADD14R,0.0787X0.0197*%
%ADD15C,0.1700*%
%ADD16R,0.0630X0.0630*%
%ADD17R,0.0760X0.1700*%
%ADD18R,0.0800X0.0800*%
%ADD19C,0.0800*%
%ADD20C,0.0740*%
%ADD21R,0.0315X0.0315*%
%ADD22R,0.1260X0.0709*%
%ADD23R,0.0600X0.0300*%
%ADD24R,0.0236X0.0394*%
%ADD25C,0.0700*%
%ADD26R,0.0700X0.0700*%
%ADD27R,0.0250X0.0500*%
%ADD28R,0.0512X0.0630*%
%ADD29C,0.0860*%
%ADD30OC8,0.0860*%
%ADD31R,0.0150X0.0017*%
%ADD32R,0.0350X0.0017*%
%ADD33R,0.0450X0.0017*%
%ADD34R,0.0533X0.0017*%
%ADD35R,0.0283X0.0017*%
%ADD36R,0.0217X0.0017*%
%ADD37R,0.0284X0.0017*%
%ADD38R,0.0300X0.0017*%
%ADD39R,0.0217X0.0017*%
%ADD40R,0.0316X0.0017*%
%ADD41R,0.0216X0.0017*%
%ADD42R,0.0317X0.0017*%
%ADD43R,0.0350X0.0017*%
%ADD44R,0.0200X0.0017*%
%ADD45R,0.0367X0.0017*%
%ADD46R,0.0200X0.0017*%
%ADD47R,0.0400X0.0017*%
%ADD48R,0.0417X0.0017*%
%ADD49R,0.0434X0.0017*%
%ADD50R,0.0184X0.0017*%
%ADD51R,0.0466X0.0017*%
%ADD52R,0.0184X0.0017*%
%ADD53R,0.0500X0.0017*%
%ADD54R,0.0167X0.0017*%
%ADD55R,0.0534X0.0017*%
%ADD56R,0.0150X0.0017*%
%ADD57R,0.0566X0.0017*%
%ADD58R,0.0100X0.0017*%
%ADD59R,0.0600X0.0017*%
%ADD60R,0.0633X0.0017*%
%ADD61R,0.0684X0.0017*%
%ADD62R,0.0717X0.0017*%
%ADD63R,0.0766X0.0017*%
%ADD64R,0.0800X0.0017*%
%ADD65R,0.0850X0.0017*%
%ADD66R,0.0883X0.0017*%
%ADD67R,0.0917X0.0017*%
%ADD68R,0.0950X0.0017*%
%ADD69R,0.0983X0.0017*%
%ADD70R,0.1016X0.0017*%
%ADD71R,0.1033X0.0017*%
%ADD72R,0.1050X0.0017*%
%ADD73R,0.1083X0.0017*%
%ADD74R,0.1100X0.0017*%
%ADD75R,0.1117X0.0017*%
%ADD76R,0.1133X0.0017*%
%ADD77R,0.1150X0.0017*%
%ADD78R,0.1167X0.0017*%
%ADD79R,0.1167X0.0017*%
%ADD80R,0.1184X0.0017*%
%ADD81R,0.1184X0.0017*%
%ADD82R,0.1200X0.0017*%
%ADD83R,0.1200X0.0017*%
%ADD84R,0.1183X0.0017*%
%ADD85R,0.0550X0.0017*%
%ADD86R,0.0567X0.0017*%
%ADD87R,0.0550X0.0017*%
%ADD88R,0.0567X0.0017*%
%ADD89R,0.0533X0.0017*%
%ADD90R,0.0517X0.0017*%
%ADD91R,0.0516X0.0017*%
%ADD92R,0.0017X0.0017*%
%ADD93R,0.0517X0.0017*%
%ADD94R,0.0034X0.0017*%
%ADD95R,0.0483X0.0017*%
%ADD96R,0.0500X0.0017*%
%ADD97R,0.0034X0.0017*%
%ADD98R,0.0450X0.0017*%
%ADD99R,0.0050X0.0017*%
%ADD100R,0.0467X0.0017*%
%ADD101R,0.0383X0.0017*%
%ADD102R,0.0050X0.0017*%
%ADD103R,0.0300X0.0017*%
%ADD104R,0.0400X0.0017*%
%ADD105R,0.0234X0.0017*%
%ADD106R,0.0366X0.0017*%
%ADD107R,0.0117X0.0017*%
%ADD108R,0.0334X0.0017*%
%ADD109R,0.0066X0.0017*%
%ADD110R,0.0250X0.0017*%
%ADD111R,0.0100X0.0017*%
%ADD112R,0.0067X0.0017*%
%ADD113R,0.0134X0.0017*%
%ADD114R,0.0166X0.0017*%
%ADD115R,0.0067X0.0017*%
%ADD116R,0.0166X0.0017*%
%ADD117R,0.0183X0.0017*%
%ADD118R,0.0183X0.0017*%
%ADD119R,0.0066X0.0017*%
%ADD120R,0.0383X0.0017*%
%ADD121R,0.0133X0.0017*%
%ADD122R,0.0116X0.0017*%
%ADD123R,0.0133X0.0017*%
%ADD124R,0.0083X0.0017*%
%ADD125R,0.0134X0.0017*%
%ADD126R,0.0083X0.0017*%
%ADD127R,0.0084X0.0017*%
%ADD128R,0.0233X0.0017*%
%ADD129R,0.0233X0.0017*%
%ADD130R,0.0250X0.0017*%
%ADD131R,0.0266X0.0017*%
%ADD132R,0.0283X0.0017*%
%ADD133R,0.0117X0.0017*%
%ADD134R,0.0267X0.0017*%
%ADD135R,0.0284X0.0017*%
%ADD136R,0.0316X0.0017*%
%ADD137C,0.0436*%
%ADD138C,0.0700*%
%ADD139C,0.0100*%
%ADD140C,0.0318*%
%ADD141C,0.0120*%
%ADD142C,0.0160*%
%ADD143C,0.0500*%
%ADD144C,0.0320*%
%ADD145C,0.0397*%
%ADD146C,0.0560*%
%ADD147C,0.0400*%
%ADD148C,0.0240*%
D10*
X002802Y001280D02*
X002802Y022280D01*
X028202Y022280D01*
X028802Y021680D01*
X028802Y017180D01*
X029802Y016180D01*
X029802Y003280D01*
X028802Y002280D01*
X028802Y001280D01*
X002802Y001280D01*
X007672Y002280D02*
X007674Y002330D01*
X007680Y002380D01*
X007690Y002429D01*
X007704Y002477D01*
X007721Y002524D01*
X007742Y002569D01*
X007767Y002613D01*
X007795Y002654D01*
X007827Y002693D01*
X007861Y002730D01*
X007898Y002764D01*
X007938Y002794D01*
X007980Y002821D01*
X008024Y002845D01*
X008070Y002866D01*
X008117Y002882D01*
X008165Y002895D01*
X008215Y002904D01*
X008264Y002909D01*
X008315Y002910D01*
X008365Y002907D01*
X008414Y002900D01*
X008463Y002889D01*
X008511Y002874D01*
X008557Y002856D01*
X008602Y002834D01*
X008645Y002808D01*
X008686Y002779D01*
X008725Y002747D01*
X008761Y002712D01*
X008793Y002674D01*
X008823Y002634D01*
X008850Y002591D01*
X008873Y002547D01*
X008892Y002501D01*
X008908Y002453D01*
X008920Y002404D01*
X008928Y002355D01*
X008932Y002305D01*
X008932Y002255D01*
X008928Y002205D01*
X008920Y002156D01*
X008908Y002107D01*
X008892Y002059D01*
X008873Y002013D01*
X008850Y001969D01*
X008823Y001926D01*
X008793Y001886D01*
X008761Y001848D01*
X008725Y001813D01*
X008686Y001781D01*
X008645Y001752D01*
X008602Y001726D01*
X008557Y001704D01*
X008511Y001686D01*
X008463Y001671D01*
X008414Y001660D01*
X008365Y001653D01*
X008315Y001650D01*
X008264Y001651D01*
X008215Y001656D01*
X008165Y001665D01*
X008117Y001678D01*
X008070Y001694D01*
X008024Y001715D01*
X007980Y001739D01*
X007938Y001766D01*
X007898Y001796D01*
X007861Y001830D01*
X007827Y001867D01*
X007795Y001906D01*
X007767Y001947D01*
X007742Y001991D01*
X007721Y002036D01*
X007704Y002083D01*
X007690Y002131D01*
X007680Y002180D01*
X007674Y002230D01*
X007672Y002280D01*
X028172Y015280D02*
X028174Y015330D01*
X028180Y015380D01*
X028190Y015429D01*
X028204Y015477D01*
X028221Y015524D01*
X028242Y015569D01*
X028267Y015613D01*
X028295Y015654D01*
X028327Y015693D01*
X028361Y015730D01*
X028398Y015764D01*
X028438Y015794D01*
X028480Y015821D01*
X028524Y015845D01*
X028570Y015866D01*
X028617Y015882D01*
X028665Y015895D01*
X028715Y015904D01*
X028764Y015909D01*
X028815Y015910D01*
X028865Y015907D01*
X028914Y015900D01*
X028963Y015889D01*
X029011Y015874D01*
X029057Y015856D01*
X029102Y015834D01*
X029145Y015808D01*
X029186Y015779D01*
X029225Y015747D01*
X029261Y015712D01*
X029293Y015674D01*
X029323Y015634D01*
X029350Y015591D01*
X029373Y015547D01*
X029392Y015501D01*
X029408Y015453D01*
X029420Y015404D01*
X029428Y015355D01*
X029432Y015305D01*
X029432Y015255D01*
X029428Y015205D01*
X029420Y015156D01*
X029408Y015107D01*
X029392Y015059D01*
X029373Y015013D01*
X029350Y014969D01*
X029323Y014926D01*
X029293Y014886D01*
X029261Y014848D01*
X029225Y014813D01*
X029186Y014781D01*
X029145Y014752D01*
X029102Y014726D01*
X029057Y014704D01*
X029011Y014686D01*
X028963Y014671D01*
X028914Y014660D01*
X028865Y014653D01*
X028815Y014650D01*
X028764Y014651D01*
X028715Y014656D01*
X028665Y014665D01*
X028617Y014678D01*
X028570Y014694D01*
X028524Y014715D01*
X028480Y014739D01*
X028438Y014766D01*
X028398Y014796D01*
X028361Y014830D01*
X028327Y014867D01*
X028295Y014906D01*
X028267Y014947D01*
X028242Y014991D01*
X028221Y015036D01*
X028204Y015083D01*
X028190Y015131D01*
X028180Y015180D01*
X028174Y015230D01*
X028172Y015280D01*
X008172Y021280D02*
X008174Y021330D01*
X008180Y021380D01*
X008190Y021429D01*
X008204Y021477D01*
X008221Y021524D01*
X008242Y021569D01*
X008267Y021613D01*
X008295Y021654D01*
X008327Y021693D01*
X008361Y021730D01*
X008398Y021764D01*
X008438Y021794D01*
X008480Y021821D01*
X008524Y021845D01*
X008570Y021866D01*
X008617Y021882D01*
X008665Y021895D01*
X008715Y021904D01*
X008764Y021909D01*
X008815Y021910D01*
X008865Y021907D01*
X008914Y021900D01*
X008963Y021889D01*
X009011Y021874D01*
X009057Y021856D01*
X009102Y021834D01*
X009145Y021808D01*
X009186Y021779D01*
X009225Y021747D01*
X009261Y021712D01*
X009293Y021674D01*
X009323Y021634D01*
X009350Y021591D01*
X009373Y021547D01*
X009392Y021501D01*
X009408Y021453D01*
X009420Y021404D01*
X009428Y021355D01*
X009432Y021305D01*
X009432Y021255D01*
X009428Y021205D01*
X009420Y021156D01*
X009408Y021107D01*
X009392Y021059D01*
X009373Y021013D01*
X009350Y020969D01*
X009323Y020926D01*
X009293Y020886D01*
X009261Y020848D01*
X009225Y020813D01*
X009186Y020781D01*
X009145Y020752D01*
X009102Y020726D01*
X009057Y020704D01*
X009011Y020686D01*
X008963Y020671D01*
X008914Y020660D01*
X008865Y020653D01*
X008815Y020650D01*
X008764Y020651D01*
X008715Y020656D01*
X008665Y020665D01*
X008617Y020678D01*
X008570Y020694D01*
X008524Y020715D01*
X008480Y020739D01*
X008438Y020766D01*
X008398Y020796D01*
X008361Y020830D01*
X008327Y020867D01*
X008295Y020906D01*
X008267Y020947D01*
X008242Y020991D01*
X008221Y021036D01*
X008204Y021083D01*
X008190Y021131D01*
X008180Y021180D01*
X008174Y021230D01*
X008172Y021280D01*
D11*
X012202Y021280D03*
X013202Y021280D03*
X014202Y021280D03*
X015202Y021280D03*
X016202Y021280D03*
X017202Y021280D03*
X018202Y021280D03*
X019202Y021280D03*
X020802Y021280D03*
X021802Y021280D03*
X022802Y021280D03*
X023802Y021280D03*
X024802Y021280D03*
X025802Y021280D03*
X026802Y021280D03*
X027802Y021280D03*
X027802Y002280D03*
X026802Y002280D03*
X025802Y002280D03*
X024802Y002280D03*
X023802Y002280D03*
X022802Y002280D03*
X020802Y002280D03*
X019802Y002280D03*
X018802Y002280D03*
X017802Y002280D03*
X016802Y002280D03*
X015802Y002280D03*
D12*
X018707Y010389D03*
X020282Y010389D03*
X021227Y010389D03*
X021227Y015271D03*
X020282Y015271D03*
X018707Y015271D03*
D13*
X018237Y015271D03*
X019172Y015271D03*
X019812Y015271D03*
X020757Y015271D03*
X020757Y010389D03*
X019812Y010389D03*
X019172Y010389D03*
X018237Y010389D03*
D14*
X017211Y011255D03*
X017211Y011570D03*
X017211Y011885D03*
X017211Y012200D03*
X017211Y012515D03*
X017211Y012830D03*
X017211Y013145D03*
X017211Y013460D03*
X017211Y013775D03*
X017211Y014090D03*
X017211Y014405D03*
X022093Y014405D03*
X022093Y014090D03*
X022093Y013775D03*
X022093Y013460D03*
X022093Y013145D03*
X022093Y012830D03*
X022093Y012515D03*
X022093Y012200D03*
X022093Y011885D03*
X022093Y011570D03*
X022093Y011255D03*
D15*
X007387Y004530D03*
X006205Y002680D03*
X005024Y004530D03*
D16*
X004392Y010363D03*
X004392Y011898D03*
X004392Y012729D03*
X004392Y014264D03*
X004377Y015079D03*
X004377Y016615D03*
X004377Y017441D03*
X004377Y018977D03*
X004377Y019804D03*
X004377Y021339D03*
D17*
X008284Y010504D03*
X008284Y007004D03*
X012637Y007004D03*
X012637Y010504D03*
D18*
X026005Y012569D03*
D19*
X026005Y011191D03*
X026005Y009813D03*
X026005Y008436D03*
D20*
X026424Y006792D03*
X024849Y006772D03*
X024802Y003780D03*
X023802Y003780D03*
X022802Y003780D03*
X025802Y003780D03*
X026802Y003780D03*
X027802Y003780D03*
X015499Y006792D03*
X015499Y009154D03*
X009849Y005591D03*
X004546Y008422D03*
X003546Y008422D03*
X010883Y014300D03*
X010883Y015300D03*
X010883Y016300D03*
X010883Y017300D03*
X010883Y018300D03*
X015499Y018642D03*
X017174Y019780D03*
X018174Y019780D03*
X019174Y019780D03*
X020802Y019780D03*
X021802Y019780D03*
X022802Y019780D03*
X023802Y019780D03*
X024802Y019780D03*
X025802Y019780D03*
X026424Y014272D03*
X024849Y014272D03*
X015499Y016241D03*
D21*
X016669Y015313D03*
X017269Y015313D03*
X016068Y014724D03*
X016068Y014124D03*
X016882Y010337D03*
X017482Y010337D03*
X022974Y010827D03*
X023574Y010827D03*
X023668Y011610D03*
X023668Y012210D03*
X022975Y012212D03*
X022975Y011612D03*
X023660Y012964D03*
X023660Y013564D03*
X022472Y015050D03*
X021872Y015050D03*
X007133Y014769D03*
X007133Y014169D03*
X007133Y013391D03*
X007133Y012791D03*
X005951Y012791D03*
X005951Y013391D03*
X005951Y014169D03*
X005951Y014769D03*
X005951Y015547D03*
X005951Y016147D03*
X005951Y016925D03*
X005951Y017525D03*
X005951Y018303D03*
X005951Y018903D03*
X005951Y019681D03*
X005951Y020281D03*
X005951Y021059D03*
X005951Y021659D03*
X007133Y018903D03*
X007133Y018303D03*
X007133Y017525D03*
X007133Y016925D03*
X007133Y016147D03*
X007133Y015547D03*
X005951Y012013D03*
X005951Y011413D03*
X005700Y010117D03*
X005100Y010117D03*
D22*
X016973Y009175D03*
X016973Y006775D03*
X016977Y016230D03*
X016977Y018630D03*
D23*
X012451Y003439D03*
X012451Y001939D03*
X010451Y001939D03*
X010451Y003439D03*
D24*
X005420Y013524D03*
X004908Y013524D03*
X005164Y014233D03*
X004908Y015886D03*
X005420Y015886D03*
X005164Y016595D03*
X004908Y018249D03*
X005420Y018249D03*
X005164Y018957D03*
X004908Y020611D03*
X005420Y020611D03*
X005164Y021319D03*
D25*
X025046Y011032D03*
X025046Y010032D03*
X025046Y009032D03*
D26*
X025046Y012032D03*
D27*
X021995Y001871D03*
X021640Y001871D03*
D28*
X022241Y009902D03*
X023441Y009902D03*
D29*
X011894Y008760D03*
X007544Y008760D03*
D30*
X008919Y008760D03*
X013269Y008760D03*
D31*
X028069Y006785D03*
X028752Y006935D03*
X029519Y006885D03*
X029519Y007185D03*
X029019Y005485D03*
D32*
X029002Y005502D03*
X028402Y007118D03*
D33*
X029002Y005518D03*
D34*
X028993Y005535D03*
X028560Y006435D03*
D35*
X028518Y007068D03*
X029518Y007068D03*
X029518Y007052D03*
X029518Y007102D03*
X028835Y005552D03*
D36*
X029185Y005552D03*
X029218Y005568D03*
X029268Y005618D03*
X029285Y005652D03*
D37*
X028802Y005568D03*
X028852Y007152D03*
D38*
X028777Y005585D03*
D39*
X029235Y005585D03*
D40*
X028752Y005602D03*
D41*
X029252Y005602D03*
X029052Y006768D03*
D42*
X028735Y005618D03*
D43*
X028719Y005635D03*
X029169Y006535D03*
D44*
X028944Y006835D03*
X028677Y006985D03*
X029294Y005685D03*
X029277Y005635D03*
D45*
X028710Y005652D03*
X028693Y005668D03*
D46*
X029294Y005668D03*
X029294Y005702D03*
X029544Y006952D03*
X029544Y006968D03*
X029510Y007168D03*
D47*
X028694Y005685D03*
D48*
X028685Y005702D03*
X029168Y006502D03*
D49*
X028577Y006552D03*
X028677Y005718D03*
D50*
X029302Y005718D03*
X028702Y006968D03*
X028402Y007152D03*
D51*
X028677Y005735D03*
D52*
X029302Y005735D03*
X028852Y007185D03*
D53*
X029194Y006752D03*
X028560Y006468D03*
X028677Y005752D03*
D54*
X029293Y005752D03*
X028960Y006818D03*
D55*
X028677Y005768D03*
D56*
X029285Y005768D03*
X029519Y006868D03*
X029535Y006902D03*
X028935Y007118D03*
X028752Y007118D03*
X028769Y006918D03*
X028802Y006902D03*
X028885Y006852D03*
X028585Y006652D03*
D57*
X028677Y005785D03*
D58*
X029294Y005785D03*
X029010Y007035D03*
X028060Y006885D03*
D59*
X028694Y005802D03*
D60*
X028693Y005818D03*
D61*
X028702Y005835D03*
D62*
X028718Y005852D03*
D63*
X028727Y005868D03*
D64*
X028744Y005885D03*
D65*
X028752Y005902D03*
D66*
X028768Y005918D03*
D67*
X028768Y005935D03*
D68*
X028785Y005952D03*
D69*
X028785Y005968D03*
D70*
X028802Y005985D03*
D71*
X028810Y006002D03*
D72*
X028819Y006018D03*
D73*
X028818Y006035D03*
D74*
X028827Y006052D03*
D75*
X028835Y006068D03*
D76*
X028843Y006085D03*
D77*
X028835Y006102D03*
D78*
X028843Y006118D03*
D79*
X028843Y006135D03*
D80*
X028852Y006152D03*
X028852Y006168D03*
D81*
X028852Y006185D03*
D82*
X028860Y006202D03*
X028860Y006218D03*
X028860Y006252D03*
X028860Y006268D03*
X028860Y006302D03*
X028860Y006318D03*
D83*
X028860Y006335D03*
X028860Y006285D03*
X028860Y006235D03*
D84*
X028868Y006352D03*
X028868Y006368D03*
D85*
X028552Y006385D03*
D86*
X029160Y006385D03*
D87*
X029169Y006418D03*
X028552Y006402D03*
D88*
X029160Y006402D03*
D89*
X028560Y006418D03*
D90*
X029168Y006435D03*
D91*
X028552Y006452D03*
D92*
X028868Y006452D03*
D93*
X029168Y006452D03*
D94*
X028877Y006468D03*
D95*
X029168Y006468D03*
X028568Y006502D03*
D96*
X028560Y006485D03*
D97*
X028877Y006485D03*
D98*
X029169Y006485D03*
X028569Y006535D03*
X028402Y007085D03*
D99*
X028969Y006718D03*
X028919Y006602D03*
X028902Y006568D03*
X028902Y006552D03*
X028885Y006518D03*
X028885Y006502D03*
D100*
X028560Y006518D03*
D101*
X029168Y006518D03*
D102*
X028919Y006585D03*
X028935Y006635D03*
X028885Y006535D03*
D103*
X029177Y006552D03*
X029210Y006718D03*
X028577Y006618D03*
D104*
X028577Y006568D03*
X028410Y007102D03*
D105*
X029177Y006568D03*
D106*
X028577Y006585D03*
D107*
X029168Y006585D03*
X029435Y006785D03*
X028985Y007085D03*
D108*
X028577Y006602D03*
D109*
X028927Y006618D03*
X029027Y006902D03*
X029027Y006918D03*
X029027Y006952D03*
X029027Y006968D03*
X028727Y007052D03*
D110*
X028585Y006635D03*
X029519Y007135D03*
D111*
X029010Y007052D03*
X028994Y007068D03*
X028194Y007052D03*
X028077Y006918D03*
X028060Y006868D03*
X028060Y006852D03*
X028077Y006652D03*
D112*
X028093Y006952D03*
X028943Y006668D03*
X028943Y006652D03*
X028960Y006702D03*
X029010Y006852D03*
D113*
X029477Y006818D03*
X028227Y007068D03*
X028077Y006668D03*
D114*
X028077Y006685D03*
D115*
X028960Y006685D03*
D116*
X028727Y006952D03*
X028077Y006768D03*
X028077Y006752D03*
X028077Y006702D03*
D117*
X028085Y006718D03*
X028985Y006802D03*
X029218Y006702D03*
X029535Y006918D03*
D118*
X029535Y006935D03*
X029018Y006785D03*
X028085Y006735D03*
D119*
X028977Y006735D03*
X029027Y006935D03*
D120*
X029218Y006735D03*
D121*
X029410Y006768D03*
X029510Y006852D03*
X028860Y006868D03*
X028060Y006818D03*
X028060Y006802D03*
D122*
X029452Y006802D03*
D123*
X029493Y006835D03*
X028060Y006835D03*
D124*
X028068Y006902D03*
X028135Y007002D03*
X028735Y007068D03*
X029018Y007018D03*
X029018Y007002D03*
X029018Y006868D03*
X029518Y007202D03*
D125*
X028827Y006885D03*
D126*
X029018Y006885D03*
X029018Y006985D03*
X028735Y007085D03*
X028168Y007035D03*
X028118Y006985D03*
X028085Y006935D03*
D127*
X028102Y006968D03*
X028152Y007018D03*
X028852Y007202D03*
D128*
X029543Y006985D03*
D129*
X029510Y007152D03*
X028843Y007168D03*
X028660Y007002D03*
X028560Y007052D03*
D130*
X028635Y007018D03*
X029535Y007002D03*
D131*
X029527Y007018D03*
D132*
X029518Y007035D03*
X029518Y007085D03*
X028618Y007035D03*
D133*
X028735Y007102D03*
X028968Y007102D03*
D134*
X029510Y007118D03*
D135*
X028402Y007135D03*
D136*
X028852Y007135D03*
D137*
X012617Y009363D03*
X008284Y009363D03*
D138*
X008284Y010504D01*
X012637Y010504D02*
X012617Y009363D01*
D139*
X016581Y007382D02*
X016599Y007382D01*
X016599Y007400D02*
X016581Y007382D01*
X017959Y007390D02*
X027805Y007390D01*
X027798Y007382D02*
X017959Y007382D01*
X017959Y009845D01*
X018187Y009845D01*
X018187Y010339D01*
X018287Y010339D01*
X018287Y009845D01*
X018518Y009845D01*
X018538Y009825D01*
X018596Y009825D01*
X018593Y009818D01*
X018593Y009804D01*
X018593Y009803D01*
X018593Y009656D01*
X017959Y009656D01*
X017959Y009558D02*
X018593Y009558D01*
X018593Y009469D02*
X018593Y009656D01*
X018593Y009656D01*
X018593Y009755D02*
X017959Y009755D01*
X018187Y009853D02*
X018287Y009853D01*
X018287Y009952D02*
X018187Y009952D01*
X018187Y010050D02*
X018287Y010050D01*
X018287Y010149D02*
X018187Y010149D01*
X018187Y010247D02*
X018287Y010247D01*
X018936Y011017D02*
X018936Y011021D01*
X018759Y011198D01*
X018625Y011332D01*
X018094Y011332D01*
X017904Y011332D01*
X017772Y011200D01*
X017772Y012985D01*
X017791Y012939D01*
X017867Y012864D01*
X017965Y012823D01*
X018072Y012823D01*
X018170Y012864D01*
X018246Y012939D01*
X018286Y013038D01*
X018286Y013144D01*
X018246Y013243D01*
X018207Y013281D01*
X018207Y013721D01*
X018207Y013878D01*
X017912Y014173D01*
X017801Y014284D01*
X017772Y014284D01*
X017772Y014417D01*
X018483Y014417D01*
X018470Y014404D01*
X018429Y014306D01*
X018429Y014199D01*
X018470Y014101D01*
X018529Y014042D01*
X018529Y012701D01*
X018470Y012642D01*
X018429Y012544D01*
X018429Y012437D01*
X018470Y012339D01*
X018546Y012263D01*
X018644Y012223D01*
X018751Y012223D01*
X018849Y012263D01*
X018925Y012339D01*
X018966Y012437D01*
X018966Y012544D01*
X018925Y012642D01*
X018867Y012701D01*
X018867Y014042D01*
X018925Y014101D01*
X018966Y014199D01*
X018966Y014306D01*
X018925Y014404D01*
X018849Y014480D01*
X018795Y014502D01*
X018924Y014606D01*
X018938Y014726D01*
X020083Y014739D01*
X020083Y014735D01*
X020194Y014624D01*
X020240Y014578D01*
X020240Y014524D01*
X020281Y014425D01*
X020357Y014350D01*
X020455Y014309D01*
X020562Y014309D01*
X020660Y014350D01*
X020699Y014388D01*
X020705Y014388D01*
X020833Y014516D01*
X021306Y014516D01*
X021463Y014516D01*
X021540Y014594D01*
X021551Y014530D01*
X021549Y014523D01*
X021549Y014405D01*
X022092Y014405D01*
X022092Y014405D01*
X021549Y014405D01*
X021549Y014287D01*
X021559Y014248D01*
X021560Y014247D01*
X021559Y014246D01*
X021549Y014208D01*
X021549Y014090D01*
X022092Y014090D01*
X022092Y014090D01*
X021549Y014090D01*
X021549Y013988D01*
X021452Y013988D01*
X021353Y013889D01*
X021334Y013870D01*
X021295Y013870D01*
X021196Y013771D01*
X021138Y013713D01*
X021056Y013713D01*
X020957Y013673D01*
X020882Y013597D01*
X020841Y013499D01*
X020841Y013392D01*
X020882Y013293D01*
X020957Y013218D01*
X021018Y013193D01*
X020998Y013144D01*
X020998Y013038D01*
X021039Y012939D01*
X021115Y012864D01*
X021213Y012823D01*
X021320Y012823D01*
X021418Y012864D01*
X021494Y012939D01*
X021499Y012951D01*
X021550Y012951D01*
X021549Y012948D01*
X021549Y012830D01*
X022092Y012830D01*
X022092Y012830D01*
X021549Y012830D01*
X021549Y012712D01*
X021559Y012674D01*
X021562Y012669D01*
X020488Y012669D01*
X020389Y012570D01*
X020292Y012473D01*
X020209Y012473D01*
X020111Y012432D01*
X020035Y012357D01*
X019994Y012259D01*
X019994Y012152D01*
X020035Y012053D01*
X020111Y011978D01*
X020209Y011937D01*
X020316Y011937D01*
X020414Y011978D01*
X020490Y012053D01*
X020531Y012152D01*
X020531Y012234D01*
X020628Y012331D01*
X021590Y012331D01*
X021590Y012060D01*
X021457Y012060D01*
X021418Y012098D01*
X021320Y012139D01*
X021213Y012139D01*
X021115Y012098D01*
X021039Y012022D01*
X020998Y011924D01*
X020998Y011817D01*
X021039Y011719D01*
X021115Y011643D01*
X021213Y011602D01*
X021320Y011602D01*
X021418Y011643D01*
X021457Y011681D01*
X021590Y011681D01*
X021590Y011427D01*
X021604Y011413D01*
X021590Y011399D01*
X021590Y011154D01*
X020243Y011154D01*
X020133Y011043D01*
X020120Y011031D01*
X018936Y011017D01*
X018921Y011036D02*
X020125Y011036D01*
X020224Y011134D02*
X018823Y011134D01*
X018724Y011233D02*
X021590Y011233D01*
X021590Y011331D02*
X018626Y011331D01*
X017903Y011331D02*
X017772Y011331D01*
X017772Y011233D02*
X017805Y011233D01*
X017772Y011430D02*
X021590Y011430D01*
X021590Y011529D02*
X017772Y011529D01*
X017772Y011627D02*
X021154Y011627D01*
X021036Y011726D02*
X017772Y011726D01*
X017772Y011824D02*
X020998Y011824D01*
X020998Y011923D02*
X017772Y011923D01*
X017772Y012021D02*
X020067Y012021D01*
X020008Y012120D02*
X017772Y012120D01*
X017772Y012218D02*
X019994Y012218D01*
X020019Y012317D02*
X018903Y012317D01*
X018957Y012415D02*
X020094Y012415D01*
X020332Y012514D02*
X018966Y012514D01*
X018937Y012612D02*
X020431Y012612D01*
X020613Y012317D02*
X021590Y012317D01*
X021590Y012218D02*
X020531Y012218D01*
X020517Y012120D02*
X021168Y012120D01*
X021039Y012021D02*
X020458Y012021D01*
X021365Y012120D02*
X021590Y012120D01*
X021590Y011627D02*
X021379Y011627D01*
X022265Y011048D02*
X022532Y011048D01*
X022596Y011112D01*
X022596Y011381D01*
X022676Y011381D01*
X022680Y011377D01*
X022738Y011380D01*
X022772Y011345D01*
X023178Y011345D01*
X023242Y011409D01*
X023242Y011815D01*
X023178Y011878D01*
X022908Y011878D01*
X022962Y011945D01*
X023178Y011945D01*
X023215Y011983D01*
X023426Y011983D01*
X023465Y011943D01*
X023871Y011943D01*
X023935Y012007D01*
X023935Y012413D01*
X023871Y012476D01*
X023465Y012476D01*
X023430Y012441D01*
X023215Y012441D01*
X023178Y012478D01*
X022772Y012478D01*
X022709Y012415D01*
X022596Y012415D01*
X022596Y012371D02*
X022596Y012628D01*
X022607Y012639D01*
X022626Y012674D01*
X022636Y012712D01*
X022636Y012830D01*
X022636Y012941D01*
X023000Y012941D01*
X023058Y012930D01*
X023076Y012941D01*
X023097Y012941D01*
X023136Y012981D01*
X023156Y012981D01*
X023198Y013023D01*
X023247Y013056D01*
X023252Y013077D01*
X023313Y013138D01*
X023353Y013138D01*
X023353Y012993D01*
X023631Y012993D01*
X023631Y012935D01*
X023689Y012935D01*
X023689Y012657D01*
X023837Y012657D01*
X023876Y012667D01*
X023910Y012687D01*
X023938Y012715D01*
X023957Y012749D01*
X023968Y012787D01*
X023968Y012935D01*
X023689Y012935D01*
X023689Y012993D01*
X023968Y012993D01*
X023968Y013141D01*
X023957Y013180D01*
X023938Y013214D01*
X023910Y013242D01*
X023876Y013261D01*
X023837Y013272D01*
X023689Y013272D01*
X023689Y012993D01*
X023631Y012993D01*
X023631Y013220D01*
X023660Y013249D01*
X023660Y013261D01*
X023689Y013298D01*
X023863Y013298D01*
X023927Y013362D01*
X023927Y013767D01*
X023863Y013831D01*
X023457Y013831D01*
X023394Y013767D01*
X023394Y013533D01*
X023380Y013516D01*
X023157Y013516D01*
X023046Y013406D01*
X023046Y013406D01*
X022960Y013319D01*
X022937Y013319D01*
X022950Y013333D01*
X022991Y013431D01*
X022991Y013538D01*
X022950Y013637D01*
X022875Y013712D01*
X022776Y013753D01*
X022670Y013753D01*
X022596Y013722D01*
X022596Y013888D01*
X022607Y013899D01*
X022626Y013934D01*
X022636Y013972D01*
X022636Y014090D01*
X022636Y014208D01*
X022626Y014246D01*
X022626Y014247D01*
X022626Y014248D01*
X022636Y014287D01*
X022636Y014405D01*
X022636Y014469D01*
X024003Y014469D01*
X024003Y009567D01*
X023847Y009569D01*
X023847Y009852D01*
X023491Y009852D01*
X023491Y009952D01*
X023391Y009952D01*
X023391Y009852D01*
X023035Y009852D01*
X023035Y009575D01*
X022606Y009578D01*
X022606Y010262D01*
X022542Y010326D01*
X022163Y010326D01*
X021982Y010483D01*
X021982Y010776D01*
X021994Y010776D01*
X022129Y010682D01*
X022172Y010638D01*
X022191Y010638D01*
X022206Y010627D01*
X022267Y010638D01*
X022708Y010638D01*
X022708Y010625D01*
X022772Y010561D01*
X023177Y010561D01*
X023241Y010625D01*
X023241Y011030D01*
X023177Y011094D01*
X022772Y011094D01*
X022708Y011030D01*
X022708Y011016D01*
X022310Y011016D01*
X022265Y011048D01*
X022282Y011036D02*
X022714Y011036D01*
X022596Y011134D02*
X023396Y011134D01*
X023397Y011135D02*
X023359Y011124D01*
X023325Y011105D01*
X023297Y011077D01*
X023277Y011043D01*
X023267Y011004D01*
X023267Y010856D01*
X023545Y010856D01*
X023545Y010798D01*
X023267Y010798D01*
X023267Y010650D01*
X023277Y010612D01*
X023297Y010578D01*
X023325Y010550D01*
X023359Y010530D01*
X023397Y010520D01*
X023546Y010520D01*
X023546Y010798D01*
X023603Y010798D01*
X023603Y010520D01*
X023752Y010520D01*
X023790Y010530D01*
X023824Y010550D01*
X023852Y010578D01*
X023872Y010612D01*
X023882Y010650D01*
X023882Y010798D01*
X023603Y010798D01*
X023603Y010856D01*
X023546Y010856D01*
X023546Y011135D01*
X023397Y011135D01*
X023546Y011134D02*
X023603Y011134D01*
X023603Y011135D02*
X023603Y010856D01*
X023882Y010856D01*
X023882Y011004D01*
X023872Y011043D01*
X023852Y011077D01*
X023824Y011105D01*
X023790Y011124D01*
X023752Y011135D01*
X023603Y011135D01*
X023603Y011036D02*
X023546Y011036D01*
X023546Y010937D02*
X023603Y010937D01*
X023603Y010839D02*
X024003Y010839D01*
X024003Y010937D02*
X023882Y010937D01*
X023873Y011036D02*
X024003Y011036D01*
X024003Y011134D02*
X023753Y011134D01*
X023697Y011302D02*
X023845Y011302D01*
X023883Y011313D01*
X023918Y011332D01*
X023946Y011360D01*
X023965Y011395D01*
X023975Y011433D01*
X023975Y011581D01*
X023697Y011581D01*
X023697Y011639D01*
X023639Y011639D01*
X023639Y011917D01*
X023491Y011917D01*
X023453Y011907D01*
X023418Y011887D01*
X023391Y011859D01*
X023371Y011825D01*
X023361Y011787D01*
X023361Y011639D01*
X023639Y011639D01*
X023639Y011581D01*
X023361Y011581D01*
X023361Y011433D01*
X023371Y011395D01*
X023391Y011360D01*
X023418Y011332D01*
X023453Y011313D01*
X023491Y011302D01*
X023639Y011302D01*
X023639Y011581D01*
X023697Y011581D01*
X023697Y011302D01*
X023697Y011331D02*
X023639Y011331D01*
X023639Y011430D02*
X023697Y011430D01*
X023697Y011529D02*
X023639Y011529D01*
X023639Y011627D02*
X023242Y011627D01*
X023242Y011529D02*
X023361Y011529D01*
X023361Y011430D02*
X023242Y011430D01*
X023420Y011331D02*
X022596Y011331D01*
X022596Y011233D02*
X024003Y011233D01*
X024003Y011331D02*
X023916Y011331D01*
X023975Y011430D02*
X024003Y011430D01*
X024003Y011529D02*
X023975Y011529D01*
X024003Y011627D02*
X023697Y011627D01*
X023697Y011639D02*
X023975Y011639D01*
X023975Y011787D01*
X023965Y011825D01*
X023946Y011859D01*
X023918Y011887D01*
X023883Y011907D01*
X023845Y011917D01*
X023697Y011917D01*
X023697Y011639D01*
X023697Y011726D02*
X023639Y011726D01*
X023639Y011824D02*
X023697Y011824D01*
X023966Y011824D02*
X024003Y011824D01*
X024003Y011726D02*
X023975Y011726D01*
X024003Y011923D02*
X022944Y011923D01*
X023232Y011824D02*
X023371Y011824D01*
X023361Y011726D02*
X023242Y011726D01*
X023935Y012021D02*
X024003Y012021D01*
X024003Y012120D02*
X023935Y012120D01*
X023935Y012218D02*
X024003Y012218D01*
X024003Y012317D02*
X023935Y012317D01*
X023932Y012415D02*
X024003Y012415D01*
X024003Y012514D02*
X022596Y012514D01*
X022596Y012612D02*
X024003Y012612D01*
X024003Y012711D02*
X023934Y012711D01*
X023968Y012810D02*
X024003Y012810D01*
X024003Y012908D02*
X023968Y012908D01*
X023968Y013007D02*
X024003Y013007D01*
X024003Y013105D02*
X023968Y013105D01*
X023943Y013204D02*
X024003Y013204D01*
X024003Y013302D02*
X023867Y013302D01*
X023927Y013401D02*
X024003Y013401D01*
X024003Y013499D02*
X023927Y013499D01*
X023927Y013598D02*
X024003Y013598D01*
X024003Y013696D02*
X023927Y013696D01*
X023899Y013795D02*
X024003Y013795D01*
X024003Y013894D02*
X022601Y013894D01*
X022596Y013795D02*
X023422Y013795D01*
X023394Y013696D02*
X022891Y013696D01*
X022966Y013598D02*
X023394Y013598D01*
X023140Y013499D02*
X022991Y013499D01*
X022979Y013401D02*
X023041Y013401D01*
X023280Y013105D02*
X023353Y013105D01*
X023353Y013007D02*
X023182Y013007D01*
X023353Y012935D02*
X023353Y012787D01*
X023363Y012749D01*
X023383Y012715D01*
X023411Y012687D01*
X023445Y012667D01*
X023483Y012657D01*
X023631Y012657D01*
X023631Y012935D01*
X023353Y012935D01*
X023353Y012908D02*
X022636Y012908D01*
X022636Y012830D02*
X022093Y012830D01*
X022093Y012830D01*
X022636Y012830D01*
X022636Y012810D02*
X023353Y012810D01*
X023386Y012711D02*
X022636Y012711D01*
X022709Y012415D02*
X022709Y012362D01*
X022596Y012221D01*
X022596Y012344D01*
X022582Y012358D01*
X022596Y012371D01*
X022596Y012317D02*
X022673Y012317D01*
X023631Y012711D02*
X023689Y012711D01*
X023689Y012810D02*
X023631Y012810D01*
X023631Y012908D02*
X023689Y012908D01*
X023689Y013007D02*
X023631Y013007D01*
X023631Y013105D02*
X023689Y013105D01*
X023689Y013204D02*
X023631Y013204D01*
X024235Y013204D02*
X029632Y013204D01*
X029632Y013302D02*
X024235Y013302D01*
X024236Y013401D02*
X029632Y013401D01*
X029632Y013499D02*
X024236Y013499D01*
X024236Y013598D02*
X029632Y013598D01*
X029632Y013696D02*
X024236Y013696D01*
X024237Y013795D02*
X024590Y013795D01*
X024543Y013814D02*
X024742Y013732D01*
X024957Y013732D01*
X025155Y013814D01*
X025307Y013966D01*
X025389Y014165D01*
X025389Y014380D01*
X025307Y014578D01*
X025155Y014730D01*
X024957Y014812D01*
X024742Y014812D01*
X024543Y014730D01*
X024391Y014578D01*
X024309Y014380D01*
X024309Y014165D01*
X024391Y013966D01*
X024543Y013814D01*
X024464Y013894D02*
X024237Y013894D01*
X024237Y013992D02*
X024381Y013992D01*
X024340Y014091D02*
X024237Y014091D01*
X024238Y014189D02*
X024309Y014189D01*
X024309Y014288D02*
X024238Y014288D01*
X024238Y014386D02*
X024312Y014386D01*
X024353Y014485D02*
X024238Y014485D01*
X024239Y014583D02*
X024397Y014583D01*
X024495Y014682D02*
X024239Y014682D01*
X024239Y014725D02*
X022802Y014725D01*
X022802Y015115D01*
X022799Y015121D01*
X022799Y015278D01*
X022700Y015377D01*
X022544Y015377D01*
X022538Y015380D01*
X022406Y015380D01*
X022400Y015377D01*
X022244Y015377D01*
X022172Y015305D01*
X022100Y015377D01*
X021644Y015377D01*
X021544Y015278D01*
X021544Y015215D01*
X021532Y015203D01*
X021531Y015201D01*
X021495Y015166D01*
X021495Y015735D01*
X021396Y015835D01*
X021295Y015835D01*
X021302Y015852D01*
X021302Y016354D01*
X021245Y016490D01*
X021141Y016594D01*
X021005Y016650D01*
X020858Y016650D01*
X020651Y016650D01*
X020627Y016650D01*
X020605Y016656D01*
X020554Y016650D01*
X020504Y016650D01*
X020482Y016641D01*
X020459Y016638D01*
X020414Y016613D01*
X020368Y016594D01*
X020351Y016577D01*
X020331Y016565D01*
X020299Y016525D01*
X020264Y016490D01*
X020255Y016468D01*
X020240Y016449D01*
X020227Y016400D01*
X020207Y016354D01*
X020207Y016330D01*
X020201Y016307D01*
X020207Y016257D01*
X020207Y015852D01*
X020215Y015835D01*
X020113Y015835D01*
X020093Y015815D01*
X019862Y015815D01*
X019862Y015321D01*
X019762Y015321D01*
X019762Y015815D01*
X019633Y015815D01*
X019648Y015852D01*
X019648Y016354D01*
X019592Y016490D01*
X019488Y016594D01*
X019352Y016650D01*
X019205Y016650D01*
X018909Y016650D01*
X018773Y016594D01*
X018669Y016490D01*
X018613Y016354D01*
X018613Y016334D01*
X018613Y015852D01*
X018620Y015835D01*
X018538Y015835D01*
X018518Y015815D01*
X018287Y015815D01*
X018287Y015321D01*
X018187Y015321D01*
X018187Y015815D01*
X017959Y015815D01*
X017959Y018160D01*
X028632Y018160D01*
X028632Y017110D01*
X028731Y017010D01*
X028888Y016854D01*
X028786Y016870D01*
X028303Y016793D01*
X027867Y016571D01*
X027867Y016571D01*
X027521Y016225D01*
X027299Y015789D01*
X027222Y015306D01*
X027222Y015306D01*
X027299Y014822D01*
X027521Y014386D01*
X027867Y014040D01*
X028303Y013818D01*
X028786Y013741D01*
X029269Y013818D01*
X029632Y014003D01*
X029632Y010630D01*
X025344Y010630D01*
X025372Y010651D01*
X025427Y010706D01*
X025474Y010770D01*
X025509Y010840D01*
X025532Y010909D01*
X025534Y010903D01*
X025585Y010833D01*
X025646Y010772D01*
X025716Y010721D01*
X025794Y010682D01*
X025876Y010655D01*
X025955Y010642D01*
X025955Y011141D01*
X026055Y011141D01*
X026055Y011241D01*
X026554Y011241D01*
X026541Y011320D01*
X026514Y011403D01*
X026475Y011480D01*
X026424Y011550D01*
X026363Y011611D01*
X026293Y011662D01*
X026216Y011701D01*
X026133Y011728D01*
X026055Y011740D01*
X026055Y011242D01*
X025955Y011242D01*
X025955Y011740D01*
X025876Y011728D01*
X025794Y011701D01*
X025716Y011662D01*
X025646Y011611D01*
X025585Y011550D01*
X025534Y011480D01*
X025495Y011403D01*
X025468Y011320D01*
X025466Y011305D01*
X025427Y011358D01*
X025372Y011413D01*
X025308Y011460D01*
X025238Y011495D01*
X025186Y011512D01*
X025466Y011512D01*
X025566Y011612D01*
X025566Y011999D01*
X026475Y011999D01*
X026575Y012099D01*
X026575Y013040D01*
X026475Y013139D01*
X025534Y013139D01*
X025435Y013040D01*
X025435Y012552D01*
X024626Y012552D01*
X024526Y012452D01*
X024526Y011612D01*
X024626Y011512D01*
X024905Y011512D01*
X024854Y011495D01*
X024784Y011460D01*
X024720Y011413D01*
X024665Y011358D01*
X024618Y011294D01*
X024583Y011224D01*
X024558Y011149D01*
X024548Y011082D01*
X024996Y011082D01*
X024996Y010982D01*
X024548Y010982D01*
X024558Y010915D01*
X024583Y010840D01*
X024618Y010770D01*
X024665Y010706D01*
X024720Y010651D01*
X024748Y010630D01*
X024229Y010630D01*
X024239Y014725D01*
X024003Y014386D02*
X022636Y014386D01*
X022636Y014405D02*
X022093Y014405D01*
X022636Y014405D01*
X022636Y014288D02*
X024003Y014288D01*
X024003Y014189D02*
X022636Y014189D01*
X022636Y014091D02*
X024003Y014091D01*
X024003Y013992D02*
X022636Y013992D01*
X022636Y014090D02*
X022093Y014090D01*
X022093Y014090D01*
X022093Y014156D01*
X022093Y014404D01*
X022093Y014404D01*
X022093Y014156D01*
X022093Y014090D01*
X022636Y014090D01*
X022093Y014090D02*
X022093Y014090D01*
X022093Y014091D02*
X022093Y014091D01*
X022093Y014189D02*
X022093Y014189D01*
X022093Y014288D02*
X022093Y014288D01*
X022093Y014386D02*
X022093Y014386D01*
X022093Y014405D02*
X022093Y014405D01*
X021549Y014386D02*
X020697Y014386D01*
X020802Y014485D02*
X021549Y014485D01*
X021542Y014583D02*
X021530Y014583D01*
X021549Y014288D02*
X018966Y014288D01*
X018961Y014189D02*
X021549Y014189D01*
X021549Y014091D02*
X018915Y014091D01*
X018867Y013992D02*
X021549Y013992D01*
X021357Y013894D02*
X018867Y013894D01*
X018867Y013795D02*
X021220Y013795D01*
X021015Y013696D02*
X018867Y013696D01*
X018867Y013598D02*
X020882Y013598D01*
X020841Y013499D02*
X018867Y013499D01*
X018867Y013401D02*
X020841Y013401D01*
X020878Y013302D02*
X018867Y013302D01*
X018867Y013204D02*
X020992Y013204D01*
X020998Y013105D02*
X018867Y013105D01*
X018867Y013007D02*
X021011Y013007D01*
X021070Y012908D02*
X018867Y012908D01*
X018867Y012810D02*
X021549Y012810D01*
X021549Y012908D02*
X021463Y012908D01*
X021549Y012711D02*
X018867Y012711D01*
X018529Y012711D02*
X017772Y012711D01*
X017772Y012612D02*
X018458Y012612D01*
X018429Y012514D02*
X017772Y012514D01*
X017772Y012415D02*
X018439Y012415D01*
X018492Y012317D02*
X017772Y012317D01*
X017772Y012810D02*
X018529Y012810D01*
X018529Y012908D02*
X018215Y012908D01*
X018274Y013007D02*
X018529Y013007D01*
X018529Y013105D02*
X018286Y013105D01*
X018262Y013204D02*
X018529Y013204D01*
X018529Y013302D02*
X018207Y013302D01*
X018207Y013401D02*
X018529Y013401D01*
X018529Y013499D02*
X018207Y013499D01*
X018207Y013598D02*
X018529Y013598D01*
X018529Y013696D02*
X018207Y013696D01*
X018207Y013795D02*
X018529Y013795D01*
X018529Y013894D02*
X018192Y013894D01*
X018093Y013992D02*
X018529Y013992D01*
X018480Y014091D02*
X017995Y014091D01*
X017896Y014189D02*
X018434Y014189D01*
X018429Y014288D02*
X017772Y014288D01*
X017772Y014386D02*
X018463Y014386D01*
X018837Y014485D02*
X020257Y014485D01*
X020235Y014583D02*
X018896Y014583D01*
X018933Y014682D02*
X020137Y014682D01*
X020320Y014386D02*
X018932Y014386D01*
X018287Y015372D02*
X018187Y015372D01*
X018187Y015470D02*
X018287Y015470D01*
X018287Y015569D02*
X018187Y015569D01*
X018187Y015667D02*
X018287Y015667D01*
X018287Y015766D02*
X018187Y015766D01*
X017959Y015864D02*
X018613Y015864D01*
X018613Y015963D02*
X017959Y015963D01*
X017959Y016061D02*
X018613Y016061D01*
X018613Y016160D02*
X017959Y016160D01*
X017959Y016259D02*
X018613Y016259D01*
X018614Y016357D02*
X017959Y016357D01*
X017959Y016456D02*
X018655Y016456D01*
X018734Y016554D02*
X017959Y016554D01*
X017959Y016653D02*
X020577Y016653D01*
X020617Y016653D02*
X028027Y016653D01*
X027850Y016554D02*
X021181Y016554D01*
X021259Y016456D02*
X027751Y016456D01*
X027653Y016357D02*
X021300Y016357D01*
X021302Y016259D02*
X027554Y016259D01*
X027521Y016225D02*
X027521Y016225D01*
X027488Y016160D02*
X021302Y016160D01*
X021302Y016061D02*
X027437Y016061D01*
X027387Y015963D02*
X021302Y015963D01*
X021302Y015864D02*
X027337Y015864D01*
X027299Y015789D02*
X027299Y015789D01*
X027295Y015766D02*
X021464Y015766D01*
X021495Y015667D02*
X027279Y015667D01*
X027264Y015569D02*
X021495Y015569D01*
X021495Y015470D02*
X027248Y015470D01*
X027232Y015372D02*
X022705Y015372D01*
X022799Y015273D02*
X027227Y015273D01*
X027243Y015175D02*
X022799Y015175D01*
X022802Y015076D02*
X027258Y015076D01*
X027274Y014978D02*
X022802Y014978D01*
X022802Y014879D02*
X027289Y014879D01*
X027299Y014822D02*
X027299Y014822D01*
X027320Y014780D02*
X026539Y014780D01*
X026546Y014779D02*
X026474Y014791D01*
X026474Y014322D01*
X026942Y014322D01*
X026931Y014394D01*
X026906Y014472D01*
X026869Y014545D01*
X026821Y014611D01*
X026763Y014669D01*
X026696Y014717D01*
X026624Y014754D01*
X026546Y014779D01*
X026474Y014780D02*
X026374Y014780D01*
X026374Y014791D02*
X026302Y014779D01*
X026224Y014754D01*
X026151Y014717D01*
X026085Y014669D01*
X026027Y014611D01*
X025979Y014545D01*
X025942Y014472D01*
X025917Y014394D01*
X025905Y014322D01*
X026374Y014322D01*
X026374Y014222D01*
X026474Y014222D01*
X026474Y014322D01*
X026374Y014322D01*
X026374Y014791D01*
X026309Y014780D02*
X025033Y014780D01*
X025203Y014682D02*
X026103Y014682D01*
X026007Y014583D02*
X025302Y014583D01*
X025346Y014485D02*
X025949Y014485D01*
X025916Y014386D02*
X025386Y014386D01*
X025389Y014288D02*
X026374Y014288D01*
X026374Y014222D02*
X025905Y014222D01*
X025917Y014150D01*
X025942Y014072D01*
X025979Y014000D01*
X026027Y013933D01*
X026085Y013875D01*
X026151Y013827D01*
X026224Y013790D01*
X026302Y013765D01*
X026374Y013754D01*
X026374Y014222D01*
X026374Y014189D02*
X026474Y014189D01*
X026474Y014222D02*
X026474Y013754D01*
X026546Y013765D01*
X026624Y013790D01*
X026696Y013827D01*
X026763Y013875D01*
X026821Y013933D01*
X026869Y014000D01*
X026906Y014072D01*
X026931Y014150D01*
X026942Y014222D01*
X026474Y014222D01*
X026474Y014288D02*
X027619Y014288D01*
X027521Y014386D02*
X027521Y014386D01*
X026932Y014386D01*
X026899Y014485D02*
X027470Y014485D01*
X027420Y014583D02*
X026841Y014583D01*
X026745Y014682D02*
X027370Y014682D01*
X027718Y014189D02*
X026937Y014189D01*
X026912Y014091D02*
X027816Y014091D01*
X027867Y014040D02*
X027867Y014040D01*
X027961Y013992D02*
X026863Y013992D01*
X026781Y013894D02*
X028154Y013894D01*
X028303Y013818D02*
X028303Y013818D01*
X028448Y013795D02*
X026633Y013795D01*
X026474Y013795D02*
X026374Y013795D01*
X026374Y013894D02*
X026474Y013894D01*
X026474Y013992D02*
X026374Y013992D01*
X026374Y014091D02*
X026474Y014091D01*
X026474Y014386D02*
X026374Y014386D01*
X026374Y014485D02*
X026474Y014485D01*
X026474Y014583D02*
X026374Y014583D01*
X026374Y014682D02*
X026474Y014682D01*
X025911Y014189D02*
X025389Y014189D01*
X025358Y014091D02*
X025936Y014091D01*
X025985Y013992D02*
X025318Y013992D01*
X025234Y013894D02*
X026067Y013894D01*
X026215Y013795D02*
X025108Y013795D01*
X025500Y013105D02*
X024235Y013105D01*
X024235Y013007D02*
X025435Y013007D01*
X025435Y012908D02*
X024235Y012908D01*
X024234Y012810D02*
X025435Y012810D01*
X025435Y012711D02*
X024234Y012711D01*
X024234Y012612D02*
X025435Y012612D01*
X024588Y012514D02*
X024234Y012514D01*
X024233Y012415D02*
X024526Y012415D01*
X024526Y012317D02*
X024233Y012317D01*
X024233Y012218D02*
X024526Y012218D01*
X024526Y012120D02*
X024233Y012120D01*
X024232Y012021D02*
X024526Y012021D01*
X024526Y011923D02*
X024232Y011923D01*
X024232Y011824D02*
X024526Y011824D01*
X024526Y011726D02*
X024232Y011726D01*
X024231Y011627D02*
X024526Y011627D01*
X024609Y011529D02*
X024231Y011529D01*
X024231Y011430D02*
X024743Y011430D01*
X024646Y011331D02*
X024231Y011331D01*
X024230Y011233D02*
X024587Y011233D01*
X024556Y011134D02*
X024230Y011134D01*
X024230Y011036D02*
X024996Y011036D01*
X024583Y010839D02*
X024230Y010839D01*
X024230Y010937D02*
X024555Y010937D01*
X024640Y010740D02*
X024229Y010740D01*
X024229Y010642D02*
X024733Y010642D01*
X024614Y010335D02*
X024298Y010335D01*
X024298Y009272D01*
X021264Y009272D01*
X021226Y009181D01*
X021122Y009077D01*
X020986Y009020D01*
X020839Y009020D01*
X020631Y009020D01*
X020484Y009020D01*
X020348Y009077D01*
X020244Y009181D01*
X020188Y009317D01*
X020188Y009656D01*
X019648Y009656D01*
X019648Y009714D02*
X019655Y009756D01*
X019653Y009765D01*
X019654Y009775D01*
X019648Y009796D01*
X019648Y009818D01*
X019637Y009845D01*
X019762Y009845D01*
X019762Y010333D01*
X019862Y010330D01*
X019862Y009845D01*
X020093Y009845D01*
X020113Y009825D01*
X020191Y009825D01*
X020188Y009818D01*
X020188Y009656D01*
X020188Y009558D02*
X019648Y009558D01*
X019648Y009464D02*
X019648Y009714D01*
X019655Y009755D02*
X020188Y009755D01*
X019862Y009853D02*
X019762Y009853D01*
X019762Y009952D02*
X019862Y009952D01*
X019862Y010050D02*
X019762Y010050D01*
X019762Y010149D02*
X019862Y010149D01*
X019862Y010247D02*
X019762Y010247D01*
X019648Y009464D02*
X019648Y009317D01*
X019592Y009181D01*
X019488Y009077D01*
X019352Y009020D01*
X019037Y009020D01*
X018890Y009020D01*
X018754Y009077D01*
X018650Y009181D01*
X018593Y009317D01*
X018593Y009321D01*
X018593Y009322D01*
X018593Y009468D01*
X018593Y009469D01*
X018593Y009459D02*
X017959Y009459D01*
X017959Y009361D02*
X018593Y009361D01*
X018616Y009262D02*
X017959Y009262D01*
X017959Y009163D02*
X018667Y009163D01*
X018782Y009065D02*
X017959Y009065D01*
X017959Y008966D02*
X024550Y008966D01*
X024548Y008982D02*
X024558Y008915D01*
X024583Y008840D01*
X024618Y008770D01*
X024665Y008706D01*
X024720Y008651D01*
X024784Y008604D01*
X024854Y008569D01*
X024929Y008544D01*
X024996Y008534D01*
X024996Y008982D01*
X024548Y008982D01*
X024548Y009082D02*
X024996Y009082D01*
X024996Y008982D01*
X025096Y008982D01*
X025096Y009082D01*
X025544Y009082D01*
X025534Y009149D01*
X025509Y009224D01*
X025474Y009294D01*
X025427Y009358D01*
X025372Y009413D01*
X025308Y009460D01*
X025238Y009495D01*
X025166Y009519D01*
X025341Y009591D01*
X025439Y009690D01*
X025521Y009491D01*
X025682Y009330D01*
X025891Y009243D01*
X026118Y009243D01*
X026328Y009330D01*
X026488Y009491D01*
X026575Y009700D01*
X026575Y009927D01*
X026488Y010136D01*
X026328Y010297D01*
X026235Y010335D01*
X029632Y010335D01*
X029632Y007434D01*
X027990Y007434D01*
X027850Y007434D01*
X027798Y007382D01*
X026475Y008147D02*
X026514Y008224D01*
X026541Y008307D01*
X026554Y008386D01*
X026055Y008386D01*
X026055Y008485D01*
X026554Y008485D01*
X026541Y008564D01*
X026514Y008647D01*
X026475Y008724D01*
X026424Y008794D01*
X026363Y008855D01*
X026293Y008906D01*
X026216Y008945D01*
X026133Y008972D01*
X026055Y008984D01*
X026055Y008486D01*
X025955Y008486D01*
X025955Y008984D01*
X025876Y008972D01*
X025794Y008945D01*
X025716Y008906D01*
X025646Y008855D01*
X025585Y008794D01*
X025534Y008724D01*
X025495Y008647D01*
X025468Y008564D01*
X025456Y008485D01*
X025954Y008485D01*
X025954Y008386D01*
X025456Y008386D01*
X025468Y008307D01*
X025495Y008224D01*
X025534Y008147D01*
X025585Y008077D01*
X025646Y008016D01*
X025716Y007965D01*
X025794Y007926D01*
X025876Y007899D01*
X025955Y007887D01*
X025955Y008385D01*
X026055Y008385D01*
X026055Y007887D01*
X026133Y007899D01*
X026216Y007926D01*
X026293Y007965D01*
X026363Y008016D01*
X026424Y008077D01*
X026475Y008147D01*
X026491Y008178D02*
X029632Y008178D01*
X029632Y008079D02*
X026426Y008079D01*
X026315Y007981D02*
X029632Y007981D01*
X029632Y007882D02*
X017959Y007882D01*
X017959Y007784D02*
X029632Y007784D01*
X029632Y007685D02*
X017959Y007685D01*
X017959Y007587D02*
X029632Y007587D01*
X029632Y007488D02*
X017959Y007488D01*
X017959Y007981D02*
X025695Y007981D01*
X025583Y008079D02*
X017959Y008079D01*
X017959Y008178D02*
X025519Y008178D01*
X025478Y008277D02*
X017959Y008277D01*
X017959Y008375D02*
X025457Y008375D01*
X025471Y008572D02*
X025245Y008572D01*
X025238Y008569D02*
X025308Y008604D01*
X025372Y008651D01*
X025427Y008706D01*
X025474Y008770D01*
X025509Y008840D01*
X025534Y008915D01*
X025544Y008982D01*
X025096Y008982D01*
X025096Y008534D01*
X025163Y008544D01*
X025238Y008569D01*
X025096Y008572D02*
X024996Y008572D01*
X024996Y008671D02*
X025096Y008671D01*
X025096Y008769D02*
X024996Y008769D01*
X024996Y008868D02*
X025096Y008868D01*
X025096Y008966D02*
X024996Y008966D01*
X024996Y009065D02*
X021094Y009065D01*
X021209Y009163D02*
X024563Y009163D01*
X024558Y009149D02*
X024548Y009082D01*
X024558Y009149D02*
X024583Y009224D01*
X024618Y009294D01*
X024665Y009358D01*
X024720Y009413D01*
X024784Y009460D01*
X024854Y009495D01*
X024926Y009519D01*
X024751Y009591D01*
X024605Y009737D01*
X024526Y009929D01*
X024526Y010135D01*
X024605Y010326D01*
X024614Y010335D01*
X024572Y010247D02*
X024298Y010247D01*
X024298Y010149D02*
X024532Y010149D01*
X024526Y010050D02*
X024298Y010050D01*
X024298Y009952D02*
X024526Y009952D01*
X024557Y009853D02*
X024298Y009853D01*
X024298Y009755D02*
X024598Y009755D01*
X024686Y009656D02*
X024298Y009656D01*
X024298Y009558D02*
X024832Y009558D01*
X024783Y009459D02*
X024298Y009459D01*
X024298Y009361D02*
X024667Y009361D01*
X024602Y009262D02*
X021259Y009262D01*
X020376Y009065D02*
X019460Y009065D01*
X019575Y009163D02*
X020261Y009163D01*
X020210Y009262D02*
X019626Y009262D01*
X019648Y009361D02*
X020188Y009361D01*
X020188Y009459D02*
X019648Y009459D01*
X017959Y008868D02*
X024574Y008868D01*
X024619Y008769D02*
X017959Y008769D01*
X017959Y008671D02*
X024700Y008671D01*
X024847Y008572D02*
X017959Y008572D01*
X017959Y008474D02*
X025954Y008474D01*
X025955Y008572D02*
X026055Y008572D01*
X026055Y008474D02*
X029632Y008474D01*
X029632Y008572D02*
X026539Y008572D01*
X026502Y008671D02*
X029632Y008671D01*
X029632Y008769D02*
X026442Y008769D01*
X026345Y008868D02*
X029632Y008868D01*
X029632Y008966D02*
X026151Y008966D01*
X026055Y008966D02*
X025955Y008966D01*
X025859Y008966D02*
X025542Y008966D01*
X025518Y008868D02*
X025664Y008868D01*
X025567Y008769D02*
X025473Y008769D01*
X025507Y008671D02*
X025392Y008671D01*
X025096Y009065D02*
X029632Y009065D01*
X029632Y009163D02*
X025529Y009163D01*
X025490Y009262D02*
X025846Y009262D01*
X025651Y009361D02*
X025424Y009361D01*
X025309Y009459D02*
X025553Y009459D01*
X025494Y009558D02*
X025260Y009558D01*
X025406Y009656D02*
X025453Y009656D01*
X026163Y009262D02*
X029632Y009262D01*
X029632Y009361D02*
X026358Y009361D01*
X026456Y009459D02*
X029632Y009459D01*
X029632Y009558D02*
X026516Y009558D01*
X026556Y009656D02*
X029632Y009656D01*
X029632Y009755D02*
X026575Y009755D01*
X026575Y009853D02*
X029632Y009853D01*
X029632Y009952D02*
X026564Y009952D01*
X026523Y010050D02*
X029632Y010050D01*
X029632Y010149D02*
X026475Y010149D01*
X026377Y010247D02*
X029632Y010247D01*
X029632Y010642D02*
X025359Y010642D01*
X025452Y010740D02*
X025690Y010740D01*
X025581Y010839D02*
X025509Y010839D01*
X025535Y011141D02*
X025534Y011149D01*
X025509Y011224D01*
X025500Y011241D01*
X025954Y011241D01*
X025954Y011141D01*
X025535Y011141D01*
X025505Y011233D02*
X025954Y011233D01*
X025955Y011331D02*
X026055Y011331D01*
X026055Y011233D02*
X029632Y011233D01*
X029632Y011331D02*
X026537Y011331D01*
X026500Y011430D02*
X029632Y011430D01*
X029632Y011529D02*
X026440Y011529D01*
X026341Y011627D02*
X029632Y011627D01*
X029632Y011726D02*
X026140Y011726D01*
X026055Y011726D02*
X025955Y011726D01*
X025869Y011726D02*
X025566Y011726D01*
X025566Y011824D02*
X029632Y011824D01*
X029632Y011923D02*
X025566Y011923D01*
X025566Y011627D02*
X025669Y011627D01*
X025570Y011529D02*
X025483Y011529D01*
X025509Y011430D02*
X025349Y011430D01*
X025446Y011331D02*
X025472Y011331D01*
X025955Y011430D02*
X026055Y011430D01*
X026055Y011529D02*
X025955Y011529D01*
X025955Y011627D02*
X026055Y011627D01*
X026497Y012021D02*
X029632Y012021D01*
X029632Y012120D02*
X026575Y012120D01*
X026575Y012218D02*
X029632Y012218D01*
X029632Y012317D02*
X026575Y012317D01*
X026575Y012415D02*
X029632Y012415D01*
X029632Y012514D02*
X026575Y012514D01*
X026575Y012612D02*
X029632Y012612D01*
X029632Y012711D02*
X026575Y012711D01*
X026575Y012810D02*
X029632Y012810D01*
X029632Y012908D02*
X026575Y012908D01*
X026575Y013007D02*
X029632Y013007D01*
X029632Y013105D02*
X026509Y013105D01*
X028786Y013741D02*
X028786Y013741D01*
X029125Y013795D02*
X029632Y013795D01*
X029632Y013894D02*
X029418Y013894D01*
X029611Y013992D02*
X029632Y013992D01*
X028221Y016751D02*
X017959Y016751D01*
X017959Y016850D02*
X028660Y016850D01*
X028786Y016870D02*
X028786Y016870D01*
X028793Y016948D02*
X017959Y016948D01*
X017959Y017047D02*
X028695Y017047D01*
X028632Y017145D02*
X017959Y017145D01*
X017959Y017244D02*
X028632Y017244D01*
X028632Y017343D02*
X017959Y017343D01*
X017959Y017441D02*
X028632Y017441D01*
X028632Y017540D02*
X017959Y017540D01*
X017959Y017638D02*
X028632Y017638D01*
X028632Y017737D02*
X017959Y017737D01*
X017959Y017835D02*
X028632Y017835D01*
X028632Y017934D02*
X017959Y017934D01*
X017959Y018032D02*
X028632Y018032D01*
X028632Y018131D02*
X017959Y018131D01*
X016977Y018553D02*
X016977Y018630D01*
X016977Y018553D02*
X016975Y018551D01*
X019527Y016554D02*
X020322Y016554D01*
X020245Y016456D02*
X019606Y016456D01*
X019647Y016357D02*
X020209Y016357D01*
X020207Y016259D02*
X019648Y016259D01*
X019648Y016160D02*
X020207Y016160D01*
X020207Y016061D02*
X019648Y016061D01*
X019648Y015963D02*
X020207Y015963D01*
X020207Y015864D02*
X019648Y015864D01*
X019762Y015766D02*
X019862Y015766D01*
X019862Y015667D02*
X019762Y015667D01*
X019762Y015569D02*
X019862Y015569D01*
X019862Y015470D02*
X019762Y015470D01*
X019762Y015372D02*
X019862Y015372D01*
X021495Y015372D02*
X021639Y015372D01*
X021544Y015273D02*
X021495Y015273D01*
X021495Y015175D02*
X021504Y015175D01*
X022105Y015372D02*
X022239Y015372D01*
X022802Y014780D02*
X024665Y014780D01*
X028303Y016793D02*
X028303Y016793D01*
X029632Y011134D02*
X026552Y011134D01*
X026554Y011141D02*
X026055Y011141D01*
X026055Y010642D01*
X026133Y010655D01*
X026216Y010682D01*
X026293Y010721D01*
X026363Y010772D01*
X026424Y010833D01*
X026475Y010903D01*
X026514Y010980D01*
X026541Y011063D01*
X026554Y011141D01*
X026532Y011036D02*
X029632Y011036D01*
X029632Y010937D02*
X026492Y010937D01*
X026428Y010839D02*
X029632Y010839D01*
X029632Y010740D02*
X026319Y010740D01*
X026055Y010740D02*
X025955Y010740D01*
X025955Y010839D02*
X026055Y010839D01*
X026055Y010937D02*
X025955Y010937D01*
X025955Y011036D02*
X026055Y011036D01*
X026055Y011134D02*
X025955Y011134D01*
X024003Y010740D02*
X023882Y010740D01*
X023879Y010642D02*
X024003Y010642D01*
X024003Y010543D02*
X023812Y010543D01*
X023755Y010357D02*
X023717Y010367D01*
X023491Y010367D01*
X023491Y009952D01*
X023847Y009952D01*
X023847Y010237D01*
X023837Y010275D01*
X023817Y010309D01*
X023789Y010337D01*
X023755Y010357D01*
X023774Y010346D02*
X024003Y010346D01*
X024003Y010247D02*
X023844Y010247D01*
X023847Y010149D02*
X024003Y010149D01*
X024003Y010050D02*
X023847Y010050D01*
X024003Y009952D02*
X023491Y009952D01*
X023491Y010050D02*
X023391Y010050D01*
X023391Y009952D02*
X023391Y010367D01*
X023166Y010367D01*
X023127Y010357D01*
X023093Y010337D01*
X023065Y010309D01*
X023046Y010275D01*
X023035Y010237D01*
X023035Y009952D01*
X023391Y009952D01*
X022606Y009952D01*
X022606Y010050D02*
X023035Y010050D01*
X023035Y010149D02*
X022606Y010149D01*
X022606Y010247D02*
X023038Y010247D01*
X023109Y010346D02*
X022140Y010346D01*
X022027Y010445D02*
X024003Y010445D01*
X023603Y010543D02*
X023546Y010543D01*
X023546Y010642D02*
X023603Y010642D01*
X023603Y010740D02*
X023546Y010740D01*
X023545Y010839D02*
X023241Y010839D01*
X023241Y010937D02*
X023267Y010937D01*
X023275Y011036D02*
X023235Y011036D01*
X023241Y010740D02*
X023267Y010740D01*
X023269Y010642D02*
X023241Y010642D01*
X023336Y010543D02*
X021982Y010543D01*
X021982Y010642D02*
X022169Y010642D01*
X022045Y010740D02*
X021982Y010740D01*
X022606Y009853D02*
X023391Y009853D01*
X023491Y009853D02*
X024003Y009853D01*
X024003Y009755D02*
X023847Y009755D01*
X023847Y009656D02*
X024003Y009656D01*
X023491Y010149D02*
X023391Y010149D01*
X023391Y010247D02*
X023491Y010247D01*
X023491Y010346D02*
X023391Y010346D01*
X023035Y009755D02*
X022606Y009755D01*
X022606Y009656D02*
X023035Y009656D01*
X025955Y008868D02*
X026055Y008868D01*
X026055Y008769D02*
X025955Y008769D01*
X025955Y008671D02*
X026055Y008671D01*
X026055Y008375D02*
X025955Y008375D01*
X025955Y008277D02*
X026055Y008277D01*
X026055Y008178D02*
X025955Y008178D01*
X025955Y008079D02*
X026055Y008079D01*
X026055Y007981D02*
X025955Y007981D01*
X026531Y008277D02*
X029632Y008277D01*
X029632Y008375D02*
X026552Y008375D01*
X017822Y012908D02*
X017772Y012908D01*
D140*
X018018Y013091D03*
X017997Y012695D03*
X018154Y012302D03*
X018698Y012491D03*
X019355Y012302D03*
X020263Y012205D03*
X020300Y012813D03*
X020871Y012833D03*
X021266Y013091D03*
X021109Y013445D03*
X020595Y013719D03*
X020162Y014270D03*
X020509Y014577D03*
X019493Y014270D03*
X019158Y013896D03*
X018698Y014252D03*
X018007Y014300D03*
X018381Y013689D03*
X018991Y013158D03*
X019788Y013739D03*
X020890Y012203D03*
X021266Y011871D03*
X020930Y011514D03*
X020123Y011514D03*
X018961Y011514D03*
X018154Y011514D03*
X016540Y012873D03*
X015646Y013534D03*
X015646Y014420D03*
X016522Y014597D03*
X016463Y013997D03*
X014652Y013052D03*
X013806Y012697D03*
X013451Y010945D03*
X014554Y010040D03*
X015282Y007678D03*
X016599Y007400D03*
X016973Y007400D03*
X017347Y007400D03*
X018432Y006949D03*
X016070Y006201D03*
X011463Y003445D03*
X011424Y002304D03*
X006148Y010138D03*
X004928Y010611D03*
X005046Y011615D03*
X005558Y012067D03*
X005637Y012461D03*
X005440Y012934D03*
X004534Y013406D03*
X004928Y014626D03*
X003826Y014863D03*
X006385Y013800D03*
X007605Y013760D03*
X008058Y014489D03*
X008058Y015079D03*
X007605Y015178D03*
X008058Y015867D03*
X007467Y016457D03*
X006385Y016556D03*
X007566Y017934D03*
X007999Y018209D03*
X006385Y019311D03*
X006385Y020768D03*
X003747Y019823D03*
X003826Y017225D03*
X006739Y011615D03*
X012310Y014863D03*
X013068Y014617D03*
X013068Y015650D03*
X014062Y016319D03*
X016601Y017943D03*
X016975Y017943D03*
X017349Y017943D03*
X014140Y018977D03*
X022723Y013485D03*
X021650Y010434D03*
D141*
X020263Y012205D02*
X020558Y012500D01*
X022044Y012500D01*
X022093Y012515D01*
X021995Y012796D02*
X022093Y012830D01*
X021995Y012796D02*
X021483Y012796D01*
X021109Y013445D02*
X021365Y013701D01*
X021404Y013701D01*
X021522Y013819D01*
X021660Y013819D01*
X021700Y013780D01*
X022034Y013780D01*
X022093Y013775D01*
X022093Y013780D01*
X021995Y014075D02*
X022093Y014090D01*
X021995Y014075D02*
X021483Y014075D01*
X021483Y014459D02*
X021995Y014459D01*
X022093Y014405D01*
X022093Y013460D02*
X022639Y013460D01*
X022723Y013485D01*
X022093Y013460D02*
X022093Y013436D01*
X018698Y014252D02*
X018698Y012491D01*
X017772Y012796D02*
X017261Y012796D01*
X017211Y012830D01*
X017172Y013140D02*
X016926Y013140D01*
X016877Y013189D01*
X015548Y013189D01*
X015302Y013436D01*
X015302Y013977D01*
X014810Y014469D01*
X014810Y015296D01*
X014436Y015670D01*
X014436Y019725D01*
X014810Y020099D01*
X014810Y020670D01*
X015203Y020099D02*
X015203Y021278D01*
X015202Y021280D01*
X016188Y021266D02*
X016188Y020630D01*
X014869Y019311D01*
X014869Y015886D01*
X015302Y015453D01*
X015302Y014666D01*
X015548Y014420D01*
X015056Y014567D02*
X015056Y015365D01*
X014652Y015768D01*
X014652Y019548D01*
X015203Y020099D01*
X014140Y018977D02*
X014140Y016450D01*
X014104Y016361D02*
X014062Y016319D01*
X014103Y016362D02*
X014116Y016377D01*
X014126Y016393D01*
X014134Y016411D01*
X014138Y016430D01*
X014140Y016450D01*
X013068Y015650D02*
X013068Y014617D01*
X012310Y014863D02*
X012310Y015873D01*
X010883Y017300D01*
X010833Y017264D02*
X009613Y017264D01*
X006581Y020296D01*
X005951Y020296D01*
X005951Y020281D01*
X005440Y020611D02*
X005440Y020847D01*
X005518Y020926D01*
X005518Y021044D01*
X005951Y021044D01*
X005951Y021059D01*
X006385Y020768D02*
X006385Y021634D01*
X006345Y021674D01*
X005951Y021674D01*
X005951Y021659D01*
X005164Y021319D02*
X004967Y021319D01*
X004928Y021359D01*
X004377Y021359D01*
X004377Y021339D01*
X004908Y020611D02*
X004928Y020611D01*
X004928Y020138D01*
X005400Y019666D01*
X005951Y019666D01*
X005951Y019681D01*
X006385Y019311D02*
X006385Y018957D01*
X006345Y018918D01*
X005951Y018918D01*
X005951Y018903D01*
X006542Y018839D02*
X006621Y018918D01*
X007133Y018918D01*
X007133Y018903D01*
X007172Y018918D01*
X007684Y018918D01*
X009889Y016713D01*
X010873Y016713D01*
X010873Y016319D01*
X010883Y016300D01*
X010873Y015414D02*
X010873Y015335D01*
X010883Y015300D01*
X010873Y015414D02*
X009534Y015414D01*
X008786Y016162D01*
X007172Y016162D01*
X007133Y016147D01*
X007133Y016162D01*
X006621Y016162D01*
X006542Y016083D01*
X006542Y014941D01*
X006385Y014784D01*
X005951Y014784D01*
X005951Y014769D01*
X005518Y014626D02*
X004928Y015217D01*
X004928Y015886D01*
X004908Y015886D01*
X005420Y015886D02*
X005440Y015886D01*
X005440Y015532D01*
X005951Y015532D01*
X005951Y015547D01*
X005951Y016147D02*
X005951Y016162D01*
X006345Y016162D01*
X006385Y016201D01*
X006385Y016556D01*
X005951Y016910D02*
X005951Y016925D01*
X005951Y016910D02*
X005479Y016910D01*
X004928Y017461D01*
X004928Y018249D01*
X004908Y018249D01*
X005420Y018249D02*
X005440Y018249D01*
X005440Y018288D01*
X005951Y018288D01*
X005951Y018303D01*
X006542Y018839D02*
X006542Y017737D01*
X006345Y017540D01*
X005951Y017540D01*
X005951Y017525D01*
X004967Y016595D02*
X004928Y016634D01*
X004377Y016634D01*
X004377Y016615D01*
X004967Y016595D02*
X005164Y016595D01*
X004377Y017441D02*
X004042Y017441D01*
X003826Y017225D01*
X004377Y017441D02*
X004377Y017461D01*
X004967Y018957D02*
X004928Y018997D01*
X004377Y018997D01*
X004377Y018977D01*
X004967Y018957D02*
X005164Y018957D01*
X005420Y020611D02*
X005440Y020611D01*
X007133Y018303D02*
X007133Y018288D01*
X007526Y018288D01*
X007566Y018249D01*
X007566Y017934D01*
X007763Y017540D02*
X007133Y017540D01*
X007133Y017525D01*
X007133Y016930D02*
X007133Y016925D01*
X007133Y016930D02*
X007448Y016930D01*
X007467Y016910D01*
X007467Y016457D01*
X008058Y015867D02*
X008058Y015079D01*
X008235Y014784D02*
X007172Y014784D01*
X007133Y014769D01*
X007093Y014784D01*
X006778Y014784D01*
X006739Y014745D01*
X006739Y013997D01*
X006700Y013957D01*
X006700Y013721D01*
X006621Y013642D01*
X006621Y013367D01*
X006542Y013288D01*
X006542Y012107D01*
X006463Y012028D01*
X005951Y012028D01*
X005951Y012013D01*
X005558Y012067D02*
X005558Y011516D01*
X005676Y011398D01*
X005951Y011398D01*
X005951Y011413D01*
X006739Y011615D02*
X006739Y012776D01*
X006759Y012796D01*
X007133Y012796D01*
X007133Y012791D01*
X007133Y013391D02*
X007133Y013406D01*
X007448Y013406D01*
X007448Y013563D01*
X007566Y013682D01*
X007566Y013721D01*
X007605Y013760D01*
X007605Y014115D01*
X007566Y014154D01*
X007133Y014154D01*
X007133Y014169D01*
X008058Y014489D02*
X008058Y012028D01*
X007605Y012028D01*
X006483Y010906D01*
X004554Y010906D01*
X004396Y010749D01*
X004396Y010367D01*
X004392Y010363D01*
X005100Y010438D02*
X005174Y010512D01*
X006424Y010512D01*
X007372Y011460D01*
X007460Y011497D02*
X013412Y011497D01*
X014183Y010726D01*
X014219Y010638D02*
X014219Y009311D01*
X016033Y007498D01*
X016070Y007409D02*
X016070Y006201D01*
X016070Y007409D02*
X016068Y007429D01*
X016064Y007448D01*
X016056Y007466D01*
X016046Y007482D01*
X016033Y007497D01*
X015282Y007678D02*
X015282Y007803D01*
X015246Y007891D02*
X013904Y009233D01*
X013904Y010441D01*
X013868Y010529D02*
X013451Y010945D01*
X013867Y010529D02*
X013880Y010514D01*
X013890Y010498D01*
X013898Y010480D01*
X013902Y010461D01*
X013904Y010441D01*
X014219Y010638D02*
X014217Y010658D01*
X014213Y010677D01*
X014205Y010695D01*
X014195Y010711D01*
X014182Y010726D01*
X014554Y010040D02*
X014554Y011898D01*
X014517Y011986D02*
X013806Y012697D01*
X014652Y013052D02*
X009652Y013052D01*
X008629Y012028D01*
X008058Y012028D01*
X007460Y011497D02*
X007440Y011495D01*
X007421Y011491D01*
X007403Y011483D01*
X007387Y011473D01*
X007372Y011460D01*
X005951Y012776D02*
X005951Y012791D01*
X005951Y012776D02*
X005676Y012776D01*
X005637Y012737D01*
X005637Y012461D01*
X005637Y012422D01*
X005440Y012934D02*
X005440Y013524D01*
X005420Y013524D01*
X005164Y013288D02*
X004967Y013091D01*
X004967Y012815D01*
X004889Y012737D01*
X004416Y012737D01*
X004392Y012729D01*
X004534Y013406D02*
X004534Y014272D01*
X004416Y014272D01*
X004392Y014264D01*
X004889Y014469D02*
X004889Y013997D01*
X004928Y013957D01*
X004928Y013524D01*
X004908Y013524D01*
X005164Y013288D02*
X005164Y014233D01*
X005518Y014193D02*
X005558Y014154D01*
X005951Y014154D01*
X005951Y014169D01*
X005518Y014193D02*
X005518Y014626D01*
X004928Y014626D02*
X004928Y014508D01*
X004889Y014469D01*
X004377Y015079D02*
X004042Y015079D01*
X003826Y014863D01*
X004377Y015079D02*
X004377Y015099D01*
X007133Y015532D02*
X007133Y015547D01*
X007133Y015532D02*
X007566Y015532D01*
X007605Y015493D01*
X007605Y015178D01*
X008235Y014784D02*
X008471Y014548D01*
X010873Y014548D01*
X010873Y014351D01*
X010883Y014300D01*
X010922Y014272D01*
X013826Y014272D01*
X015400Y012697D01*
X015824Y012697D01*
X016316Y012205D01*
X017172Y012205D01*
X017211Y012200D01*
X017172Y012500D02*
X017211Y012515D01*
X017172Y012500D02*
X016453Y012500D01*
X016011Y012943D01*
X015450Y012943D01*
X015056Y013337D01*
X015056Y013878D01*
X014564Y014371D01*
X014564Y015148D01*
X011335Y018357D01*
X010971Y018357D01*
X010922Y018308D01*
X010883Y018300D01*
X007999Y018209D02*
X007999Y017776D01*
X007763Y017540D01*
X004770Y011890D02*
X004396Y011890D01*
X004392Y011898D01*
X004770Y011890D02*
X005046Y011615D01*
X014517Y011986D02*
X014530Y011971D01*
X014540Y011955D01*
X014548Y011937D01*
X014552Y011918D01*
X014554Y011898D01*
X015843Y013436D02*
X017172Y013436D01*
X017211Y013460D01*
X017172Y013780D02*
X016778Y013780D01*
X016680Y013682D01*
X015942Y013682D01*
X015056Y014567D01*
X016068Y014124D02*
X016070Y014036D01*
X016463Y014036D01*
X016463Y013997D01*
X016503Y014075D01*
X017133Y014075D01*
X017211Y014090D01*
X015843Y013436D02*
X015745Y013534D01*
X019276Y009730D02*
X019271Y009686D01*
X015245Y007891D02*
X015258Y007876D01*
X015268Y007860D01*
X015276Y007842D01*
X015280Y007823D01*
X015282Y007803D01*
X016188Y021266D02*
X016202Y021280D01*
D142*
X016188Y021260D01*
X017172Y021260D02*
X017202Y021280D01*
X017172Y021260D02*
X017172Y019784D01*
X017174Y019780D01*
X018156Y019784D02*
X018174Y019780D01*
X018156Y019784D02*
X018156Y021260D01*
X018202Y021280D01*
X019190Y021260D02*
X019202Y021280D01*
X019190Y021260D02*
X019190Y019784D01*
X019174Y019780D01*
X020802Y019780D02*
X020814Y019784D01*
X020814Y021260D01*
X020802Y021280D01*
X021798Y021260D02*
X021802Y021280D01*
X021798Y021260D02*
X021798Y019784D01*
X021802Y019780D01*
X022782Y019784D02*
X022802Y019780D01*
X022782Y019784D02*
X022782Y021260D01*
X022802Y021280D01*
X023802Y021280D02*
X023816Y021260D01*
X023816Y019784D01*
X023802Y019780D01*
X024800Y019784D02*
X024802Y019780D01*
X024800Y019784D02*
X024800Y021260D01*
X024802Y021280D01*
X025784Y021260D02*
X025802Y021280D01*
X025784Y021260D02*
X025784Y019784D01*
X025802Y019780D01*
X020282Y015271D02*
X020272Y015256D01*
X020272Y014813D01*
X020509Y014577D01*
X020627Y014577D01*
X020755Y014705D01*
X021385Y014705D01*
X021503Y014823D01*
X021739Y015054D01*
X021872Y015050D01*
X023660Y013564D02*
X023471Y013327D01*
X023235Y013327D01*
X023077Y013170D01*
X023018Y013130D01*
X022172Y013130D01*
X022093Y013145D01*
X022044Y013140D01*
X021316Y013140D01*
X021266Y013091D01*
X022093Y013145D02*
X022093Y013140D01*
X022861Y012186D02*
X023087Y012186D01*
X022975Y012212D01*
X022620Y011885D02*
X022093Y011885D01*
X022014Y011871D01*
X021266Y011871D01*
X021227Y011871D01*
X022093Y011885D02*
X022093Y011861D01*
X022093Y011570D02*
X022748Y011570D01*
X022841Y011575D01*
X022978Y011575D01*
X022975Y011612D01*
X022974Y010827D02*
X022251Y010827D01*
X022054Y010965D01*
X021793Y010965D01*
X021793Y010434D01*
X021650Y010434D01*
X021793Y010965D02*
X020322Y010965D01*
X020282Y010926D01*
X020282Y010414D01*
X020282Y010389D01*
X020272Y010384D01*
X022093Y011565D02*
X022093Y011570D01*
X023666Y012212D02*
X023668Y012210D01*
X018707Y010926D02*
X018707Y010389D01*
X017211Y011255D02*
X017186Y011280D01*
X016896Y011280D01*
X016901Y011088D01*
X016882Y010337D01*
X017211Y011570D02*
X017861Y011570D01*
X017861Y011565D01*
X017172Y012815D02*
X016673Y012815D01*
X016584Y012852D02*
X016542Y012894D01*
X016540Y012889D02*
X016540Y012873D01*
X016540Y012889D02*
X016541Y012892D01*
X016542Y012894D01*
X016585Y012852D02*
X016600Y012839D01*
X016616Y012829D01*
X016634Y012821D01*
X016653Y012817D01*
X016673Y012815D01*
X017172Y013140D02*
X017211Y013145D01*
X018018Y013091D02*
X018018Y013800D01*
X017723Y014095D01*
X017216Y014095D01*
X017211Y014090D01*
X017270Y014075D01*
X017211Y013775D02*
X017172Y013780D01*
X017211Y014405D02*
X017186Y014430D01*
X016936Y014430D01*
X016916Y014508D01*
X016916Y015079D01*
X016680Y015315D01*
X016669Y015313D01*
X016404Y014715D02*
X016089Y014715D01*
X016068Y014724D01*
X016404Y014715D02*
X016522Y014597D01*
X017172Y014420D02*
X017211Y014405D01*
X018707Y014705D02*
X018707Y014725D01*
X018707Y015271D01*
X015745Y013534D02*
X015646Y013534D01*
X015646Y014420D02*
X015548Y014420D01*
X010883Y017300D02*
X010833Y017264D01*
X014810Y020670D02*
X014219Y021260D01*
X014202Y021280D01*
X015056Y021162D02*
X015154Y021260D01*
X015202Y021280D01*
X006385Y013800D02*
X006385Y013445D01*
X006345Y013406D01*
X005951Y013406D01*
X005951Y013391D01*
X004928Y010611D02*
X005100Y010438D01*
X005100Y010117D01*
X005700Y010117D02*
X005742Y010138D01*
X006148Y010138D01*
X007147Y009226D02*
X007224Y009282D01*
X007310Y009326D01*
X007401Y009355D01*
X007496Y009370D01*
X007524Y009370D01*
X007524Y008781D01*
X007564Y008781D01*
X007564Y009370D01*
X007592Y009370D01*
X007687Y009355D01*
X007694Y009353D01*
X007694Y009530D01*
X003042Y009546D01*
X003042Y008644D01*
X003076Y008710D01*
X003126Y008780D01*
X003188Y008841D01*
X003258Y008892D01*
X003335Y008931D01*
X003417Y008958D01*
X003503Y008972D01*
X003526Y008972D01*
X003526Y008442D01*
X003566Y008442D01*
X003566Y008972D01*
X003589Y008972D01*
X003675Y008958D01*
X003757Y008931D01*
X003834Y008892D01*
X003904Y008841D01*
X003965Y008780D01*
X004016Y008710D01*
X004046Y008652D01*
X004076Y008710D01*
X004126Y008780D01*
X004188Y008841D01*
X004258Y008892D01*
X004335Y008931D01*
X004417Y008958D01*
X004503Y008972D01*
X004526Y008972D01*
X004526Y008442D01*
X004566Y008442D01*
X004566Y008972D01*
X004589Y008972D01*
X004675Y008958D01*
X004757Y008931D01*
X004834Y008892D01*
X004904Y008841D01*
X004965Y008780D01*
X005016Y008710D01*
X005056Y008633D01*
X005082Y008551D01*
X005096Y008465D01*
X005096Y008442D01*
X004566Y008442D01*
X004566Y008402D01*
X005096Y008402D01*
X005096Y008378D01*
X005082Y008293D01*
X005056Y008211D01*
X005016Y008133D01*
X004965Y008063D01*
X004904Y008002D01*
X004834Y007951D01*
X004757Y007912D01*
X004675Y007885D01*
X004589Y007872D01*
X004566Y007872D01*
X004566Y008401D01*
X004526Y008401D01*
X004526Y007872D01*
X004503Y007872D01*
X004417Y007885D01*
X004335Y007912D01*
X004258Y007951D01*
X004188Y008002D01*
X004126Y008063D01*
X004076Y008133D01*
X004046Y008192D01*
X004016Y008133D01*
X003965Y008063D01*
X003904Y008002D01*
X003834Y007951D01*
X003757Y007912D01*
X003675Y007885D01*
X003589Y007872D01*
X003566Y007872D01*
X003566Y008401D01*
X003526Y008401D01*
X003526Y007872D01*
X003503Y007872D01*
X003417Y007885D01*
X003335Y007912D01*
X003258Y007951D01*
X003188Y008002D01*
X003126Y008063D01*
X003076Y008133D01*
X003042Y008200D01*
X003042Y001520D01*
X007012Y001520D01*
X006916Y001685D01*
X006882Y001814D01*
X006875Y001807D01*
X006626Y001664D01*
X006349Y001590D01*
X006062Y001590D01*
X005785Y001664D01*
X005536Y001807D01*
X005333Y002010D01*
X005190Y002259D01*
X005115Y002536D01*
X005115Y002823D01*
X005190Y003100D01*
X005333Y003349D01*
X005536Y003552D01*
X005785Y003695D01*
X006062Y003770D01*
X006349Y003770D01*
X006626Y003695D01*
X006875Y003552D01*
X007078Y003349D01*
X007151Y003222D01*
X007393Y003464D01*
X007466Y003507D01*
X007466Y004450D01*
X007307Y004450D01*
X007307Y003502D01*
X007214Y003513D01*
X007101Y003539D01*
X006992Y003577D01*
X006887Y003627D01*
X006790Y003689D01*
X006699Y003761D01*
X006617Y003843D01*
X006545Y003933D01*
X006484Y004031D01*
X006433Y004135D01*
X006395Y004244D01*
X006369Y004357D01*
X006359Y004450D01*
X007306Y004450D01*
X007306Y004610D01*
X006359Y004610D01*
X006369Y004703D01*
X006395Y004816D01*
X006433Y004925D01*
X006484Y005029D01*
X006545Y005127D01*
X006617Y005217D01*
X006699Y005299D01*
X006790Y005371D01*
X006887Y005433D01*
X006992Y005483D01*
X007101Y005521D01*
X007214Y005547D01*
X007307Y005557D01*
X007307Y004610D01*
X007466Y004610D01*
X007466Y005557D01*
X007559Y005547D01*
X007672Y005521D01*
X007781Y005483D01*
X007886Y005433D01*
X007983Y005371D01*
X008074Y005299D01*
X008156Y005217D01*
X008228Y005127D01*
X008289Y005029D01*
X008340Y004925D01*
X008378Y004816D01*
X008404Y004703D01*
X008414Y004610D01*
X007467Y004610D01*
X007467Y004450D01*
X008414Y004450D01*
X008404Y004357D01*
X008378Y004244D01*
X008340Y004135D01*
X008289Y004031D01*
X008228Y003933D01*
X008156Y003843D01*
X008074Y003761D01*
X008059Y003749D01*
X008116Y003764D01*
X008511Y003764D01*
X008893Y003662D01*
X009235Y003464D01*
X009514Y003185D01*
X009711Y002843D01*
X009814Y002462D01*
X009814Y002067D01*
X009711Y001685D01*
X009616Y001520D01*
X021188Y001520D01*
X021142Y001523D01*
X021076Y001524D01*
X021070Y001527D01*
X021064Y001527D01*
X021005Y001555D01*
X020945Y001582D01*
X020941Y001587D01*
X020935Y001589D01*
X020892Y001638D01*
X020846Y001686D01*
X020844Y001692D01*
X020828Y001710D01*
X020566Y001710D01*
X020302Y001974D01*
X020038Y001710D01*
X019566Y001710D01*
X019302Y001974D01*
X019038Y001710D01*
X018566Y001710D01*
X018302Y001974D01*
X018038Y001710D01*
X017566Y001710D01*
X017302Y001974D01*
X017038Y001710D01*
X016566Y001710D01*
X016302Y001974D01*
X016038Y001710D01*
X015566Y001710D01*
X015232Y002044D01*
X015232Y002516D01*
X015566Y002850D01*
X016038Y002850D01*
X016302Y002586D01*
X016566Y002850D01*
X017038Y002850D01*
X017302Y002586D01*
X017566Y002850D01*
X018038Y002850D01*
X018302Y002586D01*
X018566Y002850D01*
X019038Y002850D01*
X019302Y002586D01*
X019566Y002850D01*
X020038Y002850D01*
X020302Y002586D01*
X020566Y002850D01*
X021038Y002850D01*
X021372Y002516D01*
X021372Y002316D01*
X021379Y002324D01*
X021468Y002361D01*
X021813Y002361D01*
X021901Y002324D01*
X021925Y002301D01*
X021995Y002301D01*
X021995Y002194D01*
X021995Y002194D01*
X021995Y002301D01*
X022144Y002301D01*
X022189Y002288D01*
X022230Y002265D01*
X022232Y002263D01*
X022232Y002516D01*
X022462Y002746D01*
X022462Y003260D01*
X022456Y003263D01*
X022285Y003434D01*
X022192Y003659D01*
X022192Y003901D01*
X022285Y004126D01*
X022456Y004297D01*
X022681Y004390D01*
X022923Y004390D01*
X023147Y004297D01*
X023302Y004143D01*
X023456Y004297D01*
X023681Y004390D01*
X023923Y004390D01*
X024147Y004297D01*
X024302Y004143D01*
X024456Y004297D01*
X024681Y004390D01*
X024923Y004390D01*
X025147Y004297D01*
X025302Y004143D01*
X025456Y004297D01*
X025681Y004390D01*
X025923Y004390D01*
X026147Y004297D01*
X026302Y004143D01*
X026456Y004297D01*
X026681Y004390D01*
X026923Y004390D01*
X027147Y004297D01*
X027302Y004143D01*
X027456Y004297D01*
X027681Y004390D01*
X027923Y004390D01*
X028147Y004297D01*
X028319Y004126D01*
X028412Y003901D01*
X028412Y003659D01*
X028319Y003434D01*
X028147Y003263D01*
X028073Y003232D01*
X028073Y002815D01*
X028372Y002516D01*
X028372Y002044D01*
X028038Y001710D01*
X027566Y001710D01*
X027302Y001974D01*
X027038Y001710D01*
X026566Y001710D01*
X026302Y001974D01*
X026038Y001710D01*
X025566Y001710D01*
X025302Y001974D01*
X025038Y001710D01*
X024566Y001710D01*
X024302Y001974D01*
X024038Y001710D01*
X023566Y001710D01*
X023302Y001974D01*
X023038Y001710D01*
X022566Y001710D01*
X022300Y001976D01*
X022300Y001871D01*
X022005Y001871D01*
X022005Y001870D01*
X022300Y001870D01*
X022300Y001597D01*
X028562Y001597D01*
X028562Y001520D02*
X022270Y001520D01*
X022287Y001551D01*
X022300Y001597D01*
X022300Y001756D02*
X022520Y001756D01*
X022362Y001914D02*
X022300Y001914D01*
X021995Y002231D02*
X021995Y002231D01*
X022232Y002390D02*
X021372Y002390D01*
X021340Y002548D02*
X022264Y002548D01*
X022423Y002707D02*
X021181Y002707D01*
X020423Y002707D02*
X020181Y002707D01*
X019423Y002707D02*
X019181Y002707D01*
X018423Y002707D02*
X018181Y002707D01*
X017423Y002707D02*
X017181Y002707D01*
X016423Y002707D02*
X016181Y002707D01*
X015423Y002707D02*
X009748Y002707D01*
X009790Y002548D02*
X011104Y002548D01*
X011086Y002530D02*
X011025Y002383D01*
X011025Y002259D01*
X010921Y002259D01*
X010887Y002293D01*
X010799Y002329D01*
X010104Y002329D01*
X010016Y002293D01*
X009948Y002225D01*
X009911Y002137D01*
X009911Y001742D01*
X009948Y001653D01*
X010016Y001586D01*
X010104Y001549D01*
X010799Y001549D01*
X010887Y001586D01*
X010921Y001619D01*
X011360Y001619D01*
X011488Y001619D01*
X011982Y001619D01*
X012016Y001586D01*
X012104Y001549D01*
X012799Y001549D01*
X012887Y001586D01*
X012955Y001653D01*
X012991Y001742D01*
X012991Y002137D01*
X012955Y002225D01*
X012887Y002293D01*
X012799Y002329D01*
X012104Y002329D01*
X012016Y002293D01*
X011982Y002259D01*
X011823Y002259D01*
X011823Y002383D01*
X011762Y002530D01*
X011650Y002642D01*
X011503Y002703D01*
X011345Y002703D01*
X011198Y002642D01*
X011086Y002530D01*
X011028Y002390D02*
X009814Y002390D01*
X009814Y002231D02*
X009954Y002231D01*
X009911Y002073D02*
X009814Y002073D01*
X009773Y001914D02*
X009911Y001914D01*
X009911Y001756D02*
X009730Y001756D01*
X009660Y001597D02*
X010004Y001597D01*
X010451Y001939D02*
X011424Y001939D01*
X011424Y002304D01*
X011424Y001939D02*
X012451Y001939D01*
X012991Y001914D02*
X015362Y001914D01*
X015232Y002073D02*
X012991Y002073D01*
X012949Y002231D02*
X015232Y002231D01*
X015232Y002390D02*
X011820Y002390D01*
X011744Y002548D02*
X015264Y002548D01*
X015520Y001756D02*
X012991Y001756D01*
X012899Y001597D02*
X020928Y001597D01*
X020520Y001756D02*
X020084Y001756D01*
X020242Y001914D02*
X020362Y001914D01*
X019520Y001756D02*
X019084Y001756D01*
X019242Y001914D02*
X019362Y001914D01*
X018520Y001756D02*
X018084Y001756D01*
X018242Y001914D02*
X018362Y001914D01*
X017520Y001756D02*
X017084Y001756D01*
X017242Y001914D02*
X017362Y001914D01*
X016520Y001756D02*
X016084Y001756D01*
X016242Y001914D02*
X016362Y001914D01*
X012991Y003242D02*
X012991Y003637D01*
X012955Y003725D01*
X012887Y003793D01*
X012799Y003829D01*
X012104Y003829D01*
X012016Y003793D01*
X011982Y003759D01*
X011714Y003759D01*
X011689Y003784D01*
X011543Y003844D01*
X011384Y003844D01*
X011237Y003784D01*
X011213Y003759D01*
X010921Y003759D01*
X010887Y003793D01*
X010799Y003829D01*
X010104Y003829D01*
X010016Y003793D01*
X009948Y003725D01*
X009911Y003637D01*
X009911Y003242D01*
X009948Y003153D01*
X010016Y003086D01*
X010104Y003049D01*
X010799Y003049D01*
X010887Y003086D01*
X010921Y003119D01*
X011225Y003119D01*
X011237Y003107D01*
X011384Y003046D01*
X011543Y003046D01*
X011689Y003107D01*
X011702Y003119D01*
X011982Y003119D01*
X012016Y003086D01*
X012104Y003049D01*
X012799Y003049D01*
X012887Y003086D01*
X012955Y003153D01*
X012991Y003242D01*
X012967Y003183D02*
X022462Y003183D01*
X022462Y003024D02*
X009607Y003024D01*
X009698Y002865D02*
X022462Y002865D01*
X022378Y003341D02*
X012991Y003341D01*
X012991Y003500D02*
X022258Y003500D01*
X022192Y003658D02*
X012983Y003658D01*
X012830Y003817D02*
X022192Y003817D01*
X022223Y003975D02*
X008254Y003975D01*
X008339Y004134D02*
X022293Y004134D01*
X022452Y004292D02*
X008389Y004292D01*
X008389Y004768D02*
X029562Y004768D01*
X029562Y004926D02*
X008339Y004926D01*
X008254Y005085D02*
X009492Y005085D01*
X009504Y005074D02*
X009728Y004981D01*
X009970Y004981D01*
X010195Y005074D01*
X010366Y005245D01*
X010459Y005470D01*
X010459Y005712D01*
X010366Y005937D01*
X010195Y006108D01*
X009970Y006201D01*
X009728Y006201D01*
X009504Y006108D01*
X009332Y005937D01*
X009239Y005712D01*
X009239Y005470D01*
X009332Y005245D01*
X009504Y005074D01*
X009334Y005244D02*
X008130Y005244D01*
X007934Y005402D02*
X009267Y005402D01*
X009239Y005561D02*
X005389Y005561D01*
X005445Y005546D02*
X005168Y005620D01*
X004881Y005620D01*
X004604Y005546D01*
X004355Y005402D01*
X003042Y005402D01*
X003042Y005244D02*
X004196Y005244D01*
X004152Y005199D02*
X004009Y004951D01*
X003934Y004674D01*
X003934Y004386D01*
X004009Y004109D01*
X004152Y003861D01*
X004355Y003658D01*
X004604Y003514D01*
X004881Y003440D01*
X005168Y003440D01*
X005445Y003514D01*
X005694Y003658D01*
X005720Y003658D01*
X005694Y003658D02*
X005897Y003861D01*
X006040Y004109D01*
X006114Y004386D01*
X006114Y004674D01*
X006040Y004951D01*
X005897Y005199D01*
X005694Y005402D01*
X006839Y005402D01*
X006644Y005244D02*
X005852Y005244D01*
X005962Y005085D02*
X006519Y005085D01*
X006434Y004926D02*
X006046Y004926D01*
X006089Y004768D02*
X006384Y004768D01*
X006114Y004609D02*
X007306Y004609D01*
X007306Y004451D02*
X006114Y004451D01*
X006089Y004292D02*
X006384Y004292D01*
X006434Y004134D02*
X006047Y004134D01*
X005963Y003975D02*
X006519Y003975D01*
X006643Y003817D02*
X005853Y003817D01*
X005484Y003500D02*
X005390Y003500D01*
X005329Y003341D02*
X003042Y003341D01*
X003042Y003183D02*
X005237Y003183D01*
X005169Y003024D02*
X003042Y003024D01*
X003042Y002865D02*
X005127Y002865D01*
X005115Y002707D02*
X003042Y002707D01*
X003042Y002548D02*
X005115Y002548D01*
X005155Y002390D02*
X003042Y002390D01*
X003042Y002231D02*
X005206Y002231D01*
X005297Y002073D02*
X003042Y002073D01*
X003042Y001914D02*
X005429Y001914D01*
X005626Y001756D02*
X003042Y001756D01*
X003042Y001597D02*
X006034Y001597D01*
X006377Y001597D02*
X006967Y001597D01*
X006897Y001756D02*
X006785Y001756D01*
X007082Y003341D02*
X007269Y003341D01*
X007454Y003500D02*
X006927Y003500D01*
X006838Y003658D02*
X006690Y003658D01*
X007307Y003658D02*
X007466Y003658D01*
X007466Y003817D02*
X007307Y003817D01*
X007307Y003975D02*
X007466Y003975D01*
X007466Y004134D02*
X007307Y004134D01*
X007307Y004292D02*
X007466Y004292D01*
X007467Y004451D02*
X029562Y004451D01*
X029562Y004609D02*
X007467Y004609D01*
X007466Y004768D02*
X007307Y004768D01*
X007307Y004926D02*
X007466Y004926D01*
X007466Y005085D02*
X007307Y005085D01*
X007307Y005244D02*
X007466Y005244D01*
X007466Y005402D02*
X007307Y005402D01*
X007794Y006010D02*
X007835Y005987D01*
X007880Y005974D01*
X008204Y005974D01*
X008204Y006924D01*
X008364Y006924D01*
X008364Y005974D01*
X008688Y005974D01*
X008734Y005987D01*
X008775Y006010D01*
X008808Y006044D01*
X008832Y006085D01*
X008844Y006131D01*
X008844Y006924D01*
X008364Y006924D01*
X008364Y007084D01*
X008844Y007084D01*
X008844Y007878D01*
X008832Y007924D01*
X008808Y007965D01*
X008775Y007998D01*
X008734Y008022D01*
X008688Y008034D01*
X008364Y008034D01*
X008364Y007085D01*
X008204Y007085D01*
X008204Y008034D01*
X007880Y008034D01*
X007835Y008022D01*
X007794Y007998D01*
X007760Y007965D01*
X007736Y007924D01*
X007724Y007878D01*
X007724Y007084D01*
X008204Y007084D01*
X008204Y006924D01*
X007724Y006924D01*
X007724Y006131D01*
X007736Y006085D01*
X007760Y006044D01*
X007794Y006010D01*
X007768Y006036D02*
X003042Y006036D01*
X003042Y005878D02*
X009308Y005878D01*
X009242Y005719D02*
X003042Y005719D01*
X003042Y005561D02*
X004660Y005561D01*
X004355Y005402D02*
X004152Y005199D01*
X004086Y005085D02*
X003042Y005085D01*
X003042Y004926D02*
X004002Y004926D01*
X003960Y004768D02*
X003042Y004768D01*
X003042Y004609D02*
X003934Y004609D01*
X003934Y004451D02*
X003042Y004451D01*
X003042Y004292D02*
X003960Y004292D01*
X004002Y004134D02*
X003042Y004134D01*
X003042Y003975D02*
X004086Y003975D01*
X004196Y003817D02*
X003042Y003817D01*
X003042Y003658D02*
X004355Y003658D01*
X004658Y003500D02*
X003042Y003500D01*
X005445Y005546D02*
X005694Y005402D01*
X007724Y006195D02*
X003042Y006195D01*
X003042Y006353D02*
X007724Y006353D01*
X007724Y006512D02*
X003042Y006512D01*
X003042Y006670D02*
X007724Y006670D01*
X007724Y006829D02*
X003042Y006829D01*
X003042Y006988D02*
X008204Y006988D01*
X008204Y007146D02*
X008364Y007146D01*
X008364Y006988D02*
X012556Y006988D01*
X012556Y006924D02*
X012077Y006924D01*
X012077Y006131D01*
X012089Y006085D01*
X012112Y006044D01*
X012146Y006010D01*
X012187Y005987D01*
X012233Y005974D01*
X012557Y005974D01*
X012557Y006924D01*
X012716Y006924D01*
X012716Y005974D01*
X013040Y005974D01*
X013086Y005987D01*
X013127Y006010D01*
X013161Y006044D01*
X013184Y006085D01*
X013196Y006131D01*
X013196Y006924D01*
X012717Y006924D01*
X012717Y007084D01*
X013196Y007084D01*
X013196Y007878D01*
X013184Y007924D01*
X013161Y007965D01*
X013127Y007998D01*
X013086Y008022D01*
X013040Y008034D01*
X012716Y008034D01*
X012716Y007085D01*
X012557Y007085D01*
X012557Y008034D01*
X012233Y008034D01*
X012187Y008022D01*
X012146Y007998D01*
X012112Y007965D01*
X012089Y007924D01*
X012077Y007878D01*
X012077Y007084D01*
X012556Y007084D01*
X012556Y006924D01*
X012557Y006829D02*
X012716Y006829D01*
X012716Y006670D02*
X012557Y006670D01*
X012557Y006512D02*
X012716Y006512D01*
X012716Y006353D02*
X012557Y006353D01*
X012557Y006195D02*
X012716Y006195D01*
X012716Y006036D02*
X012557Y006036D01*
X012120Y006036D02*
X010266Y006036D01*
X010391Y005878D02*
X015829Y005878D01*
X015844Y005863D02*
X015990Y005802D01*
X016149Y005802D01*
X016296Y005863D01*
X016408Y005975D01*
X016469Y006122D01*
X016469Y006181D01*
X017651Y006181D01*
X017739Y006217D01*
X017806Y006285D01*
X017843Y006373D01*
X017843Y007067D01*
X024311Y007067D01*
X024239Y006893D01*
X024239Y006651D01*
X024332Y006427D01*
X024504Y006255D01*
X024728Y006162D01*
X024970Y006162D01*
X025195Y006255D01*
X025366Y006427D01*
X025459Y006651D01*
X025459Y006893D01*
X025387Y007067D01*
X025878Y007067D01*
X025814Y006913D01*
X025814Y006670D01*
X025907Y006446D01*
X026078Y006275D01*
X026303Y006182D01*
X026545Y006182D01*
X026769Y006275D01*
X026941Y006446D01*
X027034Y006670D01*
X027034Y006913D01*
X026970Y007067D01*
X027680Y007067D01*
X027680Y005248D01*
X027717Y005160D01*
X027784Y005092D01*
X027872Y005056D01*
X027968Y005056D01*
X029562Y005056D01*
X029562Y003379D01*
X028598Y002416D01*
X028562Y002328D01*
X028562Y002232D01*
X028562Y001520D01*
X028562Y001756D02*
X028084Y001756D01*
X028242Y001914D02*
X028562Y001914D01*
X028562Y002073D02*
X028372Y002073D01*
X028372Y002231D02*
X028562Y002231D01*
X028588Y002390D02*
X028372Y002390D01*
X028340Y002548D02*
X028731Y002548D01*
X028889Y002707D02*
X028181Y002707D01*
X028073Y002865D02*
X029048Y002865D01*
X029206Y003024D02*
X028073Y003024D01*
X028073Y003183D02*
X029365Y003183D01*
X029524Y003341D02*
X028226Y003341D01*
X028346Y003500D02*
X029562Y003500D01*
X029562Y003658D02*
X028412Y003658D01*
X028412Y003817D02*
X029562Y003817D01*
X029562Y003975D02*
X028381Y003975D01*
X028311Y004134D02*
X029562Y004134D01*
X029562Y004292D02*
X028152Y004292D01*
X027452Y004292D02*
X027152Y004292D01*
X026452Y004292D02*
X026152Y004292D01*
X025802Y003780D02*
X025784Y003741D01*
X025784Y002313D01*
X025802Y002280D01*
X026242Y001914D02*
X026362Y001914D01*
X026520Y001756D02*
X026084Y001756D01*
X025520Y001756D02*
X025084Y001756D01*
X025242Y001914D02*
X025362Y001914D01*
X024802Y002280D02*
X024800Y002313D01*
X024800Y003741D01*
X024802Y003780D01*
X025152Y004292D02*
X025452Y004292D01*
X024452Y004292D02*
X024152Y004292D01*
X023452Y004292D02*
X023152Y004292D01*
X022802Y003780D02*
X022782Y003741D01*
X022782Y002313D01*
X022802Y002280D01*
X023242Y001914D02*
X023362Y001914D01*
X023520Y001756D02*
X023084Y001756D01*
X023802Y002280D02*
X023816Y002313D01*
X023816Y003741D01*
X023802Y003780D01*
X024242Y001914D02*
X024362Y001914D01*
X024520Y001756D02*
X024084Y001756D01*
X026802Y002280D02*
X026818Y002313D01*
X026867Y002363D01*
X026867Y003691D01*
X026818Y003741D01*
X026802Y003780D01*
X027753Y003691D02*
X027802Y003741D01*
X027802Y003780D01*
X027753Y003691D02*
X027753Y002363D01*
X027802Y002313D01*
X027802Y002280D01*
X027362Y001914D02*
X027242Y001914D01*
X027084Y001756D02*
X027520Y001756D01*
X027801Y005085D02*
X010206Y005085D01*
X010364Y005244D02*
X027682Y005244D01*
X027680Y005402D02*
X010431Y005402D01*
X010459Y005561D02*
X027680Y005561D01*
X027680Y005719D02*
X010456Y005719D01*
X009985Y006195D02*
X012077Y006195D01*
X012077Y006353D02*
X008844Y006353D01*
X008844Y006195D02*
X009713Y006195D01*
X009432Y006036D02*
X008801Y006036D01*
X008364Y006036D02*
X008204Y006036D01*
X008204Y006195D02*
X008364Y006195D01*
X008364Y006353D02*
X008204Y006353D01*
X008204Y006512D02*
X008364Y006512D01*
X008364Y006670D02*
X008204Y006670D01*
X008204Y006829D02*
X008364Y006829D01*
X008844Y006829D02*
X012077Y006829D01*
X012077Y006670D02*
X008844Y006670D01*
X008844Y006512D02*
X012077Y006512D01*
X012717Y006988D02*
X014920Y006988D01*
X014889Y006913D02*
X014889Y006670D01*
X013196Y006670D01*
X013196Y006512D02*
X014954Y006512D01*
X014982Y006446D02*
X015153Y006275D01*
X015377Y006182D01*
X015620Y006182D01*
X015671Y006203D01*
X015671Y006122D01*
X015731Y005975D01*
X015844Y005863D01*
X015706Y006036D02*
X013153Y006036D01*
X013196Y006195D02*
X015346Y006195D01*
X015651Y006195D02*
X015671Y006195D01*
X015074Y006353D02*
X013196Y006353D01*
X013196Y006829D02*
X014889Y006829D01*
X014889Y006913D02*
X014982Y007137D01*
X015146Y007302D01*
X015056Y007339D01*
X014944Y007452D01*
X014883Y007598D01*
X014883Y007757D01*
X014904Y007808D01*
X013939Y008773D01*
X013939Y008483D01*
X013547Y008090D01*
X012992Y008090D01*
X012599Y008483D01*
X012599Y008773D01*
X012489Y008775D01*
X012477Y008780D01*
X011915Y008780D01*
X011915Y008740D01*
X012504Y008740D01*
X012504Y008712D01*
X012489Y008617D01*
X012460Y008526D01*
X012416Y008441D01*
X012360Y008363D01*
X012292Y008295D01*
X012214Y008239D01*
X012129Y008195D01*
X012037Y008165D01*
X011942Y008150D01*
X011914Y008150D01*
X011914Y008740D01*
X011874Y008740D01*
X011284Y008740D01*
X011284Y008712D01*
X011299Y008617D01*
X011329Y008526D01*
X011373Y008441D01*
X011429Y008363D01*
X011497Y008295D01*
X011575Y008239D01*
X011660Y008195D01*
X011752Y008165D01*
X011846Y008150D01*
X011874Y008150D01*
X011874Y008740D01*
X011874Y008780D01*
X011284Y008780D01*
X011284Y008808D01*
X011299Y008903D01*
X011329Y008994D01*
X011373Y009080D01*
X011429Y009158D01*
X011497Y009226D01*
X011575Y009282D01*
X011660Y009326D01*
X011752Y009355D01*
X011846Y009370D01*
X011874Y009370D01*
X011874Y008781D01*
X011914Y008781D01*
X011914Y009370D01*
X011942Y009370D01*
X012027Y009357D01*
X012029Y009516D01*
X008874Y009526D01*
X008874Y009430D01*
X009196Y009430D01*
X009589Y009038D01*
X009589Y008483D01*
X009196Y008090D01*
X008641Y008090D01*
X008249Y008483D01*
X008249Y008773D01*
X008167Y008773D01*
X008148Y008780D01*
X007564Y008780D01*
X007564Y008740D01*
X007564Y008150D01*
X007592Y008150D01*
X007687Y008165D01*
X007778Y008195D01*
X007864Y008239D01*
X007941Y008295D01*
X008009Y008363D01*
X008066Y008441D01*
X008109Y008526D01*
X008139Y008617D01*
X008154Y008712D01*
X008154Y008740D01*
X007564Y008740D01*
X007524Y008740D01*
X007524Y008150D01*
X007496Y008150D01*
X007401Y008165D01*
X007310Y008195D01*
X007224Y008239D01*
X007147Y008295D01*
X007079Y008363D01*
X007022Y008441D01*
X006979Y008526D01*
X006949Y008617D01*
X006934Y008712D01*
X006934Y008740D01*
X007524Y008740D01*
X007524Y008780D01*
X006934Y008780D01*
X006934Y008808D01*
X006949Y008903D01*
X006979Y008994D01*
X007022Y009080D01*
X007079Y009158D01*
X007147Y009226D01*
X007128Y009207D02*
X003042Y009207D01*
X003042Y009049D02*
X007006Y009049D01*
X006947Y008890D02*
X004837Y008890D01*
X005001Y008732D02*
X006934Y008732D01*
X006963Y008573D02*
X005075Y008573D01*
X005070Y008256D02*
X007200Y008256D01*
X007041Y008414D02*
X004566Y008414D01*
X004526Y008414D02*
X003566Y008414D01*
X003566Y008402D02*
X003566Y008442D01*
X003996Y008442D01*
X004526Y008442D01*
X004526Y008402D01*
X003996Y008402D01*
X003566Y008402D01*
X003566Y008256D02*
X003526Y008256D01*
X003526Y008097D02*
X003566Y008097D01*
X003566Y007939D02*
X003526Y007939D01*
X003282Y007939D02*
X003042Y007939D01*
X003042Y008097D02*
X003102Y008097D01*
X003042Y007780D02*
X007724Y007780D01*
X007724Y007622D02*
X003042Y007622D01*
X003042Y007463D02*
X007724Y007463D01*
X007724Y007305D02*
X003042Y007305D01*
X003042Y007146D02*
X007724Y007146D01*
X008204Y007305D02*
X008364Y007305D01*
X008364Y007463D02*
X008204Y007463D01*
X008204Y007622D02*
X008364Y007622D01*
X008364Y007780D02*
X008204Y007780D01*
X008204Y007939D02*
X008364Y007939D01*
X008634Y008097D02*
X004990Y008097D01*
X004810Y007939D02*
X007745Y007939D01*
X007888Y008256D02*
X008476Y008256D01*
X008317Y008414D02*
X008047Y008414D01*
X008124Y008573D02*
X008249Y008573D01*
X008249Y008732D02*
X008154Y008732D01*
X007564Y008732D02*
X007524Y008732D01*
X007524Y008890D02*
X007564Y008890D01*
X007564Y009049D02*
X007524Y009049D01*
X007524Y009207D02*
X007564Y009207D01*
X007564Y009366D02*
X007524Y009366D01*
X007467Y009366D02*
X003042Y009366D01*
X003042Y009524D02*
X007694Y009524D01*
X007694Y009366D02*
X007621Y009366D01*
X007564Y008573D02*
X007524Y008573D01*
X007524Y008414D02*
X007564Y008414D01*
X007564Y008256D02*
X007524Y008256D01*
X008823Y007939D02*
X012097Y007939D01*
X012077Y007780D02*
X008844Y007780D01*
X008844Y007622D02*
X012077Y007622D01*
X012077Y007463D02*
X008844Y007463D01*
X008844Y007305D02*
X012077Y007305D01*
X012077Y007146D02*
X008844Y007146D01*
X009204Y008097D02*
X012985Y008097D01*
X012826Y008256D02*
X012238Y008256D01*
X012397Y008414D02*
X012668Y008414D01*
X012599Y008573D02*
X012475Y008573D01*
X012504Y008732D02*
X012599Y008732D01*
X011914Y008732D02*
X011874Y008732D01*
X011874Y008890D02*
X011914Y008890D01*
X011914Y009049D02*
X011874Y009049D01*
X011874Y009207D02*
X011914Y009207D01*
X011914Y009366D02*
X011874Y009366D01*
X011818Y009366D02*
X009261Y009366D01*
X009420Y009207D02*
X011479Y009207D01*
X011357Y009049D02*
X009578Y009049D01*
X009589Y008890D02*
X011297Y008890D01*
X011284Y008732D02*
X009589Y008732D01*
X009589Y008573D02*
X011314Y008573D01*
X011392Y008414D02*
X009521Y008414D01*
X009362Y008256D02*
X011551Y008256D01*
X011874Y008256D02*
X011914Y008256D01*
X011914Y008414D02*
X011874Y008414D01*
X011874Y008573D02*
X011914Y008573D01*
X011971Y009366D02*
X012027Y009366D01*
X013554Y008097D02*
X014615Y008097D01*
X014457Y008256D02*
X013712Y008256D01*
X013871Y008414D02*
X014298Y008414D01*
X014140Y008573D02*
X013939Y008573D01*
X013939Y008732D02*
X013981Y008732D01*
X014774Y007939D02*
X013176Y007939D01*
X013196Y007780D02*
X014893Y007780D01*
X014883Y007622D02*
X013196Y007622D01*
X013196Y007463D02*
X014939Y007463D01*
X015140Y007305D02*
X013196Y007305D01*
X013196Y007146D02*
X014990Y007146D01*
X014889Y006670D02*
X014982Y006446D01*
X016310Y005878D02*
X027680Y005878D01*
X027680Y006036D02*
X016433Y006036D01*
X017685Y006195D02*
X024649Y006195D01*
X024405Y006353D02*
X017835Y006353D01*
X017843Y006512D02*
X024297Y006512D01*
X024239Y006670D02*
X017843Y006670D01*
X017843Y006829D02*
X024239Y006829D01*
X024278Y006988D02*
X017843Y006988D01*
X012716Y007146D02*
X012557Y007146D01*
X012557Y007305D02*
X012716Y007305D01*
X012716Y007463D02*
X012557Y007463D01*
X012557Y007622D02*
X012716Y007622D01*
X012716Y007780D02*
X012557Y007780D01*
X012557Y007939D02*
X012716Y007939D01*
X009435Y009524D02*
X008874Y009524D01*
X004566Y008890D02*
X004526Y008890D01*
X004526Y008732D02*
X004566Y008732D01*
X004566Y008573D02*
X004526Y008573D01*
X004255Y008890D02*
X003837Y008890D01*
X004001Y008732D02*
X004091Y008732D01*
X003566Y008732D02*
X003526Y008732D01*
X003526Y008890D02*
X003566Y008890D01*
X003255Y008890D02*
X003042Y008890D01*
X003042Y008732D02*
X003091Y008732D01*
X003526Y008573D02*
X003566Y008573D01*
X003990Y008097D02*
X004102Y008097D01*
X004282Y007939D02*
X003810Y007939D01*
X004526Y007939D02*
X004566Y007939D01*
X004566Y008097D02*
X004526Y008097D01*
X004526Y008256D02*
X004566Y008256D01*
X008130Y003817D02*
X010073Y003817D01*
X009920Y003658D02*
X008899Y003658D01*
X009174Y003500D02*
X009911Y003500D01*
X009911Y003341D02*
X009358Y003341D01*
X009515Y003183D02*
X009936Y003183D01*
X010451Y003439D02*
X011457Y003439D01*
X011463Y003445D01*
X011469Y003439D01*
X012451Y003439D01*
X012073Y003817D02*
X011610Y003817D01*
X011317Y003817D02*
X010830Y003817D01*
X010899Y001597D02*
X012004Y001597D01*
X025049Y006195D02*
X026271Y006195D01*
X026577Y006195D02*
X027680Y006195D01*
X027680Y006353D02*
X026848Y006353D01*
X026968Y006512D02*
X027680Y006512D01*
X027680Y006670D02*
X027034Y006670D01*
X027034Y006829D02*
X027680Y006829D01*
X027680Y006988D02*
X027003Y006988D01*
X025845Y006988D02*
X025420Y006988D01*
X025459Y006829D02*
X025814Y006829D01*
X025814Y006670D02*
X025459Y006670D01*
X025402Y006512D02*
X025880Y006512D01*
X026000Y006353D02*
X025293Y006353D01*
X004377Y019804D02*
X004377Y019823D01*
X003747Y019823D01*
D143*
X016601Y018551D02*
X016601Y017943D01*
X016975Y017943D02*
X016975Y018551D01*
X017349Y018551D02*
X017349Y017943D01*
X021503Y014233D02*
X022585Y014233D01*
X022723Y014233D01*
X017347Y007400D02*
X017347Y006775D01*
X016973Y006775D02*
X016973Y007400D01*
X016599Y007382D02*
X016599Y007400D01*
X016599Y007382D02*
X016599Y006775D01*
D144*
X016952Y009154D02*
X015499Y009154D01*
X016952Y009154D02*
X016973Y009175D01*
X018245Y010237D02*
X018237Y010389D01*
X019172Y010389D02*
X019170Y010280D01*
X019190Y010187D01*
X019219Y010178D01*
X019812Y010389D02*
X019822Y009945D01*
X021650Y010434D02*
X021788Y010296D01*
X022241Y009902D01*
X025046Y009032D02*
X025046Y009006D01*
X026424Y007599D02*
X026424Y006792D01*
X022585Y014233D02*
X022472Y014346D01*
X022472Y015050D01*
X020757Y015271D02*
X020755Y015355D01*
X019820Y015325D02*
X019812Y015271D01*
X019180Y015355D02*
X019172Y015271D01*
X018237Y015271D02*
X018225Y015315D01*
X016977Y016230D02*
X016966Y016241D01*
X015499Y016241D01*
D145*
X018983Y016260D03*
X019278Y016260D03*
X019278Y015926D03*
X018983Y015926D03*
X020577Y015926D03*
X020577Y016280D03*
X020932Y016280D03*
X020932Y015926D03*
X020912Y009730D03*
X020912Y009395D03*
X020558Y009395D03*
X020558Y009730D03*
X019276Y009730D03*
X018961Y009730D03*
X018961Y009395D03*
X019276Y009395D03*
D146*
X019180Y009587D02*
X019180Y010256D01*
X019822Y009945D02*
X019822Y009339D01*
X020757Y009550D02*
X020757Y010389D01*
X018245Y010237D02*
X018245Y009695D01*
X018225Y015315D02*
X018225Y015876D01*
X019180Y016063D02*
X019180Y015355D01*
X019820Y015325D02*
X019820Y016782D01*
X020755Y016142D02*
X020755Y015355D01*
D147*
X020932Y015926D02*
X020932Y016280D01*
X020577Y016280D01*
X020577Y015926D01*
X020755Y016142D02*
X020577Y016280D01*
X019278Y016280D02*
X019278Y015926D01*
X018983Y015926D01*
X018983Y016260D01*
X019180Y016063D01*
X019278Y016280D02*
X018983Y016280D01*
X019180Y010256D02*
X019219Y010138D01*
X019219Y010178D01*
X019278Y009745D02*
X019271Y009686D01*
X019278Y009745D02*
X019180Y009587D01*
X019278Y009745D02*
X019278Y009390D01*
X018963Y009390D01*
X018963Y009745D01*
X020558Y009730D02*
X020558Y009745D01*
X020912Y009745D01*
X020912Y009390D01*
X020558Y009390D01*
X020558Y009730D01*
X020710Y009548D02*
X020558Y009395D01*
X020710Y009548D02*
X020755Y009548D01*
X020757Y009550D01*
X019022Y006949D02*
X018432Y006949D01*
D148*
X017134Y009175D02*
X016973Y009175D01*
X017134Y009175D02*
X017467Y009508D01*
X017467Y010342D01*
X017482Y010337D01*
X017482Y010586D01*
X017999Y011103D01*
X018530Y011103D01*
X018707Y010926D01*
X022620Y011885D02*
X022861Y012186D01*
X022975Y012212D02*
X023666Y012212D01*
X024967Y011004D02*
X025361Y011162D01*
X025951Y011162D01*
X018707Y014725D02*
X018609Y014646D01*
X017743Y014646D01*
X017290Y015099D01*
X017290Y015315D01*
X017270Y015315D01*
X017269Y015313D01*
X017270Y015434D01*
X017270Y016201D01*
X017251Y016221D01*
X016995Y016221D01*
X016977Y016230D01*
X020802Y002280D02*
X021156Y001882D01*
X021640Y001871D01*
M02*
