%
M48
M72
T01C0.0118
T02C0.0197
T03C0.0236
T04C0.0394
T05C0.0400
T06C0.0460
T07C0.0472
T08C0.1180
T09C0.1260
%
T01
X11424Y2304
X11463Y3445
X16070Y6201
X16599Y7400
X16973Y7400
X17347Y7400
X18432Y6949
X15282Y7678
X14554Y10040
X13451Y10945
X13806Y12697
X14652Y13052
X15646Y13534
X15646Y14420
X16522Y14597
X16463Y13997
X16540Y12873
X17997Y12695
X18018Y13091
X18381Y13689
X18991Y13158
X18698Y12491
X18154Y12302
X18154Y11514
X18961Y11514
X19355Y12302
X20263Y12205
X20300Y12813
X20871Y12833
X21266Y13091
X21109Y13445
X20595Y13719
X20162Y14270
X20509Y14577
X19493Y14270
X19158Y13896
X18698Y14252
X18007Y14300
X19788Y13739
X20890Y12203
X21266Y11871
X20930Y11514
X20123Y11514
X21650Y10434
X22723Y13485
X17349Y17943
X16975Y17943
X16601Y17943
X14140Y18977
X14062Y16319
X13068Y15650
X12310Y14863
X13068Y14617
X8058Y14489
X8058Y15079
X7605Y15178
X8058Y15867
X7467Y16457
X6385Y16556
X7566Y17934
X7999Y18209
X6385Y19311
X6385Y20768
X3747Y19823
X3826Y17225
X3826Y14863
X4928Y14626
X6385Y13800
X7605Y13760
X5637Y12461
X5558Y12067
X5046Y11615
X4928Y10611
X6148Y10138
X6739Y11615
X5440Y12934
X4534Y13406
T02
X18983Y15926
X19278Y15926
X19278Y16260
X18983Y16260
X20577Y16280
X20577Y15926
X20932Y15926
X20932Y16280
X20912Y9730
X20912Y9395
X20558Y9395
X20558Y9730
X19276Y9730
X18961Y9730
X18961Y9395
X19276Y9395
T03
X12617Y9363
X8284Y9363
T04
X15802Y2280
X16802Y2280
X17802Y2280
X18802Y2280
X19802Y2280
X20802Y2280
X22802Y2280
X23802Y2280
X24802Y2280
X25802Y2280
X26802Y2280
X27802Y2280
X27802Y21280
X26802Y21280
X25802Y21280
X24802Y21280
X23802Y21280
X22802Y21280
X21802Y21280
X20802Y21280
X19202Y21280
X18202Y21280
X17202Y21280
X16202Y21280
X15202Y21280
X14202Y21280
X13202Y21280
X12202Y21280
T05
X15499Y18642
X17174Y19780
X18174Y19780
X19174Y19780
X20802Y19780
X21802Y19780
X22802Y19780
X23802Y19780
X24802Y19780
X25802Y19780
X26424Y14272
X24849Y14272
X15499Y16241
X10883Y16300
X10883Y17300
X10883Y18300
X10883Y15300
X10883Y14300
X15499Y9154
X13269Y8760
X11894Y8760
X8919Y8760
X7544Y8760
X4546Y8422
X3546Y8422
X9849Y5591
X15499Y6792
X22802Y3780
X23802Y3780
X24802Y3780
X25802Y3780
X26802Y3780
X27802Y3780
X26424Y6792
X24849Y6772
T06
X25046Y9032
X25046Y10032
X25046Y11032
X25046Y12032
T07
X26005Y12569
X26005Y11191
X26005Y9813
X26005Y8436
T08
X5024Y4530
X6205Y2680
X7387Y4530
T09
X8302Y2280
X28802Y15280
X8802Y21280
M30
