G75*
G70*
%OFA0B0*%
%FSLAX24Y24*%
%IPPOS*%
%LPD*%
%AMOC8*
5,1,8,0,0,1.08239X$1,22.5*
%
%ADD10C,0.1340*%
%ADD11OC8,0.0740*%
%ADD12C,0.1780*%
%ADD13R,0.0880X0.0880*%
%ADD14C,0.0880*%
%ADD15C,0.0820*%
%ADD16C,0.0780*%
%ADD17R,0.0780X0.0780*%
%ADD18C,0.0940*%
%ADD19OC8,0.0940*%
D10*
X008302Y002280D03*
X028802Y015280D03*
X008802Y021280D03*
D11*
X012202Y021280D03*
X013202Y021280D03*
X014202Y021280D03*
X015202Y021280D03*
X016202Y021280D03*
X017202Y021280D03*
X018202Y021280D03*
X019202Y021280D03*
X020802Y021280D03*
X021802Y021280D03*
X022802Y021280D03*
X023802Y021280D03*
X024802Y021280D03*
X025802Y021280D03*
X026802Y021280D03*
X027802Y021280D03*
X027802Y002280D03*
X026802Y002280D03*
X025802Y002280D03*
X024802Y002280D03*
X023802Y002280D03*
X022802Y002280D03*
X020802Y002280D03*
X019802Y002280D03*
X018802Y002280D03*
X017802Y002280D03*
X016802Y002280D03*
X015802Y002280D03*
D12*
X005024Y004530D03*
X006205Y002680D03*
X007387Y004530D03*
D13*
X026005Y012569D03*
D14*
X026005Y011191D03*
X026005Y009813D03*
X026005Y008436D03*
D15*
X026424Y006792D03*
X024849Y006772D03*
X024802Y003780D03*
X023802Y003780D03*
X022802Y003780D03*
X025802Y003780D03*
X026802Y003780D03*
X027802Y003780D03*
X015499Y006792D03*
X015499Y009154D03*
X009849Y005591D03*
X004546Y008422D03*
X003546Y008422D03*
X010883Y014300D03*
X010883Y015300D03*
X010883Y016300D03*
X010883Y017300D03*
X010883Y018300D03*
X015499Y018642D03*
X017174Y019780D03*
X018174Y019780D03*
X019174Y019780D03*
X020802Y019780D03*
X021802Y019780D03*
X022802Y019780D03*
X023802Y019780D03*
X024802Y019780D03*
X025802Y019780D03*
X026424Y014272D03*
X024849Y014272D03*
X015499Y016241D03*
D16*
X025046Y011032D03*
X025046Y010032D03*
X025046Y009032D03*
D17*
X025046Y012032D03*
D18*
X011894Y008760D03*
X007544Y008760D03*
D19*
X008919Y008760D03*
X013269Y008760D03*
M02*
