G75*
G70*
%OFA0B0*%
%FSLAX24Y24*%
%IPPOS*%
%LPD*%
%AMOC8*
5,1,8,0,0,1.08239X$1,22.5*
%
%ADD10R,0.0197X0.0787*%
%ADD11R,0.0551X0.0787*%
%ADD12R,0.0787X0.0197*%
%ADD13R,0.0276X0.0236*%
%ADD14R,0.0760X0.1700*%
%ADD15R,0.0315X0.0315*%
%ADD16R,0.1260X0.0709*%
%ADD17R,0.0600X0.0300*%
%ADD18R,0.0236X0.0394*%
%ADD19R,0.0512X0.0630*%
D10*
X018707Y010389D03*
X020282Y010389D03*
X021227Y010389D03*
X021227Y015271D03*
X020282Y015271D03*
X018707Y015271D03*
D11*
X018237Y015271D03*
X019172Y015271D03*
X019812Y015271D03*
X020757Y015271D03*
X020757Y010389D03*
X019812Y010389D03*
X019172Y010389D03*
X018237Y010389D03*
D12*
X017211Y011255D03*
X017211Y011570D03*
X017211Y011885D03*
X017211Y012200D03*
X017211Y012515D03*
X017211Y012830D03*
X017211Y013145D03*
X017211Y013460D03*
X017211Y013775D03*
X017211Y014090D03*
X017211Y014405D03*
X022093Y014405D03*
X022093Y014090D03*
X022093Y013775D03*
X022093Y013460D03*
X022093Y013145D03*
X022093Y012830D03*
X022093Y012515D03*
X022093Y012200D03*
X022093Y011885D03*
X022093Y011570D03*
X022093Y011255D03*
D13*
X004392Y011701D03*
X004392Y010560D03*
X004392Y012926D03*
X004392Y014067D03*
X004377Y015276D03*
X004377Y016418D03*
X004377Y017638D03*
X004377Y018780D03*
X004377Y020000D03*
X004377Y021142D03*
D14*
X008284Y007004D03*
X008284Y010504D03*
X012637Y010504D03*
X012637Y007004D03*
D15*
X016882Y010337D03*
X017482Y010337D03*
X016068Y014124D03*
X016068Y014724D03*
X016669Y015313D03*
X017269Y015313D03*
X021872Y015050D03*
X022472Y015050D03*
X023660Y013564D03*
X023660Y012964D03*
X023668Y012210D03*
X023668Y011610D03*
X022975Y011612D03*
X022975Y012212D03*
X022974Y010827D03*
X023574Y010827D03*
X007133Y012791D03*
X007133Y013391D03*
X007133Y014169D03*
X007133Y014769D03*
X007133Y015547D03*
X007133Y016147D03*
X007133Y016925D03*
X007133Y017525D03*
X007133Y018303D03*
X007133Y018903D03*
X005951Y018903D03*
X005951Y018303D03*
X005951Y017525D03*
X005951Y016925D03*
X005951Y016147D03*
X005951Y015547D03*
X005951Y014769D03*
X005951Y014169D03*
X005951Y013391D03*
X005951Y012791D03*
X005951Y012013D03*
X005951Y011413D03*
X005700Y010117D03*
X005100Y010117D03*
X005951Y019681D03*
X005951Y020281D03*
X005951Y021059D03*
X005951Y021659D03*
D16*
X016977Y018630D03*
X016977Y016230D03*
X016973Y009175D03*
X016973Y006775D03*
D17*
X012451Y003439D03*
X012451Y001939D03*
X010451Y001939D03*
X010451Y003439D03*
D18*
X005420Y013524D03*
X004908Y013524D03*
X005164Y014233D03*
X004908Y015886D03*
X005420Y015886D03*
X005164Y016595D03*
X004908Y018249D03*
X005420Y018249D03*
X005164Y018957D03*
X004908Y020611D03*
X005420Y020611D03*
X005164Y021319D03*
D19*
X022241Y009902D03*
X023441Y009902D03*
M02*
